<?xml version="1.0" encoding="UTF-8"?>
<svg id="Layer_1" data-name="Layer 1" xmlns="http://www.w3.org/2000/svg" viewBox="0 0 36.18 36.18">
  <defs>
    <style>
      .cls-1, .cls-2, .cls-3 {
        stroke-width: 0px;
      }

      .cls-2 {
        fill: #fff;
      }

      .cls-3 {
        fill: #711db0;
      }
    </style>
  </defs>
  <path class="cls-2" d="m0,36.18V0h36.18v36.18H0ZM17.9,3.24c-3.22,0-6.44-.02-9.66,0-2.85.02-5.18,2.31-5.21,5.15-.04,3.73-.04,7.45,0,11.18.02,2.37,1.67,4.38,3.97,4.97,1.27.33,2.57.2,3.86.16.57-.02.9-.63.68-1.15-.16-.4-.49-.55-.9-.55-.74,0-1.48,0-2.22,0-2.17-.04-3.69-1.58-3.69-3.75,0-3.51,0-7.03,0-10.54,0-.33.03-.66.11-.98.41-1.73,1.85-2.79,3.79-2.79,6.17,0,12.34,0,18.51,0,.41,0,.83.04,1.22.13,1.67.39,3.12,1.84,3.03,3.81-.03.66,0,1.32,0,1.97,0,.57.35.96.85.97.5,0,.86-.38.86-.95,0-.78,0-1.55,0-2.33,0-1.02-.3-1.95-.89-2.77-1.15-1.62-2.74-2.5-4.72-2.53-3.2-.04-6.39-.01-9.59-.01Zm2.48,22.68c-.14.09-.24.16-.35.23-1.31.79-2.62,1.57-3.92,2.36-.49.3-.64.75-.41,1.19.24.47.78.59,1.3.28,1.61-.97,3.22-1.93,4.83-2.91.18-.11.3-.1.47,0,1.34.82,2.69,1.63,4.04,2.44.16.1.25.19.25.41.04,2,1.79,3.4,3.76,3.03,1.64-.31,2.74-1.96,2.44-3.65-.29-1.64-1.94-2.8-3.56-2.52-.84.14-1.5.57-2.05,1.24-1.15-.69-2.28-1.38-3.46-2.09,1.24-.75,2.43-1.46,3.62-2.18.1.1.19.18.27.26.55.5,1.2.78,1.94.82,1.79.08,3.29-1.34,3.29-3.13,0-1.77-1.45-3.18-3.24-3.14-1.74.04-3.12,1.54-3.01,3.31.02.26-.08.37-.28.49-1.33.79-2.66,1.59-3.98,2.4-.21.13-.36.12-.57,0-1.57-.96-3.15-1.91-4.73-2.86-.54-.33-1.05-.24-1.32.22-.27.46-.11.93.44,1.26.33.2.66.4,1,.6,1.06.64,2.13,1.28,3.23,1.95Zm-6.19-11.93c0,1.17-.01,2.35,0,3.52.01,1.08.79,1.86,1.77,1.73.33-.04.68-.21.95-.41,1.46-1.11,2.88-2.26,4.35-3.36.95-.71,1.28-2.24-.06-3.1-.17-.11-.32-.24-.48-.36-1.26-.96-2.52-1.92-3.78-2.88-.39-.3-.82-.51-1.33-.43-.84.13-1.41.84-1.42,1.79,0,1.16,0,2.32,0,3.49Z"/>
  <path class="cls-1" d="m17.9,3.24c3.2,0,6.39-.03,9.59.01,1.98.03,3.57.91,4.72,2.53.58.83.88,1.76.89,2.77,0,.78,0,1.55,0,2.33,0,.57-.36.96-.86.95-.5,0-.84-.4-.85-.97,0-.66-.03-1.32,0-1.97.09-1.97-1.36-3.42-3.03-3.81-.4-.09-.81-.13-1.22-.13-6.17,0-12.34,0-18.51,0-1.93,0-3.37,1.06-3.79,2.79-.08.32-.11.65-.11.98,0,3.51,0,7.03,0,10.54,0,2.17,1.53,3.71,3.69,3.75.74.01,1.48,0,2.22,0,.41,0,.74.16.9.55.21.51-.12,1.13-.68,1.15-1.29.04-2.59.16-3.86-.16-2.3-.59-3.94-2.6-3.97-4.97-.04-3.73-.04-7.45,0-11.18.03-2.84,2.36-5.13,5.21-5.15,3.22-.03,6.44,0,9.66,0Z"/>
  <path class="cls-1" d="m20.37,25.92c-1.1-.66-2.16-1.3-3.23-1.95-.33-.2-.66-.4-1-.6-.55-.34-.71-.8-.44-1.26.27-.45.78-.54,1.32-.22,1.58.95,3.16,1.9,4.73,2.86.2.12.35.13.57,0,1.32-.81,2.65-1.61,3.98-2.4.2-.12.29-.24.28-.49-.11-1.77,1.27-3.28,3.01-3.31,1.79-.04,3.25,1.38,3.24,3.14,0,1.78-1.51,3.21-3.29,3.13-.74-.04-1.39-.32-1.94-.82-.09-.08-.17-.16-.27-.26-1.19.72-2.37,1.43-3.62,2.18,1.18.71,2.31,1.4,3.46,2.09.54-.67,1.2-1.1,2.05-1.24,1.62-.28,3.28.89,3.56,2.52.3,1.69-.8,3.34-2.44,3.65-1.97.37-3.73-1.03-3.76-3.03,0-.22-.09-.31-.25-.41-1.35-.81-2.7-1.62-4.04-2.44-.17-.11-.29-.11-.47,0-1.6.98-3.22,1.94-4.83,2.91-.52.31-1.06.19-1.3-.28-.23-.44-.08-.9.41-1.19,1.31-.79,2.62-1.58,3.92-2.36.11-.07.21-.14.35-.23Zm10.74-4.24c0-.78-.63-1.41-1.41-1.41-.77,0-1.41.64-1.42,1.41,0,.79.65,1.44,1.43,1.43.78-.01,1.4-.65,1.4-1.43Zm0,8.19c0-.78-.63-1.41-1.41-1.41-.77,0-1.41.64-1.42,1.41,0,.79.65,1.45,1.43,1.43.78-.01,1.4-.65,1.4-1.43Z"/>
  <path class="cls-1" d="m14.18,13.99c0-1.16,0-2.32,0-3.49,0-.96.57-1.67,1.42-1.79.51-.08.94.13,1.33.43,1.26.96,2.52,1.92,3.78,2.88.16.12.31.25.48.36,1.34.86,1.01,2.39.06,3.1-1.47,1.1-2.89,2.25-4.35,3.36-.27.2-.62.37-.95.41-.98.12-1.76-.65-1.77-1.73-.02-1.17,0-2.35,0-3.52Zm1.75-3.45v6.89c1.51-1.18,2.98-2.32,4.49-3.49-1.51-1.14-2.97-2.25-4.49-3.39Z"/>
  <path class="cls-2" d="m31.11,21.68c0,.78-.61,1.42-1.4,1.43-.78.01-1.44-.64-1.43-1.43,0-.77.65-1.41,1.42-1.41.78,0,1.41.63,1.41,1.41Z"/>
  <path class="cls-2" d="m31.11,29.87c0,.78-.62,1.42-1.4,1.43-.78.01-1.44-.65-1.43-1.43,0-.77.65-1.41,1.42-1.41.78,0,1.41.63,1.41,1.41Z"/>
  <path class="cls-3" d="m15.93,10.54c1.51,1.14,2.97,2.25,4.49,3.39-1.51,1.17-2.97,2.31-4.49,3.49v-6.89Z"/>
</svg>