<?xml version="1.0" encoding="utf-8"?>
<!-- Generator: Adobe Illustrator 28.0.0, SVG Export Plug-In . SVG Version: 6.00 Build 0)  -->
<svg version="1.1" id="Layer_1" xmlns="http://www.w3.org/2000/svg" xmlns:xlink="http://www.w3.org/1999/xlink" x="0px" y="0px"
	 viewBox="0 0 72 72" style="enable-background:new 0 0 72 72;" xml:space="preserve">
<style type="text/css">
	.st0{fill:#FFFFFF;}
	.st1{fill:#711DB0;}
</style>
<g>
	<path class="st0" d="M33.25,47.17c-0.36,0.98-0.71,1.81-0.99,2.67c-0.16,0.5-0.43,0.63-0.93,0.62c-1.49-0.03-2.99,0.03-4.48-0.03
		c-0.9-0.03-1.21,0.34-1.16,1.19c0.04,0.61,0.01,1.22,0.01,1.83c0,1.42,0.04,1.46,1.42,1.46c3.02,0,6.04,0,9.06,0
		c3.2,0,6.4,0.01,9.6,0c3.05-0.02,2.54,0.38,2.59-2.63c0-0.27-0.02-0.55,0-0.82c0.06-0.76-0.3-1.03-1.03-1.01
		c-1.52,0.03-3.05,0.02-4.57,0c-0.27,0-0.69-0.09-0.77-0.27c-0.42-0.95-0.76-1.95-1.13-2.94c0.18-0.03,0.24-0.05,0.3-0.05
		c4.33,0,8.66,0,12.99-0.01c2.62,0,3.92-1.31,3.92-3.94c0-7.5,0-15,0-22.5c0-2.71-1.4-4.1-4.11-4.11c-11.31,0-22.62,0-33.94,0
		c-2.66,0-4.04,1.39-4.04,4.07c0,7.5,0,15,0,22.5c0,2.65,1.34,3.98,4,3.98C24.34,47.17,28.7,47.17,33.25,47.17z"/>
	<path d="M33.25,47.17c-4.55,0-8.9,0-13.26,0c-2.67,0-4-1.33-4-3.98c0-7.5,0-15,0-22.5c0-2.68,1.38-4.07,4.04-4.07
		c11.31,0,22.62,0,33.94,0c2.71,0,4.11,1.4,4.11,4.11c0,7.5,0,15,0,22.5c0,2.63-1.3,3.94-3.92,3.94c-4.33,0-8.66,0-12.99,0.01
		c-0.06,0-0.12,0.02-0.3,0.05c0.37,1,0.71,1.99,1.13,2.94c0.08,0.17,0.5,0.26,0.77,0.27c1.52,0.02,3.05,0.03,4.57,0
		c0.74-0.01,1.09,0.25,1.03,1.01c-0.02,0.27,0,0.55,0,0.82c-0.05,3.01,0.46,2.62-2.59,2.63c-3.2,0.02-6.4,0-9.6,0
		c-3.02,0-6.04,0-9.06,0c-1.38,0-1.41-0.04-1.42-1.46c0-0.61,0.03-1.22-0.01-1.83c-0.05-0.85,0.26-1.22,1.16-1.19
		c1.49,0.05,2.99-0.01,4.48,0.03c0.5,0.01,0.77-0.11,0.93-0.62C32.53,48.98,32.88,48.15,33.25,47.17z M37.04,18.04
		c-5.7,0-11.4,0-17.1,0c-1.91,0-2.63,0.73-2.63,2.67c0,7.47,0,14.94,0,22.41c0,2.02,0.73,2.75,2.76,2.75c11.31,0,22.62,0,33.93,0
		c0.27,0,0.55,0.01,0.82-0.02c1.16-0.16,1.87-1.04,1.81-2.22c-0.02-0.33-0.01-0.67-0.01-1.01c0-7.32,0-14.63,0-21.95
		c0-1.94-0.69-2.62-2.65-2.62C48.32,18.04,42.68,18.04,37.04,18.04z M47.02,51.9c-6.67,0-13.27,0-19.91,0c0,0.6,0,1.16,0,1.72
		c6.68,0,13.28,0,19.91,0C47.02,53.04,47.02,52.53,47.02,51.9z M40.58,50.46c-0.41-1.03-0.75-1.94-1.14-2.82
		c-0.08-0.17-0.34-0.37-0.53-0.38c-1.28-0.03-2.56-0.03-3.84-0.01c-0.18,0-0.45,0.13-0.5,0.27c-0.4,0.94-0.74,1.9-1.14,2.94
		C35.86,50.46,38.14,50.46,40.58,50.46z"/>
	<path d="M37,20.19c5.46,0,10.91,0,16.37,0c1.24,0,1.31,0.07,1.31,1.28c0,7.01,0,14.02,0,21.03c0,1.17-0.08,1.24-1.25,1.24
		c-10.94,0-21.88,0-32.82,0c-1.18,0-1.26-0.08-1.26-1.24c0-7.04,0-14.08,0-21.12c0-1.1,0.1-1.2,1.21-1.2
		C26.03,20.19,31.52,20.19,37,20.19z M20.73,27.99c0,4.81,0,9.55,0,14.33c10.88,0,21.7,0,32.55,0c0-4.8,0-9.54,0-14.33
		C42.43,27.99,31.63,27.99,20.73,27.99z M20.73,26.62c10.87,0,21.7,0,32.54,0c0-1.71,0-3.37,0-5.02c-10.89,0-21.71,0-32.54,0
		C20.73,23.31,20.73,24.94,20.73,26.62z"/>
	<path class="st0" d="M20.73,27.99c10.9,0,21.7,0,32.55,0c0,4.79,0,9.53,0,14.33c-10.85,0-21.68,0-32.55,0
		C20.73,37.54,20.73,32.8,20.73,27.99z M29.51,36.27c1.43-0.5,2.65-0.93,3.88-1.36c0.48-0.17,0.99-0.36,0.76-1
		c-0.21-0.57-0.69-0.45-1.16-0.29c-1.83,0.66-3.66,1.29-5.48,1.98c-0.29,0.11-0.5,0.45-0.74,0.68c0.25,0.23,0.46,0.56,0.76,0.67
		c1.79,0.68,3.6,1.31,5.4,1.95c0.47,0.17,1.01,0.36,1.23-0.28c0.23-0.65-0.31-0.82-0.78-0.99C32.15,37.2,30.93,36.77,29.51,36.27z
		 M44.52,36.28c-1.43,0.5-2.71,0.9-3.94,1.41c-0.32,0.13-0.75,0.65-0.7,0.92c0.1,0.57,0.62,0.51,1.1,0.33
		c1.83-0.66,3.66-1.29,5.48-1.97c0.3-0.11,0.52-0.43,0.77-0.66c-0.26-0.25-0.49-0.61-0.8-0.73c-1.79-0.68-3.6-1.3-5.4-1.94
		c-0.5-0.18-1.05-0.3-1.17,0.34c-0.05,0.25,0.41,0.76,0.74,0.9C41.84,35.38,43.1,35.78,44.52,36.28z M35.61,40.72
		c0.13-0.16,0.39-0.37,0.5-0.64c0.99-2.39,1.97-4.79,2.9-7.2c0.1-0.26-0.14-0.65-0.22-0.98c-0.31,0.15-0.75,0.23-0.9,0.48
		c-0.33,0.54-0.51,1.17-0.75,1.76c-0.73,1.81-1.47,3.61-2.19,5.42C34.69,40.24,34.91,40.73,35.61,40.72z"/>
	<path d="M29.51,36.27c1.42,0.5,2.64,0.93,3.87,1.36c0.47,0.17,1.01,0.34,0.78,0.99c-0.23,0.64-0.76,0.45-1.23,0.28
		c-1.8-0.64-3.61-1.27-5.4-1.95c-0.29-0.11-0.51-0.44-0.76-0.67c0.25-0.23,0.45-0.57,0.74-0.68c1.82-0.69,3.65-1.32,5.48-1.98
		c0.46-0.17,0.95-0.29,1.16,0.29c0.23,0.64-0.29,0.83-0.76,1C32.16,35.34,30.93,35.77,29.51,36.27z"/>
	<path d="M44.52,36.28c-1.42-0.5-2.69-0.9-3.91-1.4c-0.33-0.14-0.79-0.64-0.74-0.9c0.12-0.64,0.68-0.52,1.17-0.34
		c1.8,0.65,3.61,1.27,5.4,1.94c0.31,0.12,0.54,0.48,0.8,0.73c-0.26,0.22-0.47,0.55-0.77,0.66c-1.82,0.68-3.66,1.31-5.48,1.97
		c-0.48,0.17-1,0.24-1.1-0.33c-0.05-0.27,0.38-0.78,0.7-0.92C41.81,37.18,43.09,36.78,44.52,36.28z"/>
	<path class="st1" d="M35.61,40.72c-0.7,0.01-0.93-0.49-0.66-1.17c0.72-1.81,1.46-3.61,2.19-5.42c0.24-0.59,0.42-1.22,0.75-1.76
		c0.15-0.25,0.59-0.32,0.9-0.48c0.08,0.33,0.32,0.72,0.22,0.98c-0.93,2.41-1.91,4.81-2.9,7.2C36,40.35,35.74,40.57,35.61,40.72z"/>
	<path d="M31.78,24.71c-2.59,0-5.18,0-7.77,0c-0.47,0-1.08,0.1-1.08-0.63c-0.01-0.7,0.55-0.68,1.05-0.68c5.21,0,10.42,0,15.63,0
		c0.51,0,1.05,0.03,1.04,0.71c-0.01,0.66-0.56,0.61-1.01,0.61C37.02,24.71,34.4,24.71,31.78,24.71z"/>
	<circle cx="48.55" cy="23.99" r="0.6"/>
	<circle cx="45.65" cy="23.99" r="0.6"/>
	<circle cx="51.11" cy="24.05" r="0.6"/>
</g>
</svg>
