<?xml version="1.0" encoding="utf-8"?>
<!-- Generator: Adobe Illustrator 28.0.0, SVG Export Plug-In . SVG Version: 6.00 Build 0)  -->
<svg version="1.1" id="Layer_1" xmlns="http://www.w3.org/2000/svg" xmlns:xlink="http://www.w3.org/1999/xlink" x="0px" y="0px"
	 viewBox="0 0 72 72" style="enable-background:new 0 0 72 72;" xml:space="preserve">
<style type="text/css">
	.st0{fill:#FFFFFF;}
	.st1{fill:#711DB0;}
</style>
<g>
	<path class="st0" d="M37.34,15.02c-6.42,0-12.83,0-19.25,0c-4.33,0-6.81,2.49-6.81,6.82c0,6.75,0.11,13.49-0.04,20.24
		c-0.09,4.06,2.69,7.11,7.06,6.99c4.73-0.13,9.46-0.04,14.19-0.01c0.32,0,0.65,0.25,0.97,0.39c-0.28,0.21-0.53,0.53-0.84,0.61
		c-2.36,0.59-4.66,1.33-6.65,2.77c-0.78,0.57-1.53,1.29-2.04,2.1c-0.76,1.2-0.08,2.31,1.33,2.31c8.03,0.01,16.06,0.01,24.09,0
		c1.47,0,2.15-1.15,1.34-2.38c-0.53-0.8-1.25-1.64-2.08-2.04c-2.12-1.03-4.36-1.82-6.54-2.74c-0.33-0.14-0.59-0.45-0.89-0.69
		c0.34-0.12,0.68-0.34,1.02-0.34c4.8-0.02,9.6-0.01,14.41-0.02c4.2-0.01,6.74-2.53,6.74-6.69c0.01-6.89,0.01-13.79,0-20.68
		c-0.01-4.11-2.55-6.65-6.65-6.65C50.24,15.02,43.79,15.02,37.34,15.02z"/>
	<path d="M37.34,15.02c6.45,0,12.9,0,19.36,0c4.1,0,6.64,2.54,6.65,6.65c0.01,6.89,0.01,13.79,0,20.68
		c-0.01,4.16-2.54,6.68-6.74,6.69c-4.8,0.01-9.6,0-14.41,0.02c-0.34,0-0.68,0.22-1.02,0.34c0.29,0.23,0.56,0.55,0.89,0.69
		c2.18,0.92,4.42,1.71,6.54,2.74c0.84,0.41,1.55,1.24,2.08,2.04c0.82,1.23,0.13,2.38-1.34,2.38c-8.03,0.01-16.06,0.01-24.09,0
		c-1.41,0-2.09-1.12-1.33-2.31c0.51-0.81,1.26-1.53,2.04-2.1c1.98-1.45,4.29-2.19,6.65-2.77c0.31-0.08,0.56-0.4,0.84-0.61
		c-0.32-0.14-0.65-0.39-0.97-0.39c-4.73-0.03-9.46-0.12-14.19,0.01c-4.37,0.12-7.15-2.93-7.06-6.99c0.15-6.74,0.04-13.49,0.04-20.24
		c0-4.34,2.49-6.82,6.81-6.82C24.51,15.02,30.92,15.02,37.34,15.02z M57.01,22.36c-13.55,0-27.05,0-40.66,0c0,6.24,0,12.41,0,18.66
		c-0.83,0.04-1.55,0.07-2.24,0.1c-0.52,3.23,0.93,5.22,4.47,5.19c12.38-0.12,24.76-0.05,37.15-0.05c0.42,0,0.85,0,1.29,0
		C57.01,38.21,57.01,30.31,57.01,22.36z M60.41,20.3c-0.62-1.87-1.67-2.54-3.87-2.54c-12.82,0-25.64,0-38.46,0
		c-0.47,0-0.96,0.02-1.42,0.11c-1.27,0.25-2.15,1.17-2.36,2.42C29.64,20.3,44.98,20.3,60.41,20.3z M45.82,54.43
		c-5.19-2.96-13.21-2.54-16.75,0C34.58,54.43,40.04,54.43,45.82,54.43z M20.18,21.5c0.01-0.09,0.03-0.19,0.04-0.28
		c-0.94,0-1.89,0-2.83,0c0,0.09,0,0.19,0,0.28C18.33,21.5,19.25,21.5,20.18,21.5z M35.02,21.5c-0.97-0.62-2.25-0.56-2.87,0
		C33.17,21.5,34.09,21.5,35.02,21.5z M51.94,21.2c0,0.09-0.01,0.19-0.01,0.28c0.94,0,1.88,0,2.82,0c0-0.09,0-0.19,0-0.28
		C53.82,21.2,52.88,21.2,51.94,21.2z M42.06,21.21c0,0.09,0,0.18,0,0.28c0.95,0,1.9,0,2.84,0c0-0.09,0-0.18,0-0.28
		C43.96,21.21,43.01,21.21,42.06,21.21z M25.14,21.49c0-0.09,0.01-0.19,0.01-0.28c-0.93,0-1.85,0-2.78,0c0,0.09,0,0.19,0,0.28
		C23.3,21.49,24.22,21.49,25.14,21.49z M47.03,21.21c0,0.09,0,0.18,0,0.28c0.93,0,1.86,0,2.79,0c0-0.09,0-0.18,0-0.28
		C48.88,21.21,47.95,21.21,47.03,21.21z M30.09,21.5c0-0.09,0-0.17,0-0.26c-0.94,0-1.89,0-2.83,0c0,0.09,0,0.17,0.01,0.26
		C28.21,21.5,29.15,21.5,30.09,21.5z M39.92,21.5c0-0.07,0-0.14,0-0.21c-0.92,0-1.84,0-2.75,0c0,0.07,0,0.14,0,0.21
		C38.08,21.5,39,21.5,39.92,21.5z"/>
	<path class="st0" d="M33.48,36.4c-0.12-1.19-0.83-1.77-2.88-2.03c0.19,0.34,0.55,0.5,0.86,0.73c0.19,0.13,0.32,0.35,0.48,0.53
		c-0.09,0.07-0.19,0.14-0.28,0.2c-0.42-0.53-0.84-1.06-1.26-1.58c-0.12-0.4-0.12-0.9-0.37-1.18c-0.65-0.71-0.4-1.42-0.17-2.15
		c1.16-3.74,4.65-6.37,8.56-6.42c2.31-0.03,4.62,0,6.93-0.01c0.53,0,1.23,0.13,1.21-0.7c-0.02-0.84-0.74-0.65-1.26-0.65
		c-2.2-0.01-4.4-0.02-6.6,0c-3.99,0.02-7.02,1.76-9.16,5.11c-0.14,0.21-0.3,0.41-0.45,0.61c-0.08-0.03-0.17-0.06-0.25-0.09
		c0.14-1.36,0.27-2.72,0.41-4.08c0.17-0.41,0.33-0.82,0.5-1.22c-0.39-0.87-1.09-1.03-1.77-0.5c-0.66,0.51-0.54,1.18,0.03,1.81
		c0.23,0.26,0.35,0.7,0.36,1.06c0.04,1.47,0.04,2.93,0.01,4.4c-0.02,0.94-0.1,1.82-0.86,2.61c-0.3,0.32-0.3,1.42,0.01,1.74
		c0.76,0.79,0.84,1.66,0.85,2.61c0.02,1.43,0.04,2.86-0.02,4.29c-0.02,0.42-0.37,0.81-0.45,1.23c-0.09,0.52-0.25,1.19-0.02,1.56
		c0.35,0.56,1.02,0.68,1.54,0.01l-0.04,0.04c0.71-0.48,0.53-1.02,0.12-1.58c-0.16-0.22-0.49-0.43-0.5-0.65
		c-0.05-1.18-0.02-2.36-0.02-3.85c0.32,0.5,0.46,0.7,0.59,0.91c1.89,3.03,4.64,4.7,8.17,5.08c0.59,0.06,1.4,0.25,1.47-0.65
		c0.06-0.8-0.72-0.64-1.23-0.72c-0.14-0.02-0.29-0.04-0.44-0.06c-3.76-0.44-6.73-3.01-7.79-6.64c-0.25-0.86-0.2-1.5,0.67-1.89
		c0.24,0.72,0.48,1.44,0.73,2.15c0.26,0.73,0.79,1,1.54,0.84c0.15,0.3,0.29,0.6,0.4,0.83c0.46-0.38,0.85-0.69,1.34-1.09
		C34.02,36.73,33.75,36.56,33.48,36.4z"/>
	<path class="st0" d="M22.35,18.7c-0.01,0.1-0.02,0.2-0.02,0.3c1.77,0,3.53,0,5.3,0c0-0.1,0-0.2,0-0.3
		C25.87,18.7,24.11,18.7,22.35,18.7z M44.88,19.03c0.02-0.1,0.04-0.2,0.06-0.3c-1.79,0-3.58,0-5.36,0c0,0.1,0,0.2,0,0.3
		C41.34,19.03,43.11,19.03,44.88,19.03z M37.52,19.01c0-0.09,0-0.18-0.01-0.28c-0.94,0-1.89,0-2.83,0c0,0.09,0,0.18,0.01,0.28
		C35.63,19.01,36.57,19.01,37.52,19.01z M47.02,18.71c0,0.1-0.01,0.2-0.01,0.3c0.94,0,1.89,0,2.83,0c0-0.1,0-0.2,0-0.3
		C48.91,18.71,47.96,18.71,47.02,18.71z M17.35,18.71c0,0.1,0,0.19,0,0.29c0.97,0,1.94,0,2.91,0c0-0.1,0-0.19,0-0.29
		C19.29,18.71,18.32,18.71,17.35,18.71z M29.71,18.69c0,0.1,0,0.2,0.01,0.3c0.96,0,1.92,0,2.88,0c0-0.1,0-0.2-0.01-0.3
		C31.63,18.69,30.67,18.69,29.71,18.69z M51.9,18.72c0,0.09,0,0.19,0,0.28c0.96,0,1.93,0,2.89,0c0-0.09,0-0.19,0-0.28
		C53.83,18.72,52.86,18.72,51.9,18.72z"/>
	<path d="M29.42,44.27c-0.52,0.67-1.19,0.55-1.54-0.01c-0.23-0.37-0.07-1.04,0.02-1.56c0.07-0.43,0.43-0.82,0.45-1.23
		c0.06-1.43,0.04-2.86,0.02-4.29c-0.01-0.95-0.08-1.83-0.85-2.61c-0.31-0.32-0.31-1.43-0.01-1.74c0.76-0.78,0.84-1.67,0.86-2.61
		c0.03-1.47,0.03-2.93-0.01-4.4c-0.01-0.36-0.13-0.8-0.36-1.06c-0.56-0.64-0.69-1.3-0.03-1.81c0.69-0.53,1.38-0.37,1.77,0.5
		c-0.18-0.12-0.35-0.32-0.54-0.35c-0.33-0.06-0.74-0.12-1,0.03c-0.21,0.12-0.4,0.62-0.31,0.82c0.14,0.3,0.51,0.52,0.82,0.72
		c0.13,0.08,0.35,0.01,0.54,0.01c-0.14,1.36-0.27,2.72-0.41,4.08c0.08,0.03,0.17,0.06,0.25,0.09c0.15-0.2,0.32-0.4,0.45-0.61
		c2.13-3.35,5.17-5.09,9.16-5.11c2.2-0.01,4.4-0.01,6.6,0c0.51,0,1.24-0.19,1.26,0.65c0.02,0.83-0.68,0.7-1.21,0.7
		c-2.31,0.01-4.62-0.02-6.93,0.01c-3.91,0.05-7.4,2.69-8.56,6.42c-0.23,0.73-0.47,1.44,0.17,2.15c0.25,0.28,0.26,0.78,0.37,1.18
		l0.02-0.01c-0.87,0.41-0.93,1.04-0.67,1.9c1.06,3.63,4.04,6.2,7.79,6.64c0.15,0.02,0.29,0.03,0.44,0.06
		c0.51,0.08,1.29-0.07,1.23,0.72c-0.07,0.9-0.88,0.71-1.47,0.65c-3.53-0.38-6.28-2.05-8.17-5.08c-0.13-0.21-0.27-0.42-0.59-0.91
		c0,1.49-0.03,2.67,0.02,3.85c0.01,0.22,0.33,0.43,0.5,0.65c0.41,0.56,0.59,1.11-0.12,1.58c0.02-0.1,0.09-0.22,0.07-0.31
		c-0.1-0.41-0.13-0.88-0.37-1.19c-0.1-0.14-0.75-0.05-0.95,0.14c-0.2,0.19-0.32,0.83-0.19,0.94c0.29,0.25,0.76,0.31,1.16,0.43
		C29.19,44.34,29.31,44.29,29.42,44.27z M30.04,33.79c-0.61-0.49-0.97-0.99-1.26-0.96c-0.38,0.05-0.7,0.52-1.05,0.81
		c0.28,0.32,0.53,0.87,0.84,0.91C28.94,34.59,29.35,34.18,30.04,33.79z"/>
	<path d="M30.41,34.25c0.42,0.53,0.84,1.06,1.26,1.58c0.09-0.07,0.19-0.14,0.28-0.2c-0.16-0.18-0.29-0.4-0.48-0.53
		c-0.32-0.22-0.67-0.39-0.86-0.73c2.05,0.26,2.76,0.84,2.88,2.03c-0.26,0.28-0.52,0.56-0.79,0.84c-0.75,0.16-1.28-0.11-1.54-0.84
		c-0.26-0.71-0.49-1.43-0.73-2.16C30.43,34.24,30.41,34.25,30.41,34.25z"/>
	<path class="st1" d="M29.25,24.67c-0.18,0-0.41,0.07-0.54-0.01c-0.31-0.2-0.68-0.41-0.82-0.72c-0.09-0.2,0.11-0.7,0.31-0.82
		c0.26-0.15,0.67-0.08,1-0.03c0.19,0.03,0.36,0.23,0.54,0.35C29.58,23.86,29.42,24.27,29.25,24.67z"/>
	<path d="M32.69,37.24c0.26-0.28,0.52-0.56,0.79-0.84c0.27,0.16,0.54,0.33,0.95,0.58c-0.49,0.4-0.87,0.71-1.34,1.09
		C32.98,37.84,32.84,37.54,32.69,37.24z"/>
	<path d="M22.35,18.7c1.76,0,3.52,0,5.28,0c0,0.1,0,0.2,0,0.3c-1.77,0-3.53,0-5.3,0C22.33,18.9,22.34,18.8,22.35,18.7z"/>
	<path d="M44.88,19.03c-1.77,0-3.54,0-5.31,0c0-0.1,0-0.2,0-0.3c1.79,0,3.58,0,5.36,0C44.92,18.83,44.9,18.93,44.88,19.03z"/>
	<path d="M37.52,19.01c-0.94,0-1.89,0-2.83,0c0-0.09,0-0.18-0.01-0.28c0.94,0,1.89,0,2.83,0C37.51,18.83,37.52,18.92,37.52,19.01z"
		/>
	<path d="M47.02,18.71c0.94,0,1.88,0,2.83,0c0,0.1,0,0.2,0,0.3c-0.94,0-1.89,0-2.83,0C47.01,18.91,47.02,18.81,47.02,18.71z"/>
	<path d="M17.35,18.71c0.97,0,1.94,0,2.91,0c0,0.1,0,0.19,0,0.29c-0.97,0-1.94,0-2.91,0C17.35,18.91,17.35,18.81,17.35,18.71z"/>
	<path d="M29.71,18.69c0.96,0,1.92,0,2.88,0c0,0.1,0,0.2,0.01,0.3c-0.96,0-1.92,0-2.88,0C29.72,18.89,29.72,18.79,29.71,18.69z"/>
	<path d="M51.9,18.72c0.96,0,1.93,0,2.89,0c0,0.09,0,0.19,0,0.28c-0.96,0-1.93,0-2.89,0C51.9,18.91,51.9,18.81,51.9,18.72z"/>
	<path class="st1" d="M30.04,33.79c-0.7,0.39-1.11,0.8-1.46,0.75c-0.31-0.04-0.56-0.58-0.84-0.91c0.35-0.29,0.67-0.76,1.05-0.81
		C29.08,32.8,29.43,33.3,30.04,33.79z"/>
	<path class="st1" d="M29.42,44.27c-0.11,0.02-0.22,0.07-0.32,0.05c-0.4-0.12-0.87-0.18-1.16-0.43c-0.13-0.11-0.01-0.75,0.19-0.94
		c0.2-0.19,0.85-0.27,0.95-0.14c0.24,0.31,0.27,0.78,0.37,1.19c0.02,0.09-0.04,0.21-0.07,0.31C29.38,44.31,29.42,44.27,29.42,44.27z
		"/>
</g>
</svg>
