<?xml version="1.0" encoding="UTF-8"?>
<svg id="Layer_1" data-name="Layer 1" xmlns="http://www.w3.org/2000/svg" viewBox="0 0 844.67 595.26">
  <defs>
    <style>
      .cls-1 {
        fill: #a0616a;
      }

      .cls-1, .cls-2, .cls-3, .cls-4, .cls-5, .cls-6 {
        stroke-width: 0px;
      }

      .cls-7 {
        fill: #e6e6e6;
      }

      .cls-7, .cls-8 {
        stroke: #000;
        stroke-miterlimit: 10;
      }

      .cls-8 {
        fill: #ccc;
      }

      .cls-3 {
        fill: #3f3d56;
      }

      .cls-4 {
        fill: #711db0;
      }

      .cls-5 {
        fill: #ffb8b8;
      }

      .cls-6 {
        fill: #f2f2f2;
      }
    </style>
  </defs>
  <circle class="cls-4" cx="431.39" cy="548" r="46"/>
  <path class="cls-6" d="m706.19,591.42c25.73-7.73,53.09-15.79,73.5-34.16,18.24-16.42,30.55-41.49,22.99-66.11-7.54-24.57-30.12-40.96-53.44-49.11-13.22-4.62-27.06-7.19-40.89-9.2-15.03-2.19-30.14-3.98-45.23-5.71-61.12-6.99-122.47-11.26-184.04-12.81-30.38-.77-60.76-.75-91.15-.31-27.14.39-55.72.38-80.9-11.15-19.58-8.97-37.35-25.29-42.8-46.73-6.3-24.75,5.32-49.96,21.98-67.89,8.78-9.45,19.05-17.4,29.64-24.72,11.49-7.93,23.38-15.31,35.52-22.19,23.92-13.55,48.93-25.08,74.77-34.47,12.75-4.63,25.68-8.63,38.73-12.32,11.02-3.11,22.07-6.23,32.72-10.48,20.58-8.2,40.16-22.1,45.39-44.88,4.96-21.59-3.4-45.03-18.07-61.07-16.96-18.56-42.54-26.69-67.06-28.01-27.53-1.48-54.42,5.41-80.3,14.16-27.6,9.33-54.6,20.05-82.78,27.6-27.94,7.48-56.43,12.78-85.2,15.84-14.08,1.5-28.59,3.19-42.76,2.04-11.87-.96-23.68-4.45-32.43-12.88-7.5-7.22-11.97-17.15-10.44-27.63.28-1.9,3.17-1.09,2.89.8-1.87,12.76,6.8,24.51,17.48,30.53,12.35,6.96,27.37,6.97,41.12,6.17,29.81-1.8,59.42-6.08,88.51-12.8,28.59-6.53,56.16-15.87,83.7-25.84,26.16-9.47,52.9-18.72,80.84-20.77,24.25-1.78,49.75,1.75,70.87,14.42,18.56,11.14,32.21,29.71,36.56,51.02,4.25,20.82-1.64,41.79-17.4,56.32-16.32,15.05-38.7,21.48-59.56,27.4-26.45,7.51-52.34,16.3-77.39,27.7-25.4,11.53-49.75,25.22-72.8,40.93-22.25,15.2-44.2,34.33-51.24,61.45-3.28,12.63-2.67,26.03,2.81,37.96,4.88,10.61,12.91,19.53,22.26,26.42,22.32,16.42,50.45,19.8,77.41,20.13,30.28.38,60.56-.65,90.86-.15,61.73,1.01,123.34,4.77,184.82,11.27,15.41,1.63,30.79,3.43,46.16,5.41,13.82,1.78,27.69,3.54,41.28,6.69,24.16,5.61,47.67,16.39,62.69,36.88,6.67,8.88,10.79,19.4,11.95,30.45,1.05,11.52-1.77,23.07-6.98,33.32-11.53,22.69-33.13,37.12-56.07,46.6-12.29,5.08-25.03,8.93-37.75,12.75-1.85.56-2.64-2.34-.8-2.89h0Z"/>
  <circle class="cls-6" cx="125.89" cy="69.5" r="24"/>
  <circle class="cls-6" cx="292.39" cy="115" r="24"/>
  <circle class="cls-6" cx="433.39" cy="24" r="24"/>
  <circle class="cls-6" cx="521.39" cy="126" r="24"/>
  <circle class="cls-6" cx="402.39" cy="244" r="24"/>
  <circle class="cls-6" cx="251.39" cy="301" r="24" transform="translate(-85.99 500.93) rotate(-80.78)"/>
  <circle class="cls-6" cx="411.39" cy="390" r="24"/>
  <circle class="cls-6" cx="583.39" cy="440" r="24"/>
  <circle class="cls-6" cx="784.39" cy="429" r="24"/>
  <path class="cls-4" d="m426.46,68c-71.89.51-130.76,58.93-131.78,130.82,0,.66-.01,5.33-.01,11.43,0,18.64,15.11,33.74,33.74,33.75h0c18.65,0,33.77-15.13,33.76-33.78v-.02c0-4.15,0-7.03,0-7.2,0-35.35,28.64-64.01,63.99-64.01s64.01,28.64,64.01,63.99c0,21.82-11.11,42.14-29.48,53.91h.01s-48.03,30.93-62.67,73.35h.01c-2.57,8.69-3.88,17.71-3.87,26.77,0,3.73.22,36.32.64,62.78.31,18.99,15.79,34.23,34.79,34.22h0c19.22,0,34.8-15.58,34.79-34.8,0-.07,0-.14,0-.21-.15-24.23-.23-52.44-.23-54.49,0-26.04,25.13-51.99,45.76-68.92,23.77-19.49,40.87-46.04,47.74-76,1.52-6.17,2.36-12.48,2.5-18.83,0-73.32-59.43-132.75-132.75-132.75-.32,0-.64,0-.96,0Z"/>
  <path class="cls-3" d="m843.48,595.26H1.18c-.66,0-1.19-.54-1.18-1.2,0-.65.53-1.18,1.18-1.18h842.29c.66,0,1.19.54,1.19,1.19,0,.65-.53,1.18-1.19,1.19Z"/>
  <circle class="cls-2" cx="628.44" cy="243" r="30"/>
  <polygon class="cls-1" points="573.01 582.13 560.75 582.13 554.91 534.84 573.01 534.84 573.01 582.13"/>
  <path class="cls-2" d="m551.99,578.63h23.64v14.89h-38.53c0-8.22,6.67-14.89,14.89-14.89Z"/>
  <polygon class="cls-1" points="668.01 582.13 655.75 582.13 649.91 534.84 668.01 534.84 668.01 582.13"/>
  <path class="cls-2" d="m646.99,578.63h23.64v14.89h-38.53c0-8.22,6.67-14.89,14.89-14.89Z"/>
  <circle class="cls-1" cx="623.88" cy="248.61" r="24.56"/>
  <path class="cls-2" d="m638.52,352.41l10.99-25.25c5.47-12.14,2.68-26.41-6.95-35.6-.97-.95-1.99-1.85-3.07-2.67-5.42-4.24-12.11-6.55-18.99-6.57-4.63.02-9.2,1.03-13.4,2.98-.36.16-.71.33-1.07.5-.69.33-1.37.69-2.03,1.06-8.73,5.01-14.56,13.88-15.7,23.88l-4.85,40.64c-1.22,3.19-44.74,118.39-29.52,206.34.33,1.93,1.88,3.42,3.82,3.67l15.43,2.1c2.34.32,4.52-1.22,5.01-3.53l25.89-123.41c.4-1.89,2.26-3.11,4.15-2.71,1.28.27,2.3,1.22,2.65,2.48l36.58,129.78c.54,1.94,2.3,3.28,4.31,3.28.29,0,.58-.03.87-.08l18.85-3.63c2.27-.42,3.84-2.51,3.63-4.81-2.77-30.89-17.49-185.62-36.6-208.45Z"/>
  <path class="cls-1" d="m528.43,269.05c-.64,5.52,3.31,10.51,8.82,11.15.59.07,1.18.09,1.77.05l13.73,32.99,10.39-15.39-14.63-28.97c-.7-5.54-5.77-9.46-11.31-8.75-4.63.59-8.26,4.28-8.77,8.92h0Z"/>
  <path class="cls-1" d="m622.52,385.63c5.51-.66,9.45-5.66,8.79-11.18-.07-.59-.19-1.17-.36-1.74l28.89-21.04-17.39-6.51-24.76,20.98c-5.22,1.98-7.85,7.81-5.88,13.03,1.65,4.37,6.09,7.04,10.72,6.45h0Z"/>
  <path class="cls-2" d="m575.43,335.24c-1.11,0-2.21-.11-3.3-.33-5.34-1.02-9.82-4.62-11.95-9.62l-19.23-23.45c-1.58-1.92-1.3-4.76.63-6.33.15-.13.32-.24.48-.35l13.68-8.47c2.11-1.31,4.89-.66,6.2,1.46,0,.01.01.02.02.03l13.56,22.33,25.96-19.19c4.76-2.49,10.63-.66,13.12,4.1,1.99,3.8,1.26,8.46-1.81,11.47l-25.91,23.64c-3.04,3.02-7.16,4.71-11.45,4.71Z"/>
  <path class="cls-2" d="m645.58,370.51s-.07,0-.11,0c-1.28-.03-2.48-.6-3.31-1.57l-12.17-14.19c-1.62-1.89-1.4-4.73.49-6.34.14-.12.28-.23.43-.33l22.78-15.19-20.64-24.81c-2.76-4.6-1.27-10.58,3.34-13.34,3.68-2.21,8.38-1.74,11.55,1.15l25.08,24.51c6.74,6.16,7.21,16.61,1.06,23.35-1.35,1.47-2.95,2.69-4.73,3.59l-20.5,21.75c-.85.9-2.04,1.41-3.27,1.41Z"/>
  <path class="cls-7" d="m617.64,318.21c-.2,0-.39-.01-.58-.04-1.73-.21-3.18-1.41-3.71-3.07l-9.14-28.03c-.47-1.47.21-3.06,1.59-3.72l.3-.14c.27-.13.54-.25.81-.38,4.26-1.98,8.9-3.01,13.6-3.02,6.1.01,12.07,1.8,17.16,5.16,1.42.95,1.82,2.86.9,4.29l-17.15,26.87c-.82,1.3-2.24,2.08-3.78,2.08Z"/>
  <circle class="cls-2" cx="652.09" cy="219.79" r="9.82"/>
  <path class="cls-2" d="m618.44,209h0c-14.36,0-26,11.64-26,26v11h13.53l6.47-11,1.94,11h41.06l-11-11c0-14.36-11.64-26-26-26Z"/>
  <path class="cls-2" d="m657.14,213.06c2.24-7.01,9.19-11.39,16.48-10.4,6.26,1.05,11.2,6.07,14.15,11.69s4.31,11.9,6.29,17.93,4.79,12.08,9.79,15.98,12.68,4.96,17.59.95c-1.48,11.01-11.6,18.74-22.62,17.26-6.26-.84-11.77-4.57-14.86-10.08-2.59-4.61-3.26-10.02-4.03-15.25s-1.77-10.65-4.86-14.94-8.89-7.09-13.8-5.14l-4.13-8Z"/>
  <path class="cls-2" d="m337.94,228.04h0c-18.64,0-33.74-15.11-33.74-33.75,0-6.1,0-10.77.01-11.43.28-20.91,5.55-41.44,15.36-59.91-16.12,22.06-24.98,48.59-25.36,75.91,0,.66-.01,5.33-.01,11.43,0,18.64,15.11,33.74,33.74,33.75h0c15.11,0,28.38-10.05,32.49-24.59-6.18,5.54-14.19,8.6-22.49,8.59Z"/>
  <path class="cls-2" d="m428.75,139.11c35.31,1.69,62.56,31.68,60.88,66.98-.37,7.73-2.14,15.33-5.22,22.43,22.91-26.91,19.67-67.3-7.24-90.22-26.91-22.91-67.3-19.67-90.22,7.24-4.1,4.81-7.46,10.2-9.97,15.99,12.84-15.1,31.97-23.39,51.77-22.43Z"/>
  <path class="cls-2" d="m439.13,438.04h0c-19,0-34.48-15.23-34.79-34.22-.42-26.46-.64-59.05-.64-62.78,0-9.06,1.3-18.08,3.87-26.77h-.01c1.52-4.36,3.36-8.61,5.49-12.7-6.56,8.74-11.78,18.42-15.49,28.7h.01c-2.57,8.69-3.88,17.71-3.87,26.77,0,3.73.22,36.32.64,62.78.31,18.99,15.79,34.23,34.79,34.22h0c15.46,0,29.07-10.21,33.4-25.05-6.4,5.83-14.74,9.06-23.4,9.05Z"/>
  <polygon class="cls-5" points="126.53 582.59 138.79 582.58 144.63 535.3 126.53 535.3 126.53 582.59"/>
  <path class="cls-2" d="m162.44,593.97h-38.53s0-14.89,0-14.89h23.64c8.22,0,14.89,6.66,14.89,14.89h0Z"/>
  <polygon class="cls-5" points="82.53 582.59 94.79 582.58 100.63 535.3 82.53 535.3 82.53 582.59"/>
  <path class="cls-2" d="m118.44,593.97h-38.53s0-14.89,0-14.89h23.64c8.22,0,14.89,6.66,14.89,14.89h0Z"/>
  <path class="cls-2" d="m93.25,568.04l-11.98-.63c-2.58-.14-4.56-2.33-4.42-4.91,0-.02,0-.04,0-.05l14.31-158.47,65.91,17.79,6.35-1.73-19.86,140.28c-.35,2.17-2.16,3.81-4.36,3.94l-12.91.6c-2.58.14-4.78-1.83-4.93-4.41,0-.13,0-.26,0-.39l2.34-84.2c.02-.86-.65-1.58-1.51-1.6-.75-.02-1.42.5-1.57,1.24l-22.56,88.81c-.44,2.17-2.35,3.73-4.57,3.73-.08,0-.17,0-.25,0Z"/>
  <circle class="cls-5" cx="128.74" cy="249.76" r="24.56"/>
  <path class="cls-8" d="m87.84,321.92l2.7,58.27.98,21.2c.08,1.89,1.3,3.54,3.07,4.18l63.34,22.94c.51.19,1.05.29,1.6.28,2.56.01,4.65-2.06,4.67-4.62,0-.06,0-.11,0-.17l-2.6-104.77c-.35-17.73-13.26-32.71-30.74-35.68-.61-.09-1.24-.19-1.86-.27-10.64-1.32-21.32,2.14-29.17,9.44-8.13,7.47-12.52,18.17-11.99,29.2h0Z"/>
  <path class="cls-5" d="m188.19,416.88c-5.31-1.65-8.28-7.29-6.63-12.59.29-.93.71-1.82,1.26-2.63l-21.48-28.56,18.53-1.15,17.55,27.3c4.42,3.42,5.23,9.77,1.81,14.18-2.6,3.36-7.01,4.74-11.06,3.45Z"/>
  <path class="cls-8" d="m173.08,396.48c-1.15-.47-2.06-1.37-2.54-2.52l-32.36-77.09c-2.67-6.34.31-13.65,6.66-16.32,6.34-2.67,13.65.31,16.32,6.66,0,0,0,.01,0,.02l32.36,77.1c1,2.38-.12,5.12-2.5,6.12l-14.37,6.03c-1.14.48-2.43.49-3.58.02h0Z"/>
  <path class="cls-2" d="m120.84,393.76l31.08-59.51c1.25-2.38,4.19-3.31,6.57-2.06l45.11,23.56c2.38,1.25,3.31,4.19,2.06,6.57l-31.08,59.51c-1.25,2.38-4.19,3.31-6.57,2.06l-45.11-23.56c-2.38-1.25-3.31-4.19-2.06-6.57Z"/>
  <path class="cls-5" d="m141.68,366.57c-1.96-5.2-7.76-7.83-12.96-5.87-.92.34-1.78.82-2.55,1.41l-29.78-19.75-.05,18.57,28.29,15.91c3.67,4.21,10.06,4.64,14.27.97,3.2-2.79,4.31-7.28,2.79-11.24h0Z"/>
  <path class="cls-8" d="m104.03,370.75l-24.34-19.28c-8.99-3.02-13.82-12.75-10.81-21.73.66-1.97,1.67-3.8,2.98-5.4l22.1-28.96c3.53-4.32,9.89-4.95,14.21-1.42,3.45,2.83,4.64,7.59,2.92,11.7l-17.48,28.6,25.69,12.19c2.33,1.11,3.33,3.89,2.22,6.23-.08.17-.17.34-.27.49l-10.37,16.41c-.71,1.12-1.86,1.89-3.17,2.11-.03,0-.05,0-.08.01-1.28.19-2.59-.15-3.61-.96Z"/>
  <path class="cls-2" d="m110.18,266.21c-.38-1.12.21-2.33,1.33-2.71.17-.06.35-.09.53-.11,1.34.07,2.6.69,3.48,1.71.89,1.02,1.92,1.91,3.07,2.64,1.19.6,2.8.51,3.48-.63.64-1.07.2-2.51-.18-3.75-.98-3.17-1.53-6.45-1.63-9.77-.11-3.7.41-7.56,2.46-10.45,2.64-3.72,7.37-5.14,11.85-5.04s8.88,1.48,13.31,2.36c1.53.3,3.33.46,4.35-.73,1.09-1.26.69-3.3.23-5-1.2-4.42-2.48-8.98-5.27-12.55-3.02-3.71-7.33-6.13-12.06-6.79-4.55-.56-9.16-.04-13.46,1.53-7.01,2.21-13.18,6.51-17.68,12.32-4.64,6.18-6.65,13.95-5.58,21.6,1.04,6.67,4.58,12.69,9.89,16.85l1.91-1.48Z"/>
  <path class="cls-2" d="m421.25,582.78c-23.29-10.14-33.95-37.24-23.8-60.53,1.72-3.95,3.99-7.64,6.73-10.96-20.52,14.98-25.01,43.76-10.03,64.27,14.98,20.52,43.76,25.01,64.27,10.03,3.09-2.26,5.88-4.89,8.32-7.83-13.19,9.64-30.52,11.56-45.5,5.02Z"/>
</svg>