<svg width="560" height="365" viewBox="0 0 560 365" fill="none" xmlns="http://www.w3.org/2000/svg">
<path d="M164.339 5.65C164.339 5.03935 164.219 4.43469 163.985 3.87052C163.751 3.30636 163.409 2.79375 162.977 2.36195C162.545 1.93016 162.033 1.58764 161.469 1.35396C160.904 1.12028 160.3 1 159.689 1C158.456 1 157.273 1.48991 156.401 2.36195C155.529 3.234 155.039 4.41674 155.039 5.65C155.039 6.88326 155.529 8.066 156.401 8.93805C157.273 9.81009 158.456 10.3 159.689 10.3C160.3 10.3 160.904 10.1797 161.469 9.94604C162.033 9.71236 162.545 9.36984 162.977 8.93805C163.409 8.50625 163.751 7.99364 163.985 7.42948C164.219 6.86532 164.339 6.26065 164.339 5.65Z" stroke="#001133" stroke-width="0.5"/>
<path d="M184.621 5.68994C184.621 4.49647 184.147 3.35187 183.303 2.50796C182.459 1.66405 181.315 1.18994 180.121 1.18994C178.928 1.18994 177.783 1.66405 176.939 2.50796C176.095 3.35187 175.621 4.49647 175.621 5.68994C175.621 6.88342 176.095 8.02801 176.939 8.87192C177.783 9.71584 178.928 10.1899 180.121 10.1899C181.315 10.1899 182.459 9.71584 183.303 8.87192C184.147 8.02801 184.621 6.88342 184.621 5.68994Z" stroke="#4C40F7" stroke-opacity="0.3" stroke-width="0.5"/>
<path d="M205.14 5.64991C205.14 4.45909 204.667 3.31704 203.825 2.475C202.983 1.63297 201.841 1.15991 200.65 1.15991C200.061 1.15991 199.477 1.27605 198.932 1.50169C198.387 1.72734 197.892 2.05807 197.475 2.475C197.058 2.89194 196.728 3.38691 196.502 3.93166C196.276 4.47642 196.16 5.06028 196.16 5.64991C196.16 6.23955 196.276 6.82341 196.502 7.36816C196.728 7.91291 197.058 8.40789 197.475 8.82482C197.892 9.24176 198.387 9.57249 198.932 9.79813C199.477 10.0238 200.061 10.1399 200.65 10.1399C201.841 10.1399 202.983 9.66686 203.825 8.82482C204.667 7.98278 205.14 6.84074 205.14 5.64991Z" stroke="#4C40F7" stroke-opacity="0.3" stroke-width="0.5"/>
<path d="M243.641 5.73002C243.641 4.54716 243.171 3.41274 242.334 2.57632C241.498 1.73991 240.364 1.27002 239.181 1.27002C237.998 1.27002 236.863 1.73991 236.027 2.57632C235.191 3.41274 234.721 4.54716 234.721 5.73002C234.721 6.31572 234.836 6.89568 235.06 7.43679C235.284 7.9779 235.613 8.46957 236.027 8.88372C236.441 9.29787 236.933 9.62639 237.474 9.85052C238.015 10.0747 238.595 10.19 239.181 10.19C239.766 10.19 240.346 10.0747 240.887 9.85052C241.429 9.62639 241.92 9.29787 242.334 8.88372C242.749 8.46957 243.077 7.9779 243.301 7.43679C243.525 6.89568 243.641 6.31572 243.641 5.73002Z" stroke="#4C40F7" stroke-opacity="0.3" stroke-width="0.5"/>
<path d="M184.43 25.2601C184.43 24.0772 183.96 22.9428 183.123 22.1064C182.287 21.2699 181.153 20.8 179.97 20.8C178.787 20.8 177.652 21.2699 176.816 22.1064C175.98 22.9428 175.51 24.0772 175.51 25.2601C175.51 26.4429 175.98 27.5773 176.816 28.4137C177.652 29.2502 178.787 29.7201 179.97 29.7201C181.153 29.7201 182.287 29.2502 183.123 28.4137C183.96 27.5773 184.43 26.4429 184.43 25.2601Z" stroke="#4C40F7" stroke-opacity="0.3" stroke-width="0.5"/>
<path d="M205.041 25.2598C205.041 24.6754 204.926 24.0968 204.702 23.5569C204.478 23.017 204.15 22.5264 203.737 22.1132C203.324 21.7 202.833 21.3722 202.294 21.1485C201.754 20.9249 201.175 20.8098 200.591 20.8098C199.41 20.8098 198.279 21.2787 197.444 22.1132C196.609 22.9477 196.141 24.0796 196.141 25.2598C196.141 26.44 196.609 27.5719 197.444 28.4064C198.279 29.241 199.41 29.7098 200.591 29.7098C201.175 29.7098 201.754 29.5947 202.294 29.3711C202.833 29.1474 203.324 28.8197 203.737 28.4064C204.15 27.9932 204.478 27.5027 204.702 26.9628C204.926 26.4229 205.041 25.8442 205.041 25.2598Z" stroke="#4C40F7" stroke-opacity="0.3" stroke-width="0.5"/>
<path d="M164.19 25.3399C164.19 24.157 163.72 23.0226 162.883 22.1862C162.047 21.3498 160.912 20.8799 159.73 20.8799C158.547 20.8799 157.412 21.3498 156.576 22.1862C155.739 23.0226 155.27 24.157 155.27 25.3399C155.27 26.5227 155.739 27.6572 156.576 28.4936C157.412 29.33 158.547 29.7999 159.73 29.7999C160.912 29.7999 162.047 29.33 162.883 28.4936C163.72 27.6572 164.19 26.5227 164.19 25.3399Z" stroke="#4C40F7" stroke-opacity="0.3" stroke-width="0.5"/>
<path d="M243.681 25.2898C243.681 24.1016 243.209 22.9621 242.369 22.122C241.528 21.2818 240.389 20.8098 239.201 20.8098C238.013 20.8098 236.873 21.2818 236.033 22.122C235.193 22.9621 234.721 24.1016 234.721 25.2898C234.721 26.478 235.193 27.6175 236.033 28.4577C236.873 29.2978 238.013 29.7698 239.201 29.7698C240.389 29.7698 241.528 29.2978 242.369 28.4577C243.209 27.6175 243.681 26.478 243.681 25.2898Z" stroke="#4C40F7" stroke-opacity="0.3" stroke-width="0.5"/>
<path d="M223.891 25.2999C223.891 24.3372 223.508 23.4139 222.828 22.7331C222.147 22.0524 221.224 21.6699 220.261 21.6699C219.298 21.6699 218.375 22.0524 217.694 22.7331C217.013 23.4139 216.631 24.3372 216.631 25.2999C216.631 26.2627 217.013 27.186 217.694 27.8667C218.375 28.5475 219.298 28.9299 220.261 28.9299C221.224 28.9299 222.147 28.5475 222.828 27.8667C223.508 27.186 223.891 26.2627 223.891 25.2999Z" stroke="#4C40F7" stroke-opacity="0.3" stroke-width="0.5"/>
<path d="M164.159 44.7801C164.159 43.5919 163.687 42.4524 162.847 41.6122C162.007 40.7721 160.867 40.3 159.679 40.3C158.491 40.3 157.352 40.7721 156.511 41.6122C155.671 42.4524 155.199 43.5919 155.199 44.7801C155.199 45.3684 155.315 45.9509 155.54 46.4945C155.765 47.038 156.095 47.5319 156.511 47.9479C156.927 48.3639 157.421 48.6939 157.965 48.919C158.508 49.1442 159.091 49.26 159.679 49.26C160.268 49.26 160.85 49.1442 161.394 48.919C161.937 48.6939 162.431 48.3639 162.847 47.9479C163.263 47.5319 163.593 47.038 163.818 46.4945C164.043 45.9509 164.159 45.3684 164.159 44.7801Z" stroke="#4C40F7" stroke-opacity="0.3" stroke-width="0.5"/>
<path d="M184.681 44.81C184.681 43.5873 184.195 42.4147 183.331 41.5502C182.466 40.6856 181.294 40.2 180.071 40.2C178.848 40.2 177.676 40.6856 176.811 41.5502C175.947 42.4147 175.461 43.5873 175.461 44.81C175.461 46.0326 175.947 47.2052 176.811 48.0697C177.676 48.9343 178.848 49.42 180.071 49.42C181.294 49.42 182.466 48.9343 183.331 48.0697C184.195 47.2052 184.681 46.0326 184.681 44.81Z" stroke="#001133" stroke-width="0.5"/>
<path d="M205.119 44.8099C205.119 44.2295 205.005 43.6547 204.783 43.1184C204.561 42.5822 204.235 42.0949 203.825 41.6845C203.414 41.274 202.927 40.9485 202.391 40.7263C201.854 40.5042 201.28 40.3899 200.699 40.3899C199.527 40.3899 198.403 40.8556 197.574 41.6845C196.745 42.5134 196.279 43.6376 196.279 44.8099C196.279 45.3903 196.394 45.9651 196.616 46.5014C196.838 47.0376 197.163 47.5249 197.574 47.9353C197.984 48.3457 198.472 48.6713 199.008 48.8934C199.544 49.1156 200.119 49.2299 200.699 49.2299C201.28 49.2299 201.854 49.1156 202.391 48.8934C202.927 48.6713 203.414 48.3457 203.825 47.9353C204.235 47.5249 204.561 47.0376 204.783 46.5014C205.005 45.9651 205.119 45.3903 205.119 44.8099Z" stroke="#4C40F7" stroke-opacity="0.3" stroke-width="0.5"/>
<path d="M243.61 44.8799C243.61 43.7024 243.143 42.573 242.31 41.7404C241.477 40.9077 240.348 40.4399 239.17 40.4399C237.993 40.4399 236.864 40.9077 236.031 41.7404C235.198 42.573 234.73 43.7024 234.73 44.8799C234.73 46.0575 235.198 47.1868 236.031 48.0195C236.864 48.8522 237.993 49.3199 239.17 49.3199C240.348 49.3199 241.477 48.8522 242.31 48.0195C243.143 47.1868 243.61 46.0575 243.61 44.8799Z" stroke="#4C40F7" stroke-opacity="0.3" stroke-width="0.5"/>
<path d="M243.901 64.49C243.901 63.8702 243.779 63.2564 243.542 62.6838C243.304 62.1111 242.957 61.5908 242.518 61.1525C242.08 60.7142 241.56 60.3665 240.987 60.1293C240.415 59.8921 239.801 59.77 239.181 59.77C238.561 59.77 237.947 59.8921 237.375 60.1293C236.802 60.3665 236.282 60.7142 235.843 61.1525C235.405 61.5908 235.057 62.1111 234.82 62.6838C234.583 63.2564 234.461 63.8702 234.461 64.49C234.461 65.7418 234.958 66.9424 235.843 67.8276C236.729 68.7127 237.929 69.21 239.181 69.21C240.433 69.21 241.633 68.7127 242.518 67.8276C243.404 66.9424 243.901 65.7418 243.901 64.49Z" stroke="#001133" stroke-width="0.5"/>
<path d="M164.201 64.46C164.201 63.8703 164.085 63.2865 163.859 62.7417C163.633 62.197 163.303 61.702 162.886 61.2851C162.469 60.8681 161.974 60.5374 161.429 60.3118C160.884 60.0861 160.3 59.97 159.711 59.97C159.121 59.97 158.537 60.0861 157.992 60.3118C157.448 60.5374 156.953 60.8681 156.536 61.2851C156.119 61.702 155.788 62.197 155.562 62.7417C155.337 63.2865 155.221 63.8703 155.221 64.46C155.221 65.6508 155.694 66.7928 156.536 67.6349C157.378 68.4769 158.52 68.95 159.711 68.95C160.902 68.95 162.044 68.4769 162.886 67.6349C163.728 66.7928 164.201 65.6508 164.201 64.46Z" stroke="#4C40F7" stroke-opacity="0.3" stroke-width="0.5"/>
<path d="M184.72 64.4899C184.72 63.2672 184.234 62.0947 183.37 61.2301C182.505 60.3656 181.333 59.8799 180.11 59.8799C178.887 59.8799 177.715 60.3656 176.85 61.2301C175.986 62.0947 175.5 63.2672 175.5 64.4899C175.5 65.7125 175.986 66.8851 176.85 67.7496C177.715 68.6142 178.887 69.0999 180.11 69.0999C181.333 69.0999 182.505 68.6142 183.37 67.7496C184.234 66.8851 184.72 65.7125 184.72 64.4899Z" stroke="#001133" stroke-width="0.5"/>
<path d="M205.079 64.5299C205.079 63.3629 204.616 62.2438 203.791 61.4186C202.965 60.5934 201.846 60.1299 200.679 60.1299C199.512 60.1299 198.393 60.5934 197.568 61.4186C196.743 62.2438 196.279 63.3629 196.279 64.5299C196.279 65.6968 196.743 66.816 197.568 67.6412C198.393 68.4663 199.512 68.9299 200.679 68.9299C201.846 68.9299 202.965 68.4663 203.791 67.6412C204.616 66.816 205.079 65.6968 205.079 64.5299Z" stroke="#4C40F7" stroke-opacity="0.3" stroke-width="0.5"/>
<path d="M184.791 84.16C184.791 82.9241 184.3 81.7388 183.426 80.8649C182.552 79.991 181.367 79.5 180.131 79.5C179.519 79.5 178.913 79.6205 178.347 79.8547C177.782 80.0889 177.268 80.4322 176.836 80.8649C176.403 81.2976 176.06 81.8113 175.825 82.3767C175.591 82.9421 175.471 83.548 175.471 84.16C175.471 84.772 175.591 85.3779 175.825 85.9433C176.06 86.5087 176.403 87.0224 176.836 87.4551C177.268 87.8878 177.782 88.2311 178.347 88.4653C178.913 88.6995 179.519 88.82 180.131 88.82C180.743 88.82 181.349 88.6995 181.914 88.4653C182.479 88.2311 182.993 87.8878 183.426 87.4551C183.859 87.0224 184.202 86.5087 184.436 85.9433C184.67 85.3779 184.791 84.772 184.791 84.16Z" stroke="#001133" stroke-width="0.5"/>
<path d="M243.871 84.2198C243.871 82.9839 243.38 81.7986 242.506 80.9247C241.632 80.0508 240.447 79.5598 239.211 79.5598C237.975 79.5598 236.79 80.0508 235.916 80.9247C235.042 81.7986 234.551 82.9839 234.551 84.2198C234.551 85.4557 235.042 86.641 235.916 87.5149C236.79 88.3889 237.975 88.8798 239.211 88.8798C240.447 88.8798 241.632 88.3889 242.506 87.5149C243.38 86.641 243.871 85.4557 243.871 84.2198Z" stroke="#001133" stroke-width="0.5"/>
<path d="M164.179 84.25C164.179 83.0592 163.706 81.9171 162.864 81.0751C162.022 80.2331 160.88 79.76 159.689 79.76C158.498 79.76 157.356 80.2331 156.514 81.0751C155.672 81.9171 155.199 83.0592 155.199 84.25C155.199 84.8397 155.315 85.4235 155.541 85.9683C155.767 86.513 156.097 87.008 156.514 87.4249C156.931 87.8419 157.426 88.1726 157.971 88.3982C158.516 88.6239 159.1 88.74 159.689 88.74C160.279 88.74 160.863 88.6239 161.407 88.3982C161.952 88.1726 162.447 87.8419 162.864 87.4249C163.281 87.008 163.612 86.513 163.837 85.9683C164.063 85.4235 164.179 84.8397 164.179 84.25Z" stroke="#4C40F7" stroke-opacity="0.3" stroke-width="0.5"/>
<path d="M205.07 84.19C205.07 83.6109 204.956 83.0374 204.734 82.5024C204.513 81.9673 204.188 81.4812 203.778 81.0717C203.369 80.6622 202.883 80.3373 202.348 80.1157C201.813 79.8941 201.239 79.78 200.66 79.78C199.49 79.78 198.369 80.2447 197.542 81.0717C196.715 81.8987 196.25 83.0204 196.25 84.19C196.25 85.3596 196.715 86.4813 197.542 87.3084C198.369 88.1354 199.49 88.6 200.66 88.6C201.239 88.6 201.813 88.486 202.348 88.2643C202.883 88.0427 203.369 87.7179 203.778 87.3084C204.188 86.8989 204.513 86.4127 204.734 85.8777C204.956 85.3426 205.07 84.7692 205.07 84.19Z" stroke="#4C40F7" stroke-opacity="0.3" stroke-width="0.5"/>
<path d="M263.651 83.56C263.651 82.5522 263.25 81.5856 262.538 80.873C261.825 80.1604 260.859 79.76 259.851 79.76C258.843 79.76 257.876 80.1604 257.164 80.873C256.451 81.5856 256.051 82.5522 256.051 83.56C256.051 84.5678 256.451 85.5344 257.164 86.247C257.876 86.9597 258.843 87.36 259.851 87.36C260.859 87.36 261.825 86.9597 262.538 86.247C263.25 85.5344 263.651 84.5678 263.651 83.56Z" stroke="#001133" stroke-width="0.5"/>
<path d="M223.949 83.8299C223.949 82.8672 223.567 81.9439 222.886 81.2632C222.205 80.5824 221.282 80.2 220.319 80.2C219.843 80.2 219.371 80.2938 218.93 80.4763C218.49 80.6587 218.09 80.9261 217.753 81.2632C217.416 81.6002 217.148 82.0004 216.966 82.4408C216.783 82.8812 216.689 83.3533 216.689 83.8299C216.689 84.3066 216.783 84.7787 216.966 85.2191C217.148 85.6595 217.416 86.0597 217.753 86.3968C218.09 86.7338 218.49 87.0012 218.93 87.1836C219.371 87.3661 219.843 87.46 220.319 87.46C221.282 87.46 222.205 87.0775 222.886 86.3968C223.567 85.716 223.949 84.7927 223.949 83.8299Z" stroke="#4C40F7" stroke-opacity="0.3" stroke-width="0.5"/>
<path d="M184.86 103.89C184.86 102.651 184.368 101.464 183.492 100.588C182.616 99.712 181.428 99.22 180.19 99.22C178.951 99.22 177.763 99.712 176.887 100.588C176.012 101.464 175.52 102.651 175.52 103.89C175.52 104.503 175.64 105.111 175.875 105.677C176.11 106.244 176.454 106.759 176.887 107.192C177.321 107.626 177.836 107.97 178.402 108.204C178.969 108.439 179.576 108.56 180.19 108.56C180.803 108.56 181.41 108.439 181.977 108.204C182.543 107.97 183.058 107.626 183.492 107.192C183.925 106.759 184.269 106.244 184.504 105.677C184.739 105.111 184.86 104.503 184.86 103.89Z" stroke="#001133" stroke-width="0.5"/>
<path d="M205.329 103.8C205.329 102.588 204.848 101.426 203.991 100.569C203.134 99.7115 201.971 99.23 200.759 99.23C199.547 99.23 198.385 99.7115 197.528 100.569C196.671 101.426 196.189 102.588 196.189 103.8C196.189 105.012 196.671 106.174 197.528 107.031C198.385 107.889 199.547 108.37 200.759 108.37C201.971 108.37 203.134 107.889 203.991 107.031C204.848 106.174 205.329 105.012 205.329 103.8Z" stroke="#001133" stroke-width="0.5"/>
<path d="M243.85 103.97C243.85 102.729 243.357 101.538 242.479 100.661C241.602 99.7829 240.411 99.2898 239.17 99.2898C237.929 99.2898 236.739 99.7829 235.861 100.661C234.983 101.538 234.49 102.729 234.49 103.97C234.49 105.211 234.983 106.401 235.861 107.279C236.739 108.157 237.929 108.65 239.17 108.65C240.411 108.65 241.602 108.157 242.479 107.279C243.357 106.401 243.85 105.211 243.85 103.97Z" stroke="#001133" stroke-width="0.5"/>
<path d="M164.201 103.89C164.201 103.295 164.083 102.706 163.856 102.156C163.628 101.607 163.294 101.107 162.874 100.687C162.453 100.266 161.954 99.9323 161.404 99.7047C160.855 99.477 160.266 99.3599 159.671 99.3599C159.076 99.3599 158.487 99.477 157.937 99.7047C157.387 99.9323 156.888 100.266 156.467 100.687C156.047 101.107 155.713 101.607 155.485 102.156C155.258 102.706 155.141 103.295 155.141 103.89C155.141 105.091 155.618 106.244 156.467 107.093C157.317 107.943 158.469 108.42 159.671 108.42C160.872 108.42 162.024 107.943 162.874 107.093C163.723 106.244 164.201 105.091 164.201 103.89Z" stroke="#4C40F7" stroke-opacity="0.3" stroke-width="0.5"/>
<path d="M164.32 123.76C164.32 122.524 163.829 121.339 162.955 120.465C162.081 119.591 160.896 119.1 159.66 119.1C158.424 119.1 157.239 119.591 156.365 120.465C155.491 121.339 155 122.524 155 123.76C155 124.996 155.491 126.181 156.365 127.055C157.239 127.929 158.424 128.42 159.66 128.42C160.896 128.42 162.081 127.929 162.955 127.055C163.829 126.181 164.32 124.996 164.32 123.76Z" stroke="#001133" stroke-width="0.5"/>
<path d="M184.771 123.76C184.771 122.516 184.276 121.323 183.397 120.444C182.517 119.564 181.324 119.07 180.081 119.07C178.837 119.07 177.644 119.564 176.764 120.444C175.885 121.323 175.391 122.516 175.391 123.76C175.391 125.004 175.885 126.197 176.764 127.076C177.644 127.956 178.837 128.45 180.081 128.45C181.324 128.45 182.517 127.956 183.397 127.076C184.276 126.197 184.771 125.004 184.771 123.76Z" stroke="#001133" stroke-width="0.5"/>
<path d="M243.84 123.76C243.84 123.145 243.719 122.537 243.484 121.969C243.249 121.401 242.904 120.885 242.47 120.451C242.035 120.016 241.519 119.671 240.951 119.436C240.384 119.201 239.775 119.08 239.16 119.08C238.546 119.08 237.937 119.201 237.37 119.436C236.802 119.671 236.286 120.016 235.851 120.451C235.417 120.885 235.072 121.401 234.837 121.969C234.602 122.537 234.48 123.145 234.48 123.76C234.48 124.374 234.602 124.983 234.837 125.551C235.072 126.119 235.417 126.635 235.851 127.069C236.286 127.504 236.802 127.848 237.37 128.084C237.937 128.319 238.546 128.44 239.16 128.44C239.775 128.44 240.384 128.319 240.951 128.084C241.519 127.848 242.035 127.504 242.47 127.069C242.904 126.635 243.249 126.119 243.484 125.551C243.719 124.983 243.84 124.374 243.84 123.76Z" stroke="#001133" stroke-width="0.5"/>
<path d="M164.339 5.65C164.339 6.26065 164.219 6.86532 163.985 7.42948C163.751 7.99364 163.409 8.50625 162.977 8.93805C162.545 9.36984 162.033 9.71236 161.469 9.94604C160.904 10.1797 160.3 10.3 159.689 10.3C158.456 10.3 157.273 9.81009 156.401 8.93805C155.529 8.066 155.039 6.88326 155.039 5.65C155.039 4.41674 155.529 3.234 156.401 2.36195C157.273 1.48991 158.456 1 159.689 1C160.3 1 160.904 1.12028 161.469 1.35396C162.033 1.58764 162.545 1.93016 162.977 2.36195C163.409 2.79375 163.751 3.30636 163.985 3.87052C164.219 4.43469 164.339 5.03935 164.339 5.65Z" fill="#001133"/>
<path d="M184.619 5.68994C184.619 6.88342 184.145 8.02801 183.301 8.87192C182.457 9.71584 181.313 10.1899 180.119 10.1899C178.926 10.1899 177.781 9.71584 176.937 8.87192C176.093 8.02801 175.619 6.88342 175.619 5.68994C175.619 4.49647 176.093 3.35187 176.937 2.50796C177.781 1.66405 178.926 1.18994 180.119 1.18994C181.313 1.18994 182.457 1.66405 183.301 2.50796C184.145 3.35187 184.619 4.49647 184.619 5.68994Z" fill="#4C40F7" fill-opacity="0.3"/>
<path d="M205.14 5.64991C205.14 6.84074 204.667 7.98278 203.825 8.82482C202.983 9.66686 201.841 10.1399 200.65 10.1399C200.061 10.1399 199.477 10.0238 198.932 9.79813C198.387 9.57249 197.892 9.24176 197.475 8.82482C197.058 8.40789 196.728 7.91291 196.502 7.36816C196.276 6.82341 196.16 6.23955 196.16 5.64991C196.16 5.06028 196.276 4.47642 196.502 3.93166C196.728 3.38691 197.058 2.89194 197.475 2.475C197.892 2.05807 198.387 1.72734 198.932 1.50169C199.477 1.27605 200.061 1.15991 200.65 1.15991C201.841 1.15991 202.983 1.63297 203.825 2.475C204.667 3.31704 205.14 4.45909 205.14 5.64991Z" fill="#4C40F7" fill-opacity="0.3"/>
<path d="M243.641 5.73002C243.641 6.31572 243.525 6.89568 243.301 7.43679C243.077 7.9779 242.749 8.46957 242.334 8.88372C241.92 9.29787 241.429 9.62638 240.887 9.85052C240.346 10.0747 239.766 10.19 239.181 10.19C238.595 10.19 238.015 10.0747 237.474 9.85052C236.933 9.62638 236.441 9.29787 236.027 8.88372C235.613 8.46957 235.284 7.9779 235.06 7.43679C234.836 6.89568 234.721 6.31572 234.721 5.73002C234.721 4.54715 235.191 3.41274 236.027 2.57632C236.863 1.73991 237.998 1.27002 239.181 1.27002C240.364 1.27002 241.498 1.73991 242.334 2.57632C243.171 3.41274 243.641 4.54715 243.641 5.73002Z" fill="#4C40F7" fill-opacity="0.3"/>
<path d="M184.43 25.2601C184.43 26.4429 183.96 27.5773 183.123 28.4137C182.287 29.2502 181.153 29.7201 179.97 29.7201C178.787 29.7201 177.652 29.2502 176.816 28.4137C175.98 27.5773 175.51 26.4429 175.51 25.2601C175.51 24.0772 175.98 22.9428 176.816 22.1064C177.652 21.2699 178.787 20.8 179.97 20.8C181.153 20.8 182.287 21.2699 183.123 22.1064C183.96 22.9428 184.43 24.0772 184.43 25.2601Z" fill="#4C40F7" fill-opacity="0.3"/>
<path d="M205.041 25.2598C205.041 25.8442 204.926 26.4229 204.702 26.9628C204.478 27.5027 204.15 27.9932 203.737 28.4064C203.324 28.8197 202.833 29.1474 202.294 29.3711C201.754 29.5947 201.175 29.7098 200.591 29.7098C199.41 29.7098 198.279 29.241 197.444 28.4064C196.609 27.5719 196.141 26.44 196.141 25.2598C196.141 24.0796 196.609 22.9477 197.444 22.1132C198.279 21.2787 199.41 20.8098 200.591 20.8098C201.175 20.8098 201.754 20.9249 202.294 21.1485C202.833 21.3722 203.324 21.7 203.737 22.1132C204.15 22.5264 204.478 23.017 204.702 23.5569C204.926 24.0968 205.041 24.6754 205.041 25.2598Z" fill="#4C40F7" fill-opacity="0.3"/>
<path d="M164.19 25.3399C164.19 26.5227 163.72 27.6572 162.883 28.4936C162.047 29.33 160.912 29.7999 159.73 29.7999C158.547 29.7999 157.412 29.33 156.576 28.4936C155.739 27.6572 155.27 26.5227 155.27 25.3399C155.27 24.157 155.739 23.0226 156.576 22.1862C157.412 21.3498 158.547 20.8799 159.73 20.8799C160.912 20.8799 162.047 21.3498 162.883 22.1862C163.72 23.0226 164.19 24.157 164.19 25.3399Z" fill="#4C40F7" fill-opacity="0.3"/>
<path d="M243.681 25.2898C243.681 26.478 243.209 27.6175 242.369 28.4577C241.528 29.2978 240.389 29.7698 239.201 29.7698C238.013 29.7698 236.873 29.2978 236.033 28.4577C235.193 27.6175 234.721 26.478 234.721 25.2898C234.721 24.1016 235.193 22.9621 236.033 22.122C236.873 21.2818 238.013 20.8098 239.201 20.8098C240.389 20.8098 241.528 21.2818 242.369 22.122C243.209 22.9621 243.681 24.1016 243.681 25.2898Z" fill="#4C40F7" fill-opacity="0.3"/>
<path d="M223.891 25.2999C223.891 26.2627 223.508 27.186 222.828 27.8667C222.147 28.5475 221.224 28.9299 220.261 28.9299C219.298 28.9299 218.375 28.5475 217.694 27.8667C217.013 27.186 216.631 26.2627 216.631 25.2999C216.631 24.3372 217.013 23.4139 217.694 22.7331C218.375 22.0524 219.298 21.6699 220.261 21.6699C221.224 21.6699 222.147 22.0524 222.828 22.7331C223.508 23.4139 223.891 24.3372 223.891 25.2999Z" fill="#4C40F7" fill-opacity="0.3"/>
<path d="M164.159 44.7801C164.159 45.3684 164.043 45.9509 163.818 46.4945C163.593 47.038 163.263 47.5319 162.847 47.9479C162.431 48.3639 161.937 48.6939 161.394 48.919C160.85 49.1442 160.268 49.26 159.679 49.26C159.091 49.26 158.508 49.1442 157.965 48.919C157.421 48.6939 156.927 48.3639 156.511 47.9479C156.095 47.5319 155.765 47.038 155.54 46.4945C155.315 45.9509 155.199 45.3684 155.199 44.7801C155.199 43.5919 155.671 42.4524 156.511 41.6122C157.352 40.7721 158.491 40.3 159.679 40.3C160.867 40.3 162.007 40.7721 162.847 41.6122C163.687 42.4524 164.159 43.5919 164.159 44.7801Z" fill="#4C40F7" fill-opacity="0.3"/>
<path d="M184.681 44.81C184.681 46.0326 184.195 47.2052 183.331 48.0697C182.466 48.9343 181.294 49.42 180.071 49.42C178.848 49.42 177.676 48.9343 176.811 48.0697C175.947 47.2052 175.461 46.0326 175.461 44.81C175.461 43.5873 175.947 42.4147 176.811 41.5502C177.676 40.6856 178.848 40.2 180.071 40.2C181.294 40.2 182.466 40.6856 183.331 41.5502C184.195 42.4147 184.681 43.5873 184.681 44.81Z" fill="#001133"/>
<path d="M205.119 44.8099C205.119 45.3903 205.005 45.9651 204.783 46.5014C204.561 47.0376 204.235 47.5249 203.825 47.9353C203.414 48.3457 202.927 48.6713 202.391 48.8934C201.854 49.1156 201.28 49.2299 200.699 49.2299C200.119 49.2299 199.544 49.1156 199.008 48.8934C198.472 48.6713 197.984 48.3457 197.574 47.9353C197.163 47.5249 196.838 47.0376 196.616 46.5014C196.394 45.9651 196.279 45.3903 196.279 44.8099C196.279 43.6376 196.745 42.5134 197.574 41.6845C198.403 40.8556 199.527 40.3899 200.699 40.3899C201.28 40.3899 201.854 40.5042 202.391 40.7263C202.927 40.9485 203.414 41.274 203.825 41.6845C204.235 42.0949 204.561 42.5822 204.783 43.1184C205.005 43.6547 205.119 44.2295 205.119 44.8099Z" fill="#4C40F7" fill-opacity="0.3"/>
<path d="M243.61 44.8799C243.61 46.0575 243.143 47.1868 242.31 48.0195C241.477 48.8522 240.348 49.3199 239.17 49.3199C237.993 49.3199 236.864 48.8522 236.031 48.0195C235.198 47.1868 234.73 46.0575 234.73 44.8799C234.73 43.7024 235.198 42.573 236.031 41.7404C236.864 40.9077 237.993 40.4399 239.17 40.4399C240.348 40.4399 241.477 40.9077 242.31 41.7404C243.143 42.573 243.61 43.7024 243.61 44.8799Z" fill="#4C40F7" fill-opacity="0.3"/>
<path d="M243.901 64.49C243.901 65.7418 243.404 66.9424 242.518 67.8276C241.633 68.7127 240.433 69.21 239.181 69.21C237.929 69.21 236.729 68.7127 235.843 67.8276C234.958 66.9424 234.461 65.7418 234.461 64.49C234.461 63.8702 234.583 63.2564 234.82 62.6838C235.057 62.1111 235.405 61.5908 235.843 61.1525C236.282 60.7142 236.802 60.3665 237.375 60.1293C237.947 59.8921 238.561 59.77 239.181 59.77C239.801 59.77 240.415 59.8921 240.987 60.1293C241.56 60.3665 242.08 60.7142 242.518 61.1525C242.957 61.5908 243.304 62.1111 243.542 62.6838C243.779 63.2564 243.901 63.8702 243.901 64.49Z" fill="#001133"/>
<path d="M164.201 64.46C164.201 65.6508 163.728 66.7928 162.886 67.6349C162.044 68.4769 160.902 68.95 159.711 68.95C158.52 68.95 157.378 68.4769 156.536 67.6349C155.694 66.7928 155.221 65.6508 155.221 64.46C155.221 63.8703 155.337 63.2865 155.562 62.7417C155.788 62.197 156.119 61.702 156.536 61.2851C156.953 60.8681 157.448 60.5374 157.992 60.3118C158.537 60.0861 159.121 59.97 159.711 59.97C160.3 59.97 160.884 60.0861 161.429 60.3118C161.974 60.5374 162.469 60.8681 162.886 61.2851C163.303 61.702 163.633 62.197 163.859 62.7417C164.085 63.2865 164.201 63.8703 164.201 64.46Z" fill="#4C40F7" fill-opacity="0.3"/>
<path d="M184.72 64.4899C184.72 65.7125 184.234 66.8851 183.37 67.7496C182.505 68.6142 181.333 69.0999 180.11 69.0999C178.887 69.0999 177.715 68.6142 176.85 67.7496C175.986 66.8851 175.5 65.7125 175.5 64.4899C175.5 63.2672 175.986 62.0947 176.85 61.2301C177.715 60.3656 178.887 59.8799 180.11 59.8799C181.333 59.8799 182.505 60.3656 183.37 61.2301C184.234 62.0947 184.72 63.2672 184.72 64.4899Z" fill="#001133"/>
<path d="M205.079 64.5299C205.079 65.6968 204.616 66.816 203.791 67.6412C202.965 68.4663 201.846 68.9299 200.679 68.9299C199.512 68.9299 198.393 68.4663 197.568 67.6412C196.743 66.816 196.279 65.6968 196.279 64.5299C196.279 63.3629 196.743 62.2438 197.568 61.4186C198.393 60.5934 199.512 60.1299 200.679 60.1299C201.846 60.1299 202.965 60.5934 203.791 61.4186C204.616 62.2438 205.079 63.3629 205.079 64.5299Z" fill="#4C40F7" fill-opacity="0.3"/>
<path d="M184.791 84.16C184.791 84.772 184.67 85.3779 184.436 85.9433C184.202 86.5087 183.859 87.0224 183.426 87.4551C182.993 87.8878 182.479 88.2311 181.914 88.4653C181.349 88.6995 180.743 88.82 180.131 88.82C179.519 88.82 178.913 88.6995 178.347 88.4653C177.782 88.2311 177.268 87.8878 176.836 87.4551C176.403 87.0224 176.06 86.5087 175.825 85.9433C175.591 85.3779 175.471 84.772 175.471 84.16C175.471 83.548 175.591 82.9421 175.825 82.3767C176.06 81.8113 176.403 81.2976 176.836 80.8649C177.268 80.4322 177.782 80.0889 178.347 79.8547C178.913 79.6205 179.519 79.5 180.131 79.5C181.367 79.5 182.552 79.991 183.426 80.8649C184.3 81.7388 184.791 82.9241 184.791 84.16Z" fill="#001133"/>
<path d="M243.871 84.2198C243.871 85.4557 243.38 86.641 242.506 87.5149C241.632 88.3889 240.447 88.8798 239.211 88.8798C237.975 88.8798 236.79 88.3889 235.916 87.5149C235.042 86.641 234.551 85.4557 234.551 84.2198C234.551 82.9839 235.042 81.7986 235.916 80.9247C236.79 80.0508 237.975 79.5598 239.211 79.5598C240.447 79.5598 241.632 80.0508 242.506 80.9247C243.38 81.7986 243.871 82.9839 243.871 84.2198Z" fill="#001133"/>
<path d="M164.179 84.25C164.179 84.8397 164.063 85.4235 163.837 85.9683C163.612 86.513 163.281 87.008 162.864 87.4249C162.447 87.8419 161.952 88.1726 161.407 88.3982C160.863 88.6239 160.279 88.74 159.689 88.74C159.1 88.74 158.516 88.6239 157.971 88.3982C157.426 88.1726 156.931 87.8419 156.514 87.4249C156.097 87.008 155.767 86.513 155.541 85.9683C155.315 85.4235 155.199 84.8397 155.199 84.25C155.199 83.0592 155.672 81.9171 156.514 81.0751C157.356 80.2331 158.498 79.76 159.689 79.76C160.88 79.76 162.022 80.2331 162.864 81.0751C163.706 81.9171 164.179 83.0592 164.179 84.25Z" fill="#4C40F7" fill-opacity="0.3"/>
<path d="M205.07 84.19C205.07 84.7692 204.956 85.3426 204.734 85.8777C204.513 86.4127 204.188 86.8989 203.778 87.3084C203.369 87.7179 202.883 88.0427 202.348 88.2643C201.813 88.486 201.239 88.6 200.66 88.6C199.49 88.6 198.369 88.1354 197.542 87.3084C196.715 86.4813 196.25 85.3596 196.25 84.19C196.25 83.0204 196.715 81.8987 197.542 81.0717C198.369 80.2447 199.49 79.78 200.66 79.78C201.239 79.78 201.813 79.8941 202.348 80.1157C202.883 80.3373 203.369 80.6622 203.778 81.0717C204.188 81.4812 204.513 81.9673 204.734 82.5024C204.956 83.0374 205.07 83.6109 205.07 84.19Z" fill="#4C40F7" fill-opacity="0.3"/>
<path d="M263.651 83.56C263.651 84.5678 263.25 85.5344 262.538 86.247C261.825 86.9597 260.859 87.36 259.851 87.36C258.843 87.36 257.876 86.9597 257.164 86.247C256.451 85.5344 256.051 84.5678 256.051 83.56C256.051 82.5522 256.451 81.5856 257.164 80.873C257.876 80.1604 258.843 79.76 259.851 79.76C260.859 79.76 261.825 80.1604 262.538 80.873C263.25 81.5856 263.651 82.5522 263.651 83.56Z" fill="#001133"/>
<path d="M223.949 83.8299C223.949 84.7927 223.567 85.716 222.886 86.3968C222.205 87.0775 221.282 87.46 220.319 87.46C219.843 87.46 219.371 87.3661 218.93 87.1836C218.49 87.0012 218.09 86.7338 217.753 86.3968C217.416 86.0597 217.148 85.6595 216.966 85.2191C216.783 84.7787 216.689 84.3066 216.689 83.8299C216.689 83.3533 216.783 82.8812 216.966 82.4408C217.148 82.0004 217.416 81.6002 217.753 81.2632C218.09 80.9261 218.49 80.6587 218.93 80.4763C219.371 80.2938 219.843 80.2 220.319 80.2C221.282 80.2 222.205 80.5824 222.886 81.2632C223.567 81.9439 223.949 82.8672 223.949 83.8299Z" fill="#4C40F7" fill-opacity="0.3"/>
<path d="M184.86 103.89C184.86 104.503 184.739 105.111 184.504 105.677C184.269 106.244 183.925 106.759 183.492 107.192C183.058 107.626 182.543 107.97 181.977 108.204C181.41 108.439 180.803 108.56 180.19 108.56C179.576 108.56 178.969 108.439 178.402 108.204C177.836 107.97 177.321 107.626 176.887 107.192C176.454 106.759 176.11 106.244 175.875 105.677C175.64 105.111 175.52 104.503 175.52 103.89C175.52 102.651 176.012 101.464 176.887 100.588C177.763 99.712 178.951 99.22 180.19 99.22C181.428 99.22 182.616 99.712 183.492 100.588C184.368 101.464 184.86 102.651 184.86 103.89Z" fill="#001133"/>
<path d="M205.329 103.8C205.329 105.012 204.848 106.174 203.991 107.031C203.134 107.889 201.971 108.37 200.759 108.37C199.547 108.37 198.385 107.889 197.528 107.031C196.671 106.174 196.189 105.012 196.189 103.8C196.189 102.588 196.671 101.426 197.528 100.569C198.385 99.7115 199.547 99.23 200.759 99.23C201.971 99.23 203.134 99.7115 203.991 100.569C204.848 101.426 205.329 102.588 205.329 103.8Z" fill="#001133"/>
<path d="M243.85 103.97C243.85 105.211 243.357 106.401 242.479 107.279C241.602 108.157 240.411 108.65 239.17 108.65C237.929 108.65 236.739 108.157 235.861 107.279C234.983 106.401 234.49 105.211 234.49 103.97C234.49 102.729 234.983 101.538 235.861 100.661C236.739 99.7829 237.929 99.2898 239.17 99.2898C240.411 99.2898 241.602 99.7829 242.479 100.661C243.357 101.538 243.85 102.729 243.85 103.97Z" fill="#001133"/>
<path d="M164.201 103.89C164.201 105.092 163.723 106.244 162.874 107.093C162.024 107.943 160.872 108.42 159.671 108.42C158.469 108.42 157.317 107.943 156.467 107.093C155.618 106.244 155.141 105.092 155.141 103.89C155.141 103.295 155.258 102.706 155.485 102.157C155.713 101.607 156.047 101.108 156.467 100.687C156.888 100.266 157.387 99.9326 157.937 99.7049C158.487 99.4773 159.076 99.3601 159.671 99.3601C160.266 99.3601 160.855 99.4773 161.404 99.7049C161.954 99.9326 162.453 100.266 162.874 100.687C163.294 101.108 163.628 101.607 163.856 102.157C164.083 102.706 164.201 103.295 164.201 103.89Z" fill="#4C40F7" fill-opacity="0.3"/>
<path d="M164.32 123.76C164.32 124.996 163.829 126.181 162.955 127.055C162.081 127.929 160.896 128.42 159.66 128.42C158.424 128.42 157.239 127.929 156.365 127.055C155.491 126.181 155 124.996 155 123.76C155 122.524 155.491 121.339 156.365 120.465C157.239 119.591 158.424 119.1 159.66 119.1C160.896 119.1 162.081 119.591 162.955 120.465C163.829 121.339 164.32 122.524 164.32 123.76Z" fill="#001133"/>
<path d="M184.771 123.76C184.771 125.004 184.276 126.197 183.397 127.076C182.517 127.956 181.324 128.45 180.081 128.45C178.837 128.45 177.644 127.956 176.764 127.076C175.885 126.197 175.391 125.004 175.391 123.76C175.391 122.516 175.885 121.323 176.764 120.444C177.644 119.564 178.837 119.07 180.081 119.07C181.324 119.07 182.517 119.564 183.397 120.444C184.276 121.323 184.771 122.516 184.771 123.76Z" fill="#001133"/>
<path d="M243.84 123.76C243.84 124.374 243.719 124.983 243.484 125.551C243.249 126.119 242.904 126.635 242.47 127.069C242.035 127.504 241.519 127.848 240.951 128.084C240.384 128.319 239.775 128.44 239.16 128.44C238.546 128.44 237.937 128.319 237.37 128.084C236.802 127.848 236.286 127.504 235.851 127.069C235.417 126.635 235.072 126.119 234.837 125.551C234.602 124.983 234.48 124.374 234.48 123.76C234.48 123.145 234.602 122.537 234.837 121.969C235.072 121.401 235.417 120.885 235.851 120.451C236.286 120.016 236.802 119.671 237.37 119.436C237.937 119.201 238.546 119.08 239.16 119.08C239.775 119.08 240.384 119.201 240.951 119.436C241.519 119.671 242.035 120.016 242.47 120.451C242.904 120.885 243.249 121.401 243.484 121.969C243.719 122.537 243.84 123.145 243.84 123.76Z" fill="#001133"/>
<path d="M286.339 147.65C286.339 147.039 286.219 146.435 285.985 145.871C285.751 145.306 285.409 144.794 284.977 144.362C284.545 143.93 284.033 143.588 283.469 143.354C282.904 143.12 282.3 143 281.689 143C280.456 143 279.273 143.49 278.401 144.362C277.529 145.234 277.039 146.417 277.039 147.65C277.039 148.883 277.529 150.066 278.401 150.938C279.273 151.81 280.456 152.3 281.689 152.3C282.3 152.3 282.904 152.18 283.469 151.946C284.033 151.712 284.545 151.37 284.977 150.938C285.409 150.506 285.751 149.994 285.985 149.429C286.219 148.865 286.339 148.261 286.339 147.65Z" stroke="#001133" stroke-width="0.5"/>
<path d="M306.621 147.69C306.621 146.496 306.147 145.352 305.303 144.508C304.459 143.664 303.315 143.19 302.121 143.19C300.928 143.19 299.783 143.664 298.939 144.508C298.095 145.352 297.621 146.496 297.621 147.69C297.621 148.883 298.095 150.028 298.939 150.872C299.783 151.716 300.928 152.19 302.121 152.19C303.315 152.19 304.459 151.716 305.303 150.872C306.147 150.028 306.621 148.883 306.621 147.69Z" stroke="#4C40F7" stroke-opacity="0.3" stroke-width="0.5"/>
<path d="M327.14 147.65C327.14 146.459 326.667 145.317 325.825 144.475C324.983 143.633 323.841 143.16 322.65 143.16C322.061 143.16 321.477 143.276 320.932 143.502C320.387 143.727 319.892 144.058 319.475 144.475C319.058 144.892 318.728 145.387 318.502 145.932C318.276 146.476 318.16 147.06 318.16 147.65C318.16 148.24 318.276 148.823 318.502 149.368C318.728 149.913 319.058 150.408 319.475 150.825C319.892 151.242 320.387 151.572 320.932 151.798C321.477 152.024 322.061 152.14 322.65 152.14C323.841 152.14 324.983 151.667 325.825 150.825C326.667 149.983 327.14 148.841 327.14 147.65Z" stroke="#4C40F7" stroke-opacity="0.3" stroke-width="0.5"/>
<path d="M365.641 147.73C365.641 146.547 365.171 145.413 364.334 144.576C363.498 143.74 362.364 143.27 361.181 143.27C359.998 143.27 358.863 143.74 358.027 144.576C357.191 145.413 356.721 146.547 356.721 147.73C356.721 148.316 356.836 148.896 357.06 149.437C357.284 149.978 357.613 150.47 358.027 150.884C358.441 151.298 358.933 151.626 359.474 151.851C360.015 152.075 360.595 152.19 361.181 152.19C361.766 152.19 362.346 152.075 362.887 151.851C363.429 151.626 363.92 151.298 364.334 150.884C364.749 150.47 365.077 149.978 365.301 149.437C365.525 148.896 365.641 148.316 365.641 147.73Z" stroke="#4C40F7" stroke-opacity="0.3" stroke-width="0.5"/>
<path d="M306.43 167.26C306.43 166.077 305.96 164.943 305.123 164.106C304.287 163.27 303.153 162.8 301.97 162.8C300.787 162.8 299.652 163.27 298.816 164.106C297.98 164.943 297.51 166.077 297.51 167.26C297.51 168.443 297.98 169.577 298.816 170.414C299.652 171.25 300.787 171.72 301.97 171.72C303.153 171.72 304.287 171.25 305.123 170.414C305.96 169.577 306.43 168.443 306.43 167.26Z" stroke="#4C40F7" stroke-opacity="0.3" stroke-width="0.5"/>
<path d="M327.041 167.26C327.041 166.675 326.926 166.097 326.702 165.557C326.478 165.017 326.15 164.526 325.737 164.113C325.324 163.7 324.833 163.372 324.294 163.149C323.754 162.925 323.175 162.81 322.591 162.81C321.41 162.81 320.279 163.279 319.444 164.113C318.609 164.948 318.141 166.08 318.141 167.26C318.141 168.44 318.609 169.572 319.444 170.406C320.279 171.241 321.41 171.71 322.591 171.71C323.175 171.71 323.754 171.595 324.294 171.371C324.833 171.147 325.324 170.82 325.737 170.406C326.15 169.993 326.478 169.503 326.702 168.963C326.926 168.423 327.041 167.844 327.041 167.26Z" stroke="#4C40F7" stroke-opacity="0.3" stroke-width="0.5"/>
<path d="M286.19 167.34C286.19 166.157 285.72 165.023 284.883 164.186C284.047 163.35 282.912 162.88 281.73 162.88C280.547 162.88 279.412 163.35 278.576 164.186C277.739 165.023 277.27 166.157 277.27 167.34C277.27 168.523 277.739 169.657 278.576 170.494C279.412 171.33 280.547 171.8 281.73 171.8C282.912 171.8 284.047 171.33 284.883 170.494C285.72 169.657 286.19 168.523 286.19 167.34Z" stroke="#4C40F7" stroke-opacity="0.3" stroke-width="0.5"/>
<path d="M365.681 167.29C365.681 166.102 365.209 164.962 364.369 164.122C363.528 163.282 362.389 162.81 361.201 162.81C360.013 162.81 358.873 163.282 358.033 164.122C357.193 164.962 356.721 166.102 356.721 167.29C356.721 168.478 357.193 169.617 358.033 170.458C358.873 171.298 360.013 171.77 361.201 171.77C362.389 171.77 363.528 171.298 364.369 170.458C365.209 169.617 365.681 168.478 365.681 167.29Z" stroke="#4C40F7" stroke-opacity="0.3" stroke-width="0.5"/>
<path d="M345.891 167.3C345.891 166.337 345.508 165.414 344.828 164.733C344.147 164.052 343.224 163.67 342.261 163.67C341.298 163.67 340.375 164.052 339.694 164.733C339.013 165.414 338.631 166.337 338.631 167.3C338.631 168.263 339.013 169.186 339.694 169.867C340.375 170.547 341.298 170.93 342.261 170.93C343.224 170.93 344.147 170.547 344.828 169.867C345.508 169.186 345.891 168.263 345.891 167.3Z" stroke="#4C40F7" stroke-opacity="0.3" stroke-width="0.5"/>
<path d="M286.159 186.78C286.159 185.592 285.687 184.452 284.847 183.612C284.007 182.772 282.867 182.3 281.679 182.3C280.491 182.3 279.352 182.772 278.511 183.612C277.671 184.452 277.199 185.592 277.199 186.78C277.199 187.368 277.315 187.951 277.54 188.494C277.765 189.038 278.095 189.532 278.511 189.948C278.927 190.364 279.421 190.694 279.965 190.919C280.508 191.144 281.091 191.26 281.679 191.26C282.268 191.26 282.85 191.144 283.394 190.919C283.937 190.694 284.431 190.364 284.847 189.948C285.263 189.532 285.593 189.038 285.818 188.494C286.043 187.951 286.159 187.368 286.159 186.78Z" stroke="#4C40F7" stroke-opacity="0.3" stroke-width="0.5"/>
<path d="M306.681 186.81C306.681 185.587 306.195 184.415 305.331 183.55C304.466 182.686 303.294 182.2 302.071 182.2C300.848 182.2 299.676 182.686 298.811 183.55C297.947 184.415 297.461 185.587 297.461 186.81C297.461 188.033 297.947 189.205 298.811 190.07C299.676 190.934 300.848 191.42 302.071 191.42C303.294 191.42 304.466 190.934 305.331 190.07C306.195 189.205 306.681 188.033 306.681 186.81Z" stroke="#001133" stroke-width="0.5"/>
<path d="M327.119 186.81C327.119 186.229 327.005 185.655 326.783 185.118C326.561 184.582 326.235 184.095 325.825 183.684C325.414 183.274 324.927 182.948 324.391 182.726C323.854 182.504 323.28 182.39 322.699 182.39C321.527 182.39 320.403 182.856 319.574 183.684C318.745 184.513 318.279 185.638 318.279 186.81C318.279 187.39 318.394 187.965 318.616 188.501C318.838 189.038 319.163 189.525 319.574 189.935C319.984 190.346 320.472 190.671 321.008 190.893C321.544 191.116 322.119 191.23 322.699 191.23C323.28 191.23 323.854 191.116 324.391 190.893C324.927 190.671 325.414 190.346 325.825 189.935C326.235 189.525 326.561 189.038 326.783 188.501C327.005 187.965 327.119 187.39 327.119 186.81Z" stroke="#4C40F7" stroke-opacity="0.3" stroke-width="0.5"/>
<path d="M365.61 186.88C365.61 185.702 365.143 184.573 364.31 183.74C363.477 182.908 362.348 182.44 361.17 182.44C359.993 182.44 358.864 182.908 358.031 183.74C357.198 184.573 356.73 185.702 356.73 186.88C356.73 188.058 357.198 189.187 358.031 190.019C358.864 190.852 359.993 191.32 361.17 191.32C362.348 191.32 363.477 190.852 364.31 190.019C365.143 189.187 365.61 188.058 365.61 186.88Z" stroke="#4C40F7" stroke-opacity="0.3" stroke-width="0.5"/>
<path d="M365.901 206.49C365.901 205.87 365.779 205.256 365.542 204.684C365.304 204.111 364.957 203.591 364.518 203.152C364.08 202.714 363.56 202.367 362.987 202.129C362.415 201.892 361.801 201.77 361.181 201.77C360.561 201.77 359.947 201.892 359.375 202.129C358.802 202.367 358.282 202.714 357.843 203.152C357.405 203.591 357.057 204.111 356.82 204.684C356.583 205.256 356.461 205.87 356.461 206.49C356.461 207.742 356.958 208.942 357.843 209.828C358.729 210.713 359.929 211.21 361.181 211.21C362.433 211.21 363.633 210.713 364.518 209.828C365.404 208.942 365.901 207.742 365.901 206.49Z" stroke="#001133" stroke-width="0.5"/>
<path d="M286.201 206.46C286.201 205.87 286.085 205.286 285.859 204.742C285.633 204.197 285.303 203.702 284.886 203.285C284.469 202.868 283.974 202.537 283.429 202.312C282.884 202.086 282.3 201.97 281.711 201.97C281.121 201.97 280.537 202.086 279.992 202.312C279.448 202.537 278.953 202.868 278.536 203.285C278.119 203.702 277.788 204.197 277.562 204.742C277.337 205.286 277.221 205.87 277.221 206.46C277.221 207.651 277.694 208.793 278.536 209.635C279.378 210.477 280.52 210.95 281.711 210.95C282.902 210.95 284.044 210.477 284.886 209.635C285.728 208.793 286.201 207.651 286.201 206.46Z" stroke="#4C40F7" stroke-opacity="0.3" stroke-width="0.5"/>
<path d="M306.72 206.49C306.72 205.267 306.234 204.095 305.37 203.23C304.505 202.366 303.333 201.88 302.11 201.88C300.887 201.88 299.715 202.366 298.85 203.23C297.986 204.095 297.5 205.267 297.5 206.49C297.5 207.713 297.986 208.885 298.85 209.75C299.715 210.614 300.887 211.1 302.11 211.1C303.333 211.1 304.505 210.614 305.37 209.75C306.234 208.885 306.72 207.713 306.72 206.49Z" stroke="#001133" stroke-width="0.5"/>
<path d="M327.079 206.53C327.079 205.363 326.616 204.244 325.791 203.419C324.965 202.593 323.846 202.13 322.679 202.13C321.512 202.13 320.393 202.593 319.568 203.419C318.743 204.244 318.279 205.363 318.279 206.53C318.279 207.697 318.743 208.816 319.568 209.641C320.393 210.466 321.512 210.93 322.679 210.93C323.846 210.93 324.965 210.466 325.791 209.641C326.616 208.816 327.079 207.697 327.079 206.53Z" stroke="#4C40F7" stroke-opacity="0.3" stroke-width="0.5"/>
<path d="M306.791 226.16C306.791 224.924 306.3 223.739 305.426 222.865C304.552 221.991 303.367 221.5 302.131 221.5C301.519 221.5 300.913 221.621 300.347 221.855C299.782 222.089 299.268 222.432 298.836 222.865C298.403 223.298 298.06 223.811 297.825 224.377C297.591 224.942 297.471 225.548 297.471 226.16C297.471 226.772 297.591 227.378 297.825 227.943C298.06 228.509 298.403 229.022 298.836 229.455C299.268 229.888 299.782 230.231 300.347 230.465C300.913 230.699 301.519 230.82 302.131 230.82C302.743 230.82 303.349 230.699 303.914 230.465C304.479 230.231 304.993 229.888 305.426 229.455C305.859 229.022 306.202 228.509 306.436 227.943C306.67 227.378 306.791 226.772 306.791 226.16Z" stroke="#001133" stroke-width="0.5"/>
<path d="M365.871 226.22C365.871 224.984 365.38 223.799 364.506 222.925C363.632 222.051 362.447 221.56 361.211 221.56C359.975 221.56 358.79 222.051 357.916 222.925C357.042 223.799 356.551 224.984 356.551 226.22C356.551 227.456 357.042 228.641 357.916 229.515C358.79 230.389 359.975 230.88 361.211 230.88C362.447 230.88 363.632 230.389 364.506 229.515C365.38 228.641 365.871 227.456 365.871 226.22Z" stroke="#001133" stroke-width="0.5"/>
<path d="M286.179 226.25C286.179 225.059 285.706 223.917 284.864 223.075C284.022 222.233 282.88 221.76 281.689 221.76C280.498 221.76 279.356 222.233 278.514 223.075C277.672 223.917 277.199 225.059 277.199 226.25C277.199 226.84 277.315 227.424 277.541 227.968C277.767 228.513 278.097 229.008 278.514 229.425C278.931 229.842 279.426 230.173 279.971 230.398C280.516 230.624 281.1 230.74 281.689 230.74C282.279 230.74 282.863 230.624 283.407 230.398C283.952 230.173 284.447 229.842 284.864 229.425C285.281 229.008 285.612 228.513 285.837 227.968C286.063 227.424 286.179 226.84 286.179 226.25Z" stroke="#4C40F7" stroke-opacity="0.3" stroke-width="0.5"/>
<path d="M327.07 226.19C327.07 225.611 326.956 225.037 326.734 224.502C326.513 223.967 326.188 223.481 325.778 223.072C325.369 222.662 324.883 222.337 324.348 222.116C323.813 221.894 323.239 221.78 322.66 221.78C321.49 221.78 320.369 222.245 319.542 223.072C318.715 223.899 318.25 225.02 318.25 226.19C318.25 227.36 318.715 228.481 319.542 229.308C320.369 230.135 321.49 230.6 322.66 230.6C323.239 230.6 323.813 230.486 324.348 230.264C324.883 230.043 325.369 229.718 325.778 229.308C326.188 228.899 326.513 228.413 326.734 227.878C326.956 227.343 327.07 226.769 327.07 226.19Z" stroke="#4C40F7" stroke-opacity="0.3" stroke-width="0.5"/>
<path d="M385.651 225.56C385.651 224.552 385.25 223.586 384.538 222.873C383.825 222.16 382.859 221.76 381.851 221.76C380.843 221.76 379.876 222.16 379.164 222.873C378.451 223.586 378.051 224.552 378.051 225.56C378.051 226.568 378.451 227.534 379.164 228.247C379.876 228.96 380.843 229.36 381.851 229.36C382.859 229.36 383.825 228.96 384.538 228.247C385.25 227.534 385.651 226.568 385.651 225.56Z" stroke="#001133" stroke-width="0.5"/>
<path d="M345.949 225.83C345.949 224.867 345.567 223.944 344.886 223.263C344.205 222.582 343.282 222.2 342.319 222.2C341.843 222.2 341.371 222.294 340.93 222.476C340.49 222.659 340.09 222.926 339.753 223.263C339.416 223.6 339.148 224 338.966 224.441C338.783 224.881 338.689 225.353 338.689 225.83C338.689 226.307 338.783 226.779 338.966 227.219C339.148 227.66 339.416 228.06 339.753 228.397C340.09 228.734 340.49 229.001 340.93 229.184C341.371 229.366 341.843 229.46 342.319 229.46C343.282 229.46 344.205 229.078 344.886 228.397C345.567 227.716 345.949 226.793 345.949 225.83Z" stroke="#4C40F7" stroke-opacity="0.3" stroke-width="0.5"/>
<path d="M306.86 245.89C306.86 244.651 306.368 243.464 305.492 242.588C304.616 241.712 303.428 241.22 302.19 241.22C300.951 241.22 299.763 241.712 298.887 242.588C298.012 243.464 297.52 244.651 297.52 245.89C297.52 246.503 297.64 247.111 297.875 247.677C298.11 248.244 298.454 248.759 298.887 249.192C299.321 249.626 299.836 249.97 300.402 250.204C300.969 250.439 301.576 250.56 302.19 250.56C302.803 250.56 303.41 250.439 303.977 250.204C304.543 249.97 305.058 249.626 305.492 249.192C305.925 248.759 306.269 248.244 306.504 247.677C306.739 247.111 306.86 246.503 306.86 245.89Z" stroke="#001133" stroke-width="0.5"/>
<path d="M327.329 245.8C327.329 244.588 326.848 243.426 325.991 242.569C325.134 241.711 323.971 241.23 322.759 241.23C321.547 241.23 320.385 241.711 319.528 242.569C318.671 243.426 318.189 244.588 318.189 245.8C318.189 247.012 318.671 248.174 319.528 249.031C320.385 249.889 321.547 250.37 322.759 250.37C323.971 250.37 325.134 249.889 325.991 249.031C326.848 248.174 327.329 247.012 327.329 245.8Z" stroke="#001133" stroke-width="0.5"/>
<path d="M365.85 245.97C365.85 244.729 365.357 243.538 364.479 242.661C363.602 241.783 362.411 241.29 361.17 241.29C359.929 241.29 358.739 241.783 357.861 242.661C356.983 243.538 356.49 244.729 356.49 245.97C356.49 247.211 356.983 248.401 357.861 249.279C358.739 250.157 359.929 250.65 361.17 250.65C362.411 250.65 363.602 250.157 364.479 249.279C365.357 248.401 365.85 247.211 365.85 245.97Z" stroke="#001133" stroke-width="0.5"/>
<path d="M286.201 245.89C286.201 245.295 286.083 244.706 285.856 244.156C285.628 243.607 285.294 243.107 284.874 242.687C284.453 242.266 283.954 241.932 283.404 241.705C282.855 241.477 282.266 241.36 281.671 241.36C281.076 241.36 280.487 241.477 279.937 241.705C279.387 241.932 278.888 242.266 278.467 242.687C278.047 243.107 277.713 243.607 277.485 244.156C277.258 244.706 277.141 245.295 277.141 245.89C277.141 247.091 277.618 248.244 278.467 249.093C279.317 249.943 280.469 250.42 281.671 250.42C282.872 250.42 284.024 249.943 284.874 249.093C285.723 248.244 286.201 247.091 286.201 245.89Z" stroke="#4C40F7" stroke-opacity="0.3" stroke-width="0.5"/>
<path d="M286.32 265.76C286.32 264.524 285.829 263.339 284.955 262.465C284.081 261.591 282.896 261.1 281.66 261.1C280.424 261.1 279.239 261.591 278.365 262.465C277.491 263.339 277 264.524 277 265.76C277 266.996 277.491 268.181 278.365 269.055C279.239 269.929 280.424 270.42 281.66 270.42C282.896 270.42 284.081 269.929 284.955 269.055C285.829 268.181 286.32 266.996 286.32 265.76Z" stroke="#001133" stroke-width="0.5"/>
<path d="M306.771 265.76C306.771 264.516 306.276 263.323 305.397 262.444C304.517 261.564 303.324 261.07 302.081 261.07C300.837 261.07 299.644 261.564 298.764 262.444C297.885 263.323 297.391 264.516 297.391 265.76C297.391 267.004 297.885 268.197 298.764 269.076C299.644 269.956 300.837 270.45 302.081 270.45C303.324 270.45 304.517 269.956 305.397 269.076C306.276 268.197 306.771 267.004 306.771 265.76Z" stroke="#001133" stroke-width="0.5"/>
<path d="M365.84 265.76C365.84 265.145 365.719 264.537 365.484 263.969C365.249 263.401 364.904 262.885 364.47 262.451C364.035 262.016 363.519 261.671 362.951 261.436C362.384 261.201 361.775 261.08 361.16 261.08C360.546 261.08 359.937 261.201 359.37 261.436C358.802 261.671 358.286 262.016 357.851 262.451C357.417 262.885 357.072 263.401 356.837 263.969C356.602 264.537 356.48 265.145 356.48 265.76C356.48 266.374 356.602 266.983 356.837 267.551C357.072 268.119 357.417 268.635 357.851 269.069C358.286 269.504 358.802 269.848 359.37 270.084C359.937 270.319 360.546 270.44 361.16 270.44C361.775 270.44 362.384 270.319 362.951 270.084C363.519 269.848 364.035 269.504 364.47 269.069C364.904 268.635 365.249 268.119 365.484 267.551C365.719 266.983 365.84 266.374 365.84 265.76Z" stroke="#001133" stroke-width="0.5"/>
<path d="M286.339 147.65C286.339 148.261 286.219 148.865 285.985 149.429C285.751 149.994 285.409 150.506 284.977 150.938C284.545 151.37 284.033 151.712 283.469 151.946C282.904 152.18 282.3 152.3 281.689 152.3C280.456 152.3 279.273 151.81 278.401 150.938C277.529 150.066 277.039 148.883 277.039 147.65C277.039 146.417 277.529 145.234 278.401 144.362C279.273 143.49 280.456 143 281.689 143C282.3 143 282.904 143.12 283.469 143.354C284.033 143.588 284.545 143.93 284.977 144.362C285.409 144.794 285.751 145.306 285.985 145.871C286.219 146.435 286.339 147.039 286.339 147.65Z" fill="#001133"/>
<path d="M306.619 147.69C306.619 148.883 306.145 150.028 305.301 150.872C304.457 151.716 303.313 152.19 302.119 152.19C300.926 152.19 299.781 151.716 298.937 150.872C298.093 150.028 297.619 148.883 297.619 147.69C297.619 146.496 298.093 145.352 298.937 144.508C299.781 143.664 300.926 143.19 302.119 143.19C303.313 143.19 304.457 143.664 305.301 144.508C306.145 145.352 306.619 146.496 306.619 147.69Z" fill="#4C40F7" fill-opacity="0.3"/>
<path d="M327.14 147.65C327.14 148.841 326.667 149.983 325.825 150.825C324.983 151.667 323.841 152.14 322.65 152.14C322.061 152.14 321.477 152.024 320.932 151.798C320.387 151.572 319.892 151.242 319.475 150.825C319.058 150.408 318.728 149.913 318.502 149.368C318.276 148.823 318.16 148.24 318.16 147.65C318.16 147.06 318.276 146.476 318.502 145.932C318.728 145.387 319.058 144.892 319.475 144.475C319.892 144.058 320.387 143.727 320.932 143.502C321.477 143.276 322.061 143.16 322.65 143.16C323.841 143.16 324.983 143.633 325.825 144.475C326.667 145.317 327.14 146.459 327.14 147.65Z" fill="#4C40F7" fill-opacity="0.3"/>
<path d="M365.641 147.73C365.641 148.316 365.525 148.896 365.301 149.437C365.077 149.978 364.749 150.47 364.334 150.884C363.92 151.298 363.429 151.626 362.887 151.851C362.346 152.075 361.766 152.19 361.181 152.19C360.595 152.19 360.015 152.075 359.474 151.851C358.933 151.626 358.441 151.298 358.027 150.884C357.613 150.47 357.284 149.978 357.06 149.437C356.836 148.896 356.721 148.316 356.721 147.73C356.721 146.547 357.191 145.413 358.027 144.576C358.863 143.74 359.998 143.27 361.181 143.27C362.364 143.27 363.498 143.74 364.334 144.576C365.171 145.413 365.641 146.547 365.641 147.73Z" fill="#4C40F7" fill-opacity="0.3"/>
<path d="M306.43 167.26C306.43 168.443 305.96 169.577 305.123 170.414C304.287 171.25 303.153 171.72 301.97 171.72C300.787 171.72 299.652 171.25 298.816 170.414C297.98 169.577 297.51 168.443 297.51 167.26C297.51 166.077 297.98 164.943 298.816 164.106C299.652 163.27 300.787 162.8 301.97 162.8C303.153 162.8 304.287 163.27 305.123 164.106C305.96 164.943 306.43 166.077 306.43 167.26Z" fill="#4C40F7" fill-opacity="0.3"/>
<path d="M327.041 167.26C327.041 167.844 326.926 168.423 326.702 168.963C326.478 169.503 326.15 169.993 325.737 170.406C325.324 170.82 324.833 171.147 324.294 171.371C323.754 171.595 323.175 171.71 322.591 171.71C321.41 171.71 320.279 171.241 319.444 170.406C318.609 169.572 318.141 168.44 318.141 167.26C318.141 166.08 318.609 164.948 319.444 164.113C320.279 163.279 321.41 162.81 322.591 162.81C323.175 162.81 323.754 162.925 324.294 163.149C324.833 163.372 325.324 163.7 325.737 164.113C326.15 164.526 326.478 165.017 326.702 165.557C326.926 166.097 327.041 166.675 327.041 167.26Z" fill="#4C40F7" fill-opacity="0.3"/>
<path d="M286.19 167.34C286.19 168.523 285.72 169.657 284.883 170.494C284.047 171.33 282.912 171.8 281.73 171.8C280.547 171.8 279.412 171.33 278.576 170.494C277.739 169.657 277.27 168.523 277.27 167.34C277.27 166.157 277.739 165.023 278.576 164.186C279.412 163.35 280.547 162.88 281.73 162.88C282.912 162.88 284.047 163.35 284.883 164.186C285.72 165.023 286.19 166.157 286.19 167.34Z" fill="#4C40F7" fill-opacity="0.3"/>
<path d="M365.681 167.29C365.681 168.478 365.209 169.617 364.369 170.458C363.528 171.298 362.389 171.77 361.201 171.77C360.013 171.77 358.873 171.298 358.033 170.458C357.193 169.617 356.721 168.478 356.721 167.29C356.721 166.102 357.193 164.962 358.033 164.122C358.873 163.282 360.013 162.81 361.201 162.81C362.389 162.81 363.528 163.282 364.369 164.122C365.209 164.962 365.681 166.102 365.681 167.29Z" fill="#4C40F7" fill-opacity="0.3"/>
<path d="M345.891 167.3C345.891 168.263 345.508 169.186 344.828 169.867C344.147 170.547 343.224 170.93 342.261 170.93C341.298 170.93 340.375 170.547 339.694 169.867C339.013 169.186 338.631 168.263 338.631 167.3C338.631 166.337 339.013 165.414 339.694 164.733C340.375 164.052 341.298 163.67 342.261 163.67C343.224 163.67 344.147 164.052 344.828 164.733C345.508 165.414 345.891 166.337 345.891 167.3Z" fill="#4C40F7" fill-opacity="0.3"/>
<path d="M286.159 186.78C286.159 187.368 286.043 187.951 285.818 188.494C285.593 189.038 285.263 189.532 284.847 189.948C284.431 190.364 283.937 190.694 283.394 190.919C282.85 191.144 282.268 191.26 281.679 191.26C281.091 191.26 280.508 191.144 279.965 190.919C279.421 190.694 278.927 190.364 278.511 189.948C278.095 189.532 277.765 189.038 277.54 188.494C277.315 187.951 277.199 187.368 277.199 186.78C277.199 185.592 277.671 184.452 278.511 183.612C279.352 182.772 280.491 182.3 281.679 182.3C282.867 182.3 284.007 182.772 284.847 183.612C285.687 184.452 286.159 185.592 286.159 186.78Z" fill="#4C40F7" fill-opacity="0.3"/>
<path d="M306.681 186.81C306.681 188.033 306.195 189.205 305.331 190.07C304.466 190.934 303.294 191.42 302.071 191.42C300.848 191.42 299.676 190.934 298.811 190.07C297.947 189.205 297.461 188.033 297.461 186.81C297.461 185.587 297.947 184.415 298.811 183.55C299.676 182.686 300.848 182.2 302.071 182.2C303.294 182.2 304.466 182.686 305.331 183.55C306.195 184.415 306.681 185.587 306.681 186.81Z" fill="#001133"/>
<path d="M327.119 186.81C327.119 187.39 327.005 187.965 326.783 188.501C326.561 189.038 326.235 189.525 325.825 189.935C325.414 190.346 324.927 190.671 324.391 190.893C323.854 191.116 323.28 191.23 322.699 191.23C322.119 191.23 321.544 191.116 321.008 190.893C320.472 190.671 319.984 190.346 319.574 189.935C319.163 189.525 318.838 189.038 318.616 188.501C318.394 187.965 318.279 187.39 318.279 186.81C318.279 185.638 318.745 184.513 319.574 183.684C320.403 182.856 321.527 182.39 322.699 182.39C323.28 182.39 323.854 182.504 324.391 182.726C324.927 182.948 325.414 183.274 325.825 183.684C326.235 184.095 326.561 184.582 326.783 185.118C327.005 185.655 327.119 186.229 327.119 186.81Z" fill="#4C40F7" fill-opacity="0.3"/>
<path d="M365.61 186.88C365.61 188.058 365.143 189.187 364.31 190.019C363.477 190.852 362.348 191.32 361.17 191.32C359.993 191.32 358.864 190.852 358.031 190.019C357.198 189.187 356.73 188.058 356.73 186.88C356.73 185.702 357.198 184.573 358.031 183.74C358.864 182.908 359.993 182.44 361.17 182.44C362.348 182.44 363.477 182.908 364.31 183.74C365.143 184.573 365.61 185.702 365.61 186.88Z" fill="#4C40F7" fill-opacity="0.3"/>
<path d="M365.901 206.49C365.901 207.742 365.404 208.942 364.518 209.828C363.633 210.713 362.433 211.21 361.181 211.21C359.929 211.21 358.729 210.713 357.843 209.828C356.958 208.942 356.461 207.742 356.461 206.49C356.461 205.87 356.583 205.256 356.82 204.684C357.057 204.111 357.405 203.591 357.843 203.152C358.282 202.714 358.802 202.367 359.375 202.129C359.947 201.892 360.561 201.77 361.181 201.77C361.801 201.77 362.415 201.892 362.987 202.129C363.56 202.367 364.08 202.714 364.518 203.152C364.957 203.591 365.304 204.111 365.542 204.684C365.779 205.256 365.901 205.87 365.901 206.49Z" fill="#001133"/>
<path d="M286.201 206.46C286.201 207.651 285.728 208.793 284.886 209.635C284.044 210.477 282.902 210.95 281.711 210.95C280.52 210.95 279.378 210.477 278.536 209.635C277.694 208.793 277.221 207.651 277.221 206.46C277.221 205.87 277.337 205.286 277.562 204.742C277.788 204.197 278.119 203.702 278.536 203.285C278.953 202.868 279.448 202.537 279.992 202.312C280.537 202.086 281.121 201.97 281.711 201.97C282.3 201.97 282.884 202.086 283.429 202.312C283.974 202.537 284.469 202.868 284.886 203.285C285.303 203.702 285.633 204.197 285.859 204.742C286.085 205.286 286.201 205.87 286.201 206.46Z" fill="#4C40F7" fill-opacity="0.3"/>
<path d="M306.72 206.49C306.72 207.713 306.234 208.885 305.37 209.75C304.505 210.614 303.333 211.1 302.11 211.1C300.887 211.1 299.715 210.614 298.85 209.75C297.986 208.885 297.5 207.713 297.5 206.49C297.5 205.267 297.986 204.095 298.85 203.23C299.715 202.366 300.887 201.88 302.11 201.88C303.333 201.88 304.505 202.366 305.37 203.23C306.234 204.095 306.72 205.267 306.72 206.49Z" fill="#001133"/>
<path d="M327.079 206.53C327.079 207.697 326.616 208.816 325.791 209.641C324.965 210.466 323.846 210.93 322.679 210.93C321.512 210.93 320.393 210.466 319.568 209.641C318.743 208.816 318.279 207.697 318.279 206.53C318.279 205.363 318.743 204.244 319.568 203.419C320.393 202.593 321.512 202.13 322.679 202.13C323.846 202.13 324.965 202.593 325.791 203.419C326.616 204.244 327.079 205.363 327.079 206.53Z" fill="#4C40F7" fill-opacity="0.3"/>
<path d="M306.791 226.16C306.791 226.772 306.67 227.378 306.436 227.943C306.202 228.509 305.859 229.022 305.426 229.455C304.993 229.888 304.479 230.231 303.914 230.465C303.349 230.699 302.743 230.82 302.131 230.82C301.519 230.82 300.913 230.699 300.347 230.465C299.782 230.231 299.268 229.888 298.836 229.455C298.403 229.022 298.06 228.509 297.825 227.943C297.591 227.378 297.471 226.772 297.471 226.16C297.471 225.548 297.591 224.942 297.825 224.377C298.06 223.811 298.403 223.298 298.836 222.865C299.268 222.432 299.782 222.089 300.347 221.855C300.913 221.621 301.519 221.5 302.131 221.5C303.367 221.5 304.552 221.991 305.426 222.865C306.3 223.739 306.791 224.924 306.791 226.16Z" fill="#001133"/>
<path d="M365.871 226.22C365.871 227.456 365.38 228.641 364.506 229.515C363.632 230.389 362.447 230.88 361.211 230.88C359.975 230.88 358.79 230.389 357.916 229.515C357.042 228.641 356.551 227.456 356.551 226.22C356.551 224.984 357.042 223.799 357.916 222.925C358.79 222.051 359.975 221.56 361.211 221.56C362.447 221.56 363.632 222.051 364.506 222.925C365.38 223.799 365.871 224.984 365.871 226.22Z" fill="#001133"/>
<path d="M286.179 226.25C286.179 226.84 286.063 227.424 285.837 227.968C285.612 228.513 285.281 229.008 284.864 229.425C284.447 229.842 283.952 230.173 283.407 230.398C282.863 230.624 282.279 230.74 281.689 230.74C281.1 230.74 280.516 230.624 279.971 230.398C279.426 230.173 278.931 229.842 278.514 229.425C278.097 229.008 277.767 228.513 277.541 227.968C277.315 227.424 277.199 226.84 277.199 226.25C277.199 225.059 277.672 223.917 278.514 223.075C279.356 222.233 280.498 221.76 281.689 221.76C282.88 221.76 284.022 222.233 284.864 223.075C285.706 223.917 286.179 225.059 286.179 226.25Z" fill="#4C40F7" fill-opacity="0.3"/>
<path d="M327.07 226.19C327.07 226.769 326.956 227.343 326.734 227.878C326.513 228.413 326.188 228.899 325.778 229.308C325.369 229.718 324.883 230.043 324.348 230.264C323.813 230.486 323.239 230.6 322.66 230.6C321.49 230.6 320.369 230.135 319.542 229.308C318.715 228.481 318.25 227.36 318.25 226.19C318.25 225.02 318.715 223.899 319.542 223.072C320.369 222.245 321.49 221.78 322.66 221.78C323.239 221.78 323.813 221.894 324.348 222.116C324.883 222.337 325.369 222.662 325.778 223.072C326.188 223.481 326.513 223.967 326.734 224.502C326.956 225.037 327.07 225.611 327.07 226.19Z" fill="#4C40F7" fill-opacity="0.3"/>
<path d="M385.651 225.56C385.651 226.568 385.25 227.534 384.538 228.247C383.825 228.96 382.859 229.36 381.851 229.36C380.843 229.36 379.876 228.96 379.164 228.247C378.451 227.534 378.051 226.568 378.051 225.56C378.051 224.552 378.451 223.586 379.164 222.873C379.876 222.16 380.843 221.76 381.851 221.76C382.859 221.76 383.825 222.16 384.538 222.873C385.25 223.586 385.651 224.552 385.651 225.56Z" fill="#001133"/>
<path d="M345.949 225.83C345.949 226.793 345.567 227.716 344.886 228.397C344.205 229.078 343.282 229.46 342.319 229.46C341.843 229.46 341.371 229.366 340.93 229.184C340.49 229.001 340.09 228.734 339.753 228.397C339.416 228.06 339.148 227.66 338.966 227.219C338.783 226.779 338.689 226.307 338.689 225.83C338.689 225.353 338.783 224.881 338.966 224.441C339.148 224 339.416 223.6 339.753 223.263C340.09 222.926 340.49 222.659 340.93 222.476C341.371 222.294 341.843 222.2 342.319 222.2C343.282 222.2 344.205 222.582 344.886 223.263C345.567 223.944 345.949 224.867 345.949 225.83Z" fill="#4C40F7" fill-opacity="0.3"/>
<path d="M306.86 245.89C306.86 246.503 306.739 247.111 306.504 247.677C306.269 248.244 305.925 248.759 305.492 249.192C305.058 249.626 304.543 249.97 303.977 250.204C303.41 250.439 302.803 250.56 302.19 250.56C301.576 250.56 300.969 250.439 300.402 250.204C299.836 249.97 299.321 249.626 298.887 249.192C298.454 248.759 298.11 248.244 297.875 247.677C297.64 247.111 297.52 246.503 297.52 245.89C297.52 244.651 298.012 243.464 298.887 242.588C299.763 241.712 300.951 241.22 302.19 241.22C303.428 241.22 304.616 241.712 305.492 242.588C306.368 243.464 306.86 244.651 306.86 245.89Z" fill="#001133"/>
<path d="M327.329 245.8C327.329 247.012 326.848 248.174 325.991 249.031C325.134 249.889 323.971 250.37 322.759 250.37C321.547 250.37 320.385 249.889 319.528 249.031C318.671 248.174 318.189 247.012 318.189 245.8C318.189 244.588 318.671 243.426 319.528 242.569C320.385 241.711 321.547 241.23 322.759 241.23C323.971 241.23 325.134 241.711 325.991 242.569C326.848 243.426 327.329 244.588 327.329 245.8Z" fill="#001133"/>
<path d="M365.85 245.97C365.85 247.211 365.357 248.401 364.479 249.279C363.602 250.157 362.411 250.65 361.17 250.65C359.929 250.65 358.739 250.157 357.861 249.279C356.983 248.401 356.49 247.211 356.49 245.97C356.49 244.729 356.983 243.538 357.861 242.661C358.739 241.783 359.929 241.29 361.17 241.29C362.411 241.29 363.602 241.783 364.479 242.661C365.357 243.538 365.85 244.729 365.85 245.97Z" fill="#001133"/>
<path d="M286.201 245.89C286.201 247.092 285.723 248.244 284.874 249.093C284.024 249.943 282.872 250.42 281.671 250.42C280.469 250.42 279.317 249.943 278.467 249.093C277.618 248.244 277.141 247.092 277.141 245.89C277.141 245.295 277.258 244.706 277.485 244.157C277.713 243.607 278.047 243.108 278.467 242.687C278.888 242.266 279.387 241.933 279.937 241.705C280.487 241.477 281.076 241.36 281.671 241.36C282.266 241.36 282.855 241.477 283.404 241.705C283.954 241.933 284.453 242.266 284.874 242.687C285.294 243.108 285.628 243.607 285.856 244.157C286.083 244.706 286.201 245.295 286.201 245.89Z" fill="#4C40F7" fill-opacity="0.3"/>
<path d="M286.32 265.76C286.32 266.996 285.829 268.181 284.955 269.055C284.081 269.929 282.896 270.42 281.66 270.42C280.424 270.42 279.239 269.929 278.365 269.055C277.491 268.181 277 266.996 277 265.76C277 264.524 277.491 263.339 278.365 262.465C279.239 261.591 280.424 261.1 281.66 261.1C282.896 261.1 284.081 261.591 284.955 262.465C285.829 263.339 286.32 264.524 286.32 265.76Z" fill="#001133"/>
<path d="M306.771 265.76C306.771 267.004 306.276 268.197 305.397 269.076C304.517 269.956 303.324 270.45 302.081 270.45C300.837 270.45 299.644 269.956 298.764 269.076C297.885 268.197 297.391 267.004 297.391 265.76C297.391 264.516 297.885 263.323 298.764 262.444C299.644 261.564 300.837 261.07 302.081 261.07C303.324 261.07 304.517 261.564 305.397 262.444C306.276 263.323 306.771 264.516 306.771 265.76Z" fill="#001133"/>
<path d="M365.84 265.76C365.84 266.374 365.719 266.983 365.484 267.551C365.249 268.119 364.904 268.635 364.47 269.069C364.035 269.504 363.519 269.848 362.951 270.084C362.384 270.319 361.775 270.44 361.16 270.44C360.546 270.44 359.937 270.319 359.37 270.084C358.802 269.848 358.286 269.504 357.851 269.069C357.417 268.635 357.072 268.119 356.837 267.551C356.602 266.983 356.48 266.374 356.48 265.76C356.48 265.145 356.602 264.537 356.837 263.969C357.072 263.401 357.417 262.885 357.851 262.451C358.286 262.016 358.802 261.671 359.37 261.436C359.937 261.201 360.546 261.08 361.16 261.08C361.775 261.08 362.384 261.201 362.951 261.436C363.519 261.671 364.035 262.016 364.47 262.451C364.904 262.885 365.249 263.401 365.484 263.969C365.719 264.537 365.84 265.145 365.84 265.76Z" fill="#001133"/>
<path d="M460.339 241.65C460.339 241.039 460.219 240.435 459.985 239.871C459.751 239.306 459.409 238.794 458.977 238.362C458.545 237.93 458.033 237.588 457.469 237.354C456.904 237.12 456.3 237 455.689 237C454.456 237 453.273 237.49 452.401 238.362C451.529 239.234 451.039 240.417 451.039 241.65C451.039 242.883 451.529 244.066 452.401 244.938C453.273 245.81 454.456 246.3 455.689 246.3C456.3 246.3 456.904 246.18 457.469 245.946C458.033 245.712 458.545 245.37 458.977 244.938C459.409 244.506 459.751 243.994 459.985 243.429C460.219 242.865 460.339 242.261 460.339 241.65Z" stroke="#001133" stroke-width="0.5"/>
<path d="M480.621 241.69C480.621 240.496 480.147 239.352 479.303 238.508C478.459 237.664 477.315 237.19 476.121 237.19C474.928 237.19 473.783 237.664 472.939 238.508C472.095 239.352 471.621 240.496 471.621 241.69C471.621 242.883 472.095 244.028 472.939 244.872C473.783 245.716 474.928 246.19 476.121 246.19C477.315 246.19 478.459 245.716 479.303 244.872C480.147 244.028 480.621 242.883 480.621 241.69Z" stroke="#4C40F7" stroke-opacity="0.3" stroke-width="0.5"/>
<path d="M501.14 241.65C501.14 240.459 500.667 239.317 499.825 238.475C498.983 237.633 497.841 237.16 496.65 237.16C496.061 237.16 495.477 237.276 494.932 237.502C494.387 237.727 493.892 238.058 493.475 238.475C493.058 238.892 492.728 239.387 492.502 239.932C492.276 240.476 492.16 241.06 492.16 241.65C492.16 242.24 492.276 242.823 492.502 243.368C492.728 243.913 493.058 244.408 493.475 244.825C493.892 245.242 494.387 245.572 494.932 245.798C495.477 246.024 496.061 246.14 496.65 246.14C497.841 246.14 498.983 245.667 499.825 244.825C500.667 243.983 501.14 242.841 501.14 241.65Z" stroke="#4C40F7" stroke-opacity="0.3" stroke-width="0.5"/>
<path d="M539.641 241.73C539.641 240.547 539.171 239.413 538.334 238.576C537.498 237.74 536.364 237.27 535.181 237.27C533.998 237.27 532.863 237.74 532.027 238.576C531.191 239.413 530.721 240.547 530.721 241.73C530.721 242.316 530.836 242.896 531.06 243.437C531.284 243.978 531.613 244.47 532.027 244.884C532.441 245.298 532.933 245.626 533.474 245.851C534.015 246.075 534.595 246.19 535.181 246.19C535.766 246.19 536.346 246.075 536.887 245.851C537.429 245.626 537.92 245.298 538.334 244.884C538.749 244.47 539.077 243.978 539.301 243.437C539.525 242.896 539.641 242.316 539.641 241.73Z" stroke="#4C40F7" stroke-opacity="0.3" stroke-width="0.5"/>
<path d="M480.43 261.26C480.43 260.077 479.96 258.943 479.123 258.106C478.287 257.27 477.153 256.8 475.97 256.8C474.787 256.8 473.652 257.27 472.816 258.106C471.98 258.943 471.51 260.077 471.51 261.26C471.51 262.443 471.98 263.577 472.816 264.414C473.652 265.25 474.787 265.72 475.97 265.72C477.153 265.72 478.287 265.25 479.123 264.414C479.96 263.577 480.43 262.443 480.43 261.26Z" stroke="#4C40F7" stroke-opacity="0.3" stroke-width="0.5"/>
<path d="M501.041 261.26C501.041 260.675 500.926 260.097 500.702 259.557C500.478 259.017 500.15 258.526 499.737 258.113C499.324 257.7 498.833 257.372 498.294 257.149C497.754 256.925 497.175 256.81 496.591 256.81C495.41 256.81 494.279 257.279 493.444 258.113C492.609 258.948 492.141 260.08 492.141 261.26C492.141 262.44 492.609 263.572 493.444 264.406C494.279 265.241 495.41 265.71 496.591 265.71C497.175 265.71 497.754 265.595 498.294 265.371C498.833 265.147 499.324 264.82 499.737 264.406C500.15 263.993 500.478 263.503 500.702 262.963C500.926 262.423 501.041 261.844 501.041 261.26Z" stroke="#4C40F7" stroke-opacity="0.3" stroke-width="0.5"/>
<path d="M460.19 261.34C460.19 260.157 459.72 259.023 458.883 258.186C458.047 257.35 456.912 256.88 455.73 256.88C454.547 256.88 453.412 257.35 452.576 258.186C451.739 259.023 451.27 260.157 451.27 261.34C451.27 262.523 451.739 263.657 452.576 264.494C453.412 265.33 454.547 265.8 455.73 265.8C456.912 265.8 458.047 265.33 458.883 264.494C459.72 263.657 460.19 262.523 460.19 261.34Z" stroke="#4C40F7" stroke-opacity="0.3" stroke-width="0.5"/>
<path d="M539.681 261.29C539.681 260.102 539.209 258.962 538.369 258.122C537.528 257.282 536.389 256.81 535.201 256.81C534.013 256.81 532.873 257.282 532.033 258.122C531.193 258.962 530.721 260.102 530.721 261.29C530.721 262.478 531.193 263.617 532.033 264.458C532.873 265.298 534.013 265.77 535.201 265.77C536.389 265.77 537.528 265.298 538.369 264.458C539.209 263.617 539.681 262.478 539.681 261.29Z" stroke="#4C40F7" stroke-opacity="0.3" stroke-width="0.5"/>
<path d="M519.891 261.3C519.891 260.337 519.508 259.414 518.828 258.733C518.147 258.052 517.224 257.67 516.261 257.67C515.298 257.67 514.375 258.052 513.694 258.733C513.013 259.414 512.631 260.337 512.631 261.3C512.631 262.263 513.013 263.186 513.694 263.867C514.375 264.547 515.298 264.93 516.261 264.93C517.224 264.93 518.147 264.547 518.828 263.867C519.508 263.186 519.891 262.263 519.891 261.3Z" stroke="#4C40F7" stroke-opacity="0.3" stroke-width="0.5"/>
<path d="M460.159 280.78C460.159 279.592 459.687 278.452 458.847 277.612C458.007 276.772 456.867 276.3 455.679 276.3C454.491 276.3 453.352 276.772 452.511 277.612C451.671 278.452 451.199 279.592 451.199 280.78C451.199 281.368 451.315 281.951 451.54 282.494C451.765 283.038 452.095 283.532 452.511 283.948C452.927 284.364 453.421 284.694 453.965 284.919C454.508 285.144 455.091 285.26 455.679 285.26C456.268 285.26 456.85 285.144 457.394 284.919C457.937 284.694 458.431 284.364 458.847 283.948C459.263 283.532 459.593 283.038 459.818 282.494C460.043 281.951 460.159 281.368 460.159 280.78Z" stroke="#4C40F7" stroke-opacity="0.3" stroke-width="0.5"/>
<path d="M480.681 280.81C480.681 279.587 480.195 278.415 479.331 277.55C478.466 276.686 477.294 276.2 476.071 276.2C474.848 276.2 473.676 276.686 472.811 277.55C471.947 278.415 471.461 279.587 471.461 280.81C471.461 282.033 471.947 283.205 472.811 284.07C473.676 284.934 474.848 285.42 476.071 285.42C477.294 285.42 478.466 284.934 479.331 284.07C480.195 283.205 480.681 282.033 480.681 280.81Z" stroke="#001133" stroke-width="0.5"/>
<path d="M501.119 280.81C501.119 280.229 501.005 279.655 500.783 279.118C500.561 278.582 500.235 278.095 499.825 277.684C499.414 277.274 498.927 276.948 498.391 276.726C497.854 276.504 497.28 276.39 496.699 276.39C495.527 276.39 494.403 276.856 493.574 277.684C492.745 278.513 492.279 279.638 492.279 280.81C492.279 281.39 492.394 281.965 492.616 282.501C492.838 283.038 493.163 283.525 493.574 283.935C493.984 284.346 494.472 284.671 495.008 284.893C495.544 285.116 496.119 285.23 496.699 285.23C497.28 285.23 497.854 285.116 498.391 284.893C498.927 284.671 499.414 284.346 499.825 283.935C500.235 283.525 500.561 283.038 500.783 282.501C501.005 281.965 501.119 281.39 501.119 280.81Z" stroke="#4C40F7" stroke-opacity="0.3" stroke-width="0.5"/>
<path d="M539.61 280.88C539.61 279.702 539.143 278.573 538.31 277.74C537.477 276.908 536.348 276.44 535.17 276.44C533.993 276.44 532.864 276.908 532.031 277.74C531.198 278.573 530.73 279.702 530.73 280.88C530.73 282.058 531.198 283.187 532.031 284.019C532.864 284.852 533.993 285.32 535.17 285.32C536.348 285.32 537.477 284.852 538.31 284.019C539.143 283.187 539.61 282.058 539.61 280.88Z" stroke="#4C40F7" stroke-opacity="0.3" stroke-width="0.5"/>
<path d="M539.901 300.49C539.901 299.87 539.779 299.256 539.542 298.684C539.304 298.111 538.957 297.591 538.518 297.152C538.08 296.714 537.56 296.367 536.987 296.129C536.415 295.892 535.801 295.77 535.181 295.77C534.561 295.77 533.947 295.892 533.375 296.129C532.802 296.367 532.282 296.714 531.843 297.152C531.405 297.591 531.057 298.111 530.82 298.684C530.583 299.256 530.461 299.87 530.461 300.49C530.461 301.742 530.958 302.942 531.843 303.828C532.729 304.713 533.929 305.21 535.181 305.21C536.433 305.21 537.633 304.713 538.518 303.828C539.404 302.942 539.901 301.742 539.901 300.49Z" stroke="#001133" stroke-width="0.5"/>
<path d="M460.201 300.46C460.201 299.87 460.085 299.286 459.859 298.742C459.633 298.197 459.303 297.702 458.886 297.285C458.469 296.868 457.974 296.537 457.429 296.312C456.884 296.086 456.3 295.97 455.711 295.97C455.121 295.97 454.537 296.086 453.992 296.312C453.448 296.537 452.953 296.868 452.536 297.285C452.119 297.702 451.788 298.197 451.562 298.742C451.337 299.286 451.221 299.87 451.221 300.46C451.221 301.651 451.694 302.793 452.536 303.635C453.378 304.477 454.52 304.95 455.711 304.95C456.902 304.95 458.044 304.477 458.886 303.635C459.728 302.793 460.201 301.651 460.201 300.46Z" stroke="#4C40F7" stroke-opacity="0.3" stroke-width="0.5"/>
<path d="M480.72 300.49C480.72 299.267 480.234 298.095 479.37 297.23C478.505 296.366 477.333 295.88 476.11 295.88C474.887 295.88 473.715 296.366 472.85 297.23C471.986 298.095 471.5 299.267 471.5 300.49C471.5 301.713 471.986 302.885 472.85 303.75C473.715 304.614 474.887 305.1 476.11 305.1C477.333 305.1 478.505 304.614 479.37 303.75C480.234 302.885 480.72 301.713 480.72 300.49Z" stroke="#001133" stroke-width="0.5"/>
<path d="M501.079 300.53C501.079 299.363 500.616 298.244 499.791 297.419C498.965 296.593 497.846 296.13 496.679 296.13C495.512 296.13 494.393 296.593 493.568 297.419C492.743 298.244 492.279 299.363 492.279 300.53C492.279 301.697 492.743 302.816 493.568 303.641C494.393 304.466 495.512 304.93 496.679 304.93C497.846 304.93 498.965 304.466 499.791 303.641C500.616 302.816 501.079 301.697 501.079 300.53Z" stroke="#4C40F7" stroke-opacity="0.3" stroke-width="0.5"/>
<path d="M480.791 320.16C480.791 318.924 480.3 317.739 479.426 316.865C478.552 315.991 477.367 315.5 476.131 315.5C475.519 315.5 474.913 315.621 474.347 315.855C473.782 316.089 473.268 316.432 472.836 316.865C472.403 317.298 472.06 317.811 471.825 318.377C471.591 318.942 471.471 319.548 471.471 320.16C471.471 320.772 471.591 321.378 471.825 321.943C472.06 322.509 472.403 323.022 472.836 323.455C473.268 323.888 473.782 324.231 474.347 324.465C474.913 324.699 475.519 324.82 476.131 324.82C476.743 324.82 477.349 324.699 477.914 324.465C478.479 324.231 478.993 323.888 479.426 323.455C479.859 323.022 480.202 322.509 480.436 321.943C480.67 321.378 480.791 320.772 480.791 320.16Z" stroke="#001133" stroke-width="0.5"/>
<path d="M539.871 320.22C539.871 318.984 539.38 317.799 538.506 316.925C537.632 316.051 536.447 315.56 535.211 315.56C533.975 315.56 532.79 316.051 531.916 316.925C531.042 317.799 530.551 318.984 530.551 320.22C530.551 321.456 531.042 322.641 531.916 323.515C532.79 324.389 533.975 324.88 535.211 324.88C536.447 324.88 537.632 324.389 538.506 323.515C539.38 322.641 539.871 321.456 539.871 320.22Z" stroke="#001133" stroke-width="0.5"/>
<path d="M460.179 320.25C460.179 319.059 459.706 317.917 458.864 317.075C458.022 316.233 456.88 315.76 455.689 315.76C454.498 315.76 453.356 316.233 452.514 317.075C451.672 317.917 451.199 319.059 451.199 320.25C451.199 320.84 451.315 321.424 451.541 321.968C451.767 322.513 452.097 323.008 452.514 323.425C452.931 323.842 453.426 324.173 453.971 324.398C454.516 324.624 455.1 324.74 455.689 324.74C456.279 324.74 456.863 324.624 457.407 324.398C457.952 324.173 458.447 323.842 458.864 323.425C459.281 323.008 459.612 322.513 459.837 321.968C460.063 321.424 460.179 320.84 460.179 320.25Z" stroke="#4C40F7" stroke-opacity="0.3" stroke-width="0.5"/>
<path d="M501.07 320.19C501.07 319.611 500.956 319.037 500.734 318.502C500.513 317.967 500.188 317.481 499.778 317.072C499.369 316.662 498.883 316.337 498.348 316.116C497.813 315.894 497.239 315.78 496.66 315.78C495.49 315.78 494.369 316.245 493.542 317.072C492.715 317.899 492.25 319.02 492.25 320.19C492.25 321.36 492.715 322.481 493.542 323.308C494.369 324.135 495.49 324.6 496.66 324.6C497.239 324.6 497.813 324.486 498.348 324.264C498.883 324.043 499.369 323.718 499.778 323.308C500.188 322.899 500.513 322.413 500.734 321.878C500.956 321.343 501.07 320.769 501.07 320.19Z" stroke="#4C40F7" stroke-opacity="0.3" stroke-width="0.5"/>
<path d="M559.651 319.56C559.651 318.552 559.25 317.586 558.538 316.873C557.825 316.16 556.859 315.76 555.851 315.76C554.843 315.76 553.876 316.16 553.164 316.873C552.451 317.586 552.051 318.552 552.051 319.56C552.051 320.568 552.451 321.534 553.164 322.247C553.876 322.96 554.843 323.36 555.851 323.36C556.859 323.36 557.825 322.96 558.538 322.247C559.25 321.534 559.651 320.568 559.651 319.56Z" stroke="#001133" stroke-width="0.5"/>
<path d="M519.949 319.83C519.949 318.867 519.567 317.944 518.886 317.263C518.205 316.582 517.282 316.2 516.319 316.2C515.843 316.2 515.371 316.294 514.93 316.476C514.49 316.659 514.09 316.926 513.753 317.263C513.416 317.6 513.148 318 512.966 318.441C512.783 318.881 512.689 319.353 512.689 319.83C512.689 320.307 512.783 320.779 512.966 321.219C513.148 321.66 513.416 322.06 513.753 322.397C514.09 322.734 514.49 323.001 514.93 323.184C515.371 323.366 515.843 323.46 516.319 323.46C517.282 323.46 518.205 323.078 518.886 322.397C519.567 321.716 519.949 320.793 519.949 319.83Z" stroke="#4C40F7" stroke-opacity="0.3" stroke-width="0.5"/>
<path d="M480.86 339.89C480.86 338.651 480.368 337.464 479.492 336.588C478.616 335.712 477.428 335.22 476.19 335.22C474.951 335.22 473.763 335.712 472.887 336.588C472.012 337.464 471.52 338.651 471.52 339.89C471.52 340.503 471.64 341.111 471.875 341.677C472.11 342.244 472.454 342.759 472.887 343.192C473.321 343.626 473.836 343.97 474.402 344.204C474.969 344.439 475.576 344.56 476.19 344.56C476.803 344.56 477.41 344.439 477.977 344.204C478.543 343.97 479.058 343.626 479.492 343.192C479.925 342.759 480.269 342.244 480.504 341.677C480.739 341.111 480.86 340.503 480.86 339.89Z" stroke="#001133" stroke-width="0.5"/>
<path d="M501.329 339.8C501.329 338.588 500.848 337.426 499.991 336.569C499.134 335.711 497.971 335.23 496.759 335.23C495.547 335.23 494.385 335.711 493.528 336.569C492.671 337.426 492.189 338.588 492.189 339.8C492.189 341.012 492.671 342.174 493.528 343.031C494.385 343.889 495.547 344.37 496.759 344.37C497.971 344.37 499.134 343.889 499.991 343.031C500.848 342.174 501.329 341.012 501.329 339.8Z" stroke="#001133" stroke-width="0.5"/>
<path d="M539.85 339.97C539.85 338.729 539.357 337.538 538.479 336.661C537.602 335.783 536.411 335.29 535.17 335.29C533.929 335.29 532.739 335.783 531.861 336.661C530.983 337.538 530.49 338.729 530.49 339.97C530.49 341.211 530.983 342.401 531.861 343.279C532.739 344.157 533.929 344.65 535.17 344.65C536.411 344.65 537.602 344.157 538.479 343.279C539.357 342.401 539.85 341.211 539.85 339.97Z" stroke="#001133" stroke-width="0.5"/>
<path d="M460.201 339.89C460.201 339.295 460.083 338.706 459.856 338.156C459.628 337.607 459.294 337.107 458.874 336.687C458.453 336.266 457.954 335.932 457.404 335.705C456.855 335.477 456.266 335.36 455.671 335.36C455.076 335.36 454.487 335.477 453.937 335.705C453.387 335.932 452.888 336.266 452.467 336.687C452.047 337.107 451.713 337.607 451.485 338.156C451.258 338.706 451.141 339.295 451.141 339.89C451.141 341.091 451.618 342.244 452.467 343.093C453.317 343.943 454.469 344.42 455.671 344.42C456.872 344.42 458.024 343.943 458.874 343.093C459.723 342.244 460.201 341.091 460.201 339.89Z" stroke="#4C40F7" stroke-opacity="0.3" stroke-width="0.5"/>
<path d="M460.32 359.76C460.32 358.524 459.829 357.339 458.955 356.465C458.081 355.591 456.896 355.1 455.66 355.1C454.424 355.1 453.239 355.591 452.365 356.465C451.491 357.339 451 358.524 451 359.76C451 360.996 451.491 362.181 452.365 363.055C453.239 363.929 454.424 364.42 455.66 364.42C456.896 364.42 458.081 363.929 458.955 363.055C459.829 362.181 460.32 360.996 460.32 359.76Z" stroke="#001133" stroke-width="0.5"/>
<path d="M480.771 359.76C480.771 358.516 480.276 357.323 479.397 356.444C478.517 355.564 477.324 355.07 476.081 355.07C474.837 355.07 473.644 355.564 472.764 356.444C471.885 357.323 471.391 358.516 471.391 359.76C471.391 361.004 471.885 362.197 472.764 363.076C473.644 363.956 474.837 364.45 476.081 364.45C477.324 364.45 478.517 363.956 479.397 363.076C480.276 362.197 480.771 361.004 480.771 359.76Z" stroke="#001133" stroke-width="0.5"/>
<path d="M539.84 359.76C539.84 359.145 539.719 358.537 539.484 357.969C539.249 357.401 538.904 356.885 538.47 356.451C538.035 356.016 537.519 355.671 536.951 355.436C536.384 355.201 535.775 355.08 535.16 355.08C534.546 355.08 533.937 355.201 533.37 355.436C532.802 355.671 532.286 356.016 531.851 356.451C531.417 356.885 531.072 357.401 530.837 357.969C530.602 358.537 530.48 359.145 530.48 359.76C530.48 360.374 530.602 360.983 530.837 361.551C531.072 362.119 531.417 362.635 531.851 363.069C532.286 363.504 532.802 363.848 533.37 364.084C533.937 364.319 534.546 364.44 535.16 364.44C535.775 364.44 536.384 364.319 536.951 364.084C537.519 363.848 538.035 363.504 538.47 363.069C538.904 362.635 539.249 362.119 539.484 361.551C539.719 360.983 539.84 360.374 539.84 359.76Z" stroke="#001133" stroke-width="0.5"/>
<path d="M460.339 241.65C460.339 242.261 460.219 242.865 459.985 243.429C459.751 243.994 459.409 244.506 458.977 244.938C458.545 245.37 458.033 245.712 457.469 245.946C456.904 246.18 456.3 246.3 455.689 246.3C454.456 246.3 453.273 245.81 452.401 244.938C451.529 244.066 451.039 242.883 451.039 241.65C451.039 240.417 451.529 239.234 452.401 238.362C453.273 237.49 454.456 237 455.689 237C456.3 237 456.904 237.12 457.469 237.354C458.033 237.588 458.545 237.93 458.977 238.362C459.409 238.794 459.751 239.306 459.985 239.871C460.219 240.435 460.339 241.039 460.339 241.65Z" fill="#001133"/>
<path d="M480.619 241.69C480.619 242.883 480.145 244.028 479.301 244.872C478.457 245.716 477.313 246.19 476.119 246.19C474.926 246.19 473.781 245.716 472.937 244.872C472.093 244.028 471.619 242.883 471.619 241.69C471.619 240.496 472.093 239.352 472.937 238.508C473.781 237.664 474.926 237.19 476.119 237.19C477.313 237.19 478.457 237.664 479.301 238.508C480.145 239.352 480.619 240.496 480.619 241.69Z" fill="#4C40F7" fill-opacity="0.3"/>
<path d="M501.14 241.65C501.14 242.841 500.667 243.983 499.825 244.825C498.983 245.667 497.841 246.14 496.65 246.14C496.061 246.14 495.477 246.024 494.932 245.798C494.387 245.572 493.892 245.242 493.475 244.825C493.058 244.408 492.728 243.913 492.502 243.368C492.276 242.823 492.16 242.24 492.16 241.65C492.16 241.06 492.276 240.476 492.502 239.932C492.728 239.387 493.058 238.892 493.475 238.475C493.892 238.058 494.387 237.727 494.932 237.502C495.477 237.276 496.061 237.16 496.65 237.16C497.841 237.16 498.983 237.633 499.825 238.475C500.667 239.317 501.14 240.459 501.14 241.65Z" fill="#4C40F7" fill-opacity="0.3"/>
<path d="M539.641 241.73C539.641 242.316 539.525 242.896 539.301 243.437C539.077 243.978 538.749 244.47 538.334 244.884C537.92 245.298 537.429 245.626 536.887 245.851C536.346 246.075 535.766 246.19 535.181 246.19C534.595 246.19 534.015 246.075 533.474 245.851C532.933 245.626 532.441 245.298 532.027 244.884C531.613 244.47 531.284 243.978 531.06 243.437C530.836 242.896 530.721 242.316 530.721 241.73C530.721 240.547 531.191 239.413 532.027 238.576C532.863 237.74 533.998 237.27 535.181 237.27C536.364 237.27 537.498 237.74 538.334 238.576C539.171 239.413 539.641 240.547 539.641 241.73Z" fill="#4C40F7" fill-opacity="0.3"/>
<path d="M480.43 261.26C480.43 262.443 479.96 263.577 479.123 264.414C478.287 265.25 477.153 265.72 475.97 265.72C474.787 265.72 473.652 265.25 472.816 264.414C471.98 263.577 471.51 262.443 471.51 261.26C471.51 260.077 471.98 258.943 472.816 258.106C473.652 257.27 474.787 256.8 475.97 256.8C477.153 256.8 478.287 257.27 479.123 258.106C479.96 258.943 480.43 260.077 480.43 261.26Z" fill="#4C40F7" fill-opacity="0.3"/>
<path d="M501.041 261.26C501.041 261.844 500.926 262.423 500.702 262.963C500.478 263.503 500.15 263.993 499.737 264.406C499.324 264.82 498.833 265.147 498.294 265.371C497.754 265.595 497.175 265.71 496.591 265.71C495.41 265.71 494.279 265.241 493.444 264.406C492.609 263.572 492.141 262.44 492.141 261.26C492.141 260.08 492.609 258.948 493.444 258.113C494.279 257.279 495.41 256.81 496.591 256.81C497.175 256.81 497.754 256.925 498.294 257.149C498.833 257.372 499.324 257.7 499.737 258.113C500.15 258.526 500.478 259.017 500.702 259.557C500.926 260.097 501.041 260.675 501.041 261.26Z" fill="#4C40F7" fill-opacity="0.3"/>
<path d="M460.19 261.34C460.19 262.523 459.72 263.657 458.883 264.494C458.047 265.33 456.912 265.8 455.73 265.8C454.547 265.8 453.412 265.33 452.576 264.494C451.739 263.657 451.27 262.523 451.27 261.34C451.27 260.157 451.739 259.023 452.576 258.186C453.412 257.35 454.547 256.88 455.73 256.88C456.912 256.88 458.047 257.35 458.883 258.186C459.72 259.023 460.19 260.157 460.19 261.34Z" fill="#4C40F7" fill-opacity="0.3"/>
<path d="M539.681 261.29C539.681 262.478 539.209 263.617 538.369 264.458C537.528 265.298 536.389 265.77 535.201 265.77C534.013 265.77 532.873 265.298 532.033 264.458C531.193 263.617 530.721 262.478 530.721 261.29C530.721 260.102 531.193 258.962 532.033 258.122C532.873 257.282 534.013 256.81 535.201 256.81C536.389 256.81 537.528 257.282 538.369 258.122C539.209 258.962 539.681 260.102 539.681 261.29Z" fill="#4C40F7" fill-opacity="0.3"/>
<path d="M519.891 261.3C519.891 262.263 519.508 263.186 518.828 263.867C518.147 264.547 517.224 264.93 516.261 264.93C515.298 264.93 514.375 264.547 513.694 263.867C513.013 263.186 512.631 262.263 512.631 261.3C512.631 260.337 513.013 259.414 513.694 258.733C514.375 258.052 515.298 257.67 516.261 257.67C517.224 257.67 518.147 258.052 518.828 258.733C519.508 259.414 519.891 260.337 519.891 261.3Z" fill="#4C40F7" fill-opacity="0.3"/>
<path d="M460.159 280.78C460.159 281.368 460.043 281.951 459.818 282.494C459.593 283.038 459.263 283.532 458.847 283.948C458.431 284.364 457.937 284.694 457.394 284.919C456.85 285.144 456.268 285.26 455.679 285.26C455.091 285.26 454.508 285.144 453.965 284.919C453.421 284.694 452.927 284.364 452.511 283.948C452.095 283.532 451.765 283.038 451.54 282.494C451.315 281.951 451.199 281.368 451.199 280.78C451.199 279.592 451.671 278.452 452.511 277.612C453.352 276.772 454.491 276.3 455.679 276.3C456.867 276.3 458.007 276.772 458.847 277.612C459.687 278.452 460.159 279.592 460.159 280.78Z" fill="#4C40F7" fill-opacity="0.3"/>
<path d="M480.681 280.81C480.681 282.033 480.195 283.205 479.331 284.07C478.466 284.934 477.294 285.42 476.071 285.42C474.848 285.42 473.676 284.934 472.811 284.07C471.947 283.205 471.461 282.033 471.461 280.81C471.461 279.587 471.947 278.415 472.811 277.55C473.676 276.686 474.848 276.2 476.071 276.2C477.294 276.2 478.466 276.686 479.331 277.55C480.195 278.415 480.681 279.587 480.681 280.81Z" fill="#001133"/>
<path d="M501.119 280.81C501.119 281.39 501.005 281.965 500.783 282.501C500.561 283.038 500.235 283.525 499.825 283.935C499.414 284.346 498.927 284.671 498.391 284.893C497.854 285.116 497.28 285.23 496.699 285.23C496.119 285.23 495.544 285.116 495.008 284.893C494.472 284.671 493.984 284.346 493.574 283.935C493.163 283.525 492.838 283.038 492.616 282.501C492.394 281.965 492.279 281.39 492.279 280.81C492.279 279.638 492.745 278.513 493.574 277.684C494.403 276.856 495.527 276.39 496.699 276.39C497.28 276.39 497.854 276.504 498.391 276.726C498.927 276.948 499.414 277.274 499.825 277.684C500.235 278.095 500.561 278.582 500.783 279.118C501.005 279.655 501.119 280.229 501.119 280.81Z" fill="#4C40F7" fill-opacity="0.3"/>
<path d="M539.61 280.88C539.61 282.058 539.143 283.187 538.31 284.019C537.477 284.852 536.348 285.32 535.17 285.32C533.993 285.32 532.864 284.852 532.031 284.019C531.198 283.187 530.73 282.058 530.73 280.88C530.73 279.702 531.198 278.573 532.031 277.74C532.864 276.908 533.993 276.44 535.17 276.44C536.348 276.44 537.477 276.908 538.31 277.74C539.143 278.573 539.61 279.702 539.61 280.88Z" fill="#4C40F7" fill-opacity="0.3"/>
<path d="M539.901 300.49C539.901 301.742 539.404 302.942 538.518 303.828C537.633 304.713 536.433 305.21 535.181 305.21C533.929 305.21 532.729 304.713 531.843 303.828C530.958 302.942 530.461 301.742 530.461 300.49C530.461 299.87 530.583 299.256 530.82 298.684C531.057 298.111 531.405 297.591 531.843 297.152C532.282 296.714 532.802 296.367 533.375 296.129C533.947 295.892 534.561 295.77 535.181 295.77C535.801 295.77 536.415 295.892 536.987 296.129C537.56 296.367 538.08 296.714 538.518 297.152C538.957 297.591 539.304 298.111 539.542 298.684C539.779 299.256 539.901 299.87 539.901 300.49Z" fill="#001133"/>
<path d="M460.201 300.46C460.201 301.651 459.728 302.793 458.886 303.635C458.044 304.477 456.902 304.95 455.711 304.95C454.52 304.95 453.378 304.477 452.536 303.635C451.694 302.793 451.221 301.651 451.221 300.46C451.221 299.87 451.337 299.286 451.562 298.742C451.788 298.197 452.119 297.702 452.536 297.285C452.953 296.868 453.448 296.537 453.992 296.312C454.537 296.086 455.121 295.97 455.711 295.97C456.3 295.97 456.884 296.086 457.429 296.312C457.974 296.537 458.469 296.868 458.886 297.285C459.303 297.702 459.633 298.197 459.859 298.742C460.085 299.286 460.201 299.87 460.201 300.46Z" fill="#4C40F7" fill-opacity="0.3"/>
<path d="M480.72 300.49C480.72 301.713 480.234 302.885 479.37 303.75C478.505 304.614 477.333 305.1 476.11 305.1C474.887 305.1 473.715 304.614 472.85 303.75C471.986 302.885 471.5 301.713 471.5 300.49C471.5 299.267 471.986 298.095 472.85 297.23C473.715 296.366 474.887 295.88 476.11 295.88C477.333 295.88 478.505 296.366 479.37 297.23C480.234 298.095 480.72 299.267 480.72 300.49Z" fill="#001133"/>
<path d="M501.079 300.53C501.079 301.697 500.616 302.816 499.791 303.641C498.965 304.466 497.846 304.93 496.679 304.93C495.512 304.93 494.393 304.466 493.568 303.641C492.743 302.816 492.279 301.697 492.279 300.53C492.279 299.363 492.743 298.244 493.568 297.419C494.393 296.593 495.512 296.13 496.679 296.13C497.846 296.13 498.965 296.593 499.791 297.419C500.616 298.244 501.079 299.363 501.079 300.53Z" fill="#4C40F7" fill-opacity="0.3"/>
<path d="M480.791 320.16C480.791 320.772 480.67 321.378 480.436 321.943C480.202 322.509 479.859 323.022 479.426 323.455C478.993 323.888 478.479 324.231 477.914 324.465C477.349 324.699 476.743 324.82 476.131 324.82C475.519 324.82 474.913 324.699 474.347 324.465C473.782 324.231 473.268 323.888 472.836 323.455C472.403 323.022 472.06 322.509 471.825 321.943C471.591 321.378 471.471 320.772 471.471 320.16C471.471 319.548 471.591 318.942 471.825 318.377C472.06 317.811 472.403 317.298 472.836 316.865C473.268 316.432 473.782 316.089 474.347 315.855C474.913 315.621 475.519 315.5 476.131 315.5C477.367 315.5 478.552 315.991 479.426 316.865C480.3 317.739 480.791 318.924 480.791 320.16Z" fill="#001133"/>
<path d="M539.871 320.22C539.871 321.456 539.38 322.641 538.506 323.515C537.632 324.389 536.447 324.88 535.211 324.88C533.975 324.88 532.79 324.389 531.916 323.515C531.042 322.641 530.551 321.456 530.551 320.22C530.551 318.984 531.042 317.799 531.916 316.925C532.79 316.051 533.975 315.56 535.211 315.56C536.447 315.56 537.632 316.051 538.506 316.925C539.38 317.799 539.871 318.984 539.871 320.22Z" fill="#001133"/>
<path d="M460.179 320.25C460.179 320.84 460.063 321.424 459.837 321.968C459.612 322.513 459.281 323.008 458.864 323.425C458.447 323.842 457.952 324.173 457.407 324.398C456.863 324.624 456.279 324.74 455.689 324.74C455.1 324.74 454.516 324.624 453.971 324.398C453.426 324.173 452.931 323.842 452.514 323.425C452.097 323.008 451.767 322.513 451.541 321.968C451.315 321.424 451.199 320.84 451.199 320.25C451.199 319.059 451.672 317.917 452.514 317.075C453.356 316.233 454.498 315.76 455.689 315.76C456.88 315.76 458.022 316.233 458.864 317.075C459.706 317.917 460.179 319.059 460.179 320.25Z" fill="#4C40F7" fill-opacity="0.3"/>
<path d="M501.07 320.19C501.07 320.769 500.956 321.343 500.734 321.878C500.513 322.413 500.188 322.899 499.778 323.308C499.369 323.718 498.883 324.043 498.348 324.264C497.813 324.486 497.239 324.6 496.66 324.6C495.49 324.6 494.369 324.135 493.542 323.308C492.715 322.481 492.25 321.36 492.25 320.19C492.25 319.02 492.715 317.899 493.542 317.072C494.369 316.245 495.49 315.78 496.66 315.78C497.239 315.78 497.813 315.894 498.348 316.116C498.883 316.337 499.369 316.662 499.778 317.072C500.188 317.481 500.513 317.967 500.734 318.502C500.956 319.037 501.07 319.611 501.07 320.19Z" fill="#4C40F7" fill-opacity="0.3"/>
<path d="M559.651 319.56C559.651 320.568 559.25 321.534 558.538 322.247C557.825 322.96 556.859 323.36 555.851 323.36C554.843 323.36 553.876 322.96 553.164 322.247C552.451 321.534 552.051 320.568 552.051 319.56C552.051 318.552 552.451 317.586 553.164 316.873C553.876 316.16 554.843 315.76 555.851 315.76C556.859 315.76 557.825 316.16 558.538 316.873C559.25 317.586 559.651 318.552 559.651 319.56Z" fill="#001133"/>
<path d="M519.949 319.83C519.949 320.793 519.567 321.716 518.886 322.397C518.205 323.078 517.282 323.46 516.319 323.46C515.843 323.46 515.371 323.366 514.93 323.184C514.49 323.001 514.09 322.734 513.753 322.397C513.416 322.06 513.148 321.66 512.966 321.219C512.783 320.779 512.689 320.307 512.689 319.83C512.689 319.353 512.783 318.881 512.966 318.441C513.148 318 513.416 317.6 513.753 317.263C514.09 316.926 514.49 316.659 514.93 316.476C515.371 316.294 515.843 316.2 516.319 316.2C517.282 316.2 518.205 316.582 518.886 317.263C519.567 317.944 519.949 318.867 519.949 319.83Z" fill="#4C40F7" fill-opacity="0.3"/>
<path d="M480.86 339.89C480.86 340.503 480.739 341.111 480.504 341.677C480.269 342.244 479.925 342.759 479.492 343.192C479.058 343.626 478.543 343.97 477.977 344.204C477.41 344.439 476.803 344.56 476.19 344.56C475.576 344.56 474.969 344.439 474.402 344.204C473.836 343.97 473.321 343.626 472.887 343.192C472.454 342.759 472.11 342.244 471.875 341.677C471.64 341.111 471.52 340.503 471.52 339.89C471.52 338.651 472.012 337.464 472.887 336.588C473.763 335.712 474.951 335.22 476.19 335.22C477.428 335.22 478.616 335.712 479.492 336.588C480.368 337.464 480.86 338.651 480.86 339.89Z" fill="#001133"/>
<path d="M501.329 339.8C501.329 341.012 500.848 342.174 499.991 343.031C499.134 343.889 497.971 344.37 496.759 344.37C495.547 344.37 494.385 343.889 493.528 343.031C492.671 342.174 492.189 341.012 492.189 339.8C492.189 338.588 492.671 337.426 493.528 336.569C494.385 335.711 495.547 335.23 496.759 335.23C497.971 335.23 499.134 335.711 499.991 336.569C500.848 337.426 501.329 338.588 501.329 339.8Z" fill="#001133"/>
<path d="M539.85 339.97C539.85 341.211 539.357 342.401 538.479 343.279C537.602 344.157 536.411 344.65 535.17 344.65C533.929 344.65 532.739 344.157 531.861 343.279C530.983 342.401 530.49 341.211 530.49 339.97C530.49 338.729 530.983 337.538 531.861 336.661C532.739 335.783 533.929 335.29 535.17 335.29C536.411 335.29 537.602 335.783 538.479 336.661C539.357 337.538 539.85 338.729 539.85 339.97Z" fill="#001133"/>
<path d="M460.201 339.89C460.201 341.092 459.723 342.244 458.874 343.093C458.024 343.943 456.872 344.42 455.671 344.42C454.469 344.42 453.317 343.943 452.467 343.093C451.618 342.244 451.141 341.092 451.141 339.89C451.141 339.295 451.258 338.706 451.485 338.157C451.713 337.607 452.047 337.108 452.467 336.687C452.888 336.266 453.387 335.933 453.937 335.705C454.487 335.477 455.076 335.36 455.671 335.36C456.266 335.36 456.855 335.477 457.404 335.705C457.954 335.933 458.453 336.266 458.874 336.687C459.294 337.108 459.628 337.607 459.856 338.157C460.083 338.706 460.201 339.295 460.201 339.89Z" fill="#4C40F7" fill-opacity="0.3"/>
<path d="M460.32 359.76C460.32 360.996 459.829 362.181 458.955 363.055C458.081 363.929 456.896 364.42 455.66 364.42C454.424 364.42 453.239 363.929 452.365 363.055C451.491 362.181 451 360.996 451 359.76C451 358.524 451.491 357.339 452.365 356.465C453.239 355.591 454.424 355.1 455.66 355.1C456.896 355.1 458.081 355.591 458.955 356.465C459.829 357.339 460.32 358.524 460.32 359.76Z" fill="#001133"/>
<path d="M480.771 359.76C480.771 361.004 480.276 362.197 479.397 363.076C478.517 363.956 477.324 364.45 476.081 364.45C474.837 364.45 473.644 363.956 472.764 363.076C471.885 362.197 471.391 361.004 471.391 359.76C471.391 358.516 471.885 357.323 472.764 356.444C473.644 355.564 474.837 355.07 476.081 355.07C477.324 355.07 478.517 355.564 479.397 356.444C480.276 357.323 480.771 358.516 480.771 359.76Z" fill="#001133"/>
<path d="M539.84 359.76C539.84 360.374 539.719 360.983 539.484 361.551C539.249 362.119 538.904 362.635 538.47 363.069C538.035 363.504 537.519 363.848 536.951 364.084C536.384 364.319 535.775 364.44 535.16 364.44C534.546 364.44 533.937 364.319 533.37 364.084C532.802 363.848 532.286 363.504 531.851 363.069C531.417 362.635 531.072 362.119 530.837 361.551C530.602 360.983 530.48 360.374 530.48 359.76C530.48 359.145 530.602 358.537 530.837 357.969C531.072 357.401 531.417 356.885 531.851 356.451C532.286 356.016 532.802 355.671 533.37 355.436C533.937 355.201 534.546 355.08 535.16 355.08C535.775 355.08 536.384 355.201 536.951 355.436C537.519 355.671 538.035 356.016 538.47 356.451C538.904 356.885 539.249 357.401 539.484 357.969C539.719 358.537 539.84 359.145 539.84 359.76Z" fill="#001133"/>
<path d="M59.7425 218.77C63.9925 213.28 68.0126 207.75 72.3626 202.37C72.4563 202.254 72.5741 202.161 72.7073 202.097C72.8406 202.033 72.9858 202 73.1325 202H87.8825C88.1147 202 88.3381 202.081 88.5125 202.23C90.0392 203.483 89.9992 204.753 88.3925 206.04C88.2107 206.176 87.9897 206.25 87.7625 206.25H75.0725C74.9171 206.25 74.7641 206.285 74.6254 206.353C74.4867 206.421 74.366 206.519 74.2725 206.64C51.2192 236.633 28.3292 266.743 5.60258 296.97C4.24258 298.77 1.68255 298.9 1.45255 296.18C1.42696 295.936 1.49489 295.693 1.64249 295.5C21.0558 269.267 40.4225 243.69 59.7425 218.77Z" fill="#4C40F7" fill-opacity="0.3"/>
<path d="M3.67648 279.223C3.38052 279.615 2.94126 279.872 2.45529 279.94C1.96931 280.007 1.4765 279.879 1.08517 279.583L0.734095 279.318C0.540321 279.171 0.377301 278.988 0.254359 278.778C0.131417 278.569 0.0509347 278.337 0.0175427 278.096C-0.0158494 277.856 -0.00146279 277.611 0.059779 277.376C0.121021 277.141 0.227924 276.92 0.374476 276.726L50.8269 210.016C51.1228 209.625 51.5622 209.367 52.0482 209.3C52.5342 209.232 53.027 209.361 53.4183 209.657L53.7694 209.922C53.9632 210.069 54.1262 210.252 54.2491 210.461C54.3721 210.671 54.4524 210.903 54.4858 211.143C54.5192 211.384 54.5049 211.629 54.4437 211.864C54.3825 212.099 54.2754 212.32 54.1289 212.514L3.67648 279.223Z" fill="#4C40F7" fill-opacity="0.3"/>
<path d="M20.0664 297.769C19.9139 297.972 19.723 298.142 19.5047 298.271C19.2863 298.399 19.0447 298.484 18.7937 298.519C18.5427 298.554 18.2873 298.54 18.0419 298.476C17.7965 298.413 17.5659 298.302 17.3635 298.149L17.1239 297.969C16.9215 297.816 16.7511 297.625 16.6224 297.407C16.4938 297.188 16.4096 296.947 16.3743 296.696C16.339 296.445 16.3534 296.189 16.4169 295.944C16.4803 295.699 16.5915 295.468 16.744 295.266L64.817 231.471C64.9696 231.268 65.1605 231.098 65.3789 230.969C65.5973 230.841 65.8389 230.756 66.0899 230.721C66.3408 230.686 66.5963 230.7 66.8417 230.764C67.0871 230.827 67.3175 230.938 67.5199 231.091L67.7595 231.271C67.962 231.424 68.1324 231.615 68.261 231.833C68.3896 232.051 68.474 232.293 68.5093 232.544C68.5446 232.795 68.5301 233.051 68.4667 233.296C68.4032 233.541 68.292 233.772 68.1394 233.974L20.0664 297.769Z" fill="#4C40F7" fill-opacity="0.3"/>
</svg>
