<svg width="378" height="686" viewBox="0 0 378 686" fill="none" xmlns="http://www.w3.org/2000/svg">
<path d="M97.0444 595.091L18.8417 542.947C10.9231 537.668 11.1477 525.93 19.2909 520.96L157.136 437.057C160.898 434.783 163.229 430.739 163.397 426.359L168.929 260.069C169.098 255.38 166.711 250.999 162.724 248.528L130.628 228.788C121.951 223.453 110.776 229.687 110.776 239.88V388.76C110.776 393.561 108.136 397.97 103.924 400.244L19.2067 445.846C10.53 450.536 0 444.246 0 434.362V251.898C0 244.709 5.84064 238.869 13.0291 238.869C20.2176 238.869 26.0582 244.709 26.0582 251.898V390.725C26.0582 400.581 36.5882 406.871 45.2649 402.21L77.8377 384.66C82.0497 382.386 84.6892 377.977 84.6892 373.175V193.267C84.6892 183.074 95.8651 176.812 104.542 182.175L189.259 234.32C193.246 236.763 195.605 241.171 195.465 245.861L188.95 441.354C188.81 445.734 186.451 449.778 182.688 452.052L67.757 522.027C59.6138 526.969 59.3611 538.707 67.3077 544.014L97.7464 564.316C101.93 567.096 107.35 567.236 111.674 564.653L247.778 482.996C251.709 480.637 254.096 476.397 254.096 471.82V147.496C254.096 137.444 243.173 131.182 234.496 136.236L206.753 152.41C200.547 156.033 192.544 153.927 188.922 147.721C185.3 141.515 187.406 133.513 193.612 129.89L260.554 90.831C269.231 85.7766 280.154 92.0384 280.154 102.091V486.562C280.154 491.139 277.739 495.379 273.836 497.738L110.916 595.485C106.648 598.012 101.228 597.871 97.0444 595.091Z" fill="black"/>
<path d="M273.256 608.368C269.353 602.303 271.122 594.244 277.159 590.369L345.253 546.592C349.044 544.149 351.29 539.965 351.234 535.445L345.113 75.9154C345.056 71.3384 342.585 67.1264 338.654 64.8238L286.032 34.1324C282.045 31.8017 277.131 31.7737 273.116 34.0201L35.2219 166.867C26.5452 171.724 15.8467 165.434 15.8467 155.494V64.2622C15.8467 59.9941 17.9527 55.9786 21.4627 53.5357L95.4535 2.31773C101.378 -1.78194 109.493 -0.293689 113.593 5.60311C117.693 11.528 116.205 19.6431 110.308 23.7428L47.549 67.2106C44.039 69.6536 41.933 73.6409 41.933 77.9372V111.072C41.933 121.012 52.6315 127.302 61.3082 122.444L273.424 4.00255C277.44 1.75615 282.354 1.81231 286.341 4.11487L364.544 49.7168C368.503 52.0193 370.946 56.2313 371.002 60.8084L377.517 549.541C377.573 554.033 375.327 558.245 371.536 560.688L291.283 612.299C285.218 616.175 277.159 614.434 273.256 608.368Z" fill="black"/>
<path d="M333.375 667.505H59.9883V685.139H333.375V667.505Z" fill="black"/>
</svg>
