<?xml version="1.0" encoding="UTF-8"?>
<svg id="Layer_1" data-name="Layer 1" xmlns="http://www.w3.org/2000/svg" xmlns:xlink="http://www.w3.org/1999/xlink" viewBox="0 0 1330.23 1428.32">
  <defs>
    <style>
      .cls-1, .cls-2, .cls-3 {
        stroke-width: 0px;
      }

      .cls-2 {
        fill: none;
      }

      .cls-4 {
        clip-path: url(#clippath);
      }

      .cls-3 {
        fill: #711db0;
      }
    </style>
    <clipPath id="clippath">
      <rect class="cls-2" x="-1197.85" y="-1086.94" width="3600" height="3600"/>
    </clipPath>
  </defs>
  <g class="cls-4">
    <g>
      <polygon class="cls-1" points="257.27 460.03 257.27 1016.11 41.88 1016.11 41.88 460.75 257.27 460.03"/>
      <path class="cls-1" d="m691.95,1016.11v43.54c0,110.96-26.77,195.16-80.29,252.61-53.52,57.44-133.8,86.15-240.84,86.15H41.88v-382.3h215.39v186.49h109.63c35.25,0,62.32-10.43,81.26-31.32,18.93-20.9,28.4-54.85,28.4-101.85v-53.32h215.39Z"/>
      <path class="cls-1" d="m691.95,366.49v92.06l-215.39.74v-102.59c0-46.99-9.47-80.94-28.4-101.82-18.93-20.88-46.01-31.34-81.26-31.34h-109.63v236.48l-215.39.73V27.71h328.95c107.03,0,187.32,28.74,240.84,86.17,53.52,57.44,80.29,141.65,80.29,252.61Z"/>
    </g>
    <path class="cls-1" d="m503.43,944.22c-17.92-19.88-26.88-48.39-26.88-85.54v-26.22h68.17v31.46c0,29.72,12.45,44.57,37.36,44.57,12.23,0,21.52-3.61,27.86-10.81,6.33-7.21,9.5-18.9,9.5-35.07,0-19.22-4.37-36.15-13.11-50.8-8.75-14.64-24.91-32.22-48.51-52.77-29.72-26.22-50.47-49.92-62.27-71.12-11.8-21.19-17.7-45.12-17.7-71.78,0-36.27,9.18-64.34,27.53-84.23,18.35-19.88,45-29.82,79.97-29.82s60.63,9.94,78.33,29.82c17.7,19.89,26.55,48.4,26.55,85.54v19.01h-68.17v-23.6c0-15.73-3.06-27.2-9.18-34.41-6.12-7.21-15.08-10.81-26.87-10.81-24.04,0-36.05,14.65-36.05,43.92,0,16.61,4.48,32.12,13.44,46.54,8.95,14.42,25.24,31.9,48.83,52.44,30.15,26.22,50.9,50.04,62.27,71.45,11.36,21.42,17.04,46.54,17.04,75.38,0,37.59-9.29,66.43-27.86,86.52-18.58,20.11-45.56,30.15-80.95,30.15s-61.4-9.93-79.31-29.82Z"/>
    <path class="cls-3" d="m732.85,508.65h72.1v458.84h-72.1v-458.84Z"/>
    <path class="cls-1" d="m915.06,574.2h-75.38v-65.55h222.86v65.55h-75.38v393.29h-72.1v-393.29Z"/>
    <path class="cls-1" d="m1097.29,508.65h196.64v65.55h-124.54v121.26h98.98v65.55h-98.98v140.93h124.54v65.55h-196.64v-458.84Z"/>
    <path class="cls-1" d="m741.05,1015.22h32.4c10.93,0,19.13,2.93,24.6,8.8,5.47,5.87,8.2,14.47,8.2,25.8v13.8c0,11.33-2.73,19.93-8.2,25.8-5.47,5.87-13.67,8.8-24.6,8.8h-10.4v57h-22v-140Zm32.4,63c3.6,0,6.3-1,8.1-3s2.7-5.4,2.7-10.2v-16.6c0-4.8-.9-8.2-2.7-10.2s-4.5-3-8.1-3h-10.4v43h10.4Z"/>
    <path class="cls-1" d="m882.24,1015.22h32.6c11.33,0,19.6,2.63,24.8,7.9,5.2,5.27,7.8,13.37,7.8,24.3v8.6c0,14.53-4.8,23.73-14.4,27.6v.4c5.33,1.6,9.1,4.87,11.3,9.8,2.2,4.93,3.3,11.54,3.3,19.8v24.6c0,4,.13,7.23.4,9.7.27,2.47.93,4.9,2,7.3h-22.4c-.8-2.27-1.33-4.4-1.6-6.4-.27-2-.4-5.6-.4-10.8v-25.6c0-6.4-1.03-10.87-3.1-13.4-2.07-2.53-5.63-3.8-10.7-3.8h-7.6v60h-22v-140Zm30,60c4.4,0,7.7-1.13,9.9-3.4,2.2-2.27,3.3-6.07,3.3-11.4v-10.8c0-5.07-.9-8.73-2.7-11-1.8-2.27-4.63-3.4-8.5-3.4h-10v40h8Z"/>
    <path class="cls-1" d="m1033.84,1148.02c-5.73-6.13-8.6-14.8-8.6-26v-73.6c0-11.2,2.87-19.87,8.6-26,5.73-6.13,14-9.2,24.8-9.2s19.07,3.07,24.8,9.2c5.73,6.13,8.6,14.8,8.6,26v73.6c0,11.2-2.87,19.87-8.6,26-5.73,6.13-14,9.2-24.8,9.2s-19.07-3.07-24.8-9.2Zm36.2-24.6v-76.4c0-9.2-3.8-13.8-11.4-13.8s-11.4,4.6-11.4,13.8v76.4c0,9.2,3.8,13.8,11.4,13.8s11.4-4.6,11.4-13.8Z"/>
    <circle class="cls-1" cx="1171.96" cy="1136.05" r="19.17"/>
    <rect class="cls-1" x="41.88" y="221.48" width="215.39" height="1085.03"/>
  </g>
</svg>