<?xml version="1.0" encoding="UTF-8"?>
<svg id="Layer_1" data-name="Layer 1" xmlns="http://www.w3.org/2000/svg" viewBox="0 0 33.79 26">
  <defs>
    <style>
      .cls-1 {
        fill: #040404;
      }

      .cls-1, .cls-2, .cls-3, .cls-4, .cls-5 {
        stroke-width: 0px;
      }

      .cls-2 {
        fill: #0a0606;
      }

      .cls-3 {
        fill: #f1f1f1;
      }

      .cls-4 {
        fill: #711eb0;
      }

      .cls-5 {
        fill: #fdfdfd;
      }
    </style>
  </defs>
  <path class="cls-5" d="m16.77,21.3c4.68,0,9.35,0,14.03,0,2.34,0,3-.65,3-2.96,0-5.16,0-10.31,0-15.47,0-2.07-.74-2.85-2.79-2.86-8.14-.01-16.28-.01-24.42,0-2.09,0-2.86.8-2.86,2.87,0,2.02,0,4.04,0,6.06q0,1.28-1.29,1.44c-1.79.22-2.88,1.99-2.24,3.67.22.57.35,1.15.35,1.76,0,1.32,0,2.65.02,3.97.01,1.04.4,1.43,1.42,1.49.26.01.51.02.77.02,4.68,0,9.35,0,14.03,0Zm1.97,4.7c.47,0,.93,0,1.4,0,1.63,0,3.26.01,4.89,0,.76,0,.9-.23.68-.96-.36-1.17-1.07-1.73-2.43-1.8-.61-.03-.91-.2-.81-.84.07-.44-.08-.6-.56-.6-2.07.03-4.14.02-6.21,0-.44,0-.67.1-.61.57.09.67-.24.85-.87.87-1.21.04-2.06.7-2.36,1.72-.24.8-.07,1.03.75,1.03,2.05,0,4.1,0,6.14,0Z"/>
  <path class="cls-1" d="m16.77,21.3c-4.68,0-9.35,0-14.03,0-.26,0-.51,0-.77-.02-1.02-.06-1.41-.46-1.42-1.49-.02-1.32-.02-2.65-.02-3.97,0-.61-.14-1.19-.35-1.76-.64-1.68.45-3.45,2.24-3.67q1.29-.16,1.29-1.44c0-2.02,0-4.04,0-6.06C3.72.81,4.49.01,6.58.01c8.14-.01,16.28-.01,24.42,0,2.05,0,2.79.79,2.79,2.86,0,5.16,0,10.31,0,15.47,0,2.31-.66,2.96-3,2.96-4.68,0-9.35,0-14.03,0Zm-11.38-6.04c.24-.04.69.23.62-.27-.05-.4-.16-.86-.59-1.11-.26-.26-.8-.28-.76-.04.06.5.06,1.17.73,1.42Zm.01.87c-1.22-.19-2.46-.02-3.68-.09-.47-.03-.53.17-.52.56.03.95.02,1.9.03,2.86.01.95.25,1.19,1.19,1.2,2.49.02,4.97.03,7.46.04,1.72,0,1.75-.04,1.66-1.77,0-.79,0-1.57.02-2.36.01-.36-.12-.49-.48-.49-1.9.02-3.79.03-5.69.04Zm.32-3.24s-.01.1-.02.14c1.74,0,3.49,0,5.23,0,1.29,0,1.3,0,1.3,1.27,0,1.23,0,2.46,0,3.7,0,.9,0,.9.91.91,5.73,0,11.45,0,17.18,0,1.35,0,1.5-.17,1.5-1.53,0-4.65,0-9.3,0-13.95,0-1.34-.16-1.52-1.52-1.52-7.75,0-15.5,0-23.25,0-.21,0-.42-.02-.63.01-.43.07-.72.28-.72.78,0,2.23,0,4.46,0,6.69,0,.4.16.46.52.4,1.31-.2,2.62-.37,3.92-.57,1.11-.17,1.63.17,1.81,1.27.04.25.02.51.05.76.06.59-.18.77-.79.84-1.84.21-3.66.51-5.49.78Zm2.07-2.19c.08-.49-.23-.49-.59-.39-.35.1-.79,1.33-.6,1.63.08.13.2.07.31.06.61-.06.86-.42.89-1.29Zm-3.23,1.06c-.02.36-.15.6.18.59.27-.01.59-.02.66-.37.06-.27.02-.56.09-.82.05-.21.04-.38-.15-.47-.23-.11-.4.03-.53.21-.22.32-.24.69-.24.87Zm-1.08,3.58c.14-.13.58.13.47-.33-.08-.35-.21-.7-.38-1.02-.14-.27-.93-.36-1.03-.15-.17.36.52,1.5.93,1.51Zm5.18-4.09c0,.16-.08.35.15.4.29.06.55,0,.75-.22.25-.29.16-.66.26-.98.15-.51-.18-.49-.49-.42-.68.15-.49.79-.67,1.23Zm-5.03.22c-.06-.16.14-.44-.15-.51-.26-.06-.59-.09-.74.21-.12.24-.21.52-.23.78-.02.22-.22.55.08.65.3.1.64-.04.84-.33.17-.23.19-.51.19-.81Zm3.05,2.37c.15.41.29.83.46,1.22.13.28.41.26.66.23.19-.02.27-.11.29-.31.05-.8-.53-1.31-1.41-1.15Zm3.54,1.15c-.19-.34-.21-.79-.53-1.09-.21-.2-.47-.17-.72-.14-.11.01-.17.09-.13.2.13.44.22.91.56,1.26.18.18.44.12.66.05.11-.04.21-.1.17-.27Zm1.33.22c0-.48,0-.83,0-1.18,0-.31-.23-.29-.45-.26-.29.04-.25.22-.17.4.14.32.2.69.62,1.04Zm-.61-5.14c-.09.41-.16.72-.21,1.03-.04.27.15.29.36.29.22,0,.39-.07.3-.32-.11-.3-.07-.65-.45-.99Z"/>
  <path class="cls-1" d="m18.73,26c-2.05,0-4.1,0-6.14,0-.82,0-.99-.23-.75-1.03.3-1.01,1.15-1.68,2.36-1.72.63-.02.96-.2.87-.87-.06-.47.17-.58.61-.57,2.07.02,4.14.03,6.21,0,.48,0,.63.16.56.6-.1.64.21.81.81.84,1.36.07,2.07.63,2.43,1.8.22.72.08.95-.68.96-1.63.02-3.26,0-4.89,0-.47,0-.93,0-1.4,0Z"/>
  <path class="cls-5" d="m5.72,12.89c1.83-.27,3.66-.57,5.49-.78.61-.07.85-.25.79-.84-.03-.25,0-.51-.05-.76-.18-1.1-.69-1.45-1.81-1.27-1.31.2-2.62.37-3.92.57-.35.05-.52,0-.52-.4.01-2.23.01-4.46,0-6.69,0-.5.28-.71.72-.78.2-.03.42-.01.63-.01,7.75,0,15.5,0,23.25,0,1.36,0,1.52.18,1.52,1.52,0,4.65,0,9.3,0,13.95,0,1.37-.14,1.53-1.5,1.53-5.73,0-11.45,0-17.18,0-.91,0-.91,0-.91-.91,0-1.23,0-2.46,0-3.7,0-1.26,0-1.27-1.3-1.27-1.74,0-3.49,0-5.23,0,0-.05.01-.1.02-.14Zm13.62-8.89c-1.46.08-3.25-.11-5.04.09-.71.08-1.05.5-1.05,1.16-.02,2.53-.02,5.07,0,7.6,0,.81.45,1.15,1.31,1.19,2.74.12,5.49.1,8.23.1.72,0,1.44.02,2.15-.1.61-.1.97-.43,1.01-1.05.05-.88.11-1.76.11-2.64,0-1.53.02-3.06-.08-4.59-.1-1.45-.33-1.75-1.78-1.76-1.51,0-3.03,0-4.87,0Zm4.3,10.44c.24.74.76.91,1.33.97.3.03.6,0,.91,0,.8,0,.82.04.41.76-.12.22-.28.41-.36.67-.15.53.06.9.45,1.21.39.31.83.31,1.23.04.42-.28.62-.7.45-1.2-.09-.26-.23-.5-.35-.75-.08-.17-.17-.37,0-.51.15-.14.35-.08.52.02.12.07.24.14.36.21.56.33,1.08.25,1.5-.24.41-.48.36-1-.04-1.45-.41-.47-.92-.48-1.44-.17-.33.2-.65.44-1.11.5,0-.37,0-.71,0-1.05,0-.44,0-.88-.15-1.31-.11-.3-.34-.48-.63-.45-.34.04-.18.37-.19.57-.02.56-.03,1.12,0,1.67.02.4-.13.52-.52.51-.76-.02-1.53,0-2.36,0Z"/>
  <path class="cls-5" d="m11.54,18.93c.09,1.73.05,1.77-1.66,1.77-2.49,0-4.97-.03-7.46-.04-.93,0-1.18-.25-1.19-1.2-.01-.95,0-1.9-.03-2.86-.01-.39.05-.59.52-.56,1.23.08,2.46-.09,3.68.09,0,.02-.01.04,0,.05,0,.03.02.06.04.09-.18.14-.36.28-.54.43-.69.57-.94,1.5-.65,2.33.31.86,1.12,1.41,2.04,1.39,1.04-.03,1.62-.68,2.06-1.52,1.07.01,2.14.03,3.21.04Zm-9.89-2.36h1.83c-.62-.16-1.23-.23-1.83,0Zm7.83,3.56c.6.13,1.19.21,1.79,0-.59-.2-1.19-.13-1.79,0Z"/>
  <path class="cls-5" d="m11.54,18.93c-1.07-.01-2.14-.03-3.21-.04.02-.55.02-1.09-.27-1.61-.61-1.07-1.6-1.12-2.65-1.02-.01-.03-.03-.06-.04-.09,0-.01,0-.03,0-.05,1.9-.01,3.79-.02,5.69-.04.36,0,.49.13.48.49-.02.79-.02,1.57-.02,2.36Zm-.33-2.39c-.56-.15-1.13-.19-1.68,0,.56.19,1.12.17,1.68,0Z"/>
  <path class="cls-5" d="m7.78,10.7c-.02.87-.28,1.23-.89,1.29-.11.01-.22.07-.31-.06-.19-.3.26-1.53.6-1.63.36-.1.67-.1.59.39Z"/>
  <path class="cls-3" d="m4.56,11.76c0-.17.02-.55.24-.87.13-.18.3-.32.53-.21.2.09.2.26.15.47-.06.27-.03.55-.09.82-.07.35-.39.36-.66.37-.32.01-.2-.22-.18-.59Z"/>
  <path class="cls-3" d="m3.47,15.33c-.41,0-1.1-1.14-.93-1.51.1-.21.89-.12,1.03.15.16.32.29.67.38,1.02.11.47-.34.2-.47.33Z"/>
  <path class="cls-5" d="m8.66,11.24c.17-.43-.01-1.08.67-1.23.31-.07.64-.09.49.42-.1.33,0,.7-.26.98-.2.23-.47.29-.75.22-.23-.05-.15-.24-.15-.4Z"/>
  <path class="cls-3" d="m3.63,11.46c0,.3-.02.57-.19.81-.21.29-.54.43-.84.33-.3-.1-.1-.44-.08-.65.02-.27.11-.54.23-.78.15-.3.47-.28.74-.21.29.07.09.35.15.51Z"/>
  <path class="cls-5" d="m6.67,13.83c.88-.17,1.46.35,1.41,1.15-.01.2-.1.29-.29.31-.26.03-.54.05-.66-.23-.17-.4-.31-.81-.46-1.22Z"/>
  <path class="cls-5" d="m10.21,14.98c.04.17-.07.23-.17.27-.22.07-.48.13-.66-.05-.34-.34-.42-.81-.56-1.26-.03-.1.03-.18.13-.2.25-.04.51-.06.72.14.32.3.34.75.53,1.09Z"/>
  <path class="cls-3" d="m5.38,15.26c-.67-.24-.67-.92-.73-1.42-.03-.24.5-.22.76.04-.1.46-.05.92-.03,1.38Z"/>
  <path class="cls-5" d="m11.54,15.2c-.41-.35-.47-.72-.62-1.04-.08-.18-.12-.37.17-.4.22-.03.44-.04.45.26.01.35,0,.71,0,1.18Z"/>
  <path class="cls-5" d="m10.93,10.06c.38.34.34.7.45.99.09.25-.08.32-.3.32-.2,0-.4-.02-.36-.29.04-.31.12-.62.21-1.03Z"/>
  <path class="cls-5" d="m5.38,15.26c-.01-.46-.07-.92.03-1.38.43.24.54.7.59,1.11.06.51-.38.23-.62.27Z"/>
  <path class="cls-2" d="m19.33,4c1.84,0,3.35,0,4.87,0,1.45,0,1.68.31,1.78,1.76.1,1.53.07,3.06.08,4.59,0,.88-.05,1.76-.11,2.64-.04.62-.4.94-1.01,1.05-.72.12-1.44.1-2.15.1-2.74,0-5.49.03-8.23-.1-.86-.04-1.31-.38-1.31-1.19-.02-2.53-.02-5.07,0-7.6,0-.66.34-1.07,1.05-1.16,1.79-.2,3.58-.01,5.04-.09Zm.31.67c-1.58,0-3.16,0-4.74,0-.82,0-.98.17-.98.98,0,2.21,0,4.41,0,6.62,0,1,.17,1.18,1.17,1.18,3.05,0,6.09,0,9.14,0,.91,0,1.16-.25,1.16-1.16,0-2.18,0-4.37,0-6.55,0-.85-.22-1.08-1.07-1.08-1.56,0-3.12,0-4.67,0Z"/>
  <path class="cls-1" d="m23.63,14.44c.83,0,1.6-.02,2.36,0,.39.01.54-.11.52-.51-.03-.56-.02-1.12,0-1.67,0-.2-.16-.53.19-.57.29-.03.52.15.63.45.15.43.16.86.15,1.31,0,.34,0,.69,0,1.05.46-.05.77-.3,1.11-.5.52-.31,1.03-.3,1.44.17.4.45.46.97.04,1.45-.42.49-.93.57-1.5.24-.12-.07-.24-.15-.36-.21-.17-.09-.37-.15-.52-.02-.16.15-.07.34,0,.51.12.25.27.49.35.75.17.51-.03.92-.45,1.2-.4.27-.84.27-1.23-.04-.39-.3-.61-.68-.45-1.21.07-.26.23-.45.36-.67.41-.72.39-.76-.41-.76-.3,0-.61.03-.91,0-.57-.06-1.09-.23-1.33-.97Zm6.12.52c-.09-.32-.28-.53-.58-.53-.29,0-.46.24-.45.51.02.3.23.69.46.69.29,0,.45-.39.56-.67Zm-2.72,2.72c.29-.12.67-.29.68-.57,0-.23-.38-.45-.68-.47-.27-.02-.5.18-.51.45,0,.3.22.48.52.59Z"/>
  <path class="cls-1" d="m5.42,16.27c1.05-.1,2.03-.05,2.65,1.02.29.51.29,1.05.27,1.61-.44.84-1.01,1.5-2.06,1.52-.92.02-1.73-.53-2.04-1.39-.3-.83-.04-1.76.65-2.33.18-.15.36-.29.54-.43Zm.15,1.89c0,.36-.14.81.24,1,.17.08.52-.14.76-.28.9-.52.89-.57-.12-1.13q-.87-.48-.88.41Z"/>
  <path class="cls-5" d="m1.65,16.57c.6-.23,1.21-.16,1.83,0h-1.83Z"/>
  <path class="cls-5" d="m9.48,20.13c.6-.13,1.2-.19,1.79,0-.59.2-1.19.13-1.79,0Z"/>
  <path class="cls-5" d="m11.21,16.54c-.56.17-1.12.19-1.68,0,.56-.19,1.12-.15,1.68,0Z"/>
  <path class="cls-5" d="m19.64,4.67c1.56,0,3.12,0,4.67,0,.84,0,1.07.23,1.07,1.08,0,2.18,0,4.37,0,6.55,0,.91-.25,1.16-1.16,1.16-3.05,0-6.09,0-9.14,0-1,0-1.17-.18-1.17-1.18,0-2.21,0-4.41,0-6.62,0-.81.17-.98.98-.98,1.58,0,3.16,0,4.74,0Zm-1.18,2.66c-.41-.06-.64.12-.63.62.02.83,0,1.67.02,2.5.02.58.35.77.89.54.87-.37,1.67-.86,2.35-1.53.09-.09.22-.15.15-.34-.24-.59-2.02-1.77-2.77-1.79Z"/>
  <path class="cls-3" d="m29.75,14.96c-.11.29-.27.67-.56.67-.23,0-.45-.38-.46-.69-.01-.27.16-.51.45-.51.3,0,.49.21.58.53Z"/>
  <path class="cls-3" d="m27.02,17.69c-.3-.11-.53-.3-.52-.59,0-.27.24-.47.51-.45.3.02.69.24.68.47,0,.28-.38.45-.68.57Z"/>
  <path class="cls-4" d="m5.57,18.15q0-.89.88-.41c1.01.56,1.02.6.12,1.13-.24.14-.59.36-.76.28-.38-.19-.25-.63-.24-1Z"/>
  <path class="cls-4" d="m18.46,7.33c.76.01,2.53,1.19,2.77,1.79.08.19-.06.25-.15.34-.68.67-1.47,1.16-2.35,1.53-.54.23-.87.04-.89-.54-.03-.83,0-1.67-.02-2.5-.01-.49.22-.68.63-.62Z"/>
</svg>