<?xml version="1.0" encoding="utf-8"?>
<!-- Generator: Adobe Illustrator 28.0.0, SVG Export Plug-In . SVG Version: 6.00 Build 0)  -->
<svg version="1.1" id="Layer_1" xmlns="http://www.w3.org/2000/svg" xmlns:xlink="http://www.w3.org/1999/xlink" x="0px" y="0px"
	 viewBox="0 0 72 72" style="enable-background:new 0 0 72 72;" xml:space="preserve">
<style type="text/css">
	.st0{fill:#FFFFFF;}
	.st1{fill:#711DB0;}
</style>
<g>
	<path d="M19.47,32.91c0-3.21,0-6.32,0-9.43c0-2.26,1.1-3.36,3.39-3.36c10.41,0,20.81,0,31.22,0c2.28,0,3.38,1.1,3.38,3.36
		c0,6.71,0,13.43-0.01,20.14c0,2.34-0.99,3.38-3.34,3.38c-12.16,0.01-24.33,0.01-36.49,0c-1.65,0-2.15-0.52-2.15-2.15
		c0-1.69,0.06-3.38-0.02-5.06c-0.03-0.74-0.24-1.51-0.54-2.18c-0.6-1.37,0.69-4.04,2.14-4.27c0.52-0.08,1.04-0.14,1.55-0.23
		C18.86,33.08,19.11,33,19.47,32.91z M21.66,36.39c0,0.07,0.01,0.13,0.01,0.2c2.01,0,4.03-0.01,6.04,0
		c2.74,0.02,2.38-0.46,2.42,2.45c0.02,1.63,0,3.26,0,4.91c0.41,0.03,0.63,0.06,0.85,0.06c7.52,0,15.05-0.02,22.57,0.03
		c1.17,0.01,1.44-0.4,1.43-1.5c-0.05-6.23-0.05-12.45,0-18.68c0.01-1.06-0.33-1.34-1.35-1.33c-5.65,0.04-11.31,0.02-16.96,0.02
		c-4.53,0-9.06,0-13.59,0c-0.53,0-1.13-0.07-1.14,0.71c-0.01,3.07-0.01,6.14-0.01,9.31c0.55-0.06,0.99-0.1,1.42-0.16
		c1.37-0.2,2.74-0.42,4.11-0.6c1.79-0.23,2.23,0.21,2.43,2.56c0.13,1.45-1.14,0.89-1.77,1.02C26,35.8,23.82,36.06,21.66,36.39z
		 M29.37,40.37c-4.44,0-8.73,0-13.13,0c0,1.74-0.05,3.43,0.05,5.1c0.02,0.28,0.63,0.76,0.97,0.76c3.71,0.05,7.42,0.03,11.12,0.02
		c0.63,0,0.99-0.27,0.99-0.94C29.37,43.71,29.37,42.1,29.37,40.37z M24.63,33.04c-1.39,0.01-1.41,0.05-1.63,2.28
		C24.35,35.33,24.52,35.09,24.63,33.04z M17.77,36.07c1.33,0.03,1.65-0.41,1.6-2.22C18.07,33.84,18.05,33.87,17.77,36.07z
		 M25.61,34.86c1.29,0.12,1.54-0.22,1.61-2.22C25.85,32.72,25.85,32.72,25.61,34.86z M20.41,35.76c1.41-0.14,1.44-0.19,1.61-2.3
		C20.74,33.43,20.53,33.71,20.41,35.76z M23.12,37.47c0.67,2.22,0.7,2.25,2,1.89C24.55,37.33,24.5,37.29,23.12,37.47z M17.88,37.46
		c0.57,2.17,0.64,2.23,1.97,1.91C19.25,37.28,19.25,37.28,17.88,37.46z M20.48,37.44c0.67,2.22,0.71,2.26,2.08,1.88
		C21.98,38.57,22.3,36.96,20.48,37.44z M25.78,37.44c0.58,2.12,0.87,2.47,2.06,1.75C27.22,38.54,27.53,36.96,25.78,37.44z
		 M29.26,34.46c-0.18-0.69-0.32-1.2-0.45-1.72c-0.09,0.01-0.18,0.03-0.28,0.04c-0.13,0.56-0.26,1.13-0.42,1.8
		C28.53,34.54,28.8,34.51,29.26,34.46z M29.33,37.33c-0.39,0.07-0.66,0.11-1.04,0.18c0.33,0.74,0.59,1.32,0.85,1.9
		c0.06-0.02,0.12-0.04,0.19-0.06C29.33,38.74,29.33,38.13,29.33,37.33z"/>
	<path d="M43.07,47.67c0.04,0.67,0.06,1.15,0.09,1.71c0.54,0.06,1.05,0.09,1.56,0.17c1.22,0.19,2.04,0.89,2.43,2.05
		c0.37,1.09,0.19,1.34-0.96,1.34c-3.81,0.01-7.63,0-11.44,0c-1.42,0-2.84-0.02-4.26,0.01c-0.79,0.01-0.98-0.33-0.81-1.05
		c0.27-1.19,1.21-2.12,2.44-2.34c0.51-0.09,1.03-0.11,1.63-0.17c0.05-0.57,0.09-1.12,0.14-1.72C36.95,47.67,39.99,47.67,43.07,47.67
		z"/>
	<path class="st0" d="M48.37,39.78c-0.19,0.35-0.34,0.7-0.56,0.99c-0.53,0.7-0.57,1.4,0.06,2.02c0.63,0.61,1.38,0.63,2,0
		c0.61-0.62,0.55-1.32,0.03-2.03c-0.2-0.28-0.23-0.69-0.34-1.04c0.35,0.08,0.78,0.06,1.04,0.26c0.74,0.56,1.45,0.65,2.1-0.03
		c0.57-0.59,0.57-1.32,0.01-1.93c-0.64-0.7-1.37-0.62-2.1-0.06c-0.28,0.21-0.64,0.33-1.18,0.59c0-0.96,0-1.62,0-2.29
		c0-0.76-0.13-1.42-1.22-1.45c0,1.19,0,2.34,0,3.59c-1.24,0-2.37,0-3.67,0C45.37,40.32,47.02,39.14,48.37,39.78z"/>
	<path d="M39.52,25.22c2.02,0,4.04-0.01,6.07,0c1.48,0.01,1.98,0.49,1.99,1.92c0.01,2.93,0.01,5.85,0,8.78
		c0,1.37-0.54,1.93-1.89,1.94c-4.12,0.01-8.24,0.01-12.36-0.01c-1.25-0.01-1.81-0.53-1.82-1.77c-0.03-3.04-0.03-6.08,0-9.12
		c0.01-1.26,0.53-1.72,1.84-1.73c2.06-0.01,4.12,0,6.18,0C39.52,25.23,39.52,25.23,39.52,25.22z M39.59,25.95
		C39.59,25.95,39.59,25.95,39.59,25.95c-2.06,0.01-4.11,0.03-6.17,0c-0.87-0.01-1.2,0.35-1.19,1.21c0.03,2.92,0.03,5.84,0,8.77
		c-0.01,0.88,0.37,1.21,1.21,1.21c4.07-0.01,8.15,0,12.22,0.01c0.85,0,1.21-0.38,1.2-1.23c-0.02-2.92-0.02-5.84,0-8.77
		c0-0.85-0.34-1.22-1.21-1.2C43.62,25.97,41.6,25.95,39.59,25.95z"/>
	<path d="M48.37,39.78c-1.35-0.64-3,0.54-3.82-1.39c1.29,0,2.43,0,3.67,0c0-1.25,0-2.4,0-3.59c1.08,0.03,1.21,0.69,1.22,1.45
		c0,0.67,0,1.33,0,2.29c0.54-0.26,0.9-0.37,1.18-0.59c0.73-0.56,1.46-0.64,2.1,0.06c0.56,0.61,0.55,1.33-0.01,1.93
		c-0.65,0.68-1.36,0.59-2.1,0.03c-0.26-0.2-0.69-0.18-1.04-0.26c0.11,0.35,0.14,0.76,0.34,1.04c0.52,0.71,0.58,1.41-0.03,2.03
		c-0.62,0.63-1.37,0.61-2,0c-0.63-0.61-0.59-1.32-0.06-2.02C48.03,40.47,48.18,40.13,48.37,39.78z M51.63,40.09
		c0.39-0.55,0.78-0.88,0.74-1.13c-0.04-0.28-0.46-0.63-0.77-0.7c-0.16-0.04-0.63,0.43-0.64,0.68
		C50.95,39.23,51.29,39.53,51.63,40.09z M49.98,41.73c-0.56-0.34-0.87-0.67-1.15-0.65c-0.25,0.02-0.71,0.48-0.67,0.65
		c0.08,0.31,0.42,0.72,0.7,0.77C49.11,42.53,49.43,42.12,49.98,41.73z"/>
	<path d="M22.62,45.89c-1.46,0-2.66-1.18-2.66-2.63c-0.01-1.43,1.19-2.64,2.64-2.66c1.43-0.01,2.65,1.19,2.66,2.63
		C25.27,44.68,24.07,45.89,22.62,45.89z M23.89,43.54c0.05-0.13,0.1-0.26,0.15-0.38c-0.7-0.41-1.39-0.82-2.24-1.31
		c0,1.05,0,1.8,0,2.81C22.61,44.21,23.25,43.87,23.89,43.54z"/>
	<path d="M16.8,40.86c0.79,0,1.57,0,2.36,0c0,0.1,0,0.2-0.01,0.3c-0.78,0-1.57,0-2.35,0C16.81,41.06,16.8,40.96,16.8,40.86z"/>
	<path d="M29.02,41.19c-0.77,0-1.54,0-2.32,0c0-0.1,0-0.21,0-0.31c0.78,0,1.57,0,2.35,0C29.03,40.98,29.03,41.08,29.02,41.19z"/>
	<path d="M19.14,45.66c-0.78,0-1.57,0-2.35,0c0-0.1,0-0.2,0-0.3c0.79,0,1.59,0,2.38,0C19.16,45.46,19.15,45.56,19.14,45.66z"/>
	<path d="M29.02,45.7c-0.77,0-1.54,0-2.31,0c0-0.1,0-0.2-0.01-0.3c0.78,0,1.56,0,2.35,0C29.04,45.5,29.03,45.6,29.02,45.7z"/>
	<path class="st0" d="M37.28,31.64c0,2.87,0.21,3.01,2.65,1.55c0.66-0.4,1.21-1,1.81-1.51c-0.59-0.51-1.12-1.1-1.77-1.53
		C37.56,28.55,37.15,29.12,37.28,31.64z"/>
	<path class="st1" d="M37.28,31.64c-0.13-2.53,0.28-3.1,2.69-1.49c0.64,0.43,1.18,1.02,1.77,1.53c-0.6,0.51-1.14,1.11-1.81,1.51
		C37.48,34.66,37.28,34.52,37.28,31.64z"/>
</g>
</svg>
