<svg width="178" height="322" viewBox="0 0 178 322" fill="none" xmlns="http://www.w3.org/2000/svg">
<g id="Group 1000001725">
<path id="line path" d="M156.679 313.712H28.1932V322H156.679V313.712Z" fill="white"/>
<path id="complex path" d="M45.6087 279.68L8.85515 255.173C5.13361 252.692 5.23919 247.176 9.06631 244.84L73.8502 205.407C75.6186 204.338 76.714 202.438 76.7932 200.379L79.3929 122.227C79.4721 120.023 78.3504 117.964 76.4764 116.803L61.3923 107.525C57.3144 105.018 52.062 107.948 52.062 112.738V182.708C52.062 184.965 50.8215 187.037 48.842 188.106L9.02672 209.538C4.94886 211.742 0 208.786 0 204.14V118.386C0 115.008 2.74497 112.263 6.12339 112.263C9.50182 112.263 12.2468 115.008 12.2468 118.386V183.632C12.2468 188.264 17.1956 191.22 21.2735 189.03L36.582 180.782C38.5615 179.713 39.802 177.641 39.802 175.384V90.8311C39.802 86.0406 45.0544 83.0976 49.1323 85.6183L88.9475 110.125C90.8215 111.273 91.9301 113.345 91.8641 115.549L88.8024 207.426C88.7364 209.485 87.6279 211.385 85.8595 212.454L31.8443 245.341C28.0171 247.664 27.8984 253.18 31.6331 255.674L45.9386 265.216C47.905 266.522 50.452 266.588 52.4843 265.374L116.45 226.997C118.298 225.889 119.419 223.896 119.419 221.745V69.32C119.419 64.5955 114.286 61.6526 110.208 64.028L97.1693 71.6295C94.2527 73.3319 90.4916 72.3421 88.7892 69.4256C87.0868 66.5091 88.0766 62.7479 90.9931 61.0455L122.455 42.6885C126.533 40.3131 131.666 43.256 131.666 47.9805V228.673C131.666 230.824 130.531 232.817 128.697 233.926L52.128 279.864C50.1221 281.052 47.5751 280.986 45.6087 279.68Z" fill="white"/>
<path id="top path" d="M128.424 285.919C126.59 283.069 127.421 279.281 130.259 277.46L162.261 256.886C164.043 255.738 165.099 253.772 165.072 251.647L162.195 35.6785C162.169 33.5274 161.007 31.5479 159.16 30.4657L134.429 16.0415C132.555 14.9461 130.245 14.9329 128.358 15.9887L16.5535 78.4235C12.4756 80.7066 7.44759 77.7505 7.44759 73.0788V30.2018C7.44759 28.1959 8.43736 26.3087 10.087 25.1606L44.861 1.08928C47.6456 -0.837474 51.4595 -0.138027 53.3862 2.63334C55.313 5.4179 54.6135 9.23182 51.8422 11.1586L22.347 31.5875C20.6974 32.7356 19.7076 34.6096 19.7076 36.6287V52.2012C19.7076 56.8729 24.7356 59.829 28.8135 57.5459L128.503 1.88111C130.391 0.825352 132.7 0.851747 134.574 1.9339L171.327 23.3658C173.188 24.4479 174.336 26.4275 174.363 28.5786L177.424 258.272C177.451 260.383 176.395 262.363 174.614 263.511L136.897 287.767C134.046 289.588 130.259 288.77 128.424 285.919Z" fill="white"/>
</g>
</svg>
