<?xml version="1.0" encoding="UTF-8"?>
<svg id="Layer_1" data-name="Layer 1" xmlns="http://www.w3.org/2000/svg" viewBox="0 0 44.16 44.195">
  <defs>
    <style>
      .cls-1, .cls-2, .cls-3 {
        stroke-width: 0px;
      }

      .cls-2 {
        fill: #fff;
      }

      .cls-3 {
        fill: #711db0;
      }
    </style>
  </defs>
  <path class="cls-2" d="m22.163.01c-1.569,0-3.138-.009-4.707.003-1.307.01-2.619-.03-3.918.085-1.788.158-3.13,1.568-3.198,3.353-.075,1.989-.07,3.983-.038,5.974.01.648-.254,1.015-.776,1.287-2.567,1.333-4.092,3.483-4.854,6.22-.368,1.322-.351,1.326-1.729,1.463-.441.044-.783.182-.768.725.014.533.233.837.8.824.221-.005.443.008.664.003.577-.014.847.226.932.837.21,1.497.815,2.85,1.72,4.064,1.414,1.894,3.282,3.085,5.57,3.668,1.293.33,1.294.368,1.366,1.688.029.528.28.765.796.762.512-.002.717-.288.726-.764.005-.261.019-.523.013-.784-.01-.429.173-.668.609-.748.434-.08.862-.197,1.285-.324,3.54-1.064,5.707-3.46,6.669-6.975.361-1.318.303-1.346,1.705-1.421.528-.028.754-.273.779-.785.025-.525-.262-.729-.725-.76-.26-.018-.522.007-.783.002-.49-.011-.788-.238-.855-.748-.181-1.38-.703-2.635-1.47-3.785-1.361-2.042-3.236-3.398-5.615-3.986-1.486-.367-1.5-.31-1.616-1.843-.002-.02-.003-.04-.003-.06-.008-.48-.308-.606-.723-.607-.424,0-.77.083-.779.611-.006.362.008.727-.034,1.085-.059.506-.453.629-.878.651-.477.024-.482-.355-.489-.671-.018-.804.004-1.61-.011-2.414-.009-.472.222-.653.665-.642.221.006.442-.003.664-.003,3.198,0,6.397-.008,9.595.005.579.002.788-.264.796-.805.008-.545-.251-.772-.775-.75-.181.008-.362,0-.543,0-3.178,0-6.357.002-9.535-.003-.727-.001-.981-.249-.816-.958.108-.465.368-.93.671-1.305.49-.604,1.235-.603,1.946-.604,4.727-.002,9.454-.016,14.181.011.873.005,1.748.159,2.618.27.538.069.82-.212,1.036-.641.227-.452-.165-.644-.413-.717-.722-.213-1.469-.447-2.211-.463-2.513-.056-5.028-.021-7.543-.022Zm3.466,35.379s0-.003,0-.005c.784,0,1.569.025,2.352-.005,2.597-.097,4.602-1.85,5.089-4.399.054-.282.186-.584.372-.799,1.882-2.17,3.784-4.324,5.68-6.482,1.459-1.661,2.937-3.305,4.368-4.988.93-1.094.873-2.41-.062-3.313-.942-.91-2.209-.905-3.314.019-.431.361-.855.732-1.277,1.103-1.419,1.247-2.833,2.498-4.256,3.74-.108.094-.33.212-.397.167-.126-.085-.215-.272-.252-.432-.044-.192-.022-.4-.022-.601-.002-1.287.008-2.575-.008-3.862-.008-.649-.329-.901-.964-.824-.588.071-.6.513-.601.944-.006,1.931-.019,3.862.008,5.792.008.553-.168.958-.578,1.314-.926.803-1.807,1.66-2.76,2.428-.385.311-.915.439-1.372.666-.783.389-1.652.675-2.32,1.21-1.378,1.105-1.863,2.669-1.821,4.402.022.941-.104,1.786-.932,2.419-.237.181-.454.63-.399.898.089.433.521.615.994.608.824-.011,1.649-.003,2.473-.003Zm8.15-22.091c2.533,0,5.065.004,7.598-.002,1.062-.002,1.329-.265,1.331-1.315.006-2.553.006-5.106.001-7.66-.002-1.11-.232-1.344-1.355-1.346-5.025-.005-10.05-.005-15.075,0-1.032.001-1.32.297-1.322,1.34-.006,2.533-.007,5.066,0,7.599.003,1.107.282,1.379,1.406,1.381,2.472.005,4.945.001,7.417,0Zm-24.92,27.177c2.535,0,5.07.005,7.605-.003.994-.003,1.218-.225,1.225-1.206.01-1.65.01-3.3-.002-4.95-.007-.979-.278-1.235-1.278-1.241-1.268-.007-2.535-.018-3.803.003-.571.009-.801-.222-.782-.788.023-.683.012-1.368-.001-2.052-.012-.629-.207-.811-.78-.819-.554-.009-.748.302-.753.797-.005.624-.001,1.248-.006,1.871-.007.914-.076.985-1.01.986-2.656.004-5.312-.002-7.967.003-1.014.002-1.289.27-1.298,1.297-.014,1.61-.013,3.22-.001,4.83.008,1.028.263,1.271,1.306,1.273,2.515.005,5.03.002,7.545,0Zm13.151,3.712c2.695,0,5.389.02,8.084-.007,2.066-.021,3.677-1.491,3.775-3.554.096-2.027.036-4.062.034-6.093,0-.523-.36-.688-.806-.694-.441-.006-.735.205-.755.678-.016.402-.004.804-.009,1.207-.011.88-.193,1.066-1.06,1.067-3.64.001-7.279,0-10.919.001-.241,0-.483.002-.722.026-.386.039-.551.268-.553.654-.003.667.22.87,1.065.871,3.519.006,7.038.003,10.557.003q1.658,0,1.631,1.653c-.03,1.822-.854,2.644-2.676,2.645-4.726.004-9.451-.003-14.177.005-1.148.002-2.283.083-3.233-.805-.334-.313-.75-.023-1.062.271-.346.327-.12.587.097.825.724.794,1.616,1.244,2.706,1.245,2.674.003,5.349,0,8.023.002ZM4.463,10.375c1.085,0,2.17.009,3.254-.003.85-.01,1.177-.328,1.183-1.166.012-1.688.012-3.376,0-5.063-.006-.845-.289-1.152-1.114-1.158-2.23-.017-4.46-.016-6.689-.002-.784.005-1.066.268-1.078,1.058-.026,1.748-.024,3.496,0,5.244.011.797.327,1.078,1.128,1.088,1.105.014,2.21.003,3.315.002Zm18.417,30.047c.057-.518-.293-.67-.775-.692-.484-.022-.77.16-.762.686.007.456.062.849.665.851.635.002.86-.186.871-.845Z"/>
  <path class="cls-1" d="m22.163.01c2.514,0,5.03-.034,7.543.022.742.016,1.49.25,2.211.463.248.073.64.265.413.717-.216.43-.498.71-1.036.641-.871-.111-1.745-.266-2.618-.27-4.727-.026-9.454-.013-14.181-.011-.711,0-1.455,0-1.946.604-.304.374-.563.84-.671,1.305-.165.709.09.957.816.958,3.178.005,6.357.003,9.535.003.181,0,.362.007.543,0,.525-.022.784.205.775.75-.008.541-.217.807-.796.805-3.198-.013-6.397-.005-9.595-.005-.221,0-.443.009-.664.003-.442-.011-.673.169-.665.642.015.805-.007,1.61.011,2.414.007.316.012.696.489.671.425-.022.819-.145.878-.651.042-.358.028-.723.034-1.085.008-.528.354-.612.779-.611.414,0,.715.126.723.607,0,.02.002.04.003.06.115,1.532.129,1.476,1.616,1.843,2.379.587,4.254,1.944,5.615,3.986.767,1.15,1.288,2.405,1.47,3.785.067.51.366.737.855.748.261.006.524-.019.783-.002.464.032.75.235.725.76-.024.512-.25.757-.779.785-1.401.075-1.344.103-1.705,1.421-.962,3.514-3.129,5.911-6.669,6.975-.423.127-.852.244-1.285.324-.436.081-.619.32-.609.748.006.261-.008.523-.013.784-.01.476-.215.761-.726.764-.515.002-.767-.234-.796-.762-.073-1.319-.073-1.358-1.366-1.688-2.288-.583-4.157-1.774-5.57-3.668-.905-1.213-1.51-2.566-1.72-4.064-.086-.611-.356-.851-.932-.837-.221.005-.443-.008-.664-.003-.566.014-.785-.291-.8-.824-.015-.544.328-.681.768-.725,1.377-.137,1.361-.141,1.729-1.463.762-2.737,2.287-4.888,4.854-6.22.522-.271.786-.639.776-1.287-.032-1.991-.037-3.984.038-5.974.067-1.785,1.409-3.195,3.198-3.353,1.298-.114,2.611-.075,3.918-.085,1.569-.012,3.138-.003,4.707-.002Zm-11.874,17.63c.053-.357.05-.734.169-1.067.537-1.492,1.582-2.424,3.182-2.576,1.456-.138,2.661.418,3.453,1.664.875,1.376.794,2.786-.076,4.147-.4.626-.398.712.163,1.162,1.063.853,1.721,1.943,1.924,3.303.03.204.145.395.22.592.219-.117.486-.187.648-.357.931-.987,1.489-2.185,1.85-3.478.217-.779.132-.918-.679-1.091-.448-.096-.574-.381-.596-.779-.023-.406.157-.63.554-.733.842-.217.948-.411.696-1.263-.503-1.702-1.388-3.165-2.798-4.264-1.024-.798-2.139-1.431-3.461-1.596-.466-.058-.787.055-.795.621-.007.486-.333.639-.777.635-.464-.003-.729-.213-.733-.684-.005-.494-.287-.625-.712-.575-.259.03-.527.052-.771.135-2.948,1-4.828,3.01-5.615,6.022-.166.635-.028.819.636.943.475.089.714.31.67.815-.039.45-.245.727-.706.739-.634.016-.742.375-.602.888.122.446.21.919.43,1.316.465.838.992,1.644,1.531,2.439.101.149.369.207.571.245.044.008.185-.246.201-.388.175-1.506.904-2.678,2.096-3.591.361-.277.397-.571.095-.975-.488-.653-.819-1.389-.766-2.25Zm.082,7.615c-.017,1.078.131,1.27,1.182,1.545.253.066.502.147.756.209.652.159.848.05.917-.627.053-.514.344-.627.774-.629.442-.002.707.145.761.645.068.634.288.778.887.614,2.054-.563,2.157-.411,1.878-2.686-.191-1.554-1.711-2.806-3.276-2.867-2.275-.088-3.843,1.446-3.879,3.796Zm1.477-7.607c-.006,1.173.96,2.16,2.127,2.174,1.166.014,2.155-.964,2.158-2.132.003-1.194-.933-2.117-2.147-2.113-1.176.003-2.133.93-2.139,2.072Z"/>
  <path class="cls-1" d="m25.63,35.389c-.824,0-1.649-.008-2.473.003-.473.006-.905-.175-.994-.608-.055-.268.162-.717.399-.898.828-.633.954-1.479.932-2.419-.041-1.732.443-3.297,1.821-4.402.668-.535,1.537-.821,2.32-1.21.456-.227.986-.355,1.372-.666.953-.768,1.834-1.625,2.76-2.428.41-.356.586-.761.578-1.314-.026-1.93-.014-3.862-.008-5.792.001-.431.013-.873.601-.944.635-.077.957.175.964.824.016,1.287.006,2.574.008,3.862,0,.201-.022.409.022.601.037.16.125.347.252.432.067.045.289-.073.397-.167,1.423-1.242,2.838-2.493,4.256-3.74.423-.371.846-.742,1.277-1.103,1.105-.924,2.372-.929,3.314-.019.935.903.992,2.218.062,3.313-1.431,1.684-2.909,3.328-4.368,4.988-1.896,2.158-3.797,4.312-5.68,6.482-.186.215-.319.517-.372.799-.487,2.549-2.492,4.302-5.089,4.399-.783.029-1.568.005-2.352.005,0,.002,0,.003,0,.005Zm16.185-19.174c-.253.136-.447.201-.592.325-1.009.861-2.012,1.728-3.007,2.604-2.58,2.27-5.156,4.546-7.733,6.82-.512.452-.522.702-.038,1.195.394.402.798.794,1.197,1.192.602.6.789.588,1.352-.051,2.193-2.488,4.394-4.968,6.584-7.459.942-1.071,1.88-2.147,2.778-3.255.152-.187.196-.585.104-.811-.094-.232-.415-.372-.645-.56Z"/>
  <path class="cls-1" d="m33.78,13.298c-2.472,0-4.945.004-7.417,0-1.124-.002-1.403-.274-1.406-1.381-.006-2.533-.005-5.066,0-7.599.003-1.043.29-1.339,1.322-1.34,5.025-.005,10.05-.005,15.075,0,1.123.001,1.353.235,1.355,1.346.005,2.553.005,5.106-.001,7.66-.003,1.049-.269,1.312-1.331,1.315-2.533.006-5.065.002-7.598.002Zm.067-1.517c2.091,0,4.181.002,6.272,0,.969-.001,1.049-.077,1.051-1.012.004-1.789.004-3.579,0-5.368-.002-.759-.105-.868-.876-.869-4.302-.004-8.604-.004-12.906,0-.714,0-.853.141-.855.847-.007,1.81-.007,3.619,0,5.429.003.862.116.97.984.972,2.111.004,4.221.001,6.332.001Z"/>
  <path class="cls-1" d="m8.86,40.476c-2.515,0-5.03.004-7.545,0-1.043-.002-1.298-.245-1.306-1.273-.012-1.61-.012-3.22.001-4.83.009-1.027.284-1.295,1.298-1.297,2.656-.005,5.312,0,7.967-.003.934-.001,1.003-.072,1.01-.986.005-.624.001-1.248.006-1.871.004-.495.198-.806.753-.797.573.009.768.191.78.819.013.684.025,1.369.001,2.052-.019.566.211.798.782.788,1.267-.021,2.535-.01,3.803-.003,1.001.006,1.272.262,1.278,1.241.011,1.65.012,3.3.002,4.95-.006.982-.23,1.203-1.225,1.206-2.535.008-5.07.003-7.605.003Zm-.027-1.525s0-.004,0-.005c2.152,0,4.304.01,6.455-.005.769-.005.858-.119.864-.888.006-.845.01-1.69,0-2.534-.01-.796-.111-.897-.918-.898-4.263-.004-8.527-.003-12.79,0-.711,0-.855.129-.871.837-.02.844-.011,1.69-.006,2.534.006.857.108.957.992.958,2.091.004,4.183.001,6.274.001Z"/>
  <path class="cls-1" d="m22.01,44.187c-2.674,0-5.349.001-8.023-.001-1.09-.001-1.982-.451-2.706-1.245-.217-.238-.443-.498-.097-.825.312-.294.728-.584,1.062-.271.95.888,2.086.807,3.233.805,4.726-.008,9.451,0,14.177-.005,1.822-.002,2.646-.824,2.676-2.645q.027-1.653-1.631-1.653c-3.519,0-7.038.002-10.557-.003-.845-.001-1.068-.204-1.065-.871.002-.386.166-.615.553-.654.239-.024.481-.026.722-.026,3.64-.001,7.279,0,10.919-.001.867,0,1.05-.186,1.06-1.067.005-.402-.007-.805.009-1.207.019-.473.313-.684.755-.678.445.006.805.171.806.694.001,2.031.062,4.066-.034,6.093-.098,2.063-1.709,3.533-3.775,3.554-2.694.027-5.389.007-8.084.006Z"/>
  <path class="cls-1" d="m4.463,10.375c-1.105,0-2.21.011-3.315-.003-.801-.01-1.117-.292-1.128-1.088-.025-1.748-.027-3.496,0-5.244.012-.789.294-1.053,1.078-1.058,2.23-.014,4.46-.015,6.689.002.825.006,1.109.313,1.114,1.158.012,1.688.011,3.376,0,5.063-.006.838-.334,1.156-1.183,1.166-1.085.012-2.169.003-3.254.004Zm-.077-1.546c.743,0,1.485-.002,2.228,0,.494.002.744-.233.743-.733-.002-.964-.012-1.927.004-2.891.008-.469-.228-.666-.655-.667-1.505-.007-3.011-.003-4.516-.002-.385,0-.611.183-.612.581-.005,1.004-.01,2.007.003,3.011.006.48.242.727.759.708.682-.025,1.365-.006,2.047-.007Z"/>
  <path class="cls-1" d="m22.879,40.422c-.012.659-.237.847-.871.845-.603-.002-.658-.395-.665-.851-.008-.526.278-.708.762-.686.482.022.832.174.775.692Z"/>
  <path class="cls-2" d="m10.372,25.254c.036-2.349,1.605-3.884,3.879-3.796,1.565.061,3.085,1.313,3.276,2.867.279,2.275.176,2.123-1.878,2.686-.599.164-.819.02-.887-.614-.054-.501-.319-.647-.761-.645-.43.002-.721.115-.774.629-.07.677-.266.786-.917.627-.254-.062-.503-.142-.756-.209-1.051-.275-1.199-.466-1.182-1.545Z"/>
  <path class="cls-2" d="m11.849,17.647c.006-1.142.963-2.069,2.139-2.072,1.213-.003,2.15.919,2.147,2.113-.003,1.168-.993,2.146-2.158,2.132-1.167-.014-2.133-1.001-2.127-2.174Z"/>
  <path class="cls-2" d="m41.815,16.214c.23.188.551.328.645.56.091.226.047.624-.104.811-.898,1.107-1.836,2.183-2.778,3.255-2.19,2.491-4.391,4.971-6.584,7.459-.563.639-.751.651-1.352.051-.399-.397-.803-.79-1.197-1.192-.484-.493-.474-.743.038-1.195,2.577-2.274,5.153-4.55,7.733-6.82.996-.876,1.999-1.743,3.007-2.604.145-.124.339-.189.592-.325Z"/>
  <path class="cls-3" d="m33.848,11.781c-2.111,0-4.221.002-6.332-.001-.868-.001-.981-.11-.984-.972-.006-1.81-.006-3.619,0-5.429.003-.706.141-.846.855-.847,4.302-.005,8.604-.005,12.906,0,.771,0,.874.11.876.869.005,1.789.005,3.579,0,5.368-.002.935-.081,1.011-1.051,1.012-2.091.003-4.181,0-6.272,0Z"/>
  <path class="cls-3" d="m8.833,38.95c-2.091,0-4.183.003-6.274-.001-.884-.002-.986-.102-.992-.958-.006-.845-.014-1.69.006-2.534.017-.708.16-.837.871-.837,4.263-.003,8.527-.003,12.79,0,.806,0,.908.102.918.898.01.845.006,1.69,0,2.534-.005.768-.094.882-.864.888-2.152.015-4.304.005-6.455.005,0,.002,0,.004,0,.005Z"/>
  <path class="cls-3" d="m4.386,8.829c-.682,0-1.366-.019-2.047.007-.517.019-.753-.228-.759-.708-.013-1.004-.008-2.007-.003-3.011.002-.398.228-.581.612-.581,1.505-.001,3.011-.004,4.516.002.428.002.663.198.655.667-.016.963-.006,1.927-.004,2.891.001.5-.249.735-.743.733-.743-.003-1.485,0-2.228,0Z"/>
</svg>