<?xml version="1.0" encoding="UTF-8"?>
<svg id="Layer_1" data-name="Layer 1" xmlns="http://www.w3.org/2000/svg" viewBox="0 0 43.515 35.766">
  <defs>
    <style>
      .cls-1, .cls-2, .cls-3, .cls-4, .cls-5 {
        stroke-width: 0px;
      }

      .cls-2 {
        fill: #662d91;
      }

      .cls-3 {
        fill: #fff;
      }

      .cls-4 {
        fill: #231f20;
      }

      .cls-5 {
        fill: #5a76b8;
      }
    </style>
  </defs>
  <g>
    <path class="cls-3" d="m20.079,18.045c.258.014.496.041.733.036.706-.016,1.482.243,1.784-.804.101-.352.739-.668,1.262-.118.631.665,1.323,1.277,1.986,1.914.544.523.999.337,1.473-.121.477-.461.648-.904.11-1.42-.62-.596-1.244-1.189-1.858-1.79-.614-.601-.476-1.317.382-1.554.613-.169.673-.522.589-.969-.098-.526.412-1.272-.578-1.502-.639-.149-.845-.585-.513-1.12.315-.508.116-.831-.289-1.1-.462-.306-.642-1.135-1.534-.705-.26.125-.974-.025-1.007-.157-.295-1.192-1.246-.847-2.02-.842-.225.002-.567.207-.65.4-.303.705-.785.73-1.46.578-.264-.06-.695.102-.885.305-.344.369-.813.862-.782,1.272.053.693.025,1.157-.704,1.458-.476.197-.558,2.054-.086,2.228,1.025.38.984,1.028.511,1.997.365.282.75.614,1.173.893.199.131.522.286.699.217.962-.374,1.42.054,1.662.905Z"/>
    <path class="cls-1" d="m20.079,18.045c-.243-.851-.7-1.279-1.662-.905-.177.069-.5-.086-.699-.217-.423-.279-.809-.611-1.173-.893.473-.969.514-1.617-.511-1.997-.472-.175-.39-2.032.086-2.228.729-.301.757-.764.704-1.458-.031-.41.438-.903.782-1.272.19-.203.621-.365.885-.305.674.153,1.157.127,1.46-.578.083-.193.425-.398.65-.4.774-.005,1.725-.35,2.02.842.033.132.748.282,1.007.157.892-.43,1.072.399,1.534.705.405.268.604.591.289,1.1-.332.536-.126.971.513,1.12.99.231.48.977.578,1.502.083.447.024.8-.589.969-.858.237-.996.953-.382,1.554.614.601,1.238,1.194,1.858,1.79.538.516.367.959-.11,1.42-.474.459-.929.644-1.473.121-.663-.637-1.354-1.249-1.986-1.914-.523-.551-1.161-.234-1.262.118-.302,1.047-1.078.788-1.784.804-.237.005-.475-.022-.733-.036Zm1.006-1.565c1.993-.018,3.705-1.7,3.664-3.599-.041-1.938-1.744-3.497-3.78-3.463-1.999.034-3.612,1.615-3.602,3.53.01,1.932,1.714,3.55,3.718,3.531Z"/>
    <path class="cls-3" d="m22.904,14.537v-3.549h-.966v3.549h.966Zm-4.329,0h1.039v-2.487h-1.039v2.487Zm1.72-2.006v2.054c.367-.017.656-.031.962-.045v-2.009h-.962Z"/>
    <g>
      <path class="cls-2" d="m23.045,14.537h-.966v-3.549h.966v3.549Z"/>
      <path class="cls-2" d="m18.716,14.537v-2.487h1.039v2.487h-1.039Z"/>
      <path class="cls-2" d="m20.436,12.531h.962v2.009c-.305.014-.594.028-.962.045v-2.054Z"/>
    </g>
  </g>
  <g>
    <path class="cls-3" d="m20.079,18.045c.258.014.496.041.733.036.706-.016,1.482.243,1.784-.804.101-.352.739-.668,1.262-.118.631.665,1.323,1.277,1.986,1.914.544.523.999.337,1.473-.121.477-.461.648-.904.11-1.42-.62-.596-1.244-1.189-1.858-1.79-.614-.601-.476-1.317.382-1.554.613-.169.673-.522.589-.969-.098-.526.412-1.272-.578-1.502-.639-.149-.845-.585-.513-1.12.315-.508.116-.831-.289-1.1-.462-.306-.642-1.135-1.534-.705-.26.125-.974-.025-1.007-.157-.295-1.192-1.246-.847-2.02-.842-.225.002-.567.207-.65.4-.303.705-.785.73-1.46.578-.264-.06-.695.102-.885.305-.344.369-.813.862-.782,1.272.053.693.025,1.157-.704,1.458-.476.197-.558,2.054-.086,2.228,1.025.38.984,1.028.511,1.997.365.282.75.614,1.173.893.199.131.522.286.699.217.962-.374,1.42.054,1.662.905Z"/>
    <path class="cls-1" d="m20.079,18.045c-.243-.851-.7-1.279-1.662-.905-.177.069-.5-.086-.699-.217-.423-.279-.809-.611-1.173-.893.473-.969.514-1.617-.511-1.997-.472-.175-.39-2.032.086-2.228.729-.301.757-.764.704-1.458-.031-.41.438-.903.782-1.272.19-.203.621-.365.885-.305.674.153,1.157.127,1.46-.578.083-.193.425-.398.65-.4.774-.005,1.725-.35,2.02.842.033.132.748.282,1.007.157.892-.43,1.072.399,1.534.705.405.268.604.591.289,1.1-.332.536-.126.971.513,1.12.99.231.48.977.578,1.502.083.447.024.8-.589.969-.858.237-.996.953-.382,1.554.614.601,1.238,1.194,1.858,1.79.538.516.367.959-.11,1.42-.474.459-.929.644-1.473.121-.663-.637-1.354-1.249-1.986-1.914-.523-.551-1.161-.234-1.262.118-.302,1.047-1.078.788-1.784.804-.237.005-.475-.022-.733-.036Zm1.006-1.565c1.993-.018,3.705-1.7,3.664-3.599-.041-1.938-1.744-3.497-3.78-3.463-1.999.034-3.612,1.615-3.602,3.53.01,1.932,1.714,3.55,3.718,3.531Z"/>
    <path class="cls-3" d="m22.904,14.537v-3.549h-.966v3.549h.966Zm-4.329,0h1.039v-2.487h-1.039v2.487Zm1.72-2.006v2.054c.367-.017.656-.031.962-.045v-2.009h-.962Z"/>
    <g>
      <path class="cls-2" d="m23.045,14.537h-.966v-3.549h.966v3.549Z"/>
      <path class="cls-2" d="m18.716,14.537v-2.487h1.039v2.487h-1.039Z"/>
      <path class="cls-2" d="m20.436,12.531h.962v2.009c-.305.014-.594.028-.962.045v-2.054Z"/>
    </g>
  </g>
  <g>
    <path class="cls-4" d="m41.876,0q1.639.084,1.639,1.752c-.005,7.828-.01,15.656-.018,23.484-.002,1.786-.466,2.269-2.226,1.986-1.117-.179-2.218-.148-3.327-.153-3.684-.017-7.368.009-11.052-.013-.669-.004-.971.082-.734.86.257.845.407,1.727.552,2.601.094.564.354.792.924.725.324-.038.657-.011.986,0,.45.016.827.189,1.11.55.389.496.47,2.919.102,3.435-.267.374-.634.537-1.101.537-4.638-.004-9.276.009-13.914-.005-1.021-.003-1.29-.39-1.418-1.817.015-.296.035-.59.043-.886.037-1.36.504-1.907,1.874-1.797,1.116.09,1.514-.342,1.631-1.361.104-.909.742-2.087.376-2.632-.405-.604-1.703-.183-2.609-.188-4.475-.024-8.949-.012-13.424-.015C.038,27.063,0,27.028,0,25.804,0,17.645,0,9.485.003,1.326.004.047.01.045,1.309.045c12.964-.004,25.927-.006,38.891-.011.559,0,1.117-.022,1.676-.033Zm-17.309,26.055c5.254.013,10.508.027,15.762.039,2.143.005,2.149.002,2.145-2.159-.014-6.337-.033-12.674-.05-19.011.012-1.02.001-2.04.046-3.058.026-.598-.189-.818-.791-.802-1.217.033-2.436.01-3.654.009-11.95-.005-23.899-.011-35.849-.015-.578,0-1.176-.158-1.172.826.03,7.801.023,15.602.013,23.403,0,.564.125.821.764.818,6.814-.031,13.628-.036,20.441-.048.434,0,.869,0,1.303,0,.347,0,.695,0,1.042,0Zm-2.854,8.69v.009c2.139,0,4.278-.023,6.416.013.674.011.987-.173.898-.881-.037-.292-.024-.593-.005-.887.04-.601-.237-.804-.823-.802-4.277.016-8.554.026-12.832.005-1.207-.006-.798.858-.864,1.463-.069.642-.028,1.129.892,1.1,2.104-.066,4.211-.021,6.316-.021Zm.033-3.517v.004c1.152,0,2.304-.014,3.455.007.488.009.635-.14.51-.633-.219-.859-.435-1.725-.556-2.602-.1-.725-.388-.991-1.143-.954-1.313.065-2.637.093-3.947-.004-1.1-.081-1.728.161-1.794,1.39-.038.713-.256,1.422-.446,2.119-.15.55.042.692.563.681,1.118-.024,2.238-.007,3.357-.007Z"/>
    <path class="cls-5" d="m23.525,26.055c.348-.159.696-.165,1.043,0-.348,0-.696,0-1.043,0Z"/>
    <path class="cls-4" d="m40.261,6.099c-.015,5.397-.03,10.794-.044,16.191q-.004,1.454-1.5,1.462c-5.101.015-10.202.031-15.304.047-5.989-.014-11.976-.029-17.964-.043-.362,0-.726-.027-1.085.005-.826.073-1.072-.297-1.067-1.101.03-4.672.016-9.344.017-14.016,0-1.415.029-2.83-.008-4.244-.02-.779.301-1.035,1.054-1.035,11.615.01,23.23.007,34.846-.011.79-.001,1.057.331,1.025,1.07-.024.557.017,1.117.029,1.675Zm-17.425,16.622c4.699.015,9.398.032,14.097.045q2.271.006,2.268-2.255c-.004-5.061,0-10.121-.021-15.182-.001-.349.27-.946-.501-.913-1.678-.013-3.356-.036-5.034-.038-9.414-.008-18.827-.01-28.241-.015-.552,0-1.103-.136-1.098.786.033,5.628.025,11.256.012,16.884-.001.559.193.743.745.741,5.924-.028,11.848-.038,17.773-.053Z"/>
    <path class="cls-5" d="m35.369,12.924c.029-.032.065-.044.107-.035-.032.026-.067.037-.107.035Z"/>
  </g>
  <g>
    <path class="cls-4" d="m41.876,0q1.639.084,1.639,1.752c-.005,7.828-.01,15.656-.018,23.484-.002,1.786-.466,2.269-2.226,1.986-1.117-.179-2.218-.148-3.327-.153-3.684-.017-7.368.009-11.052-.013-.669-.004-.971.082-.734.86.257.845.407,1.727.552,2.601.094.564.354.792.924.725.324-.038.657-.011.986,0,.45.016.827.189,1.11.55.389.496.47,2.919.102,3.435-.267.374-.634.537-1.101.537-4.638-.004-9.276.009-13.914-.005-1.021-.003-1.29-.39-1.418-1.817.015-.296.035-.59.043-.886.037-1.36.504-1.907,1.874-1.797,1.116.09,1.514-.342,1.631-1.361.104-.909.742-2.087.376-2.632-.405-.604-1.703-.183-2.609-.188-4.475-.024-8.949-.012-13.424-.015C.038,27.063,0,27.028,0,25.804,0,17.645,0,9.485.003,1.326.004.047.01.045,1.309.045c12.964-.004,25.927-.006,38.891-.011.559,0,1.117-.022,1.676-.033Zm-17.309,26.055c5.254.013,10.508.027,15.762.039,2.143.005,2.149.002,2.145-2.159-.014-6.337-.033-12.674-.05-19.011.012-1.02.001-2.04.046-3.058.026-.598-.189-.818-.791-.802-1.217.033-2.436.01-3.654.009-11.95-.005-23.899-.011-35.849-.015-.578,0-1.176-.158-1.172.826.03,7.801.023,15.602.013,23.403,0,.564.125.821.764.818,6.814-.031,13.628-.036,20.441-.048.434,0,.869,0,1.303,0,.347,0,.695,0,1.042,0Zm-2.854,8.69v.009c2.139,0,4.278-.023,6.416.013.674.011.987-.173.898-.881-.037-.292-.024-.593-.005-.887.04-.601-.237-.804-.823-.802-4.277.016-8.554.026-12.832.005-1.207-.006-.798.858-.864,1.463-.069.642-.028,1.129.892,1.1,2.104-.066,4.211-.021,6.316-.021Zm.033-3.517v.004c1.152,0,2.304-.014,3.455.007.488.009.635-.14.51-.633-.219-.859-.435-1.725-.556-2.602-.1-.725-.388-.991-1.143-.954-1.313.065-2.637.093-3.947-.004-1.1-.081-1.728.161-1.794,1.39-.038.713-.256,1.422-.446,2.119-.15.55.042.692.563.681,1.118-.024,2.238-.007,3.357-.007Z"/>
    <path class="cls-5" d="m23.525,26.055c.348-.159.696-.165,1.043,0-.348,0-.696,0-1.043,0Z"/>
    <path class="cls-4" d="m40.261,6.099c-.015,5.397-.03,10.794-.044,16.191q-.004,1.454-1.5,1.462c-5.101.015-10.202.031-15.304.047-5.989-.014-11.976-.029-17.964-.043-.362,0-.726-.027-1.085.005-.826.073-1.072-.297-1.067-1.101.03-4.672.016-9.344.017-14.016,0-1.415.029-2.83-.008-4.244-.02-.779.301-1.035,1.054-1.035,11.615.01,23.23.007,34.846-.011.79-.001,1.057.331,1.025,1.07-.024.557.017,1.117.029,1.675Zm-17.425,16.622c4.699.015,9.398.032,14.097.045q2.271.006,2.268-2.255c-.004-5.061,0-10.121-.021-15.182-.001-.349.27-.946-.501-.913-1.678-.013-3.356-.036-5.034-.038-9.414-.008-18.827-.01-28.241-.015-.552,0-1.103-.136-1.098.786.033,5.628.025,11.256.012,16.884-.001.559.193.743.745.741,5.924-.028,11.848-.038,17.773-.053Z"/>
    <path class="cls-5" d="m35.369,12.924c.029-.032.065-.044.107-.035-.032.026-.067.037-.107.035Z"/>
  </g>
</svg>