<svg width="652" height="441" viewBox="0 0 652 441" fill="none" xmlns="http://www.w3.org/2000/svg">
<path d="M424.373 76.386H189.518V275.755H424.373V76.386Z" fill="#713A97"/>
<path d="M424.373 275.755H189.518V279.118H424.373V275.755Z" fill="#713A97"/>
<path d="M416.283 82.9429H197.6V269.202H416.283V82.9429Z" fill="#9CA8FF"/>
<path opacity="0.2" d="M416.283 135.484V167.155L283.065 82.9429H333.15L416.283 135.484Z" fill="#FFFDFC"/>
<path opacity="0.2" d="M416.283 179.02V196.226L237.093 82.9429H264.295L416.283 179.02Z" fill="#FFFDFC"/>
<path opacity="0.2" d="M416.283 213.075V269.202H372.403L197.6 158.704V82.9429H210.422L416.283 213.075Z" fill="#FFFDFC"/>
<path d="M314.777 274.057L314.777 78.0845H299.114L299.114 274.057H314.777Z" fill="#6B3D96"/>
<path d="M428.554 173.835H185.329C184.529 173.835 183.881 173.187 183.881 172.387C183.881 171.587 184.529 170.939 185.329 170.939H428.554C429.354 170.939 430.002 171.587 430.002 172.387C430.002 173.186 429.354 173.835 428.554 173.835Z" fill="#713A97"/>
<path d="M428.554 77.835H185.329C184.529 77.835 183.881 77.187 183.881 76.387C183.881 75.587 184.529 74.939 185.329 74.939H428.554C429.354 74.939 430.002 75.587 430.002 76.387C430.002 77.186 429.354 77.835 428.554 77.835Z" fill="#713A97"/>
<path d="M428.554 83.835H185.329C184.529 83.835 183.881 83.187 183.881 82.387C183.881 81.587 184.529 80.939 185.329 80.939H428.554C429.354 80.939 430.002 81.587 430.002 82.387C430.002 83.186 429.354 83.835 428.554 83.835Z" fill="#713A97"/>
<path d="M428.554 89.835H185.329C184.529 89.835 183.881 89.187 183.881 88.387C183.881 87.587 184.529 86.939 185.329 86.939H428.554C429.354 86.939 430.002 87.587 430.002 88.387C430.002 89.186 429.354 89.835 428.554 89.835Z" fill="#713A97"/>
<path d="M428.554 95.835H185.329C184.529 95.835 183.881 95.187 183.881 94.387C183.881 93.587 184.529 92.939 185.329 92.939H428.554C429.354 92.939 430.002 93.587 430.002 94.387C430.002 95.186 429.354 95.835 428.554 95.835Z" fill="#713A97"/>
<path d="M428.554 101.835H185.329C184.529 101.835 183.881 101.187 183.881 100.387C183.881 99.587 184.529 98.939 185.329 98.939H428.554C429.354 98.939 430.002 99.587 430.002 100.387C430.002 101.186 429.354 101.835 428.554 101.835Z" fill="#713A97"/>
<path d="M428.554 107.835H185.329C184.529 107.835 183.881 107.187 183.881 106.387C183.881 105.587 184.529 104.939 185.329 104.939H428.554C429.354 104.939 430.002 105.587 430.002 106.387C430.002 107.186 429.354 107.835 428.554 107.835Z" fill="#713A97"/>
<path d="M428.554 113.835H185.329C184.529 113.835 183.881 113.187 183.881 112.387C183.881 111.587 184.529 110.939 185.329 110.939H428.554C429.354 110.939 430.002 111.587 430.002 112.387C430.002 113.186 429.354 113.835 428.554 113.835Z" fill="#713A97"/>
<path d="M428.554 119.835H185.329C184.529 119.835 183.881 119.187 183.881 118.387C183.881 117.587 184.529 116.939 185.329 116.939H428.554C429.354 116.939 430.002 117.587 430.002 118.387C430.002 119.186 429.354 119.835 428.554 119.835Z" fill="#713A97"/>
<path d="M428.554 125.835H185.329C184.529 125.835 183.881 125.187 183.881 124.387C183.881 123.587 184.529 122.939 185.329 122.939H428.554C429.354 122.939 430.002 123.587 430.002 124.387C430.002 125.186 429.354 125.835 428.554 125.835Z" fill="#713A97"/>
<path d="M428.554 131.835H185.329C184.529 131.835 183.881 131.187 183.881 130.387C183.881 129.587 184.529 128.939 185.329 128.939H428.554C429.354 128.939 430.002 129.587 430.002 130.387C430.002 131.186 429.354 131.835 428.554 131.835Z" fill="#713A97"/>
<path d="M428.554 137.835H185.329C184.529 137.835 183.881 137.187 183.881 136.387C183.881 135.587 184.529 134.939 185.329 134.939H428.554C429.354 134.939 430.002 135.587 430.002 136.387C430.002 137.186 429.354 137.835 428.554 137.835Z" fill="#713A97"/>
<path d="M428.554 143.835H185.329C184.529 143.835 183.881 143.187 183.881 142.387C183.881 141.587 184.529 140.939 185.329 140.939H428.554C429.354 140.939 430.002 141.587 430.002 142.387C430.002 143.186 429.354 143.835 428.554 143.835Z" fill="#713A97"/>
<path d="M428.554 149.835H185.329C184.529 149.835 183.881 149.187 183.881 148.387C183.881 147.587 184.529 146.939 185.329 146.939H428.554C429.354 146.939 430.002 147.587 430.002 148.387C430.002 149.186 429.354 149.835 428.554 149.835Z" fill="#713A97"/>
<path d="M428.554 155.835H185.329C184.529 155.835 183.881 155.187 183.881 154.387C183.881 153.587 184.529 152.939 185.329 152.939H428.554C429.354 152.939 430.002 153.587 430.002 154.387C430.002 155.186 429.354 155.835 428.554 155.835Z" fill="#713A97"/>
<path d="M428.554 161.835H185.329C184.529 161.835 183.881 161.187 183.881 160.387C183.881 159.587 184.529 158.939 185.329 158.939H428.554C429.354 158.939 430.002 159.587 430.002 160.387C430.002 161.186 429.354 161.835 428.554 161.835Z" fill="#713A97"/>
<path d="M428.554 167.835H185.329C184.529 167.835 183.881 167.187 183.881 166.387C183.881 165.587 184.529 164.939 185.329 164.939H428.554C429.354 164.939 430.002 165.587 430.002 166.387C430.002 167.186 429.354 167.835 428.554 167.835Z" fill="#713A97"/>
<path d="M428.306 70.126H185.578C184.641 70.126 183.881 69.366 183.881 68.429V66.03C183.881 65.093 184.641 64.333 185.578 64.333H428.306C429.243 64.333 430.003 65.093 430.003 66.03V68.429C430.002 69.366 429.243 70.126 428.306 70.126Z" fill="#713A97"/>
<path d="M412.777 70.126H411.11V179H412.777V70.126Z" fill="#713A97"/>
<path d="M412.679 185.375H411.208C410.566 185.375 410.046 184.855 410.046 184.213V178.663C410.046 178.021 410.566 177.501 411.208 177.501H412.679C413.321 177.501 413.841 178.021 413.841 178.663V184.213C413.841 184.855 413.321 185.375 412.679 185.375Z" fill="#713A97"/>
<path d="M613.236 102.526C617.419 85.0679 606.657 67.5242 589.199 63.3414C571.741 59.1586 554.197 69.9205 550.014 87.3789C545.831 104.837 556.593 122.381 574.052 126.564C591.51 130.746 609.054 119.985 613.236 102.526Z" stroke="#713A97" stroke-miterlimit="10"/>
<path d="M590.3 121.835C605.155 117.046 613.316 101.122 608.527 86.2665C603.739 71.4112 587.815 63.2504 572.959 68.0388C558.104 72.8272 549.943 88.7516 554.732 103.607C559.52 118.462 575.444 126.623 590.3 121.835Z" fill="#713A97"/>
<path d="M584.19 94.9651C584.19 96.3861 583.038 97.5371 581.618 97.5371C580.197 97.5371 579.046 96.3851 579.046 94.9651C579.046 93.5441 580.198 92.3931 581.618 92.3931C583.038 92.3931 584.19 93.5451 584.19 94.9651Z" fill="white"/>
<path d="M581.337 94.4601C580.948 94.6751 580.459 94.5351 580.243 94.1461L571.932 79.1551C571.716 78.7661 571.857 78.2771 572.245 78.0611C572.634 77.8461 573.123 77.9861 573.339 78.3741L581.65 93.3651C581.866 93.7551 581.726 94.2441 581.337 94.4601Z" fill="white"/>
<path d="M582.027 95.3742C582.341 95.0602 582.851 95.0602 583.165 95.3742L590.355 102.564C590.669 102.878 590.669 103.388 590.355 103.702C590.041 104.016 589.531 104.016 589.217 103.702L582.027 96.5122C581.712 96.1982 581.712 95.6882 582.027 95.3742Z" fill="white"/>
<path d="M581.791 72.3462V69.0962" stroke="white" stroke-width="2" stroke-miterlimit="10" stroke-linecap="round"/>
<path d="M604.237 95.1382H607.487" stroke="white" stroke-width="2" stroke-miterlimit="10" stroke-linecap="round"/>
<path d="M581.445 117.585V120.835" stroke="white" stroke-width="2" stroke-miterlimit="10" stroke-linecap="round"/>
<path d="M558.998 94.7922H555.748" stroke="white" stroke-width="2" stroke-miterlimit="10" stroke-linecap="round"/>
<g opacity="0.5">
<path d="M570.458 75.2891L568.833 72.4751" stroke="#DEE3FC" stroke-miterlimit="10" stroke-linecap="round"/>
<path d="M601.293 83.8052L604.108 82.1802" stroke="#DEE3FC" stroke-miterlimit="10" stroke-linecap="round"/>
<path d="M592.778 114.641L594.403 117.456" stroke="#DEE3FC" stroke-miterlimit="10" stroke-linecap="round"/>
<path d="M561.942 106.125L559.128 107.75" stroke="#DEE3FC" stroke-miterlimit="10" stroke-linecap="round"/>
</g>
<g opacity="0.5">
<path d="M562.115 83.5061L559.3 81.8811" stroke="#DEE3FC" stroke-miterlimit="10" stroke-linecap="round"/>
<path d="M593.077 75.4632L594.702 72.6482" stroke="#DEE3FC" stroke-miterlimit="10" stroke-linecap="round"/>
<path d="M601.12 106.425L603.935 108.05" stroke="#DEE3FC" stroke-miterlimit="10" stroke-linecap="round"/>
<path d="M570.158 114.468L568.533 117.283" stroke="#DEE3FC" stroke-miterlimit="10" stroke-linecap="round"/>
</g>
<path d="M521.423 62.6472H458.061V147.438H521.423V62.6472Z" fill="#713A97"/>
<path d="M521.423 147.438H458.061V149.374H521.423V147.438Z" fill="#6076E8"/>
<path d="M517.44 66.832H462.043V143.253H517.44V66.832Z" fill="#9CA8FF"/>
<path d="M489.275 66.8311H462.043V94.5301H489.275V66.8311Z" fill="#4963CE"/>
<path d="M517.409 92.092H489.275V96.957H517.409V92.092Z" fill="#713A97"/>
<path d="M517.44 99.3882H489.306V102.442H517.44V99.3882Z" fill="#713A97"/>
<path d="M517.44 104.872H489.306V107.926H517.44V104.872Z" fill="#713A97"/>
<path d="M517.44 110.357H489.306V113.411H517.44V110.357Z" fill="#713A97"/>
<path d="M517.44 115.842H489.306V118.896H517.44V115.842Z" fill="#713A97"/>
<path d="M489.306 143.253V118.895L462.043 143.253H489.306Z" fill="#713A97"/>
<path d="M462.043 118.895V94.5381L489.306 118.895H462.043Z" fill="#713A97"/>
<path d="M503.373 143.253V118.895L476.11 143.253H503.373Z" fill="#713A97"/>
<path d="M517.44 143.253V118.895L490.177 143.253H517.44Z" fill="#713A97"/>
<path d="M513.285 90.8479C518.778 85.3544 518.778 76.4478 513.285 70.9543C507.791 65.4609 498.885 65.4609 493.391 70.9543C487.898 76.4478 487.898 85.3544 493.391 90.8479C498.885 96.3414 507.791 96.3413 513.285 90.8479Z" fill="#713A97"/>
<path d="M480.823 192.684C483.931 187.777 484.194 167.835 484.194 167.835H457.773C457.773 167.835 457.51 187.777 454.402 192.684H480.823Z" fill="#4963CE"/>
<path opacity="0.2" d="M461.401 164.938H459.318V169.76H461.401V164.938Z" fill="#FFFDFC"/>
<path opacity="0.2" d="M482.651 164.938H480.568V169.76H482.651V164.938Z" fill="#FFFDFC"/>
<path d="M90.0551 237.862C85.9951 231.451 85.6521 205.4 85.6521 205.4H120.167C120.167 205.4 120.51 231.451 124.57 237.862H90.0551Z" fill="#4963CE"/>
<path opacity="0.2" d="M115.426 207.916H118.147V201.617H115.426V207.916Z" fill="#FFFDFC"/>
<path opacity="0.2" d="M87.665 207.916H90.387V201.617H87.665V207.916Z" fill="#FFFDFC"/>
<path d="M517.489 214.734C520.597 209.826 520.86 189.885 520.86 189.885H494.439C494.439 189.885 494.176 209.827 491.068 214.734H517.489Z" fill="#E3E5ED"/>
<path opacity="0.2" d="M498.068 186.988H495.985V191.81H498.068V186.988Z" fill="#FFFDFC"/>
<path opacity="0.2" d="M519.318 186.988H517.235V191.81H519.318V186.988Z" fill="#FFFDFC"/>
<path d="M171.21 172.387H20.913C19.873 172.387 19.03 171.544 19.03 170.504C19.03 169.464 19.873 168.621 20.913 168.621H171.21C172.25 168.621 173.093 169.464 173.093 170.504C173.093 171.543 172.25 172.387 171.21 172.387Z" fill="#4963CE"/>
<path d="M35.4819 182.5C34.4459 182.5 33.6069 181.661 33.6069 180.625V172.387H37.3569V180.625C37.3569 181.661 36.5179 182.5 35.4819 182.5Z" fill="#4963CE"/>
<path d="M156.64 182.5C155.605 182.5 154.765 181.661 154.765 180.625V172.387H158.515V180.625C158.515 181.661 157.676 182.5 156.64 182.5Z" fill="#4963CE"/>
<path d="M49.028 153.145C49.028 153.145 39.143 147.359 37 136C37 136 46.311 137.929 50.978 153.145" fill="#713A97"/>
<path d="M52.7791 152.911C52.7791 152.911 62.6641 147.125 64.8071 135.766C64.8071 135.766 55.4961 137.695 50.8291 152.911" fill="#713A97"/>
<path d="M49.794 151.982C49.794 151.982 42.666 143.017 44.769 131.65C44.769 131.65 52.755 136.811 51.613 152.686" fill="#713A97"/>
<path d="M52.0962 152.018C52.0962 152.018 59.0102 142.886 56.6372 131.573C56.6372 131.573 48.7752 136.922 50.2942 152.765" fill="#713A97"/>
<path d="M61.3652 150.607H39.8262V168.619H61.3652V150.607Z" fill="white"/>
<path opacity="0.6" d="M61.3651 150.607H57.1331V168.619H61.3651V150.607Z" fill="#DEE3FC"/>
<path d="M73.7711 160.565L70.8491 168.62H72.4641L78.2891 163.953" fill="#713A97"/>
<path d="M91.09 160.565L94.012 168.62H92.398L86.572 163.953" fill="#713A97"/>
<path d="M94.1726 155.89C95.4693 149.405 91.264 143.098 84.7798 141.801C78.2956 140.504 71.9879 144.71 70.6912 151.194C69.3945 157.678 73.5998 163.986 80.084 165.282C86.5682 166.579 92.8759 162.374 94.1726 155.89Z" fill="#713A97"/>
<path d="M92.2201 153.271C92.2201 158.677 87.8371 163.06 82.4311 163.06C77.0251 163.06 72.6421 158.677 72.6421 153.271C72.6421 147.865 77.0251 143.482 82.4311 143.482C87.8371 143.482 92.2201 147.865 92.2201 153.271Z" fill="white"/>
<path d="M83.1292 153.271H81.8552L82.4922 146.132L83.1292 153.271Z" fill="#DEE3FC"/>
<path d="M82.0203 153.953L82.9643 152.589L90.2803 158.39L82.0203 153.953Z" fill="#DEE3FC"/>
<path d="M83.9123 153.271C83.9123 154.055 83.2763 154.691 82.4923 154.691C81.7083 154.691 81.0723 154.055 81.0723 153.271C81.0723 152.487 81.7083 151.851 82.4923 151.851C83.2763 151.851 83.9123 152.486 83.9123 153.271Z" fill="#DEE3FC"/>
<path d="M164.001 161.699H108.678V168.619H164.001V161.699Z" fill="#3D59B2"/>
<path d="M118.24 163.438H110.444V166.882H118.24V163.438Z" fill="#DBDBDB"/>
<path d="M161.468 163.438H159.693V166.882H161.468V163.438Z" fill="#DBDBDB"/>
<path d="M153.646 163.438H125.742V166.882H153.646V163.438Z" fill="#DBDBDB"/>
<path d="M156.317 149.779H116.361V154.777H156.317V149.779Z" fill="#467CDB"/>
<path d="M121.82 151.035H117.637V153.522H121.82V151.035Z" fill="#DBDBDB"/>
<path d="M154.489 149.779H153.207V154.777H154.489V149.779Z" fill="#DBDBDB"/>
<path d="M152.24 149.779H150.958V154.777H152.24V149.779Z" fill="#DBDBDB"/>
<path d="M148.839 151.035H125.138V153.522H148.839V151.035Z" fill="#DBDBDB"/>
<path d="M159.188 154.778V161.698H103.874V160.767H140.093V155.794H103.874V154.778H159.188Z" fill="#687DBE"/>
<path d="M140.093 155.794H105.111V160.767H140.093V155.794Z" fill="#DBDBDB"/>
<path d="M286.681 182.535H339.745C343.146 182.535 345.903 185.292 345.903 188.693V201.229C345.903 204.366 343.556 206.956 340.522 207.338C340.077 207.394 339.745 207.772 339.745 208.22V215.082C339.745 215.479 339.236 215.642 339.005 215.319L333.6 207.761C333.432 207.526 333.161 207.386 332.872 207.386H286.681C283.28 207.386 280.523 204.629 280.523 201.228V188.692C280.523 185.292 283.28 182.535 286.681 182.535Z" stroke="white" stroke-width="0.8956" stroke-miterlimit="10"/>
<path d="M331.604 194.942C331.604 196.062 332.513 196.969 333.632 196.969C334.752 196.969 335.659 196.061 335.659 194.942C335.659 193.822 334.751 192.915 333.632 192.915C332.513 192.914 331.604 193.822 331.604 194.942Z" stroke="white" stroke-width="0.8956" stroke-miterlimit="10"/>
<path d="M321.396 194.942C321.396 196.062 322.304 196.969 323.423 196.969C324.543 196.969 325.449 196.061 325.449 194.942C325.449 193.822 324.542 192.915 323.423 192.915C322.304 192.914 321.396 193.822 321.396 194.942Z" stroke="white" stroke-width="0.8956" stroke-miterlimit="10"/>
<path d="M311.187 194.942C311.187 196.062 312.095 196.969 313.214 196.969C314.334 196.969 315.241 196.061 315.241 194.942C315.241 193.822 314.333 192.915 313.214 192.915C312.094 192.914 311.187 193.822 311.187 194.942Z" stroke="white" stroke-width="0.8956" stroke-miterlimit="10"/>
<path d="M300.977 194.942C300.977 196.062 301.885 196.969 303.004 196.969C304.124 196.969 305.031 196.061 305.031 194.942C305.031 193.822 304.123 192.915 303.004 192.915C301.885 192.914 300.977 193.822 300.977 194.942Z" stroke="white" stroke-width="0.8956" stroke-miterlimit="10"/>
<path d="M290.768 194.942C290.768 196.062 291.676 196.969 292.795 196.969C293.915 196.969 294.822 196.061 294.822 194.942C294.822 193.822 293.914 192.915 292.795 192.915C291.675 192.914 290.768 193.822 290.768 194.942Z" stroke="white" stroke-width="0.8956" stroke-miterlimit="10"/>
<path d="M330.386 440.836H333.794L353.696 363.597H344.772L330.386 440.836Z" fill="#C4C9FC"/>
<path d="M408.777 440.836H405.369L385.467 363.597H394.391L408.777 440.836Z" fill="#C4C9FC"/>
<path d="M360.558 440.836H363.966L383.868 363.597H374.944L360.558 440.836Z" fill="#A4AFFF"/>
<path d="M438.949 440.836H435.542L415.639 363.597H424.564L438.949 440.836Z" fill="#A4AFFF"/>
<path d="M416.897 358.529C420.38 359.165 432.585 363.257 428.94 365.847C422.607 370.347 358.093 370.735 344.19 365.633C333.19 361.597 336.19 352.133 348.19 350.466C360.19 348.799 398.704 355.207 416.897 358.529Z" fill="#C4C9FC"/>
<path d="M337.519 359.767L320.9 279.525C320.28 276.531 322.566 273.723 325.623 273.723H362.302V359.767H337.519Z" fill="#C4C9FC"/>
<path d="M462.585 440.467H435.646C435.646 440.467 434.141 435.67 437.403 429.727C437.403 429.727 439.571 431.466 446.066 430.29C446.066 430.29 448.777 432.591 450.648 433.491C452.53 434.402 463.311 436.519 462.585 440.467Z" fill="white"/>
<path d="M369.483 418.25C369.483 418.25 368.221 420.329 366.736 421.22C365.251 422.111 362.761 424.431 361.721 428.295C361.721 428.295 362.403 430.016 365.741 432.466C366.996 433.387 371.606 439.607 373.478 440.363H385.922C385.922 440.363 386.888 435.926 380.547 434.437C377.049 431.737 375.959 426.183 375.959 426.183L377.798 421.238L369.483 418.25Z" fill="white"/>
<path d="M372.511 333.659C372.886 329.968 373.604 328.097 373.604 328.097C373.604 328.097 420.854 337.005 433.42 341.226C439.664 343.323 444.429 347.176 445.019 352.811L445.047 352.805C445.109 353.396 446.63 409.672 446.846 430.157C441.699 431.431 437.97 431.307 436.205 431.108C434.772 422.768 430.456 404.575 428.606 395.931C426.414 385.691 423.637 373.479 423.104 365.047C404.002 363.384 378.782 360.577 375.755 359.048C370.764 356.527 369.262 347.616 372.511 333.659Z" fill="#24315D"/>
<path d="M402.27 341.226C395.271 339.645 387.333 337.882 380.762 336.418L363.036 332.379L343.536 326.007C343.536 326.007 343.366 327.371 342.991 331.062C342.991 331.062 336.053 353.875 347.054 359.767C355.593 364.341 373.023 365.306 389.38 365.935L414.185 350.74C412.699 345.971 406.586 342.206 402.27 341.226Z" fill="#2D3A70"/>
<path d="M375.734 391.986C373.524 399.248 368.676 414.235 366.203 421.042C367.157 422.167 370.295 424.691 376.473 426.073C385.492 408.313 402.287 379.505 408.103 368.531L412.846 360.024C414.649 356.878 414.983 353.68 414.183 350.74L386.995 361.42C381.808 369.803 378.68 382.318 375.734 391.986Z" fill="#2D3A70"/>
<path d="M402.936 301.55L390.786 306.1C390.646 305.9 390.516 305.69 390.396 305.49V305.48C388.376 302.24 387.426 299.33 386.456 295.46C386.456 295.45 386.456 295.45 386.456 295.44C385.806 293.45 385.246 291.46 384.756 289.6C383.386 284.32 382.666 280.12 382.666 280.12L396.526 273.38L399.026 284.36L399.866 288.08V288.09L402.936 301.55Z" fill="#E5918F"/>
<path d="M384.756 289.597C385.246 291.457 385.806 293.447 386.456 295.437C386.456 295.447 386.456 295.447 386.456 295.457C387.426 299.327 388.376 302.237 390.396 305.477C389.606 301.837 389.476 293.717 389.476 293.717C392.936 292.927 399.866 288.087 399.866 288.087V288.077L399.026 284.357C398.166 284.317 396.636 284.267 396.026 284.387C395.146 284.557 388.396 287.427 386.646 288.087C385.986 288.337 385.366 288.877 384.756 289.597Z" fill="#CC6362"/>
<path d="M342.076 303.097C342.496 310.007 343.501 314.844 342.199 325.306C341.874 327.918 341.716 329.537 341.716 330.577C341.716 331.307 342.636 332.057 343.016 332.267C346.986 334.557 362.436 334.897 370.206 334.897C377.106 334.897 387.476 333.797 388.776 332.057C389.976 330.457 388.876 328.147 388.306 324.947C385.766 310.517 386.666 302.997 386.826 292.577C386.826 292.317 386.836 292.057 386.836 291.787V291.587H386.846C387.666 291.467 388.446 291.317 389.126 291.177C390.246 290.927 391.106 290.677 391.476 290.557C399.856 287.927 401.106 285.237 401.106 285.237C398.736 274.927 395.876 268.007 393.326 263.437C393.266 263.327 393.206 263.217 393.136 263.097C393.076 262.987 393.006 262.867 392.936 262.757C391.566 260.487 389.596 258.577 387.406 257.007C387.186 256.847 386.976 256.697 386.746 256.537C380.446 252.277 372.696 250.577 372.036 250.437C372.006 250.427 371.996 250.427 371.996 250.427C370.006 250.297 367.836 250.257 365.476 250.337C361.476 250.447 354.996 251.427 349.226 252.997C349.226 252.997 349.186 253.007 349.156 253.017C348.596 253.197 344.846 254.597 340.956 258.767C339.646 260.137 338.316 261.837 337.116 263.917C337.386 270.377 338.786 282.007 339.576 292.057C339.706 293.577 341.986 301.657 342.076 303.097Z" fill="white"/>
<path d="M386.846 291.587C387.666 291.467 388.446 291.317 389.126 291.177L387.186 273.377C387.116 276.287 386.876 289.777 386.846 291.587Z" fill="#E3E6ED"/>
<path d="M382.477 218.222C382.477 218.222 384.314 230.305 378.921 231.557C375.451 232.362 375.87 228.119 375.87 228.119L375.779 223.096L382.477 218.222Z" fill="#192C51"/>
<path d="M368.796 259.61C357.576 260.94 354.986 252.19 356.846 251.32C358.066 251.13 358.446 250.16 358.616 249.52C360.236 243.22 358.216 233.22 358.216 233.22C358.216 233.22 366.206 239.54 369.956 242.5C371.116 243.43 371.866 244.03 371.866 244.03C371.846 244.23 371.336 246.55 371.686 248.29C371.726 248.52 371.786 248.74 371.866 248.94C371.996 249.28 371.996 250.43 371.996 250.43L372.006 250.42C372.776 251.39 376.006 258.74 368.796 259.61Z" fill="#E5918F"/>
<path d="M371.686 248.29C365.616 246.25 364.356 240.86 364.356 240.86L368.606 241.86L369.956 242.5C371.116 243.43 371.866 244.03 371.866 244.03C371.846 244.23 371.336 246.55 371.686 248.29Z" fill="#CC6362"/>
<path d="M380.931 222.995C381.002 226.645 380.985 236.451 378.993 242.084C378.063 244.713 375.444 246.349 372.669 246.067C369.958 245.792 366.097 244.667 362.612 240.961C360.827 239.063 358.821 238.822 357.892 236.387C356.384 232.432 354.051 225.086 355.389 220.34C357.215 213.863 377.058 206.533 380.533 219.733C380.813 220.796 380.91 221.895 380.931 222.995Z" fill="#E5918F"/>
<path d="M354.884 216.769C354.148 211.93 355.152 210.984 357.023 209.93C360.888 207.753 377.625 208.595 385.554 212.834C387.374 213.807 386.513 217.514 385.74 218.875C380.83 227.521 371.269 223.816 367.496 223.011C366.93 225.671 367.454 229.217 365.514 231.302C364.409 232.49 362.281 232.767 360.072 232.657C359.864 233.195 358.808 233.748 358.791 234.478C358.731 236.988 359.334 240.305 359.243 243.305L358.161 242.923C357.941 242.18 344.434 218.311 354.884 216.769Z" fill="#192C51"/>
<path d="M375.47 229.373C375.477 231.18 376.623 232.641 378.03 232.636C379.437 232.631 380.572 231.161 380.565 229.354C380.558 227.547 379.412 226.086 378.005 226.091C376.598 226.096 375.463 227.566 375.47 229.373Z" stroke="white" stroke-width="0.2455" stroke-miterlimit="10"/>
<path d="M368.348 229.285C368.355 231.092 369.501 232.553 370.908 232.548C372.315 232.543 373.45 231.073 373.443 229.266C373.436 227.459 372.29 225.998 370.883 226.003C369.477 226.008 368.342 227.477 368.348 229.285Z" stroke="white" stroke-width="0.2455" stroke-miterlimit="10"/>
<path d="M375.47 229.373C375.47 229.373 375.008 228.852 373.443 229.266" stroke="white" stroke-width="0.2455" stroke-miterlimit="10"/>
<path d="M368.363 229.716L362.303 229.8" stroke="white" stroke-width="0.2455" stroke-miterlimit="10"/>
<path d="M362.764 236.985C358.781 239.065 356.289 228.957 360.195 228.043C363.157 227.35 363.765 231.524 363.765 231.524C363.765 231.524 365.038 235.797 362.764 236.985Z" fill="#E5918F"/>
<g opacity="0.5">
<path d="M360.399 229.572C360.399 229.572 360.762 229.709 361.173 230.119C361.383 230.319 361.584 230.6 361.749 230.932C361.914 231.266 362.009 231.662 362.035 232.064C362.044 232.264 362.015 232.464 362.002 232.66C361.962 232.851 361.912 233.038 361.858 233.213C361.726 233.557 361.566 233.855 361.388 234.082C361.239 234.326 361.036 234.47 360.931 234.593C360.814 234.708 360.741 234.766 360.741 234.766C360.741 234.766 360.771 234.673 360.833 234.524C360.892 234.373 360.998 234.171 361.075 233.914C361.119 233.79 361.167 233.655 361.218 233.513C361.253 233.367 361.287 233.215 361.334 233.063C361.39 232.75 361.439 232.421 361.417 232.092C361.407 231.763 361.34 231.439 361.246 231.139C361.143 230.843 361.023 230.564 360.892 230.335C360.642 229.863 360.399 229.572 360.399 229.572Z" fill="#CC6362"/>
<path d="M360.087 231.597C360.087 231.597 360.218 231.549 360.433 231.555C360.644 231.56 360.943 231.639 361.186 231.821C361.432 231.997 361.628 232.237 361.746 232.427C361.866 232.617 361.933 232.752 361.933 232.752L361.348 232.954C361.348 232.954 361.326 232.832 361.275 232.652C361.225 232.472 361.128 232.244 360.976 232.048C360.828 231.849 360.604 231.711 360.416 231.65C360.227 231.589 360.087 231.597 360.087 231.597Z" fill="#CC6362"/>
</g>
<path d="M352.227 273.377C352.227 273.377 350.023 286.596 348.44 292.596C348.44 292.596 347.413 292.969 343.564 292.93L352.227 273.377Z" fill="#E3E6ED"/>
<path d="M346.916 283.19C346.916 283.19 346.806 283.93 346.596 285.17C346.226 287.34 345.576 291.06 344.746 294.98C344.186 297.62 343.546 300.35 342.866 302.77H327.436C327.436 302.73 327.446 302.69 327.446 302.65C327.446 302.59 327.446 302.54 327.466 302.47C327.686 300.12 327.986 297.38 328.326 294.6C328.346 294.44 328.356 294.35 328.356 294.35C328.616 292.19 328.886 289.99 329.156 287.92C329.286 286.84 329.416 285.8 329.546 284.81C330.166 280.04 330.656 276.49 330.656 276.49L346.916 283.19Z" fill="#E5918F"/>
<path d="M329.156 287.917C329.466 288.167 335.786 293.307 344.746 294.977C345.576 291.057 346.226 287.337 346.596 285.167C346.256 284.657 345.976 284.327 345.856 284.267C345.026 283.847 335.936 281.517 335.936 281.517L329.546 284.807C329.416 285.797 329.286 286.837 329.156 287.917Z" fill="#CC6362"/>
<path d="M332.731 268.409C335.271 262.694 337.27 259.992 338.356 258.846C341.789 255.224 346.078 254.124 346.078 254.124C347.825 253.418 349.153 253.015 349.153 253.015C349.153 253.015 354.356 256.763 352.526 271.531C351.73 277.951 346.92 291.162 346.92 291.162C343.59 291.715 338.646 290.497 334.949 289.159C330.199 287.44 327.436 285 327.436 285C327.436 285 329.902 274.776 332.731 268.409Z" fill="white"/>
<path d="M369.94 259.746C369.94 259.746 377.044 299.972 377.044 308.659C377.044 312.373 371.728 321.731 370.79 321.731C369.727 321.731 364.179 311.947 364.294 308.222C364.711 294.639 366.565 259.889 366.565 259.889L369.94 259.746Z" fill="#46509B"/>
<path d="M390.786 306.1C390.786 306.1 394.242 312.398 399.492 313.148C404.742 313.898 439.401 308.915 439.401 308.915V304.125L402.837 301.116L390.786 306.1Z" fill="#E5918F"/>
<path d="M431.491 306.254H370.847V308.875H431.491V306.254Z" fill="#3945BA"/>
<path d="M383.55 305.477C382.592 305.162 377.717 303.917 377.175 304.084C376.633 304.251 374.675 305.209 373.55 305.292C372.425 305.375 370.668 305.084 370.668 305.084L340.596 300.751L327.436 302.771C327.436 302.771 325.991 312.376 331.241 313.126C336.491 313.876 370.669 308.916 370.669 308.916H387.634C387.634 308.916 384.508 305.792 383.55 305.477Z" fill="#E5918F"/>
<path d="M367.966 254.472L370.656 259.889C370.656 259.889 369.875 261.642 368.391 261.751C367.646 261.806 366.297 260.876 365.637 260.254L367.966 254.472Z" fill="#46509B"/>
<path d="M358.882 248.278C358.882 248.278 361.737 253.141 367.966 254.472L365.638 260.253C365.638 260.253 357.357 260.253 355.679 251.524L358.882 248.278Z" fill="#E3E5ED"/>
<path d="M367.966 254.472L370.656 259.889C370.656 259.889 375.323 258.268 373.152 250.703L371.865 248.938C371.865 248.938 371.716 253.302 367.966 254.472Z" fill="#E3E5ED"/>
<path d="M300.24 315.062L272.273 440.363H267.662L291.55 315.062H300.24Z" fill="#3945BA"/>
<path d="M507.529 315.062L535.496 440.363H540.107L516.219 315.062H507.529Z" fill="#3945BA"/>
<path d="M516.219 325.306H289.794V329.833H516.219V325.306Z" fill="#3945BA"/>
<path d="M546.517 315.062H268.521C266.823 315.062 265.447 313.686 265.447 311.988C265.447 310.291 266.823 308.915 268.521 308.915H546.517C548.215 308.915 549.591 310.291 549.591 311.988C549.59 313.686 548.214 315.062 546.517 315.062Z" fill="#F5F7FF"/>
<path d="M475.566 301.521H490.505V273.724H475.566V301.521Z" fill="#7A84CE"/>
<path d="M493.623 308.915H502V272.336H493.623V308.915Z" fill="#3945BA"/>
<path d="M493.622 272.336H488.877L483.99 290.025H474.059V308.915H493.622V272.336Z" fill="#2F3C89"/>
<path d="M495.205 279.15C495.205 280.59 496.372 281.756 497.811 281.756C499.251 281.756 500.417 280.589 500.417 279.15C500.417 277.711 499.25 276.544 497.811 276.544C496.372 276.544 495.205 277.711 495.205 279.15Z" fill="#7A84CE"/>
<path d="M495.577 299.146H500.045V283.253H495.577V299.146Z" fill="#7A84CE"/>
<path d="M495.577 301.52H500.045V299.889H495.577V301.52Z" fill="#7A84CE"/>
<path d="M495.577 303.824H500.045V302.193H495.577V303.824Z" fill="#7A84CE"/>
<path d="M463.55 301.521H478.489V273.724H463.55V301.521Z" fill="white"/>
<path d="M481.607 308.915H489.984V272.336H481.607V308.915Z" fill="#525BAD"/>
<path d="M481.606 272.336H476.86L471.974 290.025H462.043V308.915H481.606V272.336Z" fill="#454F94"/>
<path d="M483.188 279.15C483.188 280.59 484.355 281.756 485.794 281.756C487.234 281.756 488.401 280.589 488.401 279.15C488.401 277.711 487.234 276.544 485.794 276.544C484.355 276.544 483.188 277.711 483.188 279.15Z" fill="#7A84CE"/>
<path d="M483.561 299.146H488.029V283.253H483.561V299.146Z" fill="#7A84CE"/>
<path d="M483.561 301.52H488.029V299.889H483.561V301.52Z" fill="#7A84CE"/>
<path d="M483.561 303.824H488.029V302.193H483.561V303.824Z" fill="#7A84CE"/>
<path d="M473.97 232.577L471.534 230.949C471.144 230.674 470.673 230.5 470.151 230.5H392.513C390.438 230.5 388.642 231.945 388.198 233.972L374.832 295.006C374.609 296.025 375.069 296.995 375.861 297.525L375.847 297.531L378.292 299.181L378.726 297.941H454.831C456.906 297.941 458.702 296.496 459.146 294.469L472.512 233.435C472.547 233.276 472.556 233.119 472.56 232.964L473.97 232.577Z" fill="#DEE3FC"/>
<path d="M379.632 299.586H457.27C459.345 299.586 461.141 298.141 461.585 296.114L474.951 235.08C475.281 233.572 474.133 232.145 472.589 232.145H394.951C392.875 232.145 391.08 233.59 390.636 235.617L377.27 296.651C376.94 298.159 378.088 299.586 379.632 299.586Z" fill="#713A97"/>
<path d="M432.789 273.836C432.616 272.833 431.747 272.1 430.729 272.1H420.57L419.292 270.564L418.73 273.141C418.627 273.405 418.584 273.696 418.636 273.999L424.638 308.877H438.82L432.789 273.836Z" fill="#F5F7FF"/>
<path d="M425.224 306.254H439.406L433.376 271.213C433.203 270.21 432.334 269.477 431.316 269.477H420.823C419.816 269.477 419.052 270.384 419.223 271.376L425.224 306.254Z" fill="#DEE3FC"/>
<path d="M399.143 308.915H420.335V305.385H401.637C400.26 305.385 399.144 306.501 399.144 307.878V308.915H399.143Z" fill="#DEE3FC"/>
<path d="M416.172 308.915H456.501V308.132C456.501 306.615 455.271 305.385 453.754 305.385H418.919C417.402 305.385 416.172 306.615 416.172 308.132V308.915Z" fill="#713A97"/>
<path opacity="0.4" d="M308.708 272.559C309.455 271.662 316.462 270.893 315.8 276.895C315.485 279.751 311.416 280.502 309.97 281.019C308.524 281.536 310.725 282.206 310.88 283.497C311.035 284.788 309.974 285.575 306.823 285.265C303.671 284.955 304.136 288.673 304.136 288.673H303.31C303.31 288.673 302.2 286.847 302.923 285.453C303.646 284.059 305.504 283.588 304.73 282.452C303.956 281.316 300.729 280.979 301.606 278.464C302.254 276.607 309.021 277.457 309.041 276.076C309.055 275 307.64 273.84 308.708 272.559Z" fill="white"/>
<path d="M313.209 287.604L310.162 308.508C310.13 308.743 309.927 308.915 309.698 308.915H300.054C299.819 308.915 299.622 308.743 299.59 308.508L299.323 306.663L296.543 287.604C296.499 287.324 296.721 287.07 297.007 287.07H312.745C313.031 287.07 313.247 287.324 313.209 287.604Z" fill="#DEE3FC"/>
<path d="M311.776 291.153H312.986C314.41 291.153 315.565 292.308 315.565 293.732V299.584C315.565 302.492 313.208 304.849 310.3 304.849" stroke="#C1CCF4" stroke-width="1.0253" stroke-miterlimit="10"/>
<path d="M313.209 287.604L310.162 308.508C310.13 308.743 309.927 308.915 309.698 308.915H300.054C299.819 308.915 299.622 308.743 299.59 308.508L299.323 306.663C308.089 304.627 311.225 287.07 311.225 287.07H312.745C313.031 287.07 313.247 287.324 313.209 287.604Z" fill="#C1CCF4"/>
<path d="M524.964 281.421L519.994 300.906L520.939 301.147L527.088 281.962" fill="#ADBAE0"/>
<path d="M526.949 276.45C526.867 276.773 525.438 282.375 525.438 282.375C525.362 282.673 525.542 282.976 525.84 283.052C526.138 283.128 526.441 282.948 526.517 282.65L526.688 281.981C526.688 281.981 527.481 280.289 529.675 280.986C529.675 280.986 527.059 280.659 526.97 280.666C526.881 280.672 527.032 276.127 526.949 276.45Z" fill="#BEEBFD"/>
<path d="M524.233 281.244L524.218 301.353L523.243 301.352L522.041 281.242" fill="#C0CAED"/>
<path d="M523.54 275.936C523.54 276.27 523.536 282.05 523.536 282.05C523.536 282.358 523.286 282.607 522.979 282.606C522.672 282.606 522.422 282.356 522.423 282.049V281.358C522.423 281.358 522.074 279.522 519.776 279.654C519.776 279.654 522.392 279.986 522.476 280.014C522.56 280.044 523.54 275.603 523.54 275.936Z" fill="#BEEBFD"/>
<path d="M524.586 282.158C524.39 282.925 524.856 283.709 525.623 283.905C526.391 284.101 527.174 283.635 527.37 282.868C527.37 282.868 527.461 282.402 527.642 282.144C527.921 281.748 528.491 281.6 529.514 281.85C529.53 281.854 529.545 281.861 529.562 281.865C532.099 282.512 534.8 280.544 535.582 277.478C536.364 274.412 534.935 271.391 532.398 270.744C529.86 270.097 527.16 272.065 526.378 275.131C526.35 275.241 526.331 275.35 526.309 275.46L526.298 275.459L524.586 282.158ZM529.997 280.16C528.4 279.753 527.541 277.692 528.083 275.566C528.625 273.44 530.366 272.042 531.963 272.449C533.56 272.856 534.419 274.918 533.877 277.043C533.335 279.169 531.594 280.567 529.997 280.16Z" fill="#525BAD"/>
<path d="M514.922 274.793C514.92 277.957 517.048 280.533 519.667 280.535C519.691 280.535 519.714 280.531 519.737 280.531C520.779 280.545 521.287 280.831 521.458 281.281C521.57 281.575 521.542 282.049 521.542 282.049C521.541 282.841 522.185 283.486 522.977 283.487C523.769 283.488 524.414 282.844 524.415 282.052L524.417 275.138L524.406 275.137C524.411 275.025 524.42 274.915 524.42 274.801C524.422 271.637 522.293 269.061 519.675 269.059C517.056 269.056 514.924 271.629 514.922 274.793ZM516.681 274.794C516.683 272.6 518.025 270.816 519.674 270.817C521.322 270.818 522.662 272.604 522.661 274.798C522.659 276.992 521.317 278.776 519.668 278.775C518.02 278.774 516.68 276.988 516.681 274.794Z" fill="#525BAD"/>
<path d="M520.298 273.79C520.353 273.787 520.398 273.743 520.402 273.687L520.44 273.129C520.444 273.068 520.398 273.015 520.337 273.011C520.277 273.005 520.224 273.053 520.219 273.114L520.181 273.672C520.177 273.733 520.223 273.786 520.284 273.79C520.289 273.791 520.293 273.791 520.298 273.79Z" fill="white"/>
<path d="M517.864 299.136L519.337 299.236L520.911 275.472L520.174 275.422L519.437 275.372L517.864 299.136Z" fill="#454F94"/>
<path d="M520.157 273.449L520.455 273.469L520.911 275.472L519.438 275.372L520.157 273.449Z" fill="#626FAF"/>
<path d="M516.285 293.46L518.814 293.003L514.865 271.136C514.844 271.022 514.735 270.946 514.621 270.967L512.506 271.349C512.392 271.37 512.315 271.479 512.336 271.593L516.285 293.46Z" fill="#2D3A70"/>
<path d="M512.735 273.799L515.264 273.342L514.866 271.136C514.845 271.022 514.737 270.946 514.623 270.967L512.506 271.349C512.392 271.37 512.316 271.479 512.337 271.593L512.735 273.799Z" fill="white"/>
<g opacity="0.5">
<path d="M515.266 273.366L512.737 273.823L512.874 274.581L515.403 274.124L515.266 273.366Z" fill="#599DD0"/>
</g>
<path d="M514.327 298.46L518.454 296.834L509.652 274.505L505.525 276.131L514.327 298.46Z" fill="#454F94"/>
<path d="M507.15 276.309L505.79 276.845" stroke="#CAF1FD" stroke-width="0.1898" stroke-miterlimit="10"/>
<path d="M507.607 277.468L506.247 278.004" stroke="#CAF1FD" stroke-width="0.1898" stroke-miterlimit="10"/>
<path d="M508.064 278.628L506.704 279.164" stroke="#CAF1FD" stroke-width="0.1898" stroke-miterlimit="10"/>
<path d="M509.187 279.526L507.161 280.324" stroke="#CAF1FD" stroke-width="0.1898" stroke-miterlimit="10"/>
<path d="M508.979 280.948L507.618 281.484" stroke="#CAF1FD" stroke-width="0.1898" stroke-miterlimit="10"/>
<path d="M509.436 282.108L508.076 282.644" stroke="#CAF1FD" stroke-width="0.1898" stroke-miterlimit="10"/>
<path d="M509.893 283.268L508.533 283.804" stroke="#CAF1FD" stroke-width="0.1898" stroke-miterlimit="10"/>
<path d="M511.016 284.165L508.99 284.964" stroke="#CAF1FD" stroke-width="0.1898" stroke-miterlimit="10"/>
<path d="M510.807 285.587L509.447 286.124" stroke="#CAF1FD" stroke-width="0.1898" stroke-miterlimit="10"/>
<path d="M511.264 286.747L509.904 287.283" stroke="#CAF1FD" stroke-width="0.1898" stroke-miterlimit="10"/>
<path d="M511.722 287.907L510.361 288.443" stroke="#CAF1FD" stroke-width="0.1898" stroke-miterlimit="10"/>
<path d="M512.844 288.805L510.818 289.603" stroke="#CAF1FD" stroke-width="0.1898" stroke-miterlimit="10"/>
<path d="M512.636 290.227L511.276 290.763" stroke="#CAF1FD" stroke-width="0.1898" stroke-miterlimit="10"/>
<path d="M513.093 291.387L511.733 291.923" stroke="#CAF1FD" stroke-width="0.1898" stroke-miterlimit="10"/>
<path d="M513.55 292.547L512.19 293.083" stroke="#CAF1FD" stroke-width="0.1898" stroke-miterlimit="10"/>
<path d="M514.673 293.444L512.647 294.242" stroke="#CAF1FD" stroke-width="0.1898" stroke-miterlimit="10"/>
<path d="M514.464 294.866L513.104 295.402" stroke="#CAF1FD" stroke-width="0.1898" stroke-miterlimit="10"/>
<path d="M514.922 296.026L513.561 296.562" stroke="#CAF1FD" stroke-width="0.1898" stroke-miterlimit="10"/>
<path d="M515.379 297.186L514.019 297.722" stroke="#CAF1FD" stroke-width="0.1898" stroke-miterlimit="10"/>
<path d="M508.967 287.472L511.165 307.319C511.268 308.229 512.032 308.916 512.95 308.916H523.912C524.83 308.916 525.594 308.229 525.697 307.319L527.895 287.472C527.929 287.197 527.715 286.957 527.44 286.957H509.422C509.148 286.957 508.933 287.197 508.967 287.472Z" fill="#C1CCF4"/>
<path d="M508.967 287.472L511.165 307.319C511.268 308.229 512.032 308.916 512.95 308.916H519.723C520.642 308.916 521.406 308.229 521.509 307.319L523.707 287.472C523.741 287.197 523.527 286.957 523.252 286.957H509.423C509.148 286.957 508.933 287.197 508.967 287.472Z" fill="#DEE3FC"/>
<path d="M133.355 0V97.367" stroke="#713A97" stroke-miterlimit="10"/>
<path d="M135.522 97.367H131.189V95.001C131.189 93.804 132.159 92.834 133.356 92.834C134.553 92.834 135.523 93.804 135.523 95.001L135.522 97.367Z" fill="#4963CE"/>
<path d="M106.983 122.667C106.983 108.102 118.79 96.2939 133.356 96.2939C147.921 96.2939 159.729 108.101 159.729 122.667H106.983Z" fill="#713A97"/>
<path opacity="0.35" d="M242.443 311.168H24.2681L112.551 122.667H154.16L242.443 311.168Z" fill="url(#paint0_linear_239_4002)"/>
<path d="M50.8699 385.44C50.6339 384.135 50.6659 382.8 50.9949 381.515C52.0959 377.212 53.3559 369.12 50.5559 360.377C45.8849 345.792 26.9529 332.874 26.9529 332.874C26.9529 332.874 32.0919 354.397 36.3159 363.562C39.4089 370.272 44.8199 377.908 47.8229 381.928C48.6559 383.044 49.2269 384.329 49.4749 385.699C52.5359 402.636 52.0929 415.747 52.0849 415.95L53.5059 416.005C53.5129 415.801 53.9639 402.556 50.8699 385.44Z" fill="#8556A6"/>
<path d="M65.9649 371.727C69.7259 359.837 71.4749 345.831 71.4749 345.831C71.4749 345.831 54.4999 359.837 53.1089 370.675C52.2569 377.313 53.3159 382.637 54.2659 385.77C54.6689 387.1 54.8159 388.491 54.6669 389.873C52.9489 405.822 54.2949 418.044 54.3159 418.231L55.5939 418.084C55.5729 417.905 54.3239 406.532 55.7949 391.462C55.9959 389.398 56.8279 387.447 58.1339 385.837C60.5619 382.839 64.0359 377.825 65.9649 371.727Z" fill="#B4C1EF"/>
<path d="M83.2208 345.278C83.2208 345.278 64.9288 352.066 60.1458 367.001C57.2348 376.091 58.6098 384.493 59.7478 388.845C60.0668 390.066 60.0498 391.341 59.7438 392.566C55.4588 409.753 55.3928 427.544 55.3928 427.78H56.8488C56.8488 427.548 56.9158 410.181 61.0528 393.326C61.4638 391.652 62.1938 390.078 63.2218 388.693C66.3418 384.491 71.6508 376.931 74.7248 370.262C79.0528 360.878 83.2208 345.278 83.2208 345.278Z" fill="#8556A6"/>
<path d="M50.9459 408.294C50.4909 402.042 48.7869 396.414 46.7219 391.692C46.3089 390.746 46.1629 389.712 46.2949 388.688C46.5509 386.716 46.6559 383.653 45.8679 379.761C44.3839 372.433 34.6579 356.603 20.5759 355.675C20.5759 355.675 25.4349 363.486 27.9349 370.022C31.0979 378.291 35.6129 386.94 43.1009 390.26C44.4179 390.844 45.4489 391.937 45.9979 393.268C47.8029 397.643 49.2519 402.754 49.6619 408.387L50.9459 408.294Z" fill="#B4C1EF"/>
<path d="M41.425 440.363H64.663L70.692 403.518C70.959 401.887 69.7 400.406 68.048 400.406H38.04C36.387 400.406 35.129 401.887 35.396 403.518L41.425 440.363Z" fill="#DEE3FC"/>
<path d="M107.75 298.743C89.3049 304.035 69.1249 318.266 73.0829 376.835C74.6919 400.649 90.7499 439.912 144.753 439.912C201.655 439.912 235.242 446.102 257.643 416.332C280.044 386.562 260.083 359.077 233.473 352.076C213.769 346.892 195.745 341.76 183.955 332.917C172.166 324.075 148.417 287.077 107.75 298.743Z" fill="white"/>
<path d="M103.477 312.743C103.477 312.743 102.705 313.341 101.452 314.661C100.202 315.979 98.4669 318.022 96.6569 320.889C94.8439 323.748 92.9559 327.425 91.3699 331.86C89.7479 336.282 88.5669 341.495 87.8809 347.239C87.4519 350.104 87.4069 353.13 87.2549 356.244C87.3169 359.38 87.2929 362.571 87.5829 365.914C88.0449 372.56 88.8839 379.513 90.6149 386.526C90.8409 387.398 91.0669 388.274 91.2939 389.154C91.5319 390.03 91.8509 390.883 92.1269 391.754C92.4289 392.615 92.6639 393.505 93.0229 394.35C93.3729 395.198 93.7239 396.048 94.0769 396.902C94.4019 397.769 94.8339 398.586 95.2579 399.409C95.6889 400.229 96.0779 401.075 96.5449 401.879C97.5469 403.444 98.4519 405.087 99.6449 406.536L100.493 407.657L100.918 408.218L101.394 408.737L103.297 410.82C103.946 411.502 104.68 412.101 105.368 412.747L106.416 413.701L107.548 414.559C110.493 416.953 113.874 418.784 117.299 420.461L119.925 421.621L120.581 421.912L120.745 421.985L120.877 422.032L121.221 422.153L122.595 422.636L125.341 423.602L128.095 424.355L130.846 425.101L133.654 425.705L136.454 426.308C137.387 426.503 138.333 426.634 139.269 426.8C141.149 427.093 143.005 427.48 144.881 427.693C146.753 427.932 148.616 428.17 150.467 428.407C152.323 428.607 154.174 428.753 156.009 428.928C156.927 429.01 157.842 429.092 158.753 429.173C159.666 429.225 160.577 429.276 161.483 429.327C163.296 429.427 165.093 429.526 166.874 429.624C168.657 429.669 170.423 429.713 172.17 429.757C173.044 429.782 173.913 429.806 174.777 429.83C175.641 429.826 176.5 429.822 177.354 429.818C179.062 429.806 180.75 429.795 182.415 429.783C185.743 429.704 188.979 429.525 192.11 429.385C195.23 429.108 198.254 428.908 201.143 428.594C204.023 428.211 206.794 427.904 209.413 427.505C212.024 427.052 214.501 426.623 216.829 426.219C219.131 425.686 221.286 425.187 223.278 424.726C224.282 424.52 225.219 424.232 226.115 423.955C227.012 423.684 227.868 423.425 228.681 423.179C231.962 422.28 234.415 421.221 236.122 420.582C237.823 419.928 238.731 419.579 238.731 419.579C238.731 419.579 237.838 419.963 236.164 420.682C234.481 421.379 232.068 422.565 228.802 423.549C227.994 423.819 227.142 424.104 226.249 424.402C225.358 424.707 224.423 425.023 223.423 425.259C221.435 425.78 219.285 426.344 216.988 426.946C214.66 427.419 212.184 427.923 209.573 428.454C206.951 428.93 204.169 429.269 201.278 429.711C198.378 430.079 195.342 430.333 192.206 430.668C189.061 430.865 185.808 431.102 182.461 431.241C180.786 431.282 179.088 431.324 177.369 431.366C176.509 431.385 175.644 431.405 174.775 431.424C173.905 431.415 173.03 431.406 172.15 431.397C170.39 431.373 168.611 431.35 166.816 431.325C165.022 431.237 163.211 431.148 161.384 431.058C160.471 431.012 159.554 430.965 158.633 430.919C157.714 430.843 156.792 430.766 155.866 430.689C154.016 430.524 152.149 430.388 150.276 430.197C148.406 429.969 146.524 429.74 144.634 429.509C142.74 429.305 140.857 428.925 138.955 428.64C138.007 428.478 137.051 428.35 136.103 428.158L133.258 427.563L130.404 426.966L127.552 426.211L124.696 425.443L121.945 424.493L120.568 424.018L120.224 423.899L120.013 423.823L119.843 423.749L119.165 423.454L116.453 422.27C112.921 420.517 109.427 418.595 106.363 416.08L105.189 415.177L104.098 414.175C103.382 413.496 102.622 412.864 101.947 412.148L99.9699 409.96L99.4769 409.414L99.0359 408.827L98.1569 407.652C96.9229 406.13 95.9869 404.42 94.9579 402.784C94.4789 401.946 94.0789 401.069 93.6379 400.217C93.2039 399.361 92.7619 398.511 92.4319 397.617C92.0739 396.735 91.7169 395.856 91.3609 394.979C90.9969 394.105 90.7599 393.193 90.4549 392.306C90.1769 391.411 89.8549 390.532 89.6169 389.634C89.3899 388.734 89.1629 387.837 88.9369 386.944C87.1769 379.795 86.4869 372.678 86.1369 366C85.9059 362.678 85.9829 359.365 85.9779 356.216C86.1869 353.059 86.2879 349.998 86.7729 347.098C87.5469 341.281 88.9059 336.03 90.6799 331.604C92.4139 327.163 94.4279 323.507 96.3379 320.679C98.2349 317.834 100.083 315.866 101.38 314.588C102.683 313.311 103.477 312.743 103.477 312.743Z" fill="#C4C9FC"/>
<path d="M186.479 352.283L191.766 369.814L198.722 369.333L199.665 369.269C198.232 375.582 200.676 384.213 203.179 393.591C203.551 395.015 204.503 398.171 205.483 401.527C206.463 404.874 207.469 408.411 207.959 410.578L209.709 420.246C209.709 420.246 211.84 422.268 214.607 426.25C221.591 436.29 227.54 433.751 227.749 433.342C227.096 432.353 219.976 422.15 219.505 421.47C217.936 419.221 217.301 417.135 217.301 414.704L217.002 409.045C216.53 387.287 217.723 368.162 217.678 367.772C218.204 357.414 214.456 354.982 207.81 352.506C206.374 351.971 203.239 351.918 201.316 351.854C194.515 351.638 186.479 352.283 186.479 352.283Z" fill="#E5918F"/>
<path d="M209.501 418.975C209.501 418.975 211.119 419.565 213.153 421.853C215.004 423.936 216.842 427.653 218.69 429.261C218.981 429.514 219.406 429.493 219.698 429.24C221.992 427.257 223.88 427.753 223.88 427.753C223.88 427.753 225.834 430.743 228.735 433.205C232.097 436.059 235.443 436.776 235.673 437.438C236.402 439.542 234.714 440.148 234.207 440.204C230.992 440.563 220.752 440.204 220.752 440.204C220.752 440.204 217.565 439.729 215.652 437.125C213.446 434.123 210.211 428.892 208.4 427.367C206.589 425.842 207.018 422.172 209.501 418.975Z" fill="#22256F"/>
<path d="M207.613 426.274C207.613 426.274 208.078 429.27 208.23 432.167C208.354 434.516 208.494 438.339 208.542 439.702C208.552 439.985 208.784 440.204 209.067 440.204H212.422C212.714 440.204 212.95 439.968 212.948 439.677C212.932 437.711 212.933 430.795 213.671 428.407C214.537 425.612 207.613 426.274 207.613 426.274Z" fill="#22256F"/>
<path d="M175.81 371.973C177.234 371.774 179.655 371.51 181.17 371.347C181.533 371.302 181.841 371.274 182.077 371.247C180.354 374.557 178.585 379.491 178.077 385.532C177.995 386.466 177.968 387.727 177.968 389.187C177.968 396.742 179.26 406.254 179.269 406.87C179.224 409.772 179.133 413.835 178.997 414.706C178.779 416.094 177.228 416.202 177.373 418.261C177.527 420.32 179.214 425.335 181.246 428.238C183.278 431.141 188.266 435.92 190.016 434.723C191.775 433.526 191.122 429.535 190.17 426.66C189.635 425.055 188.71 422.642 187.993 420.828C187.34 419.168 187.095 417.373 187.276 415.604L187.92 409.491C189.244 402.979 191.085 396.295 192.863 390.263C194.641 384.241 195.942 382.23 196.995 378.339C196.995 378.339 202.709 360.091 199.09 356.726C197.086 354.858 191.598 352.563 186.102 351.973C182.964 351.628 179.826 351.855 177.323 353.034C170.441 356.282 173.624 372.281 175.81 371.973Z" fill="#E5918F"/>
<path d="M178.994 414.709C178.994 414.709 178.222 416.413 179.493 418.993C180.764 421.573 181.851 423.739 182.788 425.861C183.725 427.983 184.859 425.46 186.882 425.166C189.619 424.768 190.049 426.304 190.049 426.304C190.049 426.304 192.199 431.334 192.805 433.41C193.336 435.225 194.687 437.624 194.872 438.718C195.057 439.811 194.107 440.3 191.851 440.225C189.515 440.147 186.529 440.204 182.385 435.914C180.711 434.181 179.44 430.644 178.187 427.471C176.52 423.25 175.771 422.064 175.848 419.288C175.926 416.513 178.994 414.709 178.994 414.709Z" fill="#22256F"/>
<path d="M176.249 419.87C176.249 419.87 175.375 427.454 174.713 430.155C174.613 430.562 174.82 430.974 175.195 431.16C175.802 431.461 176.786 431.832 177.974 431.857C178.375 431.865 178.736 431.609 178.853 431.225C179.288 429.794 180.448 426.141 181.637 423.718" fill="#22256F"/>
<path d="M193.094 353.574C193.094 353.574 193.482 353.609 194.148 353.759C194.808 353.922 195.767 354.149 196.844 354.655C197.377 354.916 197.961 355.207 198.509 355.642C199.069 356.051 199.619 356.586 200.025 357.272C200.474 357.932 200.649 358.82 200.665 359.631C200.668 360.39 200.648 361.186 200.607 361.961C200.426 365.084 199.838 368.157 199.231 370.406C198.626 372.659 198.065 374.109 198.065 374.109C198.065 374.109 198.307 372.581 198.669 370.289C199.023 368.004 199.439 364.958 199.609 361.903C199.66 361.135 199.691 360.385 199.7 359.622C199.678 358.924 199.615 358.277 199.261 357.706C198.95 357.135 198.523 356.627 198.04 356.218C197.572 355.793 197.055 355.462 196.577 355.16C195.602 354.58 194.719 354.186 194.091 353.944C193.464 353.695 193.094 353.574 193.094 353.574Z" fill="#CC6362"/>
<path d="M132.875 349.991C133.596 348.314 141.693 343.668 150.144 341.921C158.271 340.241 166.778 341.425 166.778 341.425C166.778 341.425 167.059 342.449 174.228 343.633C194.101 346.914 201.913 349.718 207.811 352.509C208.022 352.609 205.553 352.09 202.207 352.047C193.728 351.937 182.686 351.62 179.374 353.79C176.183 355.881 174.478 359.753 174.874 363.842C175.457 369.859 178.609 371.63 178.609 371.63C178.618 371.639 148.618 374.489 140.791 369.609C131.158 363.586 132.875 349.991 132.875 349.991Z" fill="#22256F"/>
<path d="M182.323 334.033L168.568 313.584L166.778 307.525L157.206 312.942L161.456 321.234C161.456 321.234 172.832 336.394 179.581 337.109C186.331 337.823 182.323 334.033 182.323 334.033Z" fill="#E5918F"/>
<path d="M169.037 309.028C169.037 309.028 166.797 311.848 162.797 313.198C162.367 313.358 161.927 313.478 161.457 313.588C160.477 313.808 159.987 313.078 159.817 311.778C159.147 306.638 163.567 292.548 163.567 292.548L169.037 309.028Z" fill="#467CDB"/>
<path d="M162.797 313.198C162.367 313.358 161.927 313.478 161.457 313.588C160.477 313.808 159.987 313.078 159.817 311.778L160.877 308.188C160.877 308.188 161.897 310.798 162.797 313.198Z" fill="#316DB5"/>
<path d="M130.568 287.148C130.568 287.148 126.264 288.098 123.001 292.549C121.424 294.699 123.946 298.02 123.457 302.092C121.957 314.592 128.814 335.167 129.874 339.524C132.056 348.497 131.414 350.014 132.802 350.881C133.79 351.499 136.87 350.682 139.791 349.274C145.721 346.416 154.433 340.463 166.779 341.424C166.779 341.424 166.905 341.094 166.582 339.441C165.523 334.011 160.852 320.644 161.394 313.17C161.592 310.439 161.99 306.252 162.249 302.795C162.539 298.936 164.759 295.998 163.769 293.076C162.48 289.27 158.35 287.238 156.314 286.591C151.042 284.915 130.568 287.148 130.568 287.148Z" fill="#467CDB"/>
<path d="M135.577 305.706C135.577 305.706 131.394 321.358 129.332 325.796L124.144 322.108L135.577 305.706Z" fill="#316DB5"/>
<path d="M145.715 348.212H171.84L164.186 351.441L145.715 348.212Z" fill="#6B3D96"/>
<path d="M145.447 350.078L164.122 352.824L164.778 350.959L145.716 348.213C145.201 348.139 144.723 348.496 144.649 349.011C144.574 349.526 144.932 350.004 145.447 350.078Z" fill="#76BEFF"/>
<path d="M218.338 319.054L216.948 318.243C216.779 318.135 216.581 318.066 216.361 318.066H174.717C173.747 318.066 172.895 318.713 172.636 319.648L163.645 352.054C163.538 352.441 163.829 352.824 164.23 352.824H207.294C207.81 352.824 208.262 352.48 208.4 351.983L217.422 319.463C217.436 319.413 217.438 319.364 217.445 319.315L218.338 319.054Z" fill="#76BEFF"/>
<path d="M165.79 352.824H208.854C209.37 352.824 209.822 352.48 209.96 351.983L218.774 320.254C218.969 319.552 218.441 318.857 217.712 318.857H176.068C175.098 318.857 174.246 319.504 173.987 320.439L165.205 352.054C165.097 352.441 165.388 352.824 165.79 352.824Z" fill="#6B3D96"/>
<path d="M116.02 322.427C116.025 322.376 116.03 322.333 116.043 322.282C116.461 319.494 117.05 316.87 117.228 316.157C117.253 316.037 117.265 315.969 117.265 315.969C118.632 309.207 120.219 302.092 120.219 302.092L132.554 308.395C132.554 308.395 130.328 317.681 127.977 323.889C127.977 323.889 136.272 329.774 142.269 333.827C148.475 338.02 150.94 339.543 150.94 339.543C149.945 341.444 149.307 343.27 149.307 343.27C142.845 341.375 133.515 338.429 125.264 334.864C121.862 333.402 119.126 331.833 117.618 330.911C117.547 330.865 116.534 330.263 116.464 330.217C116.017 329.987 115.769 329.338 115.662 328.435C115.662 328.427 115.662 328.427 115.662 328.427C115.484 326.886 115.694 324.61 116.02 322.427Z" fill="#E5918F"/>
<path d="M160.488 348.171C160.488 348.171 159.238 345.046 158.738 344.358C158.238 343.67 155.988 341.483 154.308 340.895C152.628 340.308 150.94 339.543 150.94 339.543C150.94 339.543 148.363 342.796 149.307 343.27C150.075 343.656 151.53 345.165 152.832 345.8C153.162 346.165 153.519 346.555 153.613 346.65C153.801 346.838 154.592 348.921 154.801 349.067C155.009 349.213 155.634 349.365 155.551 348.57C155.49 347.991 155.239 346.625 155.107 345.922C155.431 346.233 155.723 346.545 155.812 346.739C156.041 347.239 156.701 348.67 157.001 349.002C157.299 349.331 158.155 349.616 157.978 348.609C157.947 348.434 157.885 348.176 157.806 347.881C158.123 348.457 158.558 349.174 158.771 349.409C159.069 349.738 159.925 350.023 159.748 349.016C159.721 348.86 159.668 348.639 159.602 348.384C159.852 348.525 160.128 348.616 160.283 348.547C160.605 348.405 160.488 348.171 160.488 348.171Z" fill="#E5918F"/>
<path d="M132.457 313.4C125.237 311.97 119.736 309.184 116.756 307.654C120.707 295.692 123.001 292.549 123.001 292.549C123.001 292.549 136.306 298.364 136.696 301.194C136.906 302.744 134.748 308.066 132.457 313.4Z" fill="#467CDB"/>
<path d="M153.067 286.078C153.067 286.078 152.047 290.818 145.237 291.768C137.397 292.168 130.567 287.148 130.567 287.148C132.227 286.478 133.837 286.108 135.727 284.898C137.007 284.078 137.837 282.038 137.837 282.038C137.837 282.038 140.467 275.498 137.347 267.118L150.147 272.938C149.457 273.448 148.727 274.058 148.727 274.058C148.727 274.058 148.727 274.108 148.727 274.188C148.727 274.678 148.757 276.528 148.927 278.458C148.947 278.638 148.957 278.818 148.977 278.998C148.977 279.018 148.977 279.038 148.987 279.058H148.977L148.037 279.458C148.037 279.458 148.227 281.628 148.767 283.338C149.017 284.168 149.357 284.878 149.787 285.188C151.127 286.148 153.067 286.078 153.067 286.078Z" fill="#E5918F"/>
<path d="M148.977 279.058L148.037 279.458C148.037 279.458 148.227 281.628 148.767 283.338C143.497 281.018 140.337 276.038 140.337 276.038L148.977 278.998V279.058Z" fill="#CC6362"/>
<path d="M158.816 261.377C158.816 261.377 158.967 265.836 157.588 266.979L156.738 260.659L158.816 261.377Z" fill="#18004D"/>
<path d="M139.514 275.644C141.867 278.377 151.733 286.026 155.707 277.317C156.29 276.039 157.52 272.64 157.805 269.027C158.125 264.978 157.507 261.117 156.947 258.303C156.362 255.367 154.794 249.783 146.968 250.646C139.183 251.505 129.187 263.651 139.514 275.644Z" fill="#E5918F"/>
<path d="M135.631 257.593C135.631 257.593 129.755 258.017 128.093 254.136C126.241 249.813 131.437 244.921 135.426 247.052C139.415 249.183 138.991 254.413 138.991 254.413" fill="#18004D"/>
<path d="M132.893 258.11C132.893 258.11 131.678 257.047 134.612 253.328C135.522 252.174 138.504 250.38 139.303 250.986L137.154 254.548L132.893 258.11Z" fill="#506AF8"/>
<path d="M131.61 267.756C132.959 274.869 136.908 277.063 138.765 277.687C139.052 276.025 138.913 269.868 138.913 269.868C138.582 268.85 138.697 267.807 138.964 267.158C139.46 266.013 140.745 266.395 140.745 266.395C153.787 265.988 155.975 256.598 155.975 256.598C155.377 252.119 148.926 249.74 146.089 249.307C139.384 248.263 129.574 256.979 131.61 267.756Z" fill="#18004D"/>
<path d="M151.794 256.389C151.794 256.389 155.859 261.976 159.016 262.133C159.016 262.133 160.025 254.517 155.711 251.428C149.82 247.21 143.15 249.42 143.15 249.42" fill="#18004D"/>
<path d="M141.405 267.925C141.405 267.925 140.962 264.584 137.867 265.634C135.849 266.319 136.869 271.168 137.777 272.705C138.685 274.242 140.714 273.711 140.983 272.561" fill="#E5918F"/>
<path d="M155.72 257.465C155.72 257.449 155.68 257.767 155.546 258.246C155.405 258.725 155.192 259.407 154.797 260.159C154.624 260.546 154.36 260.926 154.11 261.34C153.814 261.724 153.535 262.154 153.156 262.525C152.814 262.928 152.395 263.277 151.972 263.629C151.548 263.979 151.059 264.261 150.594 264.561C150.087 264.792 149.608 265.081 149.091 265.255C148.57 265.415 148.078 265.637 147.57 265.734C147.065 265.838 146.577 265.938 146.114 266.033C145.645 266.076 145.201 266.117 144.792 266.154C144.384 266.205 144.009 266.213 143.675 266.198C143.342 266.194 143.052 266.19 142.813 266.186C142.336 266.179 142.064 266.176 142.064 266.176C142.064 266.176 142.336 266.166 142.813 266.147C143.051 266.138 143.34 266.127 143.672 266.114C144.004 266.112 144.376 266.085 144.779 266.013C145.181 265.955 145.618 265.892 146.079 265.826C146.529 265.709 147.003 265.586 147.493 265.458C147.985 265.338 148.454 265.096 148.95 264.915C149.442 264.721 149.889 264.416 150.362 264.172C150.793 263.859 151.244 263.569 151.628 263.216C152.012 262.86 152.389 262.514 152.69 262.117C153.027 261.753 153.266 261.334 153.525 260.964C153.737 260.564 153.966 260.201 154.107 259.832C154.438 259.116 154.599 258.477 154.705 258.038C154.805 257.591 154.818 257.364 154.823 257.349L155.72 257.465Z" fill="#18004D"/>
<path d="M138.166 267.709C138.166 267.709 139.052 267.107 139.846 268.146C140.72 269.289 140.262 270.679 139.341 270.502C138.831 270.404 138.64 269.674 138.868 269.261C139.123 268.8 139.746 268.965 139.746 268.965C139.746 268.965 139.41 267.541 138.166 267.709Z" fill="#CC6362"/>
<path d="M174.882 373.75C174.882 373.75 173.34 370.583 161.29 366.941C150.524 363.687 134.561 367.814 132.991 356.078L132.139 373.75H174.882Z" fill="white"/>
<path d="M627.119 135.665H594.905C591.504 135.665 588.747 138.422 588.747 141.823V154.359C588.747 157.496 591.094 160.086 594.128 160.468C594.573 160.524 594.905 160.902 594.905 161.35V168.212C594.905 168.609 595.414 168.772 595.645 168.449L601.05 160.891C601.218 160.656 601.489 160.517 601.778 160.517H627.119C630.52 160.517 633.277 157.76 633.277 154.359V141.823C633.277 138.422 630.52 135.665 627.119 135.665Z" stroke="white" stroke-width="0.8956" stroke-miterlimit="10"/>
<path d="M603.046 148.072C603.046 149.192 602.138 150.099 601.019 150.099C599.9 150.099 598.992 149.191 598.992 148.072C598.992 146.952 599.9 146.045 601.019 146.045C602.138 146.045 603.046 146.952 603.046 148.072Z" stroke="white" stroke-width="0.8956" stroke-miterlimit="10"/>
<path d="M613.255 148.072C613.255 149.192 612.347 150.099 611.228 150.099C610.108 150.099 609.201 149.191 609.201 148.072C609.201 146.952 610.109 146.045 611.228 146.045C612.348 146.044 613.255 146.952 613.255 148.072Z" stroke="white" stroke-width="0.8956" stroke-miterlimit="10"/>
<path d="M623.465 148.072C623.465 149.192 622.557 150.099 621.438 150.099C620.318 150.099 619.41 149.191 619.41 148.072C619.41 146.952 620.318 146.045 621.438 146.045C622.557 146.044 623.465 146.952 623.465 148.072Z" stroke="white" stroke-width="0.8956" stroke-miterlimit="10"/>
<path d="M525.439 440.473H541.58H543.857H551.325C551.325 440.473 553.582 435.727 550.354 429.847C550.354 429.847 548.209 431.567 541.782 430.404C541.782 430.404 539.1 432.681 537.248 433.571C535.387 434.472 524.721 436.567 525.439 440.473Z" fill="#525BAD"/>
<path d="M595.064 428.905C595.064 428.905 591.483 430.748 586.438 429.587C586.438 429.587 585.949 430.256 585.284 432.075C584.752 433.529 581.554 436.436 580.943 439.574C580.852 440.04 581.22 440.473 581.695 440.473H597.127C597.486 440.473 597.797 440.227 597.869 439.875C598.19 438.294 598.654 433.79 595.064 428.905Z" fill="#525BAD"/>
<path d="M544.241 280.684C544.244 280.658 544.248 280.641 544.248 280.641C544.248 280.641 544.243 280.67 544.241 280.684Z" fill="#29394A"/>
<path d="M596.711 430.063C594.518 430.876 589.768 431.177 585.581 430.188C585.581 430.188 577.326 380.03 565.456 325.731C563.256 333.901 559.426 345.581 556.396 354.671C556.396 354.731 555.416 357.491 555.416 357.491C554.886 360.861 556.296 384.691 554.486 398.541C553.326 407.451 551.373 431.101 551.373 431.101C547.463 431.371 542.54 430.854 540.79 430.584C540.79 430.584 539.387 402.301 538.397 390.611C537.417 378.921 536.617 368.561 536.397 363.511C536.347 362.751 536.417 359.261 536.497 358.001C539.427 311.801 543.957 282.521 544.237 280.741C544.217 281.231 544.547 283.271 552.137 282.841C563.037 282.231 579.577 279.501 579.577 279.501C590.547 278.471 594.007 309.151 593.177 322.011C592.927 325.991 592.327 340.991 593.627 356.501C599.426 388.1 596.711 430.063 596.711 430.063Z" fill="#2D3A70"/>
<path d="M533.123 229.583C533.123 229.583 529.316 244.526 531.816 248.513C534.316 252.501 544.045 247.2 544.045 247.2L543.289 232L533.123 229.583Z" fill="#E5918F"/>
<path d="M543.226 232.62C538.206 231.97 534.646 230.97 532.496 230.23C537.426 208.95 541.666 205.67 541.666 205.67C541.666 205.67 544.176 223.88 543.226 232.62Z" fill="white"/>
<path d="M556.397 354.673C559.429 345.575 563.259 333.9 565.452 325.728L560.925 309.735C560.925 309.735 560.568 340.849 556.397 354.673Z" fill="#1F2B38"/>
<path d="M543.524 284.689C543.825 287.983 554.595 289.364 561.618 289.364C569.522 289.364 582.949 285.937 586.884 283.414C587.868 282.783 586.047 274.875 585.956 265.375C585.835 252.746 587.277 237.592 587.889 235.79C590.581 227.856 593.07 221.056 591.998 214.72C590.774 212.615 589.428 210.885 588.102 209.478C584.145 205.248 580.33 203.821 579.753 203.639C579.712 203.629 579.682 203.609 579.682 203.609C573.823 202.02 567.224 201.039 563.156 200.907C551.447 200.553 545.8 202.253 541.662 205.673C538.181 208.547 539.787 220.189 541.831 233.749C542.524 238.328 543.785 256.571 544.045 269.999C544.187 277.347 543.393 283.258 543.524 284.689Z" fill="white"/>
<path d="M572.18 203.358C571.555 201.878 571.943 200.729 571.634 198.804C570.573 192.191 570.962 183.624 570.962 183.624L562.826 190.465L558.991 193.693C558.576 195.616 557.898 198.075 557.331 200.069C556.734 202.103 557.485 203.641 557.485 203.641L572.18 203.358Z" fill="#E5918F"/>
<path d="M567.858 190.472C567.858 190.472 564.596 197.677 557.328 200.065C557.901 198.074 558.574 195.62 558.991 193.695L562.827 190.466L567.858 190.472Z" fill="#CC6362"/>
<path d="M549.058 174.679C549.058 174.679 547.422 191.827 553.024 194.947C556.098 196.66 562.593 196.001 566.803 192.072C568.65 190.348 569.751 187.978 570.615 185.604C572.018 181.749 574.171 174.593 572.804 170.012C571 163.966 553.552 158.819 549.612 170.406C549.301 171.32 549.188 173.566 549.058 174.679Z" fill="#E5918F"/>
<path d="M547.678 163.712C545.451 166.163 546.441 170.195 549.564 171.299C550.746 171.717 552.199 172.031 553.971 172.126C557.391 172.319 562.002 171.717 563.675 171.12C563.795 173.317 563.825 177.17 564.64 178.557C565.513 180.043 570.274 179.593 570.339 180.32C570.664 183.959 570.732 186.819 570.961 191.246L571.709 190.879C571.834 189.389 575.345 181.255 575.841 176.934C575.896 176.631 577.082 169.396 575.648 165.792C574.186 162.115 571.484 162.961 571.484 162.961C568.998 158.875 563.422 158.64 563.109 158.613C555.109 157.63 550.316 160.809 547.678 163.712Z" fill="#192C51"/>
<path d="M566.891 185.479C570.794 187.608 573.44 177.653 569.593 176.679C566.675 175.94 565.999 180.058 565.999 180.058C565.999 180.058 564.662 184.263 566.891 185.479Z" fill="#E5918F"/>
<path d="M572.042 241.29C572.934 238.817 574.156 235.986 575.416 233.255C576.335 231.279 577.273 229.348 578.119 227.657C579.866 224.154 596.725 229.367 594.142 234.34C592.864 236.822 587.114 247.538 587.114 247.538C587.114 247.538 578.667 261.782 570.551 260.872C565.033 260.253 571.058 244.039 572.042 241.29Z" fill="#E5918F"/>
<path d="M597.926 223.91C597.806 225.51 596.816 230.96 594.776 236.26C593.596 239.31 591.844 243.071 590.664 245.451C584.914 244.995 574.956 239.688 571.836 237.73C573.586 233.69 583.716 213.85 583.716 213.85L579.756 203.64C579.756 203.64 583.816 204.87 587.086 206.79C587.126 206.81 587.146 206.83 587.186 206.85C587.496 207.03 587.796 207.22 588.086 207.42C596.566 212.9 598.116 221.57 597.926 223.91Z" fill="white"/>
<path d="M561.519 258.289C561.714 258.214 561.894 258.137 562.075 258.059C561.972 258.106 561.878 258.148 561.786 258.176C561.685 258.209 561.591 258.25 561.519 258.289Z" fill="#E5918F"/>
<path d="M561.363 209.592C561.363 209.592 562.615 255.592 562.614 261.223C562.613 265.405 557.403 274.093 556.397 275.012C555.392 275.931 551.688 265.058 551.6 261.146C551.37 250.932 559.127 209.463 559.127 209.463L561.363 209.592Z" fill="#2D3A70"/>
<path d="M562.613 209.012L561.112 209.708L559.126 209.463L558.455 208.158L561.112 203.559L562.613 209.012Z" fill="#2D3A70"/>
<path d="M573.95 202.282C573.95 202.282 573.802 201.498 572.924 199.96C572.548 199.301 571.516 198.014 571.516 198.014C571.516 198.014 570.346 201.7 561.112 203.56L562.613 209.013C562.613 209.013 570.346 208.019 573.95 202.282Z" fill="#E3E5ED"/>
<path d="M557.628 199.012C557.628 199.012 557.39 200.067 558.828 201.761C559.281 202.294 561.112 203.558 561.112 203.558L558.455 208.157C558.455 208.157 556.248 205.943 556.248 200.968C556.248 200.968 556.388 200.595 556.81 200.022C556.988 199.782 557.628 199.012 557.628 199.012Z" fill="#E3E5ED"/>
<g opacity="0.5">
<path d="M569.523 178.324C569.523 178.324 569.22 178.562 568.915 178.981C568.609 179.398 568.309 179.986 568.181 180.641C568.099 180.963 568.062 181.3 568.034 181.622C568.001 181.944 568 182.251 567.986 182.521C567.978 182.795 567.972 183.023 567.967 183.183C567.961 183.346 567.948 183.443 567.948 183.443C567.948 183.443 567.899 183.362 567.829 183.213C567.772 183.061 567.642 182.852 567.573 182.578C567.492 182.306 567.413 181.98 567.395 181.619C567.361 181.26 567.392 180.866 567.474 180.48C567.563 180.095 567.717 179.719 567.927 179.408C568.13 179.092 568.393 178.851 568.631 178.68C569.128 178.347 569.523 178.324 569.523 178.324Z" fill="#CC6362"/>
<path d="M569.907 180.333C569.907 180.333 569.736 180.328 569.494 180.384C569.252 180.435 568.946 180.558 568.702 180.748C568.454 180.933 568.277 181.179 568.178 181.377C568.074 181.572 568.031 181.714 568.031 181.714L567.385 181.38C567.385 181.38 567.488 181.218 567.685 181.011C567.876 180.801 568.182 180.562 568.526 180.43C568.868 180.291 569.226 180.255 569.484 180.271C569.744 180.283 569.907 180.333 569.907 180.333Z" fill="#CC6362"/>
</g>
<path d="M542.802 290.962C542.802 290.962 544.034 291.265 546.194 291.633C546.635 291.706 547.123 291.789 547.647 291.872C551.821 292.506 558.357 293.205 565.922 292.92C566.4 292.902 566.887 292.874 567.374 292.856C574.085 292.488 581.513 291.321 588.747 288.664C588.747 288.664 588.308 285.299 586.883 283.415C586.883 283.415 578.828 286.412 567.08 287.037C566.602 287.055 566.106 287.083 565.609 287.092C560.489 287.285 554.697 286.991 548.547 285.823C548.069 285.74 547.591 285.639 547.104 285.538C545.927 285.29 544.732 285.014 543.528 284.692C543.528 284.692 542.63 287.965 542.802 290.962Z" fill="#1F2B38"/>
<path d="M546.185 292.478H547.637C547.637 292.276 547.637 292.074 547.646 291.871C547.71 288.81 548.28 286.659 548.547 285.822C548.069 285.739 547.591 285.638 547.104 285.537C546.801 286.539 546.286 288.663 546.194 291.632C546.185 291.909 546.185 292.184 546.185 292.478Z" fill="#2D3A70"/>
<path d="M565.922 292.92C565.913 293.067 565.894 293.223 565.885 293.38L567.328 293.5C567.346 293.279 567.356 293.068 567.374 292.857C567.53 290.228 567.291 288.224 567.08 287.038C566.602 287.056 566.106 287.084 565.609 287.093C565.812 288.158 566.087 290.208 565.922 292.92Z" fill="#2D3A70"/>
<path d="M578.47 285.621C578.856 286.669 579.435 288.59 579.72 291.201V291.238C579.738 291.376 579.748 291.514 579.766 291.661L581.209 291.532C581.191 291.32 581.163 291.118 581.145 290.916V290.888C580.86 288.36 580.318 286.457 579.904 285.317C579.445 285.418 578.967 285.52 578.47 285.621Z" fill="#2D3A70"/>
<path d="M560.119 287.611C560.103 288.695 560.076 290.953 560.108 292.414C560.116 292.778 559.825 293.072 559.461 293.065C558.165 293.042 555.292 292.967 553.651 292.75C553.34 292.709 553.111 292.452 553.101 292.138C553.07 291.088 553.026 288.7 553.208 287.103C553.248 286.752 553.557 286.504 553.908 286.542C554.959 286.656 557.224 286.88 559.501 286.968C559.85 286.981 560.125 287.262 560.119 287.611Z" fill="#2B435D"/>
<path d="M573.487 246.875C573.487 246.875 549.592 237.572 540.089 235.582C540.185 236.458 540.497 238.146 540.702 238.98C540.702 238.98 544.138 240.603 549.172 245.451C553.672 249.784 565.961 259.487 570.125 260.785C574.289 262.083 576.906 250.148 573.487 246.875Z" fill="#E5918F"/>
<path d="M531.816 248.514C531.816 248.514 533.045 251.287 544.873 251.954C556.701 252.621 566.53 250.174 566.53 250.174C566.53 250.174 543.373 238.917 539.79 238.834C536.206 238.75 531.816 248.514 531.816 248.514Z" fill="#E5918F"/>
<path d="M555.006 240.089C555.006 240.089 561.049 240.812 563.799 240.437C566.549 240.062 569.922 239.2 571.192 239.199C574.705 239.196 579.705 242.708 581.312 244.875C582.345 246.267 577.137 251.096 570.745 246.147L555.006 240.089Z" fill="#E5918F"/>
<path d="M540.702 238.98C540.702 238.98 541.227 239.216 542.096 239.726C542.96 240.241 544.182 241.01 545.545 242.073C546.918 243.119 548.438 244.461 550.004 245.933C551.585 247.381 553.346 248.855 555.13 250.295C556.902 251.751 558.705 253.171 560.421 254.465C562.137 255.76 563.749 256.958 565.176 257.917C566.598 258.882 567.802 259.663 568.695 260.121C569.133 260.368 569.492 260.528 569.744 260.624C569.992 260.728 570.125 260.784 570.125 260.784C570.125 260.784 569.99 260.736 569.736 260.645C569.479 260.562 569.109 260.421 568.657 260.197C567.742 259.775 566.473 259.086 565.021 258.152C563.566 257.223 561.893 256.099 560.162 254.812C558.428 253.53 556.605 252.126 554.814 250.681C553.038 249.218 551.289 247.724 549.707 246.247C548.148 244.756 546.713 243.367 545.369 242.29C544.042 241.2 542.89 240.344 542.05 239.794C541.214 239.244 540.702 238.98 540.702 238.98Z" fill="#CC6362"/>
<path d="M551.044 238.749C551.044 238.749 552.116 239.065 553.704 239.593C554.494 239.866 555.424 240.165 556.407 240.522C557.39 240.878 558.438 241.258 559.486 241.637C560.526 242.038 561.567 242.438 562.542 242.814C563.518 243.188 564.415 243.573 565.191 243.885C566.736 244.527 567.752 244.992 567.752 244.992C567.752 244.992 566.68 244.677 565.092 244.148C564.302 243.874 563.371 243.577 562.389 243.219C561.406 242.863 560.358 242.483 559.31 242.103C558.27 241.702 557.23 241.301 556.254 240.925C555.278 240.55 554.381 240.165 553.605 239.853C552.06 239.215 551.044 238.749 551.044 238.749Z" fill="#CC6362"/>
<path d="M570.747 246.147C570.747 246.147 571.324 246.605 572.294 247.07C573.255 247.551 574.636 247.962 576.048 248.033C576.401 248.052 576.754 248.058 577.102 248.032C577.446 248.026 577.789 247.979 578.105 247.913C578.747 247.776 579.333 247.564 579.791 247.298C580.247 247.031 580.6 246.752 580.815 246.521C581.036 246.297 581.146 246.149 581.146 246.149C581.146 246.149 581.075 246.319 580.89 246.583C580.704 246.844 580.405 247.212 579.943 247.535C579.483 247.855 578.891 248.164 578.207 248.342C577.86 248.429 577.506 248.507 577.134 248.515C576.768 248.548 576.395 248.549 576.022 248.533C575.651 248.503 575.277 248.473 574.917 248.396C574.554 248.337 574.208 248.229 573.874 248.127C573.208 247.914 572.632 247.601 572.158 247.316C571.214 246.725 570.747 246.147 570.747 246.147Z" fill="#CC6362"/>
<path d="M1 440.363H651.22" stroke="white" stroke-width="1.1144" stroke-miterlimit="10" stroke-linecap="round"/>
<defs>
<linearGradient id="paint0_linear_239_4002" x1="133.356" y1="295.066" x2="133.356" y2="121.985" gradientUnits="userSpaceOnUse">
<stop stop-color="white" stop-opacity="0"/>
<stop offset="1" stop-color="white"/>
</linearGradient>
</defs>
</svg>
