<svg width="367" height="687" viewBox="0 0 367 687" fill="none" xmlns="http://www.w3.org/2000/svg">
<path d="M97.5669 610.392L19.3641 558.248C11.4456 552.969 11.6702 541.231 19.8134 536.261L157.658 452.358C161.421 450.084 163.751 446.04 163.92 441.66L169.452 275.37C169.62 270.681 167.233 266.3 163.246 263.829L131.151 244.089C122.474 238.754 111.298 244.987 111.298 255.18V404.06C111.298 408.862 108.658 413.271 104.446 415.545L19.7292 461.147C11.0524 465.836 0.522461 459.547 0.522461 449.662V267.199C0.522461 260.01 6.3631 254.169 13.5516 254.169C20.7401 254.169 26.5807 260.01 26.5807 267.199V406.026C26.5807 415.882 37.1107 422.172 45.7874 417.511L78.3602 399.961C82.5722 397.686 85.2117 393.278 85.2117 388.476V208.568C85.2117 198.375 96.3875 192.113 105.064 197.476L189.782 249.621C193.769 252.063 196.128 256.472 195.987 261.161L189.473 456.654C189.332 461.035 186.974 465.078 183.211 467.353L68.2794 537.328C60.1363 542.27 59.8836 554.008 67.8302 559.315L98.2689 579.617C102.453 582.396 107.872 582.537 112.197 579.954L248.3 498.297C252.231 495.938 254.618 491.698 254.618 487.121V162.797C254.618 152.745 243.695 146.483 235.018 151.537L207.275 167.711C201.07 171.334 193.067 169.228 189.445 163.022C185.822 156.816 187.928 148.813 194.134 145.191L261.077 106.132C269.753 101.077 280.677 107.339 280.677 117.392V501.863C280.677 506.44 278.262 510.68 274.359 513.039L111.438 610.785C107.17 613.313 101.751 613.172 97.5669 610.392Z" fill="white"/>
<path d="M262.256 609.325C258.353 603.26 260.122 595.201 266.159 591.326L334.253 547.549C338.044 545.106 340.29 540.922 340.234 536.402L334.113 76.8725C334.056 72.2954 331.585 68.0834 327.654 65.7808L275.032 35.0894C271.045 32.7588 266.131 32.7307 262.116 34.9771L24.2219 167.824C15.5452 172.681 4.84668 166.391 4.84668 156.451V65.2193C4.84668 60.9511 6.95268 56.9357 10.4627 54.4927L84.4535 3.27477C90.3783 -0.824914 98.4934 0.663343 102.593 6.56014C106.693 12.485 105.205 20.6001 99.3078 24.6998L36.549 68.1676C33.039 70.6106 30.933 74.598 30.933 78.8942V112.029C30.933 121.969 41.6315 128.259 50.3082 123.401L262.424 4.95958C266.44 2.71318 271.354 2.76935 275.341 5.07191L353.544 50.6738C357.503 52.9764 359.946 57.1884 360.002 61.7654L366.517 550.498C366.573 554.991 364.327 559.203 360.536 561.645L280.283 613.257C274.218 617.132 266.159 615.391 262.256 609.325Z" fill="white"/>
<path d="M322.375 668.462H48.9883V686.096H322.375V668.462Z" fill="white"/>
</svg>
