<svg width="1076" height="1076" viewBox="0 0 1076 1076" fill="none" xmlns="http://www.w3.org/2000/svg">
<g filter="url(#filter0_d_616_2)">
<path d="M781.002 1067.04H294.038C133.842 1067.04 4 937.198 4 777.002V290.038C4 129.842 133.842 0 294.038 0H781.002C941.198 0 1071.04 129.842 1071.04 290.038V777.002C1071.04 937.198 941.198 1067.04 781.002 1067.04Z" fill="black"/>
<path d="M451.567 800.392L373.364 748.248C365.446 742.969 365.67 731.231 373.813 726.261L511.658 642.358C515.421 640.084 517.751 636.04 517.92 631.66L523.452 465.37C523.62 460.681 521.233 456.3 517.246 453.829L485.151 434.089C476.474 428.754 465.298 434.987 465.298 445.18V594.06C465.298 598.862 462.658 603.271 458.446 605.545L373.729 651.147C365.052 655.836 354.522 649.547 354.522 639.662V457.199C354.522 450.01 360.363 444.169 367.552 444.169C374.74 444.169 380.581 450.01 380.581 457.199V596.026C380.581 605.882 391.111 612.172 399.787 607.511L432.36 589.961C436.572 587.686 439.212 583.278 439.212 578.476V398.568C439.212 388.375 450.388 382.113 459.064 387.476L543.782 439.621C547.769 442.063 550.128 446.472 549.987 451.161L543.473 646.654C543.332 651.035 540.974 655.078 537.211 657.353L422.279 727.328C414.136 732.27 413.884 744.008 421.83 749.315L452.269 769.617C456.453 772.396 461.872 772.537 466.197 769.954L602.3 688.297C606.231 685.938 608.618 681.698 608.618 677.121V352.797C608.618 342.745 597.695 336.483 589.018 341.537L561.275 357.711C555.07 361.334 547.067 359.228 543.445 353.022C539.822 346.816 541.928 338.813 548.134 335.191L615.077 296.132C623.753 291.077 634.677 297.339 634.677 307.392V691.863C634.677 696.44 632.262 700.68 628.359 703.039L465.438 800.785C461.17 803.313 455.751 803.172 451.567 800.392Z" fill="white"/>
<path d="M616.256 799.325C612.353 793.26 614.122 785.201 620.159 781.326L688.253 737.549C692.044 735.106 694.29 730.922 694.234 726.402L688.113 266.872C688.056 262.295 685.585 258.083 681.654 255.781L629.032 225.089C625.045 222.759 620.131 222.731 616.116 224.977L378.222 357.824C369.545 362.681 358.847 356.391 358.847 346.451V255.219C358.847 250.951 360.953 246.936 364.463 244.493L438.453 193.275C444.378 189.175 452.493 190.663 456.593 196.56C460.693 202.485 459.205 210.6 453.308 214.7L390.549 258.168C387.039 260.611 384.933 264.598 384.933 268.894V302.029C384.933 311.969 395.631 318.259 404.308 313.401L616.424 194.96C620.44 192.713 625.354 192.769 629.341 195.072L707.544 240.674C711.503 242.976 713.946 247.188 714.002 251.765L720.517 740.498C720.573 744.991 718.327 749.203 714.536 751.645L634.283 803.257C628.218 807.132 620.159 805.391 616.256 799.325Z" fill="white"/>
<path d="M676.375 858.462H402.988V876.096H676.375V858.462Z" fill="white"/>
</g>
<defs>
<filter id="filter0_d_616_2" x="0" y="0" width="1075.04" height="1075.04" filterUnits="userSpaceOnUse" color-interpolation-filters="sRGB">
<feFlood flood-opacity="0" result="BackgroundImageFix"/>
<feColorMatrix in="SourceAlpha" type="matrix" values="0 0 0 0 0 0 0 0 0 0 0 0 0 0 0 0 0 0 127 0" result="hardAlpha"/>
<feOffset dy="4"/>
<feGaussianBlur stdDeviation="2"/>
<feComposite in2="hardAlpha" operator="out"/>
<feColorMatrix type="matrix" values="0 0 0 0 0 0 0 0 0 0 0 0 0 0 0 0 0 0 0.25 0"/>
<feBlend mode="normal" in2="BackgroundImageFix" result="effect1_dropShadow_616_2"/>
<feBlend mode="normal" in="SourceGraphic" in2="effect1_dropShadow_616_2" result="shape"/>
</filter>
</defs>
</svg>
