<?xml version="1.0" encoding="UTF-8"?>
<svg id="Layer_1" data-name="Layer 1" xmlns="http://www.w3.org/2000/svg" viewBox="0 0 41.59 37.73">
  <defs>
    <style>
      .cls-1, .cls-2, .cls-3 {
        stroke-width: 0px;
      }

      .cls-2 {
        fill: #fff;
      }

      .cls-3 {
        fill: #711db0;
      }
    </style>
  </defs>
  <path class="cls-2" d="m26.52,29.19h.65c3.56,0,7.11,0,10.67,0,2,0,3.43-1.42,3.43-3.43,0-7.43,0-14.86,0-22.29C41.26,1.42,39.83,0,37.8,0,26.36,0,14.92,0,3.47,0,1.43,0,0,1.42,0,3.44c0,7.45,0,14.89,0,22.34,0,1.98,1.43,3.4,3.41,3.4,3.57,0,7.14,0,10.72,0h.61v6.86c-.19,0-.34,0-.5,0-.65,0-1.3,0-1.94,0-.4,0-.7.09-.74.54-.03.37.25.56.76.56.03,0,.06,0,.09,0,5.64,0,11.28,0,16.93,0,.14,0,.33.05.42-.02.18-.14.41-.35.41-.53,0-.18-.24-.41-.42-.52-.14-.08-.37-.02-.56-.02-.88,0-1.76,0-2.66,0v-6.86Z"/>
  <path class="cls-1" d="m26.84,29.75v6.86c.9,0,1.78,0,2.66,0,.19,0,.42-.06.56.02.19.11.42.34.42.52,0,.18-.23.39-.41.53-.09.07-.27.02-.42.02-5.64,0-11.28,0-16.93,0-.03,0-.06,0-.09,0-.51,0-.79-.2-.76-.56.04-.45.34-.55.74-.54.65.01,1.3,0,1.94,0,.16,0,.31,0,.5,0v-6.86h-.61c-3.57,0-7.14,0-10.72,0-1.98,0-3.41-1.43-3.41-3.4,0-7.45,0-14.89,0-22.34,0-2.03,1.43-3.44,3.47-3.44,11.44,0,22.88,0,34.33,0,2.03,0,3.46,1.42,3.46,3.46,0,7.43,0,14.86,0,22.29,0,2.02-1.43,3.43-3.43,3.43-3.56,0-7.11,0-10.67,0h-.65Zm13.61-6.42c.01-.26.03-.48.03-.7,0-6.13,0-12.27,0-18.4,0-1.69-.88-2.57-2.57-2.57-11.3,0-22.6,0-33.9.02-1.71,0-2.57.87-2.57,2.57,0,6.12,0,12.24,0,18.36,0,.09,0,.19,0,.28-.03.32.09.45.43.44.65-.02,1.3,0,1.94,0,12.01,0,24.02,0,36.04,0,.19,0,.37,0,.6,0Zm-19.49,1.11c-2.75,0-5.5,0-8.25,0-3.59,0-7.17.02-10.76.01-.38,0-.55.1-.52.51.03.49,0,.98,0,1.47.03,1.27.98,2.19,2.25,2.2.55,0,1.11.01,1.66.01,10.97,0,21.93,0,32.9,0,1.09,0,1.99-.73,2.16-1.82.09-.57.06-1.16.07-1.75,0-.64,0-.64-.65-.64-6.29,0-12.58,0-18.87,0Zm4.7,12.15c.02-.12.03-.18.03-.24,0-2.07,0-4.14,0-6.21,0-.38-.2-.39-.48-.39-2.86,0-5.72.01-8.57,0-.39,0-.47.15-.47.5.01,1.97,0,3.95,0,5.92,0,.14.02.27.04.42h9.43Z"/>
  <path class="cls-2" d="m27.83,7.75c-.05-.54-.32-.87-.67-1.16-.71-.6-1.43-1.19-2.14-1.79-.9-.76-1.55-.73-2.31.16-2.38,2.82-4.76,5.65-7.13,8.49-.16.2-.31.46-.35.71-.22,1.38-.41,2.77-.59,4.16-.09.71.21.94.89.72,1.31-.42,2.61-.83,3.91-1.28.25-.09.51-.26.69-.47,2.44-2.9,4.88-5.81,7.3-8.72.19-.23.27-.55.4-.82Zm-8,13.54c1.61,0,3.22,0,4.83,0,.37,0,.68-.06.72-.49.03-.35-.23-.57-.71-.57-3.23,0-6.47,0-9.7,0-.35,0-.69.11-.69.54,0,.44.31.52.69.52,1.63,0,3.25,0,4.88,0Z"/>
  <path class="cls-3" d="m27.83,7.75c-.13.28-.21.59-.4.82-2.42,2.92-4.85,5.82-7.3,8.72-.17.21-.43.38-.69.47-1.3.44-2.6.86-3.91,1.28-.68.22-.98-.02-.89-.72.18-1.39.37-2.78.59-4.16.04-.25.18-.51.35-.71,2.37-2.84,4.75-5.67,7.13-8.49.75-.89,1.4-.93,2.31-.16.71.6,1.43,1.2,2.14,1.79.35.29.63.63.67,1.16Zm-3.65.86c-1.92,2.29-3.84,4.57-5.78,6.88.3.25.56.45.8.68.22.21.37.2.57-.04,1.6-1.93,3.22-3.85,4.83-5.78.8-.96.79-.97-.26-1.68-.03-.02-.06-.02-.16-.06Zm-.77-.72c-.28-.24-.51-.42-.72-.63-.24-.23-.4-.19-.61.06-1.67,2-3.35,3.99-5.02,5.99-.17.2-.32.41-.49.64.24.21.45.38.64.57.27.27.46.24.72-.07,1.08-1.32,2.19-2.61,3.29-3.92.72-.86,1.44-1.72,2.2-2.64Zm2.58.78c.22-.25.39-.45.56-.65.19-.23.15-.43-.07-.62-.76-.64-1.52-1.27-2.28-1.91-.22-.19-.43-.17-.62.05-.17.2-.33.41-.53.66.99.83,1.95,1.63,2.94,2.47Zm-9.73,6.42c-.34.7-.3.94.19,1.34.22.18.43.37.65.55.45.37.79.35,1.29-.1-.7-.59-1.4-1.17-2.13-1.79Z"/>
  <path class="cls-1" d="m19.83,21.28c-1.63,0-3.25,0-4.88,0-.37,0-.69-.08-.69-.52,0-.44.33-.54.69-.54,3.23,0,6.47,0,9.7,0,.48,0,.75.22.71.57-.04.44-.35.5-.72.49-1.61,0-3.22,0-4.83,0Z"/>
  <path class="cls-1" d="m22.19,19.64c-.93,0-1.86,0-2.8,0-.21,0-.39-.08-.39-.52,0-.44.19-.54.4-.54,1.86,0,3.71,0,5.57,0,.28,0,.43.22.41.57-.02.44-.2.5-.41.49-.92,0-1.85,0-2.77,0Z"/>
  <path class="cls-1" d="m22.97,18.11c-.68,0-1.36,0-2.05,0-.16,0-.29-.08-.29-.52,0-.44.14-.54.29-.54,1.36,0,2.72,0,4.07,0,.2,0,.31.22.3.57-.02.44-.15.5-.3.49-.68,0-1.35,0-2.03,0Z"/>
  <path class="cls-2" d="m16.26,15.08c.73.62,1.43,1.2,2.13,1.79-.5.46-.83.47-1.29.1-.22-.18-.44-.36-.65-.55-.49-.41-.53-.65-.19-1.34Z"/>
</svg>