<?xml version="1.0" encoding="UTF-8"?>
<svg id="Layer_1" data-name="Layer 1" xmlns="http://www.w3.org/2000/svg" viewBox="0 0 53.65 41.88">
  <defs>
    <style>
      .cls-1, .cls-2, .cls-3 {
        stroke-width: 0px;
      }

      .cls-2 {
        fill: #fff;
      }

      .cls-3 {
        fill: #711db0;
      }
    </style>
  </defs>
  <path class="cls-2" d="m26.85,0C19.25,0,11.65,0,4.05.01,1.79.01,0,1.72,0,3.93,0,15.27,0,26.6.01,37.94c0,.42.07.87.23,1.26.75,1.82,2.18,2.67,4.11,2.67,14.98,0,29.97,0,44.95,0,.15,0,.3,0,.45,0,2.13-.11,3.88-1.86,3.88-3.94.01-11.34,0-22.68,0-34.01,0-.42-.07-.87-.23-1.26C52.68.88,51.35,0,49.4,0c-7.51.01-15.03,0-22.54,0Z"/>
  <path class="cls-1" d="m26.85,0c7.51,0,15.03,0,22.54,0,1.95,0,3.29.88,4.02,2.66.16.39.23.84.23,1.26.01,11.34.02,22.68,0,34.01,0,2.08-1.76,3.82-3.88,3.94-.15,0-.3,0-.45,0-14.98,0-29.97,0-44.95,0-1.93,0-3.36-.85-4.11-2.67-.16-.39-.23-.84-.23-1.26C0,26.6,0,15.27,0,3.93,0,1.72,1.79.01,4.05.01c7.6,0,15.2,0,22.8,0Zm0,8.16c-8.14,0-16.28,0-24.42,0-.93,0-.99.06-.99.99,0,9.42.03,18.83-.02,28.25-.01,1.98,1.47,3.04,3.02,3.04,14.92-.01,29.84,0,44.76-.01.32,0,.66-.02.96-.12,1.45-.47,2.04-1.32,2.04-2.91,0-9.37,0-18.75,0-28.12,0-1.1-.02-1.12-1.12-1.12-8.07,0-16.15,0-24.22,0Zm-.02-1.46c8.1,0,16.19,0,24.29,0,.15,0,.3,0,.45,0,.44.02.63-.2.63-.63,0-.76.08-1.53-.05-2.26-.09-.54-.38-1.09-.71-1.54-.57-.77-1.45-.83-2.34-.83-14.85,0-29.71,0-44.56,0-.19,0-.39,0-.58.01-1.43.09-2.44,1.12-2.5,2.55-.02.54,0,1.08,0,1.62,0,1.07,0,1.07,1.09,1.07,8.1,0,16.19,0,24.29,0Z"/>
  <path class="cls-1" d="m27.98,28.78c-.26.19-.54.36-.76.58-1.61,1.6-3.25,3.16-4.79,4.82-.86.93-1.99,1.16-3.07,1.54-1.42.5-2.86.96-4.28,1.44-.06.02-.12.06-.18.06-.4,0-.92.14-1.15-.06-.2-.18-.19-.77-.08-1.12.55-1.77,1.23-3.5,1.71-5.28.34-1.25,1.11-2.1,1.98-2.95,1.39-1.36,2.77-2.73,4.12-4.12.23-.24.34-.6.5-.91.25-.1.53-.16.73-.33.45-.39.87-.84,1.29-1.27,1.39-1.41,1.46-1.09,0-2.53-.49-.48-.7-.95-.59-1.65.15-.93.03-1.85-.45-2.69-.19-.34-.5-.54-.77-.23-.45.52-.85,1.11-1.18,1.72-.22.41-.21.93-.41,1.35-.14.29-.43.59-.72.7-.6.23-1.26.29-1.86.52-.54.21-.91.07-1.28-.29-.38-.38-.75-.77-1.15-1.14-.18-.17-.4-.28-.72-.51-.02.32-.06.51-.03.69.44,2.21,2.41,3.79,4.63,3.53,1.06-.13,1.71.24,2.34.97.32.37.43.73.19,1.17-.44.23-.84.16-1.16-.22-.35-.42-.78-.54-1.32-.52-2.65.1-4.73-1.23-5.72-3.7-.46-1.15-.43-2.38-.12-3.57.19-.7.73-.86,1.27-.36.75.68,1.45,1.42,2.17,2.13.79.77,2.04.38,2.44-.64.32-.8.09-1.29-.48-1.8-.62-.56-1.22-1.16-1.78-1.78-.2-.22-.45-.63-.37-.81.13-.28.49-.53.81-.62,2.79-.79,5.48.8,6.52,2.97.47.98.66,2,.57,3.08-.04.51.81,1.72,1.3,1.75.24.01.54-.21.74-.4,2.23-2.2,4.44-4.42,6.65-6.63.79-.79,1.66-1.23,2.79-.79.24.09.49.21.67.38.9.87,1.82,1.72,2.65,2.65.83.93.72,2.3-.19,3.22-2.25,2.27-4.52,4.52-6.77,6.78-.7.7-.67.74-.02,1.45.47.52.97.75,1.69.71,3.48-.2,6.65,3.03,5.66,7.15-.18.76-.83.94-1.42.38-.7-.67-1.37-1.38-2.06-2.06-.79-.78-2.05-.37-2.45.66-.32.8-.09,1.28.49,1.79.63.55,1.21,1.17,1.79,1.78.64.67.49,1.27-.39,1.45-3.05.65-5.83-.72-6.81-3.68-.24-.72-.2-1.52-.34-2.28-.07-.38-.16-.83-.41-1.07-.44-.43-.38-.93-.43-1.44,1.59.08,2.35.94,2.25,2.55-.06.87.03,1.72.48,2.5.17.29.41.55.71.29.55-.48,1.11-.96,1.26-1.75.09-.48.21-.97.4-1.43.1-.25.34-.52.57-.61.75-.27,1.51-.5,2.29-.64.28-.05.67.12.92.31.45.36.83.82,1.25,1.21.17.16.4.25.71.45,0-.33.03-.5,0-.65-.52-2.37-2.48-3.8-4.89-3.51-.73.09-1.23-.08-1.7-.62-.37-.43-.83-.78-1.33-1.24-1.02,1.11-1.96,2.13-2.9,3.16Zm6.64-8.92c-.49.06-.99.23-1.39-.22-.4-.44-.71-.3-1.08.07-3.07,3.09-6.13,6.18-9.25,9.22-1.01.98-1.76,2.3-3.38,2.73.38.4.71.76,1.05,1.1.59.6.71.6,1.3.01,4.06-4.05,8.13-8.1,12.19-12.15.22-.22.37-.52.55-.78,1.06-.5,1.14-.93.38-1.62-.87-.79-1.69-1.66-2.52-2.5-.25-.26-.55-.45-.81-.15-.1.12.03.56.18.73.65.71,1.35,1.39,2.05,2.05.45.42.76.87.74,1.5Zm-15.52,11.62c.11-.04.22-.08.33-.12-.16-.84.41-1.24.87-1.71,3.55-3.55,7.11-7.1,10.66-10.65.81-.81.81-.82-.02-1.61-.54-.52-.66-.52-1.21.03-2.15,2.14-4.3,4.28-6.45,6.43-1.75,1.75-3.51,3.49-5.24,5.26-.18.19-.36.64-.26.79.37.57.86,1.06,1.31,1.58Zm19.81-16.01c-.09-.21-.12-.41-.23-.52-.89-.91-1.76-1.84-2.71-2.68-.19-.17-.79-.13-1.03.05-.62.46-1.15,1.03-1.67,1.6-.11.12-.1.52,0,.64.99,1.05,2.02,2.06,3.04,3.08.23.23.45.28.71,0,.47-.5.98-.97,1.45-1.47.18-.2.29-.46.43-.69Zm-22.06,15.75c-.93,1.31-.82,1.88.62,3.18.49.44,1.43.28,2.21-.39-.94-.92-1.87-1.85-2.83-2.79Zm16.23,3.23c-.31.32-.57.52-.71.77-.04.08.21.41.39.49.37.16.77.26,1.17.33.09.01.32-.3.31-.31-.34-.41-.71-.8-1.16-1.28Zm-13.66-22.29c-.05.07-.1.14-.15.22.37.37.71.78,1.13,1.07.13.09.53-.13.74-.29.09-.08.08-.51,0-.55-.54-.26-1.07-.64-1.72-.45Zm-3.48,22.57c-.11,0-.22,0-.33-.01l-.1.65c.17,0,.35,0,.52,0-.03-.21-.06-.42-.09-.63Z"/>
  <path class="cls-1" d="m28.52,3.35c5.1,0,10.19,0,15.29,0,.28,0,.6-.05.82.08.24.13.51.43.53.68.01.19-.3.48-.53.59-.23.11-.55.08-.83.08-10.21,0-20.43,0-30.64,0-.26,0-.56.04-.76-.08-.25-.14-.57-.43-.57-.64,0-.22.33-.51.58-.64.23-.12.55-.07.83-.07,5.1,0,10.19,0,15.29,0Z"/>
  <path class="cls-1" d="m48.77,4.81c-.32-.03-.67.02-.95-.1-.26-.11-.63-.43-.6-.61.04-.26.36-.64.61-.68.6-.1,1.24-.09,1.85,0,.22.03.54.42.54.64,0,.22-.32.51-.56.63-.25.12-.59.07-.89.1Z"/>
  <path class="cls-2" d="m19.09,31.47c-.45-.52-.93-1.01-1.31-1.58-.1-.15.08-.61.26-.79,1.73-1.77,3.48-3.52,5.24-5.26,2.15-2.14,4.3-4.29,6.45-6.43.55-.55.66-.55,1.21-.03.83.79.83.8.02,1.61-3.56,3.55-7.11,7.1-10.66,10.65-.46.46-1.03.87-.87,1.71-.11.04-.22.08-.33.12Z"/>
  <path class="cls-2" d="m34.6,19.84c-.18.26-.33.56-.55.78-4.06,4.06-8.12,8.1-12.19,12.15-.59.59-.71.59-1.3-.01-.34-.35-.67-.7-1.05-1.1,1.62-.43,2.37-1.75,3.38-2.73,3.12-3.04,6.18-6.14,9.25-9.22.37-.37.68-.51,1.08-.07.4.45.91.28,1.39.22l-.02-.02Z"/>
  <path class="cls-3" d="m27.98,28.78c.94-1.03,1.88-2.05,2.9-3.16.5.46.96.82,1.33,1.24.47.54.98.71,1.7.62,2.41-.29,4.37,1.14,4.89,3.51.03.16,0,.33,0,.65-.32-.2-.54-.29-.71-.45-.43-.39-.8-.86-1.25-1.21-.24-.19-.63-.36-.92-.31-.78.14-1.55.37-2.29.64-.24.09-.47.36-.57.61-.19.45-.3.94-.4,1.43-.15.79-.72,1.27-1.26,1.75-.3.26-.54,0-.71-.29-.45-.78-.54-1.63-.48-2.5.1-1.6-.66-2.46-2.25-2.55,0,0,.02.02.02.02Z"/>
  <path class="cls-3" d="m22,22.8c.25-.44.13-.79-.19-1.17-.62-.73-1.28-1.1-2.34-.97-2.22.27-4.2-1.32-4.63-3.53-.03-.17.01-.36.03-.69.32.22.54.34.72.51.39.37.76.76,1.15,1.14.37.36.74.5,1.28.29.6-.24,1.26-.29,1.86-.52.29-.12.58-.41.72-.7.2-.42.2-.94.41-1.35.33-.61.72-1.2,1.18-1.72.27-.31.58-.1.77.23.47.84.6,1.76.45,2.69-.12.7.09,1.17.59,1.65,1.47,1.44,1.4,1.12,0,2.53-.42.43-.84.87-1.29,1.27-.19.17-.48.22-.73.33,0,0,.02.01.02.01Z"/>
  <path class="cls-2" d="m38.91,15.46c-.14.23-.24.49-.43.69-.47.51-.98.97-1.45,1.47-.26.28-.49.23-.71,0-1.02-1.02-2.05-2.03-3.04-3.08-.11-.12-.12-.52,0-.64.52-.57,1.06-1.14,1.67-1.6.24-.18.84-.22,1.03-.05.95.84,1.82,1.77,2.71,2.68.11.11.14.31.23.52Z"/>
  <path class="cls-2" d="m16.85,31.21c.96.94,1.89,1.87,2.83,2.79-.78.67-1.71.84-2.21.39-1.44-1.3-1.56-1.87-.62-3.18Z"/>
  <path class="cls-2" d="m34.62,19.86c.02-.63-.29-1.09-.74-1.5-.71-.66-1.4-1.34-2.05-2.05-.16-.17-.28-.61-.18-.73.26-.31.56-.11.81.15.83.84,1.64,1.7,2.52,2.5.76.69.68,1.12-.38,1.62,0,0,.02.02.02.02Z"/>
  <path class="cls-2" d="m33.08,34.43c.45.48.82.87,1.16,1.28.01.01-.22.32-.31.31-.4-.07-.8-.16-1.17-.33-.18-.08-.43-.41-.39-.49.14-.26.39-.45.71-.77Z"/>
  <path class="cls-3" d="m19.42,12.15c.65-.19,1.18.19,1.72.45.08.04.1.47,0,.55-.2.17-.61.38-.74.29-.42-.29-.76-.71-1.13-1.07.05-.07.1-.14.15-.22Z"/>
  <path class="cls-2" d="m15.94,34.71c.03.21.06.42.09.63-.17,0-.35,0-.52,0l.1-.65c.11,0,.22,0,.33.01Z"/>
  <circle class="cls-1" cx="6.58" cy="4.09" r=".62"/>
  <circle class="cls-1" cx="9.17" cy="4.12" r=".62"/>
  <circle class="cls-1" cx="4.01" cy="4.18" r=".62"/>
</svg>