<?xml version="1.0" encoding="UTF-8"?>
<svg id="Layer_1" data-name="Layer 1" xmlns="http://www.w3.org/2000/svg" viewBox="0 0 43.515 35.766">
  <defs>
    <style>
      .cls-1 {
        fill: #662d91;
      }

      .cls-1, .cls-2, .cls-3, .cls-4 {
        stroke-width: 0px;
      }

      .cls-2 {
        fill: #fff;
      }

      .cls-3 {
        fill: #231f20;
      }

      .cls-4 {
        fill: #5a76b8;
      }
    </style>
  </defs>
  <path class="cls-3" d="m41.876,0q1.639.084,1.639,1.752c-.005,7.828-.01,15.656-.018,23.484-.002,1.786-.466,2.269-2.226,1.986-1.117-.179-2.218-.148-3.327-.153-3.684-.017-7.368.009-11.052-.013-.669-.004-.971.082-.734.86.257.845.407,1.727.552,2.601.094.564.354.792.924.725.324-.038.657-.011.986,0,.45.016.827.189,1.11.55.389.496.47,2.919.102,3.435-.267.374-.634.537-1.101.537-4.638-.004-9.276.009-13.914-.005-1.021-.003-1.29-.39-1.418-1.817.015-.296.035-.59.043-.886.037-1.36.504-1.907,1.874-1.797,1.116.09,1.514-.342,1.631-1.361.104-.909.742-2.087.376-2.632-.405-.604-1.703-.183-2.609-.188-4.475-.024-8.949-.012-13.424-.015C.038,27.063,0,27.028,0,25.804,0,17.645,0,9.485.003,1.326.004.047.01.045,1.309.045c12.964-.004,25.927-.006,38.891-.011.559,0,1.117-.022,1.676-.033Zm-17.309,26.055c5.254.013,10.508.027,15.762.039,2.143.005,2.149.002,2.145-2.159-.014-6.337-.033-12.674-.05-19.011.012-1.02.001-2.04.046-3.058.026-.598-.189-.818-.791-.802-1.217.033-2.436.01-3.654.009-11.95-.005-23.899-.011-35.849-.015-.578,0-1.176-.158-1.172.826.03,7.801.023,15.602.013,23.403,0,.564.125.821.764.818,6.814-.031,13.628-.036,20.441-.048.434,0,.869,0,1.303,0,.347,0,.695,0,1.042,0Zm-2.854,8.69v.009c2.139,0,4.278-.023,6.416.013.674.011.987-.173.898-.881-.037-.292-.024-.593-.005-.887.04-.601-.237-.804-.823-.802-4.277.016-8.554.026-12.832.005-1.207-.006-.798.858-.864,1.463-.069.642-.028,1.129.892,1.1,2.104-.066,4.211-.021,6.316-.021Zm.033-3.517v.004c1.152,0,2.304-.014,3.455.007.488.009.635-.14.51-.633-.219-.859-.435-1.725-.556-2.602-.1-.725-.388-.991-1.143-.954-1.313.065-2.637.093-3.947-.004-1.1-.081-1.728.161-1.794,1.39-.038.713-.256,1.422-.446,2.119-.15.55.042.692.563.681,1.118-.024,2.238-.007,3.357-.007Z"/>
  <path class="cls-4" d="m23.525,26.055c.348-.159.696-.165,1.043,0-.348,0-.696,0-1.043,0Z"/>
  <path class="cls-3" d="m40.261,6.099c-.015,5.397-.03,10.794-.044,16.191q-.004,1.454-1.5,1.462c-5.101.015-10.202.031-15.304.047-5.989-.014-11.976-.029-17.964-.043-.362,0-.726-.027-1.085.005-.826.073-1.072-.297-1.067-1.101.03-4.672.016-9.344.017-14.016,0-1.415.029-2.83-.008-4.244-.02-.779.301-1.035,1.054-1.035,11.615.01,23.23.007,34.846-.011.79-.001,1.057.331,1.025,1.07-.024.557.017,1.117.029,1.675Zm-17.425,16.622c4.699.015,9.398.032,14.097.045q2.271.006,2.268-2.255c-.004-5.061,0-10.121-.021-15.182-.001-.349.27-.946-.501-.913-1.678-.013-3.356-.036-5.034-.038-9.414-.008-18.827-.01-28.241-.015-.552,0-1.103-.136-1.098.786.033,5.628.025,11.256.012,16.884-.001.559.193.743.745.741,5.924-.028,11.848-.038,17.773-.053Z"/>
  <path class="cls-2" d="m9.971,14.648c-1.846-.021-3.414,1.503-3.438,3.342-.023,1.794,1.474,3.374,3.291,3.357,2.294-.021,3.271-1.085,3.46-3.266.157-1.816-1.477-3.412-3.313-3.433Zm6.306,1.661c.445,1.431.884,2.876,1.348,4.314.095.294.144.692.573.711.496.022.592-.425.647-.742.235-1.347.957-2.161,2.338-2.344.096-.013.189-.057.279-.096.249-.106.484-.229.478-.553-.005-.329-.252-.443-.507-.523-1.468-.463-2.937-.923-4.409-1.374-.513-.157-.739.083-.749.606Zm-3.116-3.66c-1.839,0-3.678-.006-5.516.005-.404.002-1.02-.134-1.028.45-.009.659.638.498,1.07.517,1.618.073,3.225.175,4.859.043,2.022-.164,4.069-.021,6.104-.052.377-.006,1.053.297,1.025-.491-.023-.657-.615-.461-.998-.465-1.839-.019-3.677-.009-5.516-.007Zm15.612-2.656h-.003c0,.295-.006.591,0,.886.049,2.182-.5,2.074,2.249,2.056.593-.004.82-.281.812-.848-.013-.985-.002-1.97-.002-2.955,0-2.089,0-2.069-2.117-2.024-.66.014-.979.221-.946.914.031.655.007,1.313.007,1.97Zm-16.724-3.237c1.578,0,3.155.002,4.733-.001.395,0,.888.03.865-.528-.019-.459-.461-.476-.837-.476-3.122.003-6.245.005-9.367.004-.42,0-.864.038-.86.566.005.539.503.422.831.425,1.545.017,3.089.008,4.634.01Zm12.817,3.952h.003c0,.494,0,.987,0,1.481,0,.36.096.693.512.713.689.032,1.381.027,2.07-.003.344-.015.515-.275.518-.611.007-1.02.01-2.04-.002-3.06-.005-.418-.228-.639-.661-.711-2.101-.35-2.44-.081-2.44,1.995,0,.066,0,.132,0,.197Zm-13.552.626s0,.003,0,.005c1.345,0,2.691.003,4.036-.002.336-.001.711-.029.734-.467.022-.423-.305-.543-.666-.544-2.723-.002-5.447.001-8.17.006-.378,0-.645.18-.671.571-.037.548.429.413.701.419,1.345.026,2.69.012,4.036.012Zm-.509-2.302c.657,0,1.314.01,1.971-.005.288-.007.527-.154.539-.466.013-.323-.217-.463-.516-.464-1.906-.002-3.812-.025-5.717.022-.541.013-.635.372-.285.818.268.34.629.342.983.295,1.005-.131,2.007-.265,3.024-.201Z"/>
  <path class="cls-3" d="m31.539,15.152c.142.257.423.525.404.769-.086,1.114.711,1.48,1.462,1.943.422.26.755.345,1.26.156.775-.29,1.506-.084,1.964.672.431.712.426,1.444-.116,2.098-.59.713-1.442.708-2.174.446-.537-.193-.762-.852-.843-1.459-.14-1.052-1.624-2.029-2.631-1.747-.248.069-.579.196-.758.096-1.14-.641-1.813.262-2.618.732-.268.157-.429.366-.418.715.028.907-.416,1.52-1.289,1.737-.917.227-1.587-.196-2.073-.959-.209-1.961.605-2.679,2.522-2.225.573.136,2.264-.984,2.347-1.554.27-1.855,1.375-2.384,2.961-1.42Zm-5.465,4.419c-.057-.385-.298-.618-.712-.607-.457.012-.734.266-.703.74.027.415.296.655.705.651.467-.004.69-.294.711-.784Zm9.861-.02c-.05-.362-.281-.601-.702-.594-.47.008-.722.276-.697.746.022.418.271.66.694.656.48-.004.688-.296.705-.809Zm-5.666-3.856c-.44.101-.73.326-.677.807.046.419.321.651.727.633.472-.021.686-.338.657-.792-.027-.431-.322-.603-.707-.648Z"/>
  <path class="cls-3" d="m9.971,14.648c1.836.021,3.47,1.617,3.313,3.433-.188,2.181-1.165,3.245-3.46,3.266-1.817.016-3.314-1.563-3.291-3.357.024-1.839,1.592-3.363,3.438-3.342Zm-.002,5.732c.82-.009,1.438-.397,1.912-1.039.134-.182.299-.392.209-.626-.107-.278-.392-.169-.605-.181-1.95-.113-1.978-.11-2.034-2.081-.022-.792-.342-.717-.834-.419-.847.513-1.252,1.655-.958,2.688.276.973,1.253,1.674,2.31,1.658Zm.443-3.827c-.007.954-.006.98.807.957.308-.009.775.236.898-.288.094-.402-.933-1.416-1.38-1.388-.563.036-.218.498-.324.718Z"/>
  <path class="cls-3" d="m16.278,16.308c.01-.523.236-.763.749-.606,1.472.451,2.941.911,4.409,1.374.255.08.501.194.507.523.005.324-.23.447-.478.553-.091.038-.183.083-.279.096-1.381.183-2.104.997-2.338,2.344-.055.316-.151.764-.647.742-.43-.019-.478-.417-.573-.711-.464-1.438-.904-2.883-1.348-4.314Zm1.262.617c.25.828.442,1.463.7,2.32.213-.902.622-1.384,1.611-1.623-.897-.27-1.505-.454-2.312-.697Z"/>
  <path class="cls-3" d="m13.162,12.648c1.839,0,3.678-.011,5.516.008.383.004.975-.193.998.465.028.789-.648.486-1.025.491-2.035.031-4.082-.112-6.104.052-1.635.133-3.241.03-4.859-.043-.432-.02-1.079.142-1.07-.517.008-.584.624-.448,1.028-.45,1.839-.011,3.678-.005,5.516-.006Z"/>
  <path class="cls-3" d="m12.05,6.754c-1.545-.001-3.09.009-4.634-.009-.328-.004-.826.114-.831-.425-.005-.527.439-.566.86-.566,3.122.001,6.245-.001,9.367-.004.376,0,.818.016.837.476.023.558-.47.527-.865.528-1.578.003-3.155.001-4.733,0Z"/>
  <g>
    <path class="cls-1" d="m35.755,9.856c-.18,1.003.25,2.063-.28,3.034-.042-.009-.078.003-.107.035-.546.009-1.093.018-1.639.027-.779.065-1.114-.243-1.09-1.073.049-1.702.034-3.406.003-5.108-.014-.748.245-1.054,1.026-1.042,2.31.035,2.048-.129,2.059,1.968.004.72.018,1.44.027,2.16Zm-2.133-.545c0,.69.008,1.38-.003,2.07-.007.422.192.596.599.582.386-.013.492-.23.49-.581-.008-1.347-.005-2.694-.001-4.041,0-.338-.084-.563-.489-.576-.421-.013-.604.16-.599.574.008.657.002,1.314.002,1.971Z"/>
    <path class="cls-1" d="m28.774,9.992c0-.657.024-1.314-.007-1.97-.033-.693.286-.9.946-.914,2.117-.045,2.117-.065,2.117,2.024,0,.985-.011,1.97.002,2.955.008.567-.22.844-.812.848-2.749.018-2.2.126-2.249-2.056-.007-.295,0-.591,0-.886h.003Zm2.037.086c0-.458-.003-.916,0-1.373.003-.347-.119-.548-.51-.553-.37-.004-.542.138-.54.512.006.916.007,1.831-.002,2.747-.004.354.109.556.501.552.354-.003.557-.128.551-.511-.007-.458-.002-.916-.001-1.373Z"/>
    <path class="cls-1" d="m24.868,10.707c0-.066,0-.132,0-.197,0-2.075.339-2.344,2.44-1.995.433.072.656.293.661.711.012,1.02.009,2.04.002,3.06-.002.336-.173.596-.518.611-.689.031-1.381.035-2.07.003-.416-.019-.511-.353-.512-.713-.001-.494,0-.987,0-1.481h-.003Zm.989.02c0,.261.006.522-.001.783-.011.425.271.47.588.452.683-.039.552-.586.488-.951-.089-.501.429-1.236-.454-1.467-.281-.074-.613-.039-.618.401-.003.261,0,.522-.003.783Z"/>
  </g>
  <path class="cls-3" d="m11.315,11.333c-1.345,0-2.691.014-4.036-.012-.272-.005-.738.13-.701-.419.026-.391.293-.57.671-.571,2.723-.005,5.447-.008,8.17-.006.36,0,.688.121.666.544-.023.438-.397.465-.734.467-1.345.005-2.691.002-4.036.002,0-.002,0-.003,0-.005Z"/>
  <path class="cls-3" d="m10.806,9.031c-1.017-.064-2.019.07-3.024.201-.354.046-.716.045-.983-.295-.35-.446-.256-.805.285-.818,1.905-.047,3.811-.024,5.717-.022.298,0,.529.14.516.464-.013.311-.252.459-.539.466-.657.015-1.314.005-1.971.005Z"/>
  <path class="cls-4" d="m35.369,12.924c.029-.032.065-.044.107-.035-.032.026-.067.037-.107.035Z"/>
  <g>
    <path class="cls-2" d="m26.074,19.571c-.021.489-.244.779-.711.784-.409.004-.678-.236-.705-.651-.031-.474.246-.728.703-.74.414-.011.656.222.712.607Z"/>
    <path class="cls-2" d="m35.935,19.552c-.017.513-.226.804-.705.809-.423.004-.671-.239-.694-.656-.025-.47.227-.738.697-.746.421-.007.652.232.702.594Z"/>
    <path class="cls-2" d="m30.269,15.696c.385.045.68.216.707.648.029.454-.186.771-.657.792-.406.018-.681-.214-.727-.633-.053-.481.237-.706.677-.807Z"/>
  </g>
</svg>