<?xml version="1.0" encoding="UTF-8"?>
<svg id="Layer_1" data-name="Layer 1" xmlns="http://www.w3.org/2000/svg" viewBox="0 0 54.872 25.27">
  <defs>
    <style>
      .cls-1 {
        fill: #5c5e5c;
      }

      .cls-1, .cls-2, .cls-3, .cls-4, .cls-5, .cls-6, .cls-7 {
        stroke-width: 0px;
      }

      .cls-2 {
        fill: #fefefe;
      }

      .cls-3 {
        fill: #662d91;
      }

      .cls-4 {
        fill: #fff;
      }

      .cls-5 {
        fill: #a9a9a9;
      }

      .cls-6 {
        fill: #272a27;
      }

      .cls-7 {
        fill: #ebeced;
      }
    </style>
  </defs>
  <path class="cls-2" d="m21.525,18.447c-.012.056.01.108.017.162.02.153.019.153.17.153,1.236,0,2.472,0,3.709,0,.162,0,.161,0,.176.165.004.04.023.08.019.118-.014.12.046.137.149.137,1.137-.003,2.274-.003,3.411,0,.356,0,.297-.021.293-.289-.002-.108.033-.133.136-.132,1.236.003,2.472.002,3.709.002.033,0,.066,0,.099,0,.032-.001.058-.015.064-.049.015-.086.055-.167.047-.257.032-.033.015-.072.014-.109.029-.139.009-.282-.013-.415-.032-.195-.047-.392-.074-.587,0-.044.033-.095-.029-.124-.002-.007-.005-.014-.007-.021,0-.037,0-.074,0-.111.029-.035.037-.066-.014-.089-.042-.225-.064-.452-.089-.679.053-.039.057-.07-.015-.088-.084,0-.168-.003-.253-.003-1.183-.001-2.367-.002-3.55-.003-.017-.056-.022-.113-.022-.172.001-.373,0-.746.001-1.119.044-.002.088-.005.131-.005,1.673,0,3.346,0,5.018-.003.103,0,.123.029.123.126-.003,2.051-.002,4.101-.002,6.152,0,.118.006.235.022.351-.052.037-.01.05.017.067.015.037.029.073.044.11-.037.033-.01.04.019.045.095.207.278.311.472.402-.017.041.009.11-.055.119-.065.009-.104.053-.15.086-.187.135-.332.302-.352.544-.01.117-.003.235-.004.352,0,.1.048.149.148.148.11,0,.22.003.33,0,.348-.01.695.002,1.043-.012.196-.008.398.004.596.009.552.012,1.104.004,1.656.004.818,0,1.636,0,2.454,0,.002.095.005.189.004.284-.003.246.096.432.316.551.03.016.073.02.083.063-.006.013-.008.033-.018.038-.266.14-.395.344-.364.659.024.243.005.245.249.233.022-.001.044,0,.066,0,2.877,0,5.755,0,8.632,0,.04,0,.081,0,.12.008.073.014.108-.013.123-.085.074-.337-.023-.605-.338-.774-.034-.018-.081-.024-.084-.076.011-.008.022-.017.034-.022.27-.121.412-.319.407-.626-.008-.491-.002-.983-.002-1.475,0-1.104,0-2.208,0-3.313,0-.193-.065-.358-.222-.467-.156-.109-.332-.17-.531-.169-1.856.003-3.713,0-5.569.004-.104,0-.132-.022-.132-.13.004-2.179.003-4.358.003-6.537,0-.236-.071-.444-.239-.614.002-.044-.019-.064-.062-.061-.024-.016-.048-.032-.072-.048.007-.029.044-.06-.006-.085-.043-.023-.035.016-.043.036-.025-.013-.05-.026-.076-.039.021-.04-.004-.059-.036-.071-.029-.011-.035.012-.039.034-.149-.044-.302-.048-.457-.048-1.086.002-2.172,0-3.259,0q-.264,0-.264-.259c0-3.251-.003-6.502.004-9.754C39.217.279,38.935,0,38.534,0c-3.912.005-7.824.003-11.736.003-.062,0-.125.003-.187.004-.022-.002-.044-.005-.066-.005-3.349,0-6.697-.001-10.046,0-.393,0-.644.257-.645.651,0,1.21-.001,2.421-.001,3.631,0,.04.005.08.008.12-.001.055-.003.11-.003.165,0,1.603-.003,3.206,0,4.81,0,.109-.029.129-.133.129-2.113-.003-4.226-.003-6.34-.002-.073,0-.146.004-.219.007-.018-.002-.036-.006-.054-.006-2.15,0-4.3-.001-6.45-.002-.127,0-.238.041-.333.123-.138.12-.182.278-.182.454,0,1.504-.001,3.008-.001,4.512,0,.033.006.065.009.098-.001.018-.004.036-.004.055,0,1.588-.002,3.176-.002,4.764,0,.108.021.211.072.307-.044.002-.087.006-.131.006-.452,0-.905-.002-1.357-.002-.043,0-.088-.012-.127.017-.171-.004-.343-.007-.514-.014-.062-.002-.085.021-.084.082.003.113.002.226.001.339,0,.03,0,.059.037.07.013.063.063.096.11.13.177.131.383.177.598.194-.007.041-.039.036-.068.038-.128.009-.257.028-.37.088-.212.112-.342.171-.31.451.004.04.006.082,0,.121-.02.118.035.138.141.137.649-.005,1.299-.002,1.948-.003.087,0,.129,0,.085.113-.089.229-.014.329.226.329.882,0,1.765,0,2.647,0h10.375c.202,0,.404-.004.605,0,.399.009.799-.023,1.197.017.038.004.082-.012.081-.055,0-.108.036-.224-.026-.323-.055-.087-.002-.079.055-.079.154,0,.308,0,.462,0,.517,0,1.035-.003,1.552.002.1,0,.13-.03.121-.125-.007-.08-.004-.161,0-.242.003-.059-.015-.103-.057-.146-.171-.178-.379-.268-.622-.283-.029-.002-.061.004-.069-.037.124-.011.248-.029.365-.073.136-.052.273-.107.342-.251.073-.078.028-.172.031-.257.007-.236.003-.236-.228-.23-.242-.021-.484-.004-.725-.006-.418-.003-.836-.004-1.254-.005.054-.099.069-.206.069-.318-.001-1.482,0-2.965-.003-4.447,0-.105.031-.123.128-.123,2.679.003,5.357.002,8.036.002.036,0,.073.004.109.006,0,.384.002.768-.002,1.152,0,.047.041.097-.003.144-1.261,0-2.522-.002-3.783-.002-.007,0-.015,0-.022,0-.048-.005-.062.019-.066.064-.029.309-.061.617-.091.926-.057.373-.106.747-.101,1.126,0,.034-.001.068-.002.102Zm33.238-4.5c-.185-.189-.437-.176-.668-.205-.194-.025-.393.026-.587.034-.586.022-1.173.01-1.76.007-.198-.001-.365.056-.49.215-.009-.018-.018-.052-.038-.036-.025.02-.012.051.018.068-.055.117-.047.243-.047.367,0,.11.025.229-.009.328-.048.143-.062.27.004.407.014.03.015.077.002.108-.072.167-.067.331-.002.499.019.048.026.118-.006.16-.04.05-.035.101-.036.154-.002.133.039.267.04.393.013,1.237.008,2.473.01,3.71,0,.065-.042.124-.018.192.08.228.246.389.517.39.895.004,1.791.002,2.686,0,.232,0,.496-.165.495-.5-.008-1.989-.004-3.978-.004-5.967,0-.074-.007-.146-.029-.216.001-.022,0-.045.005-.066.006-.026.017-.055-.006-.071-.031-.021-.047.025-.074.029Zm-1.722,6.84c-.466,0-.932,0-1.398,0-.175,0-.356.136-.421.298-.057.143-.029.29-.034.435-.004.128.031.165.156.146.245-.037.49-.014.735-.018.123-.002.248-.021.368.036.038.018.1.013.139-.005.074-.035.149-.033.226-.033.158,0,.316,0,.473,0,.054,0,.107,0,.163.016.181.05.372.029.549.008.231-.027.459-.027.687-.012.138.009.174,0,.181-.141.004-.095.001-.191.001-.286,0-.236-.209-.445-.447-.445-.459,0-.918,0-1.376,0Zm-1.626-7.056c-.007-.002-.011-.003-.015-.005,0,.003.002.005.002.008.003,0,.006-.002.012-.004Zm.174-.004s-.006-.003-.009-.003c-.001,0-.002.005-.003.008.003.001.006.003.009.003.001,0,.002-.005.003-.008Z"/>
  <path class="cls-6" d="m26.611.007c.062-.001.125-.004.187-.004,3.912,0,7.824.002,11.736-.003.401,0,.683.279.682.687-.008,3.251-.004,6.502-.004,9.754q0,.259.264.259c1.086,0,2.172,0,3.259,0,.155,0,.307.004.457.048.025.012.05.025.074.037.025.013.05.026.076.039.005.028.022.043.049.049.024.016.048.032.072.048.011.03.031.051.062.061.168.17.239.378.239.614,0,2.179.001,4.358-.003,6.537,0,.108.028.131.132.13,1.856-.003,3.713-.001,5.569-.004.199,0,.375.061.531.169.157.109.222.274.222.467-.001,1.104,0,2.208,0,3.313,0,.492-.006.983.002,1.475.005.307-.136.505-.407.626-.012.006-.023.015-.034.022-.206.043-.416.03-.624.03-2.303,0-4.606,0-6.908,0-.285,0-.572.018-.855-.032-.01-.043-.053-.047-.083-.063-.22-.119-.318-.305-.316-.551.001-.095-.003-.189-.004-.284.002-.359-.001-.718.007-1.077.002-.104-.029-.126-.128-.126-1.704.003-3.409.002-5.113.003-.147,0-.292-.009-.434-.05-.193-.092-.377-.195-.472-.402.005-.02-.002-.034-.019-.045-.015-.037-.029-.073-.044-.11,0-.024,0-.048-.017-.067-.016-.116-.022-.233-.022-.351,0-2.051,0-4.101.002-6.152,0-.097-.02-.126-.123-.126-1.673.004-3.346.003-5.018.003-.044,0-.088.004-.131.005-.582,0-1.164-.003-1.746-.003-.71,0-1.421.002-2.131.003-.036-.002-.073-.006-.109-.006-2.679,0-5.357,0-8.036-.002-.096,0-.128.018-.128.123.004,1.482.002,2.965.003,4.447,0,.112-.014.219-.069.318-.114.004-.228.009-.342.013-.059,0-.117-.003-.176-.003-1.701,0-3.402-.002-5.103-.002-.198,0-.396.002-.594.003-.216,0-.432-.018-.647.004-.474-.011-.947-.01-1.421,0-.179-.023-.358-.008-.538-.005-.341-.001-.682-.004-1.022-.003-1.455.001-2.91.003-4.365.004-.04-.003-.079-.008-.119-.008-.236-.002-.473-.003-.709-.004-.051-.096-.072-.199-.072-.307,0-1.588.001-3.176.002-4.764,0-.018.003-.036.004-.055.083.016.158.014.219-.061.027-.033.078-.042.121-.025.056.022.114.014.171.019.001,1.435.004,2.87.001,4.305,0,.11.022.144.14.144,4.628-.003,9.256-.003,13.884,0,.108,0,.122-.035.122-.129-.002-2.884-.002-5.769,0-8.653,0-.11-.024-.138-.137-.138-2.507.004-5.013.003-7.52.003-.048,0-.095-.004-.143-.005.013-.049.029-.097.037-.147.026-.166.106-.32.115-.49.073-.002.146-.007.219-.007,2.113,0,4.226,0,6.34.002.103,0,.133-.02.133-.129-.003-1.603-.001-3.206,0-4.81,0-.055.002-.11.003-.165.096.026.192.056.289.077.101.021.212.075.307.014.127-.083.282-.078.408-.155.002.943.004,1.886.005,2.829.001.745,0,1.49.002,2.234,0,.045-.022.096.059.116.246.061.394.294.394.54.002,1.266,0,2.532,0,3.797,0,.139,0,.14.143.14,5.709,0,11.419,0,17.128,0,.026,0,.052-.002.077,0,.062.005.079-.024.063-.08,0-.058-.001-.117-.002-.175.013-.125.012-.25,0-.375,0-.058,0-.116,0-.175.012-.118.008-.237.002-.355,0-.065,0-.129,0-.194.006-.119.01-.237-.002-.355,0-.058,0-.117,0-.175.012-.125.012-.25-.001-.375,0-.058.002-.116.003-.174.019-.11.03-.221.072-.326.031-.063.062-.125.094-.188.014-.012.03-.021.042-.035.206-.235.467-.321.775-.318.782.007,1.564,0,2.345.005.109,0,.13-.03.129-.133-.003-3.164-.003-6.327,0-9.491,0-.106-.02-.139-.135-.139-3.806.004-7.612.003-11.418.003-.073,0-.147-.002-.22-.003.035-.316.13-.62.188-.932Zm22.96,21.049c.122-.023.24.015.36.024.08.006.114-.008.114-.095-.002-.712-.001-1.423-.001-2.135,0-.157-.074-.275-.204-.354-.114-.069-.237-.11-.375-.108-.545.007-1.09.009-1.635.016-1.137.013-2.275.005-3.412.006-.026,0-.051-.001-.077,0-.072.005-.106.058-.109.118-.003.063.051.08.109.081.031,0,.07-.014.096.026-.044.025-.085.015-.124.015-.374.001-.748,0-1.123.003-.039,0-.092-.025-.11.04-.385.001-.771.006-1.156.002-.093,0-.124.016-.124.118.004,1.658.004,3.317.002,4.975,0,.096.018.128.124.128,2.506-.003,5.013-.003,7.519,0,.095,0,.122-.02.122-.119-.004-.866-.003-1.732-.002-2.598,0-.047.004-.095.007-.142Zm-12.037.158c.498,0,.995,0,1.493,0,.06.057.12.057.18,0,.021,0,.041,0,.062,0,.038.054.076.054.114,0,.04,0,.08-.003.121-.003.462,0,.923,0,1.385,0,.045,0,.116.023.093-.071.012-.037.009-.073.003-.11,0-.079,0-.159,0-.238,0-.038,0-.076-.001-.115,0-.079.001-.159.002-.238,0-.045,0-.09,0-.135,0-.079-.002-.159-.002-.238,0-.038,0-.076.001-.115,0-.079,0-.159,0-.238,0-.038,0-.076,0-.115,0-.079.002-.159.002-.238v-.135c-.001-.094-.002-.188-.002-.282-.004-.239.074-.437.287-.566.135-.081.283-.114.439-.115.399-.002.798-.004,1.196-.006q.191.018.191-.162c0-2.145,0-4.291,0-6.436,0-.147,0-.147-.148-.147-1.324,0-2.648,0-3.972,0-.04,0-.08-.004-.12-.006-.013-.166.027-.328.051-.49.014-.094-.002-.114-.093-.114-1.086.003-2.172.002-3.259.003-.029,0-.06-.002-.087.008-.326.119-.515.304-.515.702-.002,2.121,0,4.242.003,6.363,0,.06-.05.19.107.114.007-.003.025.002.03.009.064.092.14.171.227.241.01.008.008.035.007.053-.014.235.022.468.022.702,0,.642,0,1.284,0,1.926,0,.044.004.09-.007.131-.025.095.023.121.103.122.109.001.218,0,.327,0,.528,0,1.057,0,1.585,0,.063,0,.13,0,.177-.057Zm1.961-9.858c-.182-.052-.338-.03-.493-.034-.02,0-.05-.005-.048.027.002.025.027.036.05.031.154-.035.312,0,.492-.023Zm-29.802-1.34c.069.04.121.01.162-.039.037-.044.047-.095.017-.152-.046-.089-.121-.066-.195-.058.082.004.163.019.17.115.006.098-.073.121-.154.134Z"/>
  <path class="cls-7" d="m18.726,20.64c.008.041.04.035.069.037.244.015.452.105.622.283.042.044.06.087.057.146-.004.081-.007.162,0,.242.009.095-.021.126-.121.125-.517-.005-1.035-.002-1.552-.002-.154,0-.308,0-.462,0-.057,0-.109-.008-.055.079.062.099.025.215.026.323,0,.043-.043.059-.081.055-.399-.04-.798-.008-1.197-.017-.202-.004-.404,0-.605,0H5.052c-.882,0-1.765,0-2.647,0-.24,0-.315-.1-.226-.329.044-.112.002-.113-.085-.113-.649.002-1.299-.001-1.948.003-.106,0-.161-.019-.141-.137.007-.039.005-.081,0-.121-.031-.28.099-.339.31-.451.113-.06.242-.079.37-.088.029-.002.061.003.068-.038.037-.001.073-.003.11-.003,5.907,0,11.814,0,17.72,0,.048,0,.095.003.143.004Z"/>
  <path class="cls-1" d="m26.611.007c-.058.312-.153.616-.188.932-.015.001-.029.003-.044.003-3.126,0-6.251.001-9.377-.001-.105,0-.134.023-.134.131.005.888.004,1.775.004,2.663,0,.201-.005.403-.008.604-.126.077-.281.072-.408.155-.094.061-.205.008-.307-.014-.098-.021-.193-.051-.289-.077-.003-.04-.008-.08-.008-.12,0-1.21,0-2.421.001-3.631,0-.393.252-.651.645-.651,3.349,0,6.697,0,10.046,0,.022,0,.044.003.066.005Z"/>
  <path class="cls-1" d="m21.527,18.345c-.005-.379.044-.753.101-1.126.043.027.082.063.125-.008.024-.039.076-.037.121-.036.203.007.406.028.608.018.203-.01.405.007.609-.012.213-.02.43-.006.646.011.257.02.517.004.775.005.201,0,.403-.023.602-.017.509.016,1.018.011,1.527.021.101.002.202,0,.303-.002.988-.012,1.975.004,2.963-.02.856-.02,1.713-.005,2.57-.003.109,0,.222.034.327.017.206-.035.408.011.611.005.002.007.005.014.007.021-.008.046-.022.093.029.124.028.195.043.391.074.587.022.133.042.276.013.415-.051-.025-.105-.025-.161-.025-3.871,0-7.741,0-11.612,0-.081,0-.161.003-.239.025Z"/>
  <path class="cls-5" d="m18.726,20.64c-.048-.002-.095-.004-.143-.004-5.907,0-11.814,0-17.72,0-.037,0-.073.002-.11.003-.215-.017-.42-.063-.598-.194-.046-.034-.097-.066-.11-.13.149-.023.299-.01.449-.013.075-.001.105-.026.104-.103-.002-.12.004-.241.007-.362.039-.029.085-.017.127-.017.452,0,.905.002,1.357.002.044,0,.087-.004.131-.006.236.001.473.002.709.004.04,0,.079.005.119.008-.002.124-.017.248.013.372.014.057.037.081.095.082.143.003.285.017.428.016,4.411-.007,8.821.025,13.232-.018.16-.002.196-.051.218-.213.016-.119-.072-.164-.118-.239.114-.004.228-.009.342-.013.418.002.836.002,1.254.005.242.002.484-.015.725.006-.003.08-.007.16-.007.24-.001.212,0,.212.204.247-.069.145-.207.199-.342.251-.116.045-.24.063-.365.073Z"/>
  <path class="cls-6" d="m54.839,14.055c.022.07.029.142.029.216,0,1.989-.005,3.978.004,5.967.001.335-.263.5-.495.5-.895.002-1.791.003-2.686,0-.271-.001-.437-.162-.517-.39-.024-.068.018-.127.018-.192-.002-1.237.004-2.473-.01-3.71-.001-.126-.042-.26-.04-.393,0-.052-.004-.103.036-.154.032-.041.025-.111.006-.16-.065-.169-.07-.332.002-.499.013-.031.013-.078-.002-.108-.066-.137-.052-.264-.004-.407.034-.099.009-.218.009-.328,0-.125-.008-.25.047-.367.017-.005.018-.019.02-.032.125-.158.292-.216.49-.215.587.003,1.174.015,1.76-.007.194-.007.393-.058.587-.034.231.029.483.016.669.205.025.036.051.072.076.108Zm-3.394.987c0,.036,0,.071,0,.107-.057.03-.057.061,0,.091,0,.037.002.073.002.11,0,1.431.002,2.862,0,4.293,0,.085.011.118.109.118.972-.005,1.945-.005,2.917-.002.084,0,.102-.023.102-.104-.003-1.582-.003-3.163,0-4.745,0-.102-.028-.125-.126-.124-.481.004-.961-.001-1.442-.003,0-.011,0-.022,0-.033,0-.091-.005-.195.043-.265.037-.055.138-.013.21-.02.007,0,.015,0,.022-.001.02-.004.035-.014.029-.036-.006-.022-.023-.023-.043-.019-.17.037-.343.009-.514.017-.027.001-.066.008-.068-.034-.002-.037.033-.05.061-.052.077-.005.154-.005.231-.005.039,0,.072-.002.075-.055.007-.106.026-.21.026-.317,0-.065-.017-.091-.086-.09-.433.002-.866-.002-1.299.003-.213.002-.382.139-.393.337-.012.233-.019.468.009.702.011.094.043.133.133.128Z"/>
  <path class="cls-7" d="m25.595,14.937c.71,0,1.421-.003,2.131-.003.582,0,1.164.002,1.746.003,0,.373,0,.746-.001,1.119,0,.059.005.116.022.172-.032.034-.017.077-.018.115-.003.234-.003.468-.005.701-1.292,0-2.583,0-3.875,0-.002-.271-.004-.541-.007-.812.044-.046.003-.096.003-.144.004-.384.002-.768.002-1.152Z"/>
  <path class="cls-7" d="m41.388,24.329c.284.05.57.032.855.032,2.303,0,4.606,0,6.908,0,.208,0,.418.013.624-.03.004.052.051.058.084.076.314.17.412.438.338.774-.016.072-.051.099-.123.085-.039-.007-.08-.008-.12-.008-2.877,0-5.755,0-8.632,0-.022,0-.044,0-.066,0-.245.013-.225.011-.249-.233-.031-.315.098-.519.364-.659.01-.005.012-.025.018-.038Z"/>
  <path class="cls-6" d="m25.59,16.233c.002.271.004.541.007.812-.019.114.07.071.114.071,1.212.002,2.423.002,3.635.002.026,0,.051,0,.077,0,.052,0,.062-.029.049-.072.001-.234.002-.468.005-.701,0-.039-.014-.081.018-.115,1.183,0,2.367.002,3.55.003.084,0,.168.002.253.003.005.029.01.058.015.088.025.227.047.454.089.679-.009.032,0,.061.014.089,0,.037,0,.074,0,.111-.204.006-.405-.04-.611-.005-.105.018-.217-.016-.327-.017-.857-.002-1.713-.017-2.57.003-.988.024-1.975.008-2.963.02-.101.001-.201.004-.303.002-.509-.01-1.018-.005-1.527-.021-.199-.006-.401.018-.602.017-.259,0-.518.015-.775-.005-.216-.017-.433-.031-.646-.011-.204.019-.406.002-.609.012-.202.01-.405-.011-.608-.018-.045-.002-.098-.004-.121.036-.043.071-.082.035-.125.008.031-.309.062-.617.091-.926.004-.044.018-.069.066-.064.007,0,.015,0,.022,0,1.261,0,2.522.002,3.783.002Z"/>
  <path class="cls-7" d="m35.317,22.182c.142.04.287.05.434.05,1.704-.001,3.409,0,5.113-.003.099,0,.13.022.128.126-.008.359-.006.718-.007,1.077-.818,0-1.636,0-2.454,0-.552,0-1.104.008-1.656-.004-.199-.004-.401-.017-.596-.009-.348.014-.696.002-1.043.012-.11.003-.22,0-.33,0-.1,0-.148-.049-.148-.148.001-.117-.006-.235.004-.352.02-.242.165-.409.352-.544.046-.033.085-.077.15-.086.064-.009.037-.078.055-.119Z"/>
  <path class="cls-1" d="m9.166,9.512c-.01.17-.089.324-.115.49-.008.05-.025.098-.037.147-.033.002-.066.005-.099.005-2.04,0-4.08.002-6.119-.001-.098,0-.129.02-.129.124.004,1.405.003,2.81.004,4.215,0,.044-.004.088-.005.131-.057-.005-.114.003-.171-.019-.043-.016-.094-.007-.121.025-.061.075-.136.077-.219.061-.003-.033-.009-.065-.009-.098,0-1.504,0-3.008.001-4.512,0-.176.044-.334.182-.454.095-.083.206-.124.333-.123,2.15,0,4.3.001,6.45.002.018,0,.036.004.054.006Z"/>
  <path class="cls-7" d="m33.524,18.454c.008.09-.033.171-.047.257-.006.034-.031.048-.064.049-.033.001-.066,0-.099,0-1.236,0-2.472.001-3.709-.002-.104,0-.138.024-.136.132.004.268.064.29-.293.289-1.137-.002-2.274-.002-3.411,0-.103,0-.163-.018-.149-.137.004-.038-.015-.078-.019-.118-.015-.165-.014-.165-.176-.165-1.236,0-2.472,0-3.709,0-.151,0-.149,0-.17-.153-.007-.054-.029-.106-.017-.162.062.001.125.003.187.003,3.504,0,7.009,0,10.513,0,.433,0,.866.003,1.299.004Z"/>
  <path class="cls-7" d="m53.041,20.788c.459,0,.918,0,1.376,0,.237,0,.446.209.447.445,0,.095.003.191-.001.286-.006.14-.043.15-.181.141-.228-.015-.455-.015-.687.012-.176.02-.368.041-.549-.008-.055-.015-.108-.015-.163-.016-.158-.001-.316,0-.473,0-.077,0-.151-.002-.226.033-.04.018-.101.023-.139.005-.12-.058-.245-.038-.368-.036-.245.004-.49-.019-.735.018-.125.019-.16-.018-.156-.146.005-.145-.023-.292.034-.435.065-.162.246-.298.421-.298.466,0,.932,0,1.398,0Z"/>
  <path class="cls-6" d="m33.524,18.454c-.433-.001-.866-.004-1.299-.004-3.504,0-7.009,0-10.513,0-.062,0-.125-.002-.187-.003,0-.034.001-.068.002-.102.078-.022.158-.025.239-.025,3.871,0,7.741,0,11.612,0,.055,0,.11,0,.161.025,0,.037.018.076-.014.109Z"/>
  <path class="cls-1" d="m.605,19.838c-.003.121-.009.241-.007.362.001.077-.029.102-.104.103-.15.002-.3-.01-.449.013-.036-.011-.037-.04-.036-.07,0-.113.001-.226-.001-.339-.002-.062.022-.085.084-.082.171.007.342.009.514.014Z"/>
  <path class="cls-1" d="m19.433,20.315c-.204-.035-.205-.035-.204-.247,0-.08.005-.16.007-.24.231-.006.235-.006.228.23-.003.085.042.18-.031.257Z"/>
  <path class="cls-7" d="m54.839,14.055c-.025-.036-.051-.072-.076-.108.028-.004.043-.05.074-.029.024.016.012.046.006.071-.005.021-.003.044-.005.066Z"/>
  <path class="cls-7" d="m43.391,10.873c-.027-.006-.044-.022-.049-.049.008-.02,0-.058.043-.036.049.026.013.056.006.085Z"/>
  <path class="cls-7" d="m33.451,17.344c-.052-.032-.038-.079-.029-.124.062.029.03.08.029.124Z"/>
  <path class="cls-7" d="m43.266,10.784c-.025-.012-.05-.025-.074-.037.003-.022.009-.045.039-.034.032.012.057.031.036.071Z"/>
  <path class="cls-7" d="m33.311,16.32c-.005-.029-.01-.058-.015-.088.072.018.068.049.015.088Z"/>
  <path class="cls-7" d="m33.414,17.088c-.014-.028-.022-.057-.014-.089.051.023.043.054.014.089Z"/>
  <path class="cls-7" d="m51.258,13.998c-.002.014-.004.028-.02.032-.029-.017-.043-.048-.018-.068.019-.016.029.018.038.036Z"/>
  <path class="cls-7" d="m43.525,10.981c-.031-.01-.051-.03-.062-.061.043-.003.065.017.062.061Z"/>
  <path class="cls-7" d="m34.765,21.557c.017.019.018.043.017.067-.028-.017-.069-.03-.017-.067Z"/>
  <path class="cls-7" d="m34.826,21.734c.017.011.024.025.019.045-.029-.005-.056-.012-.019-.045Z"/>
  <path class="cls-7" d="m51.415,13.732c-.006.002-.009.003-.012.004,0-.003-.002-.005-.002-.008.004.001.008.003.015.005Z"/>
  <polygon class="cls-7" points="51.589 13.728 51.586 13.735 51.577 13.733 51.579 13.725 51.589 13.728"/>
  <path class="cls-7" d="m16.864,4.339c.003-.201.008-.403.008-.604,0-.888.002-1.775-.004-2.663,0-.108.029-.131.134-.131,3.126.003,6.251.002,9.377.001.015,0,.029-.002.044-.003.073.001.147.003.22.003,3.806,0,7.612,0,11.418-.003.115,0,.135.033.135.139-.003,3.164-.003,6.327,0,9.491,0,.103-.021.134-.129.133-.782-.005-1.564.002-2.345-.005-.309-.003-.569.083-.775.318-.012.014-.028.023-.042.035-.036-.027-.077-.019-.117-.02-.153-.001-.306-.002-.459-.004-.274-.004-.548,0-.822.002-.3,0-.601-.006-.901-.005-.251.001-.503-.004-.755.004-.405.013-.81.007-1.215.001-.095-.001-.111.036-.106.116.006.096.077.061.123.061,1.338.002,2.677.001,4.015.002.048,0,.104-.022.143.03-.042.105-.053.216-.072.326-1.365,0-2.73,0-4.096-.002-.065,0-.112.003-.115.09-.003.093.05.087.112.087,1.365-.001,2.73-.001,4.096-.002.013.125.013.25.001.375-1.368,0-2.736,0-4.104-.002-.06,0-.104,0-.105.084,0,.083.034.095.105.095,1.368-.002,2.736-.002,4.104-.002.012.118.008.237.002.355-1.365,0-2.73.002-4.094-.002-.106,0-.125.04-.114.128.012.095.084.065.136.066,1.357.002,2.715.001,4.072.002.007.118.01.237-.002.355-1.364,0-2.729,0-4.093,0-.058,0-.117-.014-.117.082,0,.082.034.095.105.095,1.368-.002,2.736-.002,4.104-.003.011.125.012.25,0,.375-1.372,0-2.745,0-4.117-.003-.078,0-.091.032-.089.099.002.094.067.08.124.08,1.361,0,2.723,0,4.084,0,.016.056-.001.085-.063.08-.026-.002-.051,0-.077,0-5.709,0-11.419,0-17.128,0-.144,0-.143,0-.143-.14,0-1.266.001-2.532,0-3.797,0-.246-.148-.479-.394-.54-.081-.02-.059-.071-.059-.116-.002-.745-.001-1.49-.002-2.234-.001-.943-.003-1.886-.005-2.829Zm10.714-1.63c-2.657,0-5.314,0-7.972-.003-.113,0-.139.03-.139.14.004,1.343.003,2.686,0,4.03,0,.092.017.126.119.126,5.314-.003,10.629-.003,15.943,0,.104,0,.13-.032.129-.132-.003-1.343-.003-2.686,0-4.03,0-.105-.025-.135-.133-.134-2.65.003-5.3.002-7.95.003Zm-.055,4.733c-.803,0-1.607.001-2.41-.002-.093,0-.116.028-.116.118.003.972.003,1.944,0,2.917,0,.101.032.121.126.121,1.603-.003,3.207-.003,4.81,0,.094,0,.115-.03.115-.119-.003-.972-.003-1.944,0-2.917,0-.101-.031-.121-.125-.12-.8.003-1.6.002-2.399.002Zm-5.532,0c-.796,0-1.593,0-2.389,0-.148,0-.149,0-.149.143,0,.958.001,1.916-.002,2.874,0,.105.03.137.136.137,1.597-.003,3.193-.003,4.79,0,.097,0,.124-.026.124-.123-.003-.973-.003-1.945,0-2.918,0-.095-.031-.115-.12-.115-.796.003-1.593.002-2.389.002Zm11.071,3.152c.793,0,1.585-.003,2.378.003.117,0,.138-.036.138-.142-.004-.958-.004-1.916,0-2.873,0-.11-.026-.142-.139-.141-1.589.004-3.178.004-4.767,0-.11,0-.145.029-.144.142.004.958.004,1.916,0,2.873,0,.114.036.141.145.141.796-.004,1.593-.002,2.389-.002Zm-5.539-8.281c.484,0,.969,0,1.453,0,2.18,0,4.359,0,6.539,0,.144,0,.144,0,.144-.147,0-.228,0-.455,0-.683q0-.14-.145-.14c-4.679,0-9.358,0-14.036,0-.65,0-1.299.002-1.949-.001-.09,0-.123.026-.121.119.005.238.007.477-.001.715-.004.116.037.14.146.14,2.657-.003,5.314-.002,7.97-.002Zm-.011,10.332c-.338,0-.675,0-1.013,0-.47,0-.94.002-1.409-.001-.082,0-.109.026-.108.108.001.102.068.086.129.086,1.431,0,2.863,0,4.294,0,.184,0,.367-.002.551,0,.064.001.089-.016.092-.085.004-.09-.029-.11-.113-.11-.807.003-1.615.002-2.422.002Zm-5.534,0c-.807,0-1.614.002-2.42-.002-.093,0-.11.034-.107.115.004.104.078.079.135.079,1.555,0,3.11,0,4.665,0,.059,0,.117-.002.176,0,.06.002.083-.022.088-.083.009-.103-.046-.111-.127-.111-.803.002-1.606.001-2.409.001Zm.006-1.437c.803,0,1.607,0,2.41.001.079,0,.125-.011.121-.106-.005-.102-.077-.07-.127-.07-1.603-.001-3.206-.001-4.809-.001-.018,0-.037.001-.055,0-.051-.004-.068.018-.073.07-.01.092.03.109.113.109.807-.003,1.614-.002,2.421-.002Zm5.526,0c.807,0,1.614,0,2.421,0,.068,0,.118.002.117-.094-.002-.096-.058-.083-.116-.083-1.606,0-3.213,0-4.819,0-.018,0-.037,0-.055,0-.035-.001-.05.015-.059.049-.029.103-.012.127.103.127.803,0,1.606,0,2.41,0Zm-5.545,1.081c.807,0,1.614,0,2.42.001.082,0,.12-.015.114-.108-.006-.093-.068-.07-.117-.07-1.606,0-3.213,0-4.819,0-.015,0-.029,0-.044,0-.044-.003-.063.014-.069.062-.01.092.024.117.116.117.799-.003,1.599-.002,2.398-.002Zm5.559-.726c-.803,0-1.606.001-2.409-.002-.089,0-.127.021-.118.116.01.094.078.061.124.061,1.599.002,3.198.001,4.797.001.018,0,.037-.001.055,0,.051.004.068-.018.073-.07.01-.092-.03-.109-.113-.109-.803.003-1.606.002-2.409.001Zm0,.726c.803,0,1.607-.001,2.41.002.083,0,.118-.018.113-.109-.005-.094-.069-.069-.117-.069-1.603,0-3.206,0-4.808,0-.018,0-.037.001-.055,0-.045-.003-.063.016-.069.063-.011.094.027.116.117.116.803-.003,1.606-.002,2.41-.002Zm-5.562,1.08c.807,0,1.615-.002,2.422.002.094,0,.124-.029.114-.119-.011-.094-.082-.057-.127-.058-1.6-.002-3.201-.002-4.801-.002-.018,0-.037,0-.055,0-.039-.002-.059.013-.064.056-.009.085.01.123.11.123.8-.004,1.6-.002,2.4-.002Zm5.561,0c.803,0,1.606-.002,2.409.002.095,0,.122-.031.112-.119-.011-.094-.081-.057-.126-.058-1.599-.002-3.198-.002-4.797-.001-.022,0-.044.001-.066,0-.043-.002-.053.023-.058.061-.012.093.026.117.116.116.803-.003,1.606-.002,2.409-.002Zm0,.548c.803,0,1.606-.002,2.409.002.096,0,.122-.032.112-.12-.011-.094-.081-.058-.127-.058-1.595-.002-3.191-.002-4.786-.002-.022,0-.044.001-.066,0-.044-.002-.064.015-.069.063-.011.094.027.117.117.116.803-.003,1.606-.002,2.409-.002Zm-5.55-2.177c.11,0,.22,0,.33,0,.693,0,1.387,0,2.08.001.08,0,.122-.012.115-.107-.007-.102-.078-.07-.128-.07-1.588-.001-3.177-.001-4.765-.001-.029,0-.059,0-.088,0-.045,0-.061.026-.067.069-.013.092.03.108.113.108.803-.003,1.607-.002,2.41-.002Zm.011,2.177c.8,0,1.599,0,2.399,0,.059,0,.115.01.117-.084.002-.097-.051-.094-.118-.094-.429.001-.858,0-1.288,0-1.174,0-2.348,0-3.522,0-.118,0-.138.023-.12.119.015.079.075.057.122.057.803.001,1.607,0,2.41,0Z"/>
  <path class="cls-7" d="m2.665,14.624c.002-.044.005-.088.005-.131,0-1.405,0-2.81-.004-4.215,0-.104.031-.124.129-.124,2.04.003,4.08.002,6.119.001.033,0,.066-.003.099-.005.048.002.095.005.143.005,2.507,0,5.013.001,7.52-.003.113,0,.137.028.137.138-.003,2.884-.003,5.769,0,8.653,0,.094-.014.129-.122.129-4.628-.003-9.256-.003-13.884,0-.118,0-.14-.034-.14-.144.003-1.435,0-2.87-.001-4.305Zm7.042.507c2.143,0,4.287,0,6.43,0q.145,0,.145-.141c0-1.053,0-2.107,0-3.16,0-.178,0-.18-.185-.179-.499.002-.997.006-1.496.012-1.005.012-2.009.004-3.014.004-.77,0-1.54,0-2.309,0-.286,0-.572-.004-.857-.013-.248-.008-.497.012-.745.012-.806.002-1.613.001-2.419,0-.135,0-.272-.023-.406-.012-.235.02-.469.012-.704.011-.304-.002-.609.02-.912-.014-.1-.011-.102.049-.102.123.001,1.072,0,2.143,0,3.215q0,.141.144.141c2.143,0,4.287,0,6.43,0Zm4.477,2.927c.642,0,1.285-.002,1.927.002.104,0,.127-.032.126-.13-.004-.76-.002-1.519-.002-2.279q0-.151-.153-.151c-1.222,0-2.444,0-3.667,0q-.278,0-.279.278c0,.719.002,1.439-.002,2.158,0,.096.024.125.123.124.642-.004,1.285-.002,1.927-.002Zm-4.504-2.557h0c-.642,0-1.284.002-1.926-.002-.099,0-.131.023-.13.127.004.77.004,1.541,0,2.311,0,.095.021.125.121.124,1.288-.004,2.575-.003,3.863,0,.088,0,.12-.019.119-.114-.004-.774-.005-1.548,0-2.322,0-.107-.036-.125-.132-.125-.638.004-1.277.002-1.915.002Zm-4.496,2.558h0c.646,0,1.291-.002,1.937,0,.076,0,.111-.012.11-.101-.003-.789-.003-1.577,0-2.366,0-.074-.025-.093-.095-.093-1.302.002-2.605.002-3.907,0-.078,0-.099.026-.099.101.002.781.003,1.563,0,2.344,0,.092.027.117.118.116.646-.004,1.291-.002,1.937-.002Zm4.498-7.513h0c-1.526,0-3.053,0-4.579,0-.627,0-1.255.002-1.882-.002-.095,0-.139.015-.133.124.01.172.002.345.002.517q0,.153.148.153c2.833,0,5.665,0,8.498,0,1.471,0,2.943,0,4.414.002.098,0,.138-.024.133-.129-.008-.176-.009-.353,0-.528.006-.113-.029-.14-.141-.14-2.154.003-4.308.003-6.461.003Zm4.499,7.864c-.653,0-1.305,0-1.958,0-.034,0-.078-.018-.097.027-.013.03-.014.067.005.096.03.046.08.027.121.027,1.287,0,2.573,0,3.86,0,.018,0,.037-.001.055,0,.045.003.063-.016.068-.063.009-.09-.043-.09-.108-.09-.649.001-1.298,0-1.947.001Zm-4.497,0c-.649,0-1.298,0-1.947-.001-.073,0-.124.005-.111.098.012.086.076.054.119.054,1.287.002,2.575.001,3.862.001.026,0,.051,0,.077-.002.041-.003.055-.03.056-.068,0-.039-.004-.076-.053-.081-.029-.003-.059-.002-.088-.002-.638,0-1.276,0-1.914,0Zm4.504.441c-.656,0-1.313,0-1.969,0-.089,0-.129.052-.091.118.028.05.078.032.119.032,1.287,0,2.574,0,3.861,0,.018,0,.037,0,.055,0,.051,0,.069-.026.072-.076.006-.093-.059-.075-.111-.075-.645,0-1.291,0-1.936,0Zm-4.509,0c-.25,0-.499,0-.749,0-.404,0-.807,0-1.211,0-.034,0-.081-.015-.091.036-.007.034-.016.076.02.102.032.023.071.013.107.013,1.284,0,2.568,0,3.853,0,.022,0,.044,0,.066,0,.046-.002.063-.028.064-.072.003-.085-.055-.079-.112-.079-.649,0-1.299,0-1.948,0Zm-4.505-.289c.649,0,1.299,0,1.948,0,.099,0,.13-.034.105-.111-.022-.069-.08-.039-.121-.039-1.284-.002-2.568-.001-3.852-.001-.022,0-.044,0-.066,0-.043,0-.054.023-.058.062-.011.089.042.091.108.091.646-.001,1.291,0,1.937,0Zm.006.289c-.65,0-1.299,0-1.949,0-.052,0-.102-.008-.103.074,0,.078.043.078.099.078,1.296,0,2.591,0,3.887,0,.055,0,.113.01.116-.077.003-.093-.06-.074-.112-.074-.646,0-1.292,0-1.938,0Z"/>
  <path class="cls-7" d="m40.987,19.358c0,.079-.002.159-.002.238-.172,0-.344,0-.516,0-.34,0-.681,0-1.021,0-.038,0-.086-.012-.089.051-.004.07.047.061.09.061.026,0,.051,0,.077,0,.487,0,.974.001,1.46.002,0,.079,0,.159,0,.238-.454,0-.908.001-1.362.002-.07,0-.139,0-.209,0-.042,0-.059.02-.057.061.002.037.021.052.056.051.026,0,.051,0,.077,0,.498,0,.996,0,1.494,0,0,.079.002.159.002.238-.502.001-1.005.002-1.507.003-.029,0-.059,0-.088.002-.036.003-.048.029-.048.062,0,.034.013.058.048.062.029.003.059.003.088.003.502.001,1.005.002,1.507.003,0,.079-.001.159-.002.238-.498,0-.996,0-1.493,0-.029,0-.059,0-.088.001-.039.002-.046.029-.045.061,0,.031.015.048.046.049.029.001.059.001.088.001.498,0,.996.001,1.493.002,0,.079,0,.159,0,.238-.029,0-.059.002-.088.002-.484,0-.969,0-1.453,0-.04,0-.085-.007-.086.055-.001.062.043.058.084.057.514-.001,1.028-.003,1.541-.004.023.094-.048.071-.093.071-.462.001-.923,0-1.385,0-.04,0-.08.002-.121.003-.038-.012-.076-.012-.114,0-.021,0-.041,0-.062,0-.06-.012-.12-.012-.18,0-.498,0-.995,0-1.493,0-.04-.002-.08-.007-.12-.007-.635,0-1.269-.002-1.904.002-.093,0-.115-.027-.115-.117,0-3.154,0-6.308-.004-9.463,0-.097.025-.122.123-.122.968.004,1.937.003,2.905.002.146,0,.293-.004.439-.006.04.002.08.006.12.006,1.324,0,2.648,0,3.972,0,.148,0,.148,0,.148.147,0,2.145,0,4.291,0,6.436q0,.18-.191.162c0-.433-.002-.865.002-1.298,0-.083-.018-.114-.109-.114-1.078.003-2.156.003-3.234.001-.084,0-.118.023-.117.112.008.622-.004,1.244.007,1.866.002.108.031.12.12.12.469-.003.939,0,1.408,0v.282c-.5,0-1.002.002-1.504.003-.029,0-.059,0-.088,0-.037,0-.052.019-.051.055,0,.031.006.062.042.068.032.006.066.004.098.004.502.002,1.003.003,1.505.005Zm-1.696-6.431c-1.163,0-2.327.001-3.49-.002-.11,0-.143.028-.143.141.004,1.094.004,2.187,0,3.281,0,.1.024.13.127.13,2.334-.003,4.668-.003,7.002,0,.096,0,.124-.023.124-.122-.004-1.101-.004-2.202,0-3.303,0-.104-.031-.127-.13-.127-1.163.003-2.327.002-3.49.002Zm-1.897,6.012c.539,0,1.079-.002,1.618.002.089,0,.111-.028.11-.113-.003-.624-.004-1.247,0-1.871,0-.096-.034-.115-.121-.115-1.071.002-2.142.003-3.214,0-.095,0-.127.028-.126.125.004.616.004,1.233,0,1.849,0,.097.03.125.126.125.536-.004,1.071-.002,1.607-.002Zm1.898-6.343h0c1.171,0,2.341,0,3.512.002.093,0,.131-.017.126-.12-.009-.179-.002-.36-.002-.539,0-.155,0-.156-.158-.156-1.453,0-2.906,0-4.36,0-.877,0-1.754.001-2.631-.003-.098,0-.126.027-.123.124.007.191.008.382,0,.572-.005.101.03.121.124.121,1.171-.003,2.341-.002,3.512-.002Zm-1.896,6.629c-.543,0-1.085,0-1.628,0-.042,0-.104-.024-.105.056-.001.08.058.071.108.071,1.082,0,2.163,0,3.245,0,.044,0,.101.019.103-.06.003-.087-.06-.067-.107-.067-.539,0-1.078,0-1.617,0Zm-.007,1.08c-.525,0-1.05,0-1.574,0-.029,0-.059,0-.088,0-.039,0-.062.019-.063.06-.001.046.022.068.067.068.022,0,.044,0,.066,0,1.064,0,2.128,0,3.193,0,.029,0,.059,0,.088-.002.04-.003.041-.034.041-.065,0-.032-.005-.06-.045-.061-.029-.001-.059,0-.088,0-.532,0-1.064,0-1.596,0Zm.002.483c.532,0,1.064,0,1.595,0,.029,0,.059,0,.088-.001.033-.001.043-.022.044-.051,0-.033-.008-.058-.047-.06-.022,0-.044,0-.066,0-1.078,0-2.157,0-3.235,0-.018,0-.037,0-.055,0-.029,0-.05.011-.051.044-.001.032.008.06.043.066.029.005.058.003.088.003.532,0,1.064,0,1.595,0Zm.009-1.079c.528,0,1.057,0,1.585,0,.029,0,.059,0,.088,0,.032-.001.044-.021.045-.051.001-.034-.008-.058-.047-.06-.029-.001-.059-.001-.088-.001-1.061,0-2.121,0-3.182,0-.029,0-.059,0-.088.002-.029.003-.047.021-.049.05-.002.035.016.056.051.059.029.002.059.002.088.002.532,0,1.064,0,1.596,0Zm-.005,1.321c-.532,0-1.064,0-1.596,0-.029,0-.059,0-.088.002-.03.003-.046.023-.046.052,0,.029.014.051.043.056.025.004.051.003.077.003,1.075,0,2.151,0,3.226,0,.042,0,.105.026.107-.054.002-.081-.062-.057-.104-.057-.539-.001-1.079,0-1.618,0Zm.005-.966c.532,0,1.064,0,1.596,0,.029,0,.059,0,.088-.004.034-.005.034-.033.034-.06,0-.024-.008-.044-.035-.047-.022-.002-.044-.002-.066-.002-1.079,0-2.158,0-3.237,0-.022,0-.044,0-.066.002-.03.002-.047.02-.048.05-.002.034.015.056.05.059.029.002.059.002.088.002.532,0,1.064,0,1.596,0Z"/>
  <path class="cls-7" d="m49.571,21.057c-.002.047-.007.095-.007.142,0,.866-.002,1.732.002,2.598,0,.099-.027.12-.122.119-2.506-.003-5.013-.003-7.519,0-.105,0-.124-.032-.124-.128.002-1.658.002-3.317-.002-4.975,0-.102.031-.119.124-.118.385.004.77,0,1.156-.002.051.003.102.008.153.008,2.073,0,4.145,0,6.218-.005.095,0,.115.028.115.117-.004.521-.002,1.042-.001,1.563,0,.227.004.454.006.681Zm-3.868-.952c-1.171,0-2.341.001-3.512-.002-.102,0-.128.029-.128.129.003,1.101.004,2.201,0,3.302,0,.1.029.121.124.121,2.334-.003,4.667-.003,7.001,0,.103,0,.128-.029.127-.129-.003-1.097-.004-2.194,0-3.291,0-.107-.03-.133-.135-.133-1.16.004-2.319.002-3.479.002Zm-.024-1.143c-.213,0-.426,0-.638,0-.947,0-1.893,0-2.84,0-.154,0-.154,0-.154.159,0,.161,0,.323,0,.484q0,.169.165.17c1.64,0,3.28,0,4.92,0,.69,0,1.379-.002,2.069.002.092,0,.12-.026.117-.117-.006-.187-.009-.374,0-.561.006-.113-.03-.14-.141-.14-1.167.004-2.333.003-3.5.003Z"/>
  <path class="cls-7" d="m16.915,19.83c.046.075.135.12.118.239-.022.162-.058.211-.218.213-4.41.043-8.821.011-13.232.018-.143,0-.285-.013-.428-.016-.058-.001-.081-.025-.095-.082-.03-.124-.015-.248-.013-.372,1.455-.001,2.91-.003,4.365-.004.341,0,.682.002,1.022.003.035.152.051.166.202.165.054,0,.109,0,.163,0,.162-.001.165-.004.172-.16.474-.011.947-.012,1.421,0-.015.104.026.154.135.153.091-.001.183.008.274.009.177.002.177.001.239-.166.198,0,.396-.003.594-.003,1.701,0,3.402.001,5.103.002.059,0,.117.002.176.003Z"/>
  <path class="cls-3" d="m40.985,18.941c-.469,0-.939-.002-1.408,0-.089,0-.118-.012-.12-.12-.012-.622,0-1.244-.007-1.866-.001-.089.033-.112.117-.112,1.078.002,2.156.002,3.234-.001.091,0,.11.031.109.114-.004.433-.002.865-.002,1.298-.399.002-.798.004-1.196.006-.156,0-.304.034-.439.115-.213.128-.291.326-.287.566Z"/>
  <path class="cls-1" d="m38.858,11.502c-.146.002-.293.006-.439.006-.968,0-1.937.002-2.905-.002-.097,0-.123.025-.123.122.004,3.154.005,6.308.004,9.463,0,.09.022.118.115.117.635-.004,1.269-.002,1.904-.002.04,0,.08.005.12.007-.046.058-.113.057-.177.057-.528.001-1.057,0-1.585,0-.109,0-.218,0-.327,0-.08,0-.128-.027-.103-.122.011-.041.007-.087.007-.131,0-.642-.001-1.284,0-1.926,0-.234-.035-.467-.022-.702.001-.018.003-.045-.007-.053-.087-.07-.163-.149-.227-.241-.005-.007-.023-.012-.03-.009-.157.076-.107-.054-.107-.114-.003-2.121-.005-4.242-.003-6.363,0-.398.189-.583.515-.702.026-.01.058-.008.087-.008,1.086,0,2.172,0,3.259-.003.091,0,.107.02.093.114-.024.162-.063.323-.051.49Z"/>
  <path class="cls-1" d="m49.571,21.057c-.002-.227-.006-.454-.006-.681-.001-.521-.002-1.042.001-1.563,0-.089-.02-.117-.115-.117-2.073.004-4.145.004-6.218.005-.051,0-.102-.005-.153-.008.018-.065.071-.039.11-.04.374-.002.748-.001,1.123-.003.039,0,.08.011.124-.015-.025-.04-.064-.026-.096-.026-.057-.001-.111-.018-.109-.081.002-.059.037-.112.109-.118.026-.002.051,0,.077,0,1.137,0,2.275.007,3.412-.006.545-.006,1.09-.009,1.635-.016.138-.002.261.039.375.108.13.079.204.196.204.354,0,.712,0,1.423.001,2.135,0,.087-.033.101-.114.095-.12-.009-.238-.047-.36-.024Z"/>
  <path class="cls-5" d="m34.738,12.836c-1.357,0-2.715,0-4.072-.002-.052,0-.125.029-.136-.066-.011-.088.008-.129.114-.128,1.365.004,2.73.002,4.094.002,0,.065,0,.129,0,.194Z"/>
  <path class="cls-5" d="m34.81,11.237c-.039-.052-.095-.03-.143-.03-1.338-.001-2.677,0-4.015-.002-.046,0-.117.034-.123-.061-.005-.08.011-.118.106-.116.405.005.811.012,1.215-.001.252-.008.504-.003.755-.004.3-.001.6.006.901.005.274,0,.548-.006.822-.002.153.002.306.003.459.004.04,0,.081-.007.117.02-.031.063-.062.125-.094.188Z"/>
  <path class="cls-5" d="m34.736,12.287c-1.368,0-2.736,0-4.104.002-.071,0-.106-.012-.105-.095,0-.084.044-.084.105-.084,1.368.001,2.736.001,4.104.002,0,.058,0,.117,0,.175Z"/>
  <path class="cls-5" d="m34.736,13.366c-1.368,0-2.736,0-4.104.003-.071,0-.105-.013-.105-.095,0-.097.059-.082.117-.082,1.364,0,2.729,0,4.093,0,0,.058,0,.116,0,.175Z"/>
  <path class="cls-5" d="m34.737,13.916c-1.361,0-2.723,0-4.084,0-.057,0-.122.015-.124-.08-.002-.067.011-.099.089-.099,1.372.003,2.745.003,4.117.003,0,.058.001.117.002.175Z"/>
  <path class="cls-5" d="m34.735,11.737c-1.365,0-2.73,0-4.096.002-.062,0-.115.005-.112-.087.003-.087.05-.091.115-.09,1.365.001,2.73.001,4.096.002,0,.058-.002.116-.003.174Z"/>
  <path class="cls-5" d="m40.987,19.358c-.502-.002-1.003-.003-1.505-.005-.033,0-.066.001-.098-.004-.035-.006-.041-.037-.042-.068,0-.036.014-.055.051-.055.029,0,.059,0,.088,0,.502,0,1.003-.002,1.505-.003v.135Z"/>
  <path class="cls-5" d="m40.986,20.437c-.502-.001-1.005-.002-1.507-.003-.029,0-.059,0-.088-.003-.035-.004-.049-.029-.048-.062,0-.033.012-.058.048-.062.029-.003.059-.002.088-.002.502-.001,1.005-.002,1.507-.003,0,.045,0,.09,0,.135Z"/>
  <path class="cls-5" d="m40.984,20.064c-.498,0-.996,0-1.494,0-.026,0-.051,0-.077,0-.035,0-.054-.014-.056-.051-.002-.041.015-.061.057-.061.07,0,.139,0,.209,0,.454,0,.908-.001,1.362-.002,0,.038,0,.076-.001.115Z"/>
  <path class="cls-5" d="m40.983,21.139c-.514.001-1.028.003-1.541.004-.041,0-.085.005-.084-.057.001-.062.047-.055.086-.055.484,0,.969,0,1.453,0,.029,0,.059-.001.088-.002.006.037.009.074-.003.11Z"/>
  <path class="cls-5" d="m40.985,20.79c-.498,0-.996,0-1.493-.002-.029,0-.059,0-.088-.001-.031-.001-.046-.019-.046-.049,0-.033.007-.059.045-.061.029-.002.059-.001.088-.001.498,0,.996,0,1.493,0,0,.038,0,.076.001.115Z"/>
  <path class="cls-5" d="m40.985,19.711c-.487,0-.974-.001-1.46-.002-.026,0-.051,0-.077,0-.043,0-.094.009-.09-.061.003-.063.051-.051.089-.051.34,0,.681,0,1.021,0,.172,0,.344,0,.516,0,0,.038,0,.076,0,.115Z"/>
  <path class="cls-5" d="m11.042,19.828c-.062.167-.062.168-.239.166-.091-.001-.183-.01-.274-.009-.109.002-.15-.049-.135-.153.216-.022.432-.005.647-.004Z"/>
  <path class="cls-5" d="m8.974,19.833c-.007.156-.011.159-.172.16-.054,0-.109,0-.163,0-.151,0-.168-.013-.202-.165.179-.003.359-.018.538.005Z"/>
  <path class="cls-1" d="m39.495,11.356c-.18.022-.337-.012-.492.023-.023.005-.048-.006-.05-.031-.002-.032.028-.027.048-.027.155.004.312-.017.493.034Z"/>
  <path class="cls-1" d="m9.693,10.015c.081-.013.16-.036.154-.134-.006-.096-.088-.112-.17-.115.074-.008.15-.031.195.058.029.057.02.108-.017.152-.041.049-.093.079-.162.039Z"/>
  <path class="cls-1" d="m39.027,21.213c.06-.012.12-.013.18,0-.06.057-.12.057-.18,0Z"/>
  <path class="cls-1" d="m39.27,21.213c.038-.011.076-.012.114,0-.038.054-.076.054-.114,0Z"/>
  <path class="cls-7" d="m51.446,15.149c0-.036,0-.071,0-.107.002-.04.011-.081.005-.12-.016-.108.019-.14.134-.138.475.007.95,0,1.425,0,.481.002.961.007,1.442.003.099,0,.127.022.126.124-.003,1.582-.003,3.163,0,4.745,0,.081-.017.104-.102.104-.972-.003-1.945-.003-2.917.002-.098,0-.109-.033-.109-.118.002-1.431,0-2.862,0-4.293,0-.037-.002-.073-.002-.11,0-.03,0-.061,0-.091Zm1.55,1.942c.455,0,.91,0,1.364,0,.147,0,.149-.001.149-.146,0-.242-.009-.484-.01-.725,0-.215.013-.43-.003-.646-.006-.079-.031-.098-.105-.097-.924.002-1.849.002-2.773,0-.081,0-.108.022-.107.105.003.466.004.932,0,1.397,0,.095.033.115.12.114.455-.004.91-.002,1.364-.002Zm.023.172c-.458,0-.917.002-1.375-.002-.093,0-.129.023-.128.123.005.433.005.865,0,1.298-.001.107.039.127.135.127.906-.003,1.811-.003,2.717,0,.102,0,.129-.028.128-.129-.005-.433-.008-.865.003-1.298.003-.106-.021-.122-.115-.121-.455.004-.909.002-1.364.002Zm-.005-2.313c-.459,0-.918.004-1.376-.003-.112-.002-.143.043-.141.139,0,.018,0,.037,0,.055q0,.183.178.183c.859,0,1.718,0,2.576,0,.262,0,.258,0,.261-.263,0-.086-.024-.113-.111-.113-.462.004-.925.002-1.387.002Zm-.001,4.161c.458,0,.916,0,1.374,0,.026,0,.051,0,.077,0,.032,0,.045-.019.045-.049,0-.029-.01-.05-.042-.052-.026-.002-.051-.002-.077-.002-.916,0-1.833,0-2.749,0-.026,0-.052-.001-.077.003-.028.004-.046.022-.044.053.002.025.018.041.041.044.029.004.058.004.088.004.454,0,.909,0,1.363,0Zm-.003.265c.268,0,.535,0,.803,0,.209,0,.418,0,.627,0,.033,0,.071.002.068-.048-.002-.042-.035-.039-.065-.04-.018,0-.037,0-.055,0-.916,0-1.833,0-2.749,0-.022,0-.044,0-.066,0-.028,0-.051.009-.052.042-.001.033.019.044.049.045.026,0,.051,0,.077,0,.454,0,.909,0,1.363,0Zm.004.176c-.459,0-.917,0-1.376.002-.039,0-.114-.034-.112.041.001.068.073.038.116.045.004,0,.007,0,.011,0,.91,0,1.82,0,2.73,0,.026,0,.051,0,.077,0,.029,0,.05-.011.049-.045-.001-.034-.024-.042-.052-.042-.029,0-.059,0-.088,0-.451,0-.903,0-1.354,0Z"/>
  <path class="cls-1" d="m53.01,14.783c-.475.001-.95.007-1.425,0-.115-.002-.15.03-.134.138.006.039-.003.08-.005.12-.09.005-.122-.034-.133-.128-.028-.234-.021-.469-.009-.702.01-.198.18-.334.393-.337.433-.005.866,0,1.299-.003.069,0,.086.025.086.09,0,.107-.019.211-.026.317-.003.054-.036.055-.075.055-.077,0-.154,0-.231.005-.027.002-.063.015-.061.052.002.042.041.035.068.034.171-.008.344.02.514-.017.02-.004.037-.003.043.019.006.023-.01.033-.029.036-.007.001-.015,0-.022.001-.072.007-.173-.035-.21.02-.048.07-.042.174-.043.265,0,.011,0,.022,0,.033Z"/>
  <path class="cls-1" d="m51.446,15.149c0,.03,0,.061,0,.091-.057-.03-.057-.061,0-.091Z"/>
  <path class="cls-5" d="m29.471,17.044c.013.044.003.072-.049.072-.026,0-.051,0-.077,0-1.212,0-2.423,0-3.635-.002-.044,0-.133.043-.114-.071,1.292,0,2.583,0,3.875,0Z"/>
  <path class="cls-4" d="m27.578,2.709c2.65,0,5.3,0,7.95-.002.107,0,.133.029.133.134-.004,1.343-.003,2.686,0,4.03,0,.1-.026.132-.129.132-5.314-.002-10.629-.002-15.943,0-.102,0-.119-.034-.119-.126.003-1.343.003-2.686,0-4.03,0-.111.026-.141.139-.14,2.657.003,5.314.003,7.972.003Z"/>
  <path class="cls-3" d="m27.523,7.441c.8,0,1.6.001,2.399-.002.094,0,.125.02.125.12-.004.972-.003,1.944,0,2.917,0,.089-.021.119-.115.119-1.603-.003-3.207-.003-4.81,0-.093,0-.126-.02-.126-.121.004-.972.004-1.944,0-2.917,0-.09.023-.119.116-.118.803.003,1.607.002,2.41.002Z"/>
  <path class="cls-3" d="m21.99,7.441c.796,0,1.593.001,2.389-.002.089,0,.12.02.12.115-.003.973-.003,1.945,0,2.918,0,.097-.026.123-.124.123-1.597-.003-3.193-.003-4.79,0-.107,0-.137-.032-.136-.137.004-.958.002-1.916.002-2.874,0-.143,0-.143.149-.143.796,0,1.593,0,2.389,0Z"/>
  <path class="cls-3" d="m33.062,10.593c-.796,0-1.593-.002-2.389.002-.109,0-.146-.026-.145-.141.004-.958.004-1.916,0-2.873,0-.113.034-.142.144-.142,1.589.003,3.178.003,4.767,0,.113,0,.14.031.139.141-.004.958-.004,1.916,0,2.873,0,.107-.021.143-.138.142-.793-.006-1.585-.003-2.378-.003Z"/>
  <path class="cls-3" d="m27.522,2.312c-2.657,0-5.314,0-7.97.002-.108,0-.15-.024-.146-.14.009-.238.006-.477.001-.715-.002-.092.031-.119.121-.119.65.003,1.299.001,1.949.001,4.679,0,9.358,0,14.036,0q.145,0,.145.14c0,.228,0,.455,0,.683,0,.146,0,.147-.144.147-2.18,0-4.359,0-6.539,0-.484,0-.969,0-1.453,0Z"/>
  <path class="cls-5" d="m27.512,12.643c.807,0,1.615.001,2.422-.002.085,0,.118.02.113.11-.003.07-.028.086-.092.085-.183-.003-.367,0-.551,0-1.431,0-2.863,0-4.294,0-.061,0-.128.016-.129-.086,0-.082.027-.108.108-.108.47.003.94.001,1.409.001.338,0,.675,0,1.013,0Z"/>
  <path class="cls-5" d="m21.978,12.643c.803,0,1.606,0,2.409-.001.081,0,.136.008.127.111-.005.061-.029.085-.088.083-.059-.002-.117,0-.176,0-1.555,0-3.11,0-4.665,0-.057,0-.131.025-.135-.079-.003-.081.014-.115.107-.115.807.004,1.614.002,2.42.002Z"/>
  <path class="cls-5" d="m21.984,11.206c-.807,0-1.614-.001-2.421.002-.083,0-.123-.017-.113-.109.005-.051.022-.074.073-.07.018.001.037,0,.055,0,1.603,0,3.206,0,4.809.001.05,0,.122-.032.127.07.005.095-.042.107-.121.106-.803-.002-1.607-.001-2.41-.001Z"/>
  <path class="cls-5" d="m27.51,11.206c-.803,0-1.606,0-2.41,0-.115,0-.132-.024-.103-.127.01-.034.024-.051.059-.049.018,0,.037,0,.055,0,1.606,0,3.213,0,4.819,0,.058,0,.115-.013.116.083.002.096-.049.094-.117.094-.807-.001-1.614,0-2.421,0Z"/>
  <path class="cls-5" d="m21.965,12.288c-.799,0-1.599-.001-2.398.002-.092,0-.126-.024-.116-.117.005-.048.025-.065.069-.062.015,0,.029,0,.044,0,1.606,0,3.213,0,4.819,0,.049,0,.112-.024.117.07.006.093-.033.108-.114.108-.807-.002-1.614-.001-2.42-.001Z"/>
  <path class="cls-5" d="m27.524,11.562c.803,0,1.606.001,2.409-.002.083,0,.123.017.113.109-.005.051-.022.074-.073.07-.018-.001-.037,0-.055,0-1.599,0-3.198,0-4.797-.001-.046,0-.115.033-.124-.061-.01-.095.028-.116.118-.116.803.003,1.606.002,2.409.002Z"/>
  <path class="cls-5" d="m27.524,12.288c-.803,0-1.607-.001-2.41.002-.09,0-.128-.022-.117-.116.006-.047.024-.066.069-.063.018.001.037,0,.055,0,1.603,0,3.206,0,4.808,0,.049,0,.112-.025.117.069.005.091-.03.109-.113.109-.803-.003-1.606-.002-2.41-.002Z"/>
  <path class="cls-5" d="m21.962,13.368c-.8,0-1.6-.002-2.4.002-.1,0-.119-.038-.11-.123.005-.043.024-.058.064-.056.018,0,.037,0,.055,0,1.6,0,3.201,0,4.801.002.045,0,.116-.036.127.058.011.09-.019.12-.114.119-.807-.004-1.615-.002-2.422-.002Z"/>
  <path class="cls-5" d="m27.523,13.368c-.803,0-1.606-.001-2.409.002-.091,0-.129-.023-.116-.116.005-.039.015-.063.058-.061.022,0,.044,0,.066,0,1.599,0,3.198,0,4.797.001.045,0,.116-.037.126.058.01.089-.017.12-.112.119-.803-.004-1.606-.002-2.409-.002Z"/>
  <path class="cls-5" d="m27.524,13.916c-.803,0-1.606-.001-2.409.002-.09,0-.128-.023-.117-.116.005-.048.025-.064.069-.063.022,0,.044,0,.066,0,1.595,0,3.191,0,4.786.002.045,0,.116-.036.127.058.01.088-.016.12-.112.12-.803-.004-1.606-.002-2.409-.002Z"/>
  <path class="cls-5" d="m21.974,11.739c-.803,0-1.607-.001-2.41.002-.082,0-.125-.016-.113-.108.006-.044.022-.068.067-.069.029,0,.059,0,.088,0,1.588,0,3.177,0,4.765.001.05,0,.121-.032.128.07.007.095-.035.107-.115.107-.693-.002-1.387-.001-2.08-.001-.11,0-.22,0-.33,0Z"/>
  <path class="cls-5" d="m21.985,13.916c-.803,0-1.607,0-2.41,0-.046,0-.107.022-.122-.057-.018-.097.003-.119.12-.119,1.174,0,2.348,0,3.522,0,.429,0,.858,0,1.288,0,.067,0,.12-.003.118.094-.002.094-.057.084-.117.084-.8,0-1.599,0-2.399,0Z"/>
  <path class="cls-4" d="m9.707,15.131c-2.143,0-4.287,0-6.43,0q-.144,0-.144-.141c0-1.072,0-2.143,0-3.215,0-.074.002-.134.102-.123.304.034.608.012.912.014.234.001.469.009.704-.011.134-.011.27.012.406.012.806.001,1.613.002,2.419,0,.248,0,.497-.02.745-.012.286.009.572.013.857.013.77,0,1.54,0,2.309,0,1.005,0,2.009.008,3.014-.004.499-.006.997-.01,1.496-.012.185,0,.185,0,.185.179,0,1.053,0,2.107,0,3.16q0,.141-.145.141c-2.143,0-4.287,0-6.43,0Z"/>
  <path class="cls-3" d="m14.184,18.058c-.642,0-1.285-.002-1.927.002-.098,0-.123-.028-.123-.124.004-.719.002-1.439.002-2.158q0-.278.279-.278c1.222,0,2.444,0,3.667,0q.153,0,.153.151c0,.76-.002,1.519.002,2.279,0,.098-.023.131-.126.13-.642-.005-1.285-.002-1.927-.002Z"/>
  <path class="cls-3" d="m9.68,15.5c.638,0,1.277.002,1.915-.002.096,0,.133.018.132.125-.005.774-.004,1.548,0,2.322,0,.095-.031.114-.119.114-1.288-.002-2.575-.003-3.863,0-.1,0-.121-.03-.121-.124.004-.77.004-1.541,0-2.311,0-.104.032-.128.13-.127.642.004,1.284.002,1.926.002h0Z"/>
  <path class="cls-3" d="m5.185,18.058c-.646,0-1.291-.002-1.937.002-.091,0-.118-.024-.118-.116.003-.781.003-1.563,0-2.344,0-.076.02-.101.099-.101,1.302.002,2.605.002,3.907,0,.07,0,.096.02.095.093-.002.789-.003,1.577,0,2.366,0,.089-.034.101-.11.101-.646-.002-1.291-.001-1.937-.001h0Z"/>
  <path class="cls-3" d="m9.683,10.545c2.154,0,4.308,0,6.461-.003.111,0,.147.027.141.14-.01.176-.009.352,0,.528.005.105-.035.129-.133.129-1.471-.003-2.943-.002-4.414-.002-2.833,0-5.665,0-8.498,0q-.148,0-.148-.153c0-.172.007-.345-.002-.517-.006-.109.038-.125.133-.124.627.004,1.255.002,1.882.002,1.526,0,3.053,0,4.579,0h0Z"/>
  <path class="cls-5" d="m14.181,18.409c.649,0,1.298,0,1.947,0,.065,0,.117,0,.108.09-.005.047-.023.066-.068.063-.018-.001-.037,0-.055,0-1.287,0-2.573,0-3.86,0-.042,0-.092.019-.121-.027-.018-.029-.017-.066-.005-.096.019-.045.063-.027.097-.027.653-.001,1.305,0,1.958,0Z"/>
  <path class="cls-5" d="m9.685,18.409c.638,0,1.276,0,1.914,0,.029,0,.059-.001.088.002.049.005.053.042.053.081,0,.038-.014.065-.056.068-.026.002-.051.002-.077.002-1.287,0-2.575,0-3.862-.001-.043,0-.108.032-.119-.054-.013-.093.038-.098.111-.098.649.002,1.298.001,1.947.001Z"/>
  <path class="cls-5" d="m14.189,18.85c.645,0,1.291,0,1.936,0,.052,0,.117-.018.111.075-.003.05-.021.076-.072.076-.018,0-.037,0-.055,0-1.287,0-2.574,0-3.861,0-.041,0-.091.017-.119-.032-.037-.066.002-.118.091-.118.656,0,1.313,0,1.969,0Z"/>
  <path class="cls-5" d="m9.68,18.85c.649,0,1.299,0,1.948,0,.057,0,.115-.006.112.079-.001.044-.018.07-.064.072-.022,0-.044,0-.066,0-1.284,0-2.568,0-3.853,0-.036,0-.075.01-.107-.013-.036-.026-.027-.068-.02-.102.01-.052.057-.036.091-.036.404,0,.807,0,1.211,0,.25,0,.499,0,.749,0Z"/>
  <path class="cls-5" d="m5.175,18.561c-.646,0-1.291,0-1.937,0-.066,0-.118-.001-.108-.091.005-.039.016-.063.058-.062.022,0,.044,0,.066,0,1.284,0,2.568,0,3.852.001.041,0,.1-.029.121.039.025.078-.007.111-.105.111-.649,0-1.299,0-1.948,0Z"/>
  <path class="cls-5" d="m5.181,18.85c.646,0,1.292,0,1.938,0,.052,0,.115-.019.112.074-.003.087-.061.077-.116.077-1.296,0-2.591,0-3.887,0-.056,0-.099,0-.099-.078,0-.082.051-.074.103-.074.65,0,1.299,0,1.949,0Z"/>
  <path class="cls-4" d="m39.291,12.928c1.163,0,2.327.001,3.49-.002.099,0,.13.023.13.127-.004,1.101-.004,2.202,0,3.303,0,.099-.028.122-.124.122-2.334-.003-4.668-.003-7.002,0-.103,0-.127-.03-.127-.13.004-1.094.004-2.187,0-3.281,0-.113.033-.141.143-.141,1.163.004,2.327.002,3.49.002Z"/>
  <path class="cls-3" d="m37.394,18.939c-.536,0-1.071-.002-1.607.002-.096,0-.127-.027-.126-.125.004-.616.004-1.233,0-1.849,0-.097.031-.125.126-.125,1.071.003,2.142.002,3.214,0,.087,0,.121.019.121.115-.004.624-.003,1.247,0,1.871,0,.085-.021.114-.11.113-.539-.004-1.079-.002-1.618-.002Z"/>
  <path class="cls-3" d="m39.291,12.597c-1.171,0-2.341-.001-3.512.002-.095,0-.129-.02-.124-.121.009-.19.008-.382,0-.572-.004-.096.024-.124.123-.124.877.004,1.754.003,2.631.003,1.453,0,2.906,0,4.36,0,.157,0,.158,0,.158.156,0,.18-.006.36.002.539.005.102-.033.12-.126.12-1.171-.003-2.341-.002-3.512-.002h0Z"/>
  <path class="cls-5" d="m37.396,19.225c.539,0,1.078,0,1.617,0,.047,0,.109-.02.107.067-.002.079-.06.06-.103.06-1.082,0-2.163,0-3.245,0-.051,0-.109.01-.108-.071.001-.081.063-.056.105-.056.543-.001,1.085,0,1.628,0Z"/>
  <path class="cls-5" d="m37.389,20.305c.532,0,1.064,0,1.596,0,.029,0,.059,0,.088,0,.04.001.046.029.045.061,0,.03,0,.061-.041.065-.029.002-.059.002-.088.002-1.064,0-2.128,0-3.193,0-.022,0-.044,0-.066,0-.045,0-.068-.022-.067-.068.001-.041.024-.059.063-.06.029,0,.059,0,.088,0,.525,0,1.05,0,1.574,0Z"/>
  <path class="cls-5" d="m37.391,20.789c-.532,0-1.064,0-1.595,0-.029,0-.059.002-.088-.003-.035-.006-.045-.034-.043-.066.001-.033.022-.043.051-.044.018,0,.037,0,.055,0,1.078,0,2.157,0,3.235,0,.022,0,.044,0,.066,0,.039.001.048.027.047.06,0,.029-.011.05-.044.051-.029,0-.059.001-.088.001-.532,0-1.064,0-1.595,0Z"/>
  <path class="cls-5" d="m37.4,19.709c-.532,0-1.064,0-1.596,0-.029,0-.059,0-.088-.002-.035-.003-.053-.024-.051-.059.002-.029.019-.048.049-.05.029-.002.059-.002.088-.002,1.061,0,2.121,0,3.182,0,.029,0,.059,0,.088.001.039.001.048.026.047.06-.001.03-.013.05-.045.051-.029.001-.059,0-.088,0-.528,0-1.057,0-1.585,0Z"/>
  <path class="cls-5" d="m37.396,21.03c.539,0,1.079,0,1.618,0,.042,0,.106-.023.104.057-.002.079-.066.054-.107.054-1.075.001-2.151.001-3.226,0-.026,0-.052.001-.077-.003-.029-.005-.044-.027-.043-.056,0-.029.016-.049.046-.052.029-.003.059-.002.088-.002.532,0,1.064,0,1.596,0Z"/>
  <path class="cls-5" d="m37.4,20.064c-.532,0-1.064,0-1.596,0-.029,0-.059,0-.088-.002-.035-.003-.052-.025-.05-.059.001-.03.018-.047.048-.05.022-.002.044-.002.066-.002,1.079,0,2.158,0,3.237,0,.022,0,.044,0,.066.002.028.003.035.022.035.047,0,.026,0,.055-.034.06-.029.004-.058.004-.088.004-.532,0-1.064,0-1.596,0Z"/>
  <path class="cls-4" d="m45.703,20.104c1.16,0,2.319.001,3.479-.002.105,0,.135.026.135.133-.004,1.097-.004,2.194,0,3.291,0,.1-.025.129-.127.129-2.334-.003-4.667-.003-7.001,0-.095,0-.125-.021-.124-.121.004-1.101.004-2.201,0-3.302,0-.1.025-.129.128-.129,1.171.004,2.341.002,3.512.002Z"/>
  <path class="cls-3" d="m45.679,18.961c1.167,0,2.333.002,3.5-.003.111,0,.147.026.141.14-.01.187-.007.374,0,.561.003.091-.025.118-.117.117-.69-.004-1.379-.002-2.069-.002-1.64,0-3.28,0-4.92,0q-.165,0-.165-.17c0-.161,0-.323,0-.484,0-.158,0-.159.154-.159.947,0,1.893,0,2.84,0,.213,0,.426,0,.638,0Z"/>
  <path class="cls-4" d="m52.996,17.091c-.455,0-.91-.002-1.364.002-.088,0-.121-.019-.12-.114.005-.466.004-.932,0-1.397,0-.083.026-.105.107-.105.924.002,1.849.002,2.773,0,.073,0,.099.019.105.097.016.216.002.431.003.646,0,.241.009.483.01.725,0,.145-.002.146-.149.146-.455,0-.91,0-1.364,0Z"/>
  <path class="cls-3" d="m53.019,17.263c.455,0,.909.002,1.364-.002.094,0,.118.015.115.121-.011.432-.008.865-.003,1.298.001.101-.027.129-.128.129-.906-.004-1.811-.004-2.717,0-.096,0-.136-.02-.135-.127.006-.433.005-.865,0-1.298-.001-.1.035-.123.128-.123.458.004.917.002,1.375.002Z"/>
  <path class="cls-3" d="m53.014,14.95c.462,0,.925.002,1.387-.002.088,0,.112.026.111.113-.003.263,0,.263-.261.263-.859,0-1.718,0-2.576,0q-.179,0-.178-.183c0-.018,0-.037,0-.055-.003-.097.029-.141.141-.139.459.007.917.003,1.376.003Z"/>
  <path class="cls-5" d="m53.013,19.111c-.454,0-.909,0-1.363,0-.029,0-.059,0-.088-.004-.024-.003-.039-.019-.041-.044-.002-.031.016-.049.044-.053.025-.004.051-.003.077-.003.916,0,1.833,0,2.749,0,.026,0,.051,0,.077.002.032.002.043.023.042.052,0,.03-.013.049-.045.049-.026,0-.051,0-.077,0-.458,0-.916,0-1.374,0Z"/>
  <path class="cls-5" d="m53.01,19.376c-.454,0-.909,0-1.363,0-.026,0-.051,0-.077,0-.029,0-.05-.012-.049-.045.001-.034.024-.042.052-.042.022,0,.044,0,.066,0,.916,0,1.833,0,2.749,0,.018,0,.037,0,.055,0,.029,0,.062-.002.065.04.002.05-.035.048-.068.048-.209,0-.418,0-.627,0-.268,0-.535,0-.803,0Z"/>
  <path class="cls-5" d="m53.014,19.552c.451,0,.903,0,1.354,0,.029,0,.059,0,.088,0,.028,0,.051.008.052.042.001.034-.019.044-.049.045-.026,0-.051,0-.077,0-.91,0-1.82,0-2.73,0-.004,0-.007,0-.011,0-.043-.007-.115.022-.116-.045-.001-.076.073-.041.112-.041.459-.003.917-.002,1.376-.002Z"/>
</svg>