<svg width="159" height="166" viewBox="0 0 159 166" fill="none" xmlns="http://www.w3.org/2000/svg">
<mask id="mask0_2842_9743" style="mask-type:luminance" maskUnits="userSpaceOnUse" x="0" y="0" width="159" height="166">
<path d="M79.5 166C123.407 166 159 128.84 159 83C159 37.1604 123.407 0 79.5 0C35.5934 0 0 37.1604 0 83C0 128.84 35.5934 166 79.5 166Z" fill="white"/>
</mask>
<g mask="url(#mask0_2842_9743)">
<path d="M40.6323 15.1499C44.4101 12.5464 48.4337 10.3928 52.703 8.78564C52.6416 9.4285 52.9487 9.8785 53.348 10.2964C57.1258 14.4106 60.9958 18.4285 64.8351 22.4785C69.1966 27.1071 73.6501 31.6392 78.1037 36.2035C78.6258 36.7499 79.0558 37.3285 79.148 38.1321C73.2201 38.1964 67.323 38.2285 61.3951 38.2928C61.303 37.2321 60.6273 36.5249 59.9516 35.8178C53.9008 29.4856 47.8194 23.1214 41.7687 16.7892C41.308 16.3071 40.663 15.9535 40.6016 15.1499H40.6323Z" fill="white"/>
<path d="M79.179 38.1319C79.0562 37.3283 78.6569 36.7497 78.1348 36.2033C73.6812 31.639 69.2276 27.1069 64.8662 22.4783C61.0269 18.4283 57.1569 14.4105 53.379 10.2962C52.9798 9.84618 52.6419 9.42832 52.734 8.78546C55.099 7.69261 57.5255 6.66403 60.1055 6.27832C59.9519 7.24261 60.6583 7.75689 61.1805 8.30332C70.149 17.689 79.1483 27.1069 88.1169 36.4926C88.5776 36.9747 89.2226 37.3605 89.2533 38.1319C85.9055 38.1319 82.5576 38.1319 79.2098 38.1319H79.179Z" fill="white"/>
<path d="M89.2247 38.1319C89.1633 37.3283 88.549 36.9747 88.0883 36.4926C79.1197 27.0747 70.1511 17.689 61.1518 8.30328C60.599 7.72471 59.9233 7.24256 60.0768 6.27828C62.2268 5.31399 64.4997 4.86399 66.7725 4.57471C66.834 5.44256 67.5404 5.82828 68.0318 6.37471C77.584 16.4033 87.1361 26.3997 96.6883 36.3961C97.1797 36.9104 97.8861 37.3283 97.9475 38.164C95.0297 38.164 92.1426 38.164 89.2247 38.164V38.1319Z" fill="white"/>
<path d="M10.4141 53.2712C11.9191 48.7712 13.9155 44.5284 16.4648 40.6069C16.4648 41.3462 17.0176 41.7319 17.4476 42.1819C23.7133 48.7712 30.0098 55.3284 36.2755 61.8855C36.9512 62.5926 37.6576 63.2355 38.6098 63.4605C38.6098 69.5355 38.6098 75.6105 38.5791 81.6855C37.6269 81.8141 37.1969 81.0748 36.6441 80.4962C28.3819 71.8819 20.1505 63.2355 11.9191 54.6212C11.4583 54.1391 10.9055 53.7212 10.4141 53.2391V53.2712Z" fill="white"/>
<path d="M10.4098 53.2714C10.9012 53.7214 11.4541 54.1393 11.9148 54.6535C20.177 63.2678 28.4084 71.9143 36.6398 80.5285C37.1927 81.075 37.6227 81.8464 38.5748 81.7178C38.5748 86.6357 38.5748 91.5535 38.5748 96.4393C37.7455 96.375 37.377 95.6357 36.8855 95.1214C27.8248 85.6714 18.7948 76.2214 9.76482 66.7393C8.96625 65.9035 8.16768 65.1 7.03125 64.8107C7.70696 60.825 8.84339 56.9678 10.4098 53.2393V53.2714Z" fill="white"/>
<path d="M40.6388 15.1499C40.7003 15.9535 41.3453 16.307 41.806 16.7892C47.8567 23.1535 53.9074 29.4856 59.9888 35.8178C60.6646 36.5249 61.3403 37.1999 61.4324 38.2928C57.501 38.9356 53.846 40.3499 50.4367 42.4392C49.7303 41.6356 49.0238 40.832 48.2867 40.0606C43.096 34.6285 37.9053 29.1963 32.7146 23.7642C32.2538 23.282 31.6088 22.9285 31.5781 22.1249C34.3424 19.457 37.3831 17.1428 40.6081 15.1499H40.6388Z" fill="white"/>
<path d="M20.8594 33.9857C22.5487 31.4465 24.4837 29.1322 26.6337 27.0107C27.4015 27.0107 27.7394 27.7179 28.2001 28.2C33.5751 33.7929 38.9194 39.3857 44.2637 44.9786C44.7858 45.4929 45.2158 46.1357 45.9222 46.425C43.7722 48.9 41.9601 51.6643 40.6394 54.7179C39.9944 54.7179 39.6565 54.2036 39.2879 53.8179C33.4215 47.7107 27.5858 41.5715 21.7194 35.4322C21.3201 35.0143 20.8594 34.6607 20.8594 33.9857Z" fill="white"/>
<path d="M20.8536 33.9854C20.8536 34.6604 21.3143 35.0139 21.7136 35.4318C27.58 41.5711 33.4158 47.6782 39.2822 53.8175C39.6815 54.2354 39.9886 54.7496 40.6336 54.7175C39.7736 57.6103 38.7908 60.4389 38.6372 63.4925C37.685 63.2675 36.9786 62.5925 36.3029 61.9175C30.0065 55.3604 23.7408 48.7711 17.475 42.2139C17.045 41.7639 16.5229 41.3782 16.4922 40.6389C17.7208 38.2604 19.1336 36.0425 20.8843 34.0175L20.8536 33.9854Z" fill="white"/>
<path d="M71.1353 160.243C67.726 160.114 64.4089 159.279 61.1532 158.314C38.486 151.661 22.1153 137.068 11.9182 114.921C8.78533 108.139 7.03461 100.843 5.77533 93.45C5.68318 92.9357 5.77533 92.3893 5.77533 91.875C6.48176 91.875 6.81961 92.4857 7.24961 92.9357C28.1968 114.857 49.1439 136.779 70.091 158.7C70.521 159.15 71.0739 159.504 71.1046 160.243H71.1353Z" fill="white"/>
<path d="M5.25 78.182C5.465 73.682 5.86429 69.182 7.03143 64.8105C8.16786 65.0677 8.96643 65.9034 9.765 66.7391C18.795 76.1891 27.825 85.6713 36.8857 95.1213C37.3771 95.6355 37.7457 96.3748 38.575 96.4391C38.575 97.2105 38.6364 97.9498 38.6364 98.7213C38.6979 103.832 39.8957 108.621 42.4757 112.961C45.4857 117.975 49.5707 121.639 54.8229 123.889C58.6621 125.528 62.655 125.946 66.74 125.946C66.8014 126.814 67.5079 127.2 67.9993 127.714C77.3364 137.518 86.6736 147.289 96.0414 157.093C96.5329 157.607 97.2393 158.025 97.27 158.893C93.0007 160.178 88.6086 160.596 84.1857 160.853C84.3086 160.018 83.8786 159.439 83.3564 158.893C57.925 132.311 32.5243 105.728 7.12357 79.1141C6.57071 78.5355 6.04857 78.1177 5.25 78.2463V78.182Z" fill="white"/>
<path d="M5.25136 78.182C6.04993 78.0535 6.60278 78.5035 7.12493 79.0499C32.5256 105.664 57.9264 132.246 83.3578 158.828C83.9106 159.407 84.3099 159.953 84.1871 160.789C79.8256 161.046 75.4335 161.014 71.1028 160.211C71.1028 159.471 70.5192 159.118 70.0892 158.668C49.1421 136.746 28.1949 114.825 7.24778 92.9035C6.81778 92.4535 6.47993 91.8749 5.7735 91.8428C5.00564 87.3106 4.94421 82.7463 5.22064 78.1499L5.25136 78.182Z" fill="white"/>
<path d="M120.121 149.089C116.313 151.693 112.32 153.879 108.02 155.421C107.59 154.907 107.191 154.329 106.699 153.846C98.345 145.104 89.9907 136.361 81.6364 127.586C81.1757 127.104 80.5307 126.718 80.5 125.914C86.4279 125.914 92.325 125.914 98.2529 125.882C98.345 126.879 98.99 127.521 99.635 128.196C105.931 134.786 112.228 141.375 118.494 147.932C118.954 148.414 119.354 149.025 120.121 149.057V149.089Z" fill="white"/>
<path d="M80.5334 125.946C80.5642 126.75 81.2092 127.136 81.6699 127.618C90.0242 136.361 98.3784 145.103 106.733 153.878C107.193 154.361 107.593 154.939 108.053 155.453C104.613 157.093 101.02 158.218 97.3034 158.925C97.3034 158.057 96.5663 157.639 96.0749 157.125C86.7377 147.321 77.3699 137.55 68.0327 127.746C67.5413 127.232 66.8349 126.846 66.7734 125.978C71.3499 125.978 75.9263 125.978 80.5334 125.978V125.946Z" fill="white"/>
<path d="M106.95 123.664C106.95 124.532 107.626 124.982 108.118 125.496C113.738 131.378 119.359 137.26 124.98 143.143C125.44 143.625 125.993 144.043 126.208 144.75C124.335 146.421 122.308 147.835 120.158 149.089C119.39 149.089 118.99 148.446 118.53 147.964C112.233 141.375 105.937 134.785 99.6712 128.228C99.0262 127.553 98.3812 126.91 98.2891 125.914C101.268 125.528 104.155 124.821 106.95 123.664Z" fill="white"/>
<path d="M80.687 171.846C52.4912 171.846 24.2955 171.846 -3.93089 171.846C-5.00589 171.846 -5.34375 171.718 -5.34375 170.464C-5.28232 111.386 -5.28232 52.307 -5.31304 -6.77158C-5.31304 -7.89658 -5.03661 -8.12158 -4.02304 -8.12158C52.4298 -8.12158 108.883 -8.12158 165.336 -8.12158C166.288 -8.12158 166.656 -8.02515 166.656 -6.83587C166.626 52.307 166.626 111.45 166.656 170.625C166.656 171.911 166.165 171.878 165.274 171.878C137.078 171.878 108.883 171.878 80.6562 171.878L80.687 171.846ZM133.116 138.482C134.867 136.907 136.372 135.139 137.785 133.243C140.334 130.35 142.515 127.168 144.45 123.793C146.907 119.807 148.996 115.628 150.531 111.161C151.576 108.653 152.558 106.146 152.958 103.446C153.787 101.196 154.34 98.8498 154.586 96.4391C155.845 90.2998 156.213 84.0963 155.783 77.8284C155.599 74.0677 155.292 70.307 154.493 66.6427C148.166 37.4891 131.581 17.6891 104.798 7.30699C100.467 5.63556 95.9212 4.70342 91.3755 3.96413C89.1334 3.61056 86.8605 3.09628 84.557 3.54628C83.0213 3.38556 81.4855 3.25699 79.9805 3.22485C75.5577 3.09628 71.1348 3.48199 66.8041 4.57485C64.5005 4.86413 62.2277 5.31413 60.1084 6.27842C57.5284 6.66413 55.102 7.69271 52.737 8.78556C48.4677 10.3927 44.4441 12.5463 40.6663 15.1498C37.4105 17.1427 34.4005 19.4248 31.6362 22.1248C29.8241 23.5713 28.1348 25.1784 26.6605 27.0106C24.5105 29.132 22.5755 31.4463 20.8862 33.9856C19.1662 36.0106 17.7227 38.2284 16.4941 40.607C13.9448 44.5606 11.9484 48.8034 10.4434 53.2713C8.84625 56.9677 7.74054 60.8249 7.06482 64.8427C5.89768 69.2141 5.49839 73.682 5.28339 78.2141C5.03768 82.7784 5.09911 87.3749 5.83625 91.907C5.83625 92.4213 5.74411 92.9677 5.83625 93.482C7.06482 100.907 8.84625 108.171 11.9791 114.953C22.1763 137.1 38.5163 151.693 61.2141 158.346C64.4698 159.311 67.787 160.146 71.1962 160.275C75.527 161.078 79.8884 161.143 84.2805 160.853C88.7034 160.628 93.0955 160.211 97.3648 158.893C101.081 158.186 104.675 157.093 108.115 155.421C112.415 153.878 116.438 151.693 120.216 149.089C122.366 147.836 124.393 146.421 126.267 144.75C128.724 142.853 131.089 140.828 133.178 138.482H133.116Z" fill="white"/>
<path d="M84.5547 3.54651C86.8583 3.09651 89.1311 3.61079 91.3733 3.96436C95.919 4.70365 100.434 5.63579 104.795 7.30722C131.609 17.6894 148.164 37.4894 154.491 66.6429C155.29 70.3072 155.597 74.0679 155.781 77.8287C154.798 77.8287 154.153 77.1858 153.508 76.5108C130.964 52.9179 108.42 29.3251 85.8754 5.73222C85.2918 5.1215 84.6775 4.47865 84.5854 3.54651H84.5547Z" fill="white"/>
<path d="M84.5581 3.54634C84.6809 4.47849 85.2645 5.0892 85.8481 5.73206C108.392 29.3249 130.937 52.9178 153.481 76.5106C154.126 77.1856 154.74 77.8285 155.754 77.8285C156.184 84.0963 155.815 90.2999 154.556 96.4392C153.727 96.3749 153.358 95.6678 152.867 95.1535C143.284 85.1571 133.732 75.1285 124.18 65.1321C123.688 64.6178 123.32 63.8785 122.49 63.8142C122.06 61.2428 121.876 58.6392 120.955 56.1642C116.808 45.2678 109.068 39.3856 98.0109 38.1642C97.9495 37.2963 97.2431 36.9106 96.7517 36.3963C87.1995 26.3678 77.6474 16.3713 68.0952 6.37492C67.6038 5.86063 66.8974 5.47492 66.8359 4.57492C71.1667 3.48206 75.5895 3.09634 80.0124 3.22491C81.5174 3.25706 83.0838 3.38563 84.5888 3.54634H84.5581Z" fill="white"/>
<path d="M150.532 111.161C148.996 115.629 146.907 119.807 144.45 123.793C143.498 123.632 142.884 122.957 142.27 122.282C136.219 115.95 130.137 109.586 124.087 103.254C123.595 102.739 123.196 102.032 122.336 102.032C122.397 95.8286 122.428 89.6572 122.49 83.4536C123.442 83.5822 124.056 84.2893 124.701 84.9322C132.687 93.2893 140.642 101.614 148.627 109.971C149.18 110.55 149.61 111.289 150.562 111.161H150.532Z" fill="white"/>
<path d="M122.337 102.032C123.166 102.032 123.566 102.739 124.088 103.254C130.169 109.586 136.22 115.95 142.271 122.282C142.916 122.957 143.499 123.632 144.451 123.793C142.547 127.168 140.366 130.35 137.786 133.243C137.019 133.243 136.65 132.536 136.22 132.054C130.261 125.882 124.303 119.679 118.375 113.507C120.371 109.939 121.723 106.114 122.337 102V102.032Z" fill="white"/>
<path d="M150.534 111.161C149.582 111.289 149.152 110.518 148.599 109.971C140.613 101.646 132.658 93.2893 124.672 84.9322C124.027 84.2572 123.444 83.5822 122.461 83.4536C122.461 79.95 122.461 76.4464 122.461 72.9429C123.229 73.0072 123.567 73.65 124.027 74.1322C133.027 83.5179 141.995 92.9357 150.964 102.321C151.517 102.9 151.977 103.607 152.899 103.446C152.5 106.146 151.517 108.686 150.472 111.161H150.534Z" fill="white"/>
<path d="M152.93 103.446C152.009 103.607 151.517 102.868 150.995 102.321C142.026 92.9354 133.027 83.5175 124.059 74.1318C123.598 73.6497 123.229 72.9747 122.492 72.9425V63.814C123.291 63.8783 123.69 64.6175 124.181 65.1318C133.764 75.1283 143.316 85.1568 152.869 95.1533C153.36 95.6675 153.729 96.4068 154.558 96.439C154.312 98.8497 153.759 101.196 152.93 103.446Z" fill="white"/>
<path d="M133.114 138.482C131.025 140.828 128.66 142.853 126.203 144.75C125.988 144.043 125.435 143.625 124.975 143.143C119.354 137.261 113.733 131.378 108.112 125.496C107.621 124.982 106.976 124.532 106.945 123.664C109.648 122.314 112.075 120.546 114.347 118.521C114.532 118.65 114.747 118.746 114.9 118.907C120.767 125.046 126.633 131.153 132.469 137.293C132.776 137.614 133.145 137.936 133.114 138.45V138.482Z" fill="white"/>
<path d="M133.118 138.482C133.118 137.935 132.78 137.646 132.473 137.325C126.607 131.185 120.771 125.078 114.904 118.939C114.751 118.778 114.536 118.682 114.352 118.553C115.672 116.882 117.024 115.21 118.344 113.539C124.303 119.743 130.231 125.914 136.189 132.085C136.65 132.568 136.988 133.243 137.756 133.275C136.374 135.171 134.838 136.939 133.087 138.514L133.118 138.482Z" fill="white"/>
<path d="M45.9214 46.425C45.215 46.1357 44.785 45.525 44.2628 44.9786C38.9185 39.3857 33.5742 33.7929 28.1992 28.2C27.7385 27.7179 27.4007 27.0429 26.6328 27.0107C28.1071 25.1786 29.7964 23.6036 31.6085 22.125C31.6085 22.9286 32.2842 23.3143 32.745 23.7643C37.9357 29.1964 43.1264 34.6286 48.3171 40.0607C49.0542 40.8321 49.7607 41.6357 50.4671 42.4393C48.9621 43.7571 47.4571 45.075 45.9214 46.3929V46.425Z" fill="white"/>
<path d="M31.2872 31.9469C33.4051 30.041 35.5231 28.1351 37.6842 26.2291C42.482 23.1611 47.6256 21.1622 53.1582 20.2324C61.5004 20.1395 69.7993 20.093 78.1414 20C82.8527 20 87.5641 20 92.2755 20C96.3817 20 100.445 20 104.551 20C120.111 21.813 131.004 30.2734 136.839 46.0322C138.136 49.5652 138.438 53.377 139 57.0959C139 61.5121 139 65.8818 139 70.2979C139 75.3649 139 80.4319 139 85.4989C138.914 94.4707 138.87 103.396 138.784 112.368C137.876 118.272 136.018 123.803 133.208 129.01C131.349 131.427 129.448 133.844 127.589 136.262C124.39 139.19 120.933 141.701 117.172 143.699C113.239 145.373 109.176 146.396 104.983 146.953C96.641 146.953 88.3421 146.954 80 147C73.5597 147 67.1194 147 60.6359 147C54.8872 147 49.2681 146.396 43.8652 144.025C36.474 140.771 30.7253 135.471 26.4894 128.22C22.8154 121.944 21.1297 115.018 21.0864 107.626C21.0864 106.511 21.0432 105.441 21 104.326C21 97.2134 21 90.101 21 83.0351C21 74.2493 21 65.4634 21.0432 56.6775C21.2593 52.2614 22.6425 48.1241 23.8527 43.9868C25.7546 39.5706 28.2615 35.6193 31.2872 31.9934V31.9469ZM104.508 34.4107C101.352 34.1318 98.1971 34.2247 95.085 34.3177C84.4088 34.3177 73.7326 34.3177 63.0132 34.3177C58.1722 34.1783 53.3311 33.7599 48.7927 36.1772C45.4645 37.4323 42.6549 39.4777 40.4073 42.4063C36.7766 46.2646 34.9179 51.0527 34.356 56.4451C33.967 64.4407 34.1832 72.4363 34.2696 80.3854C34.2696 86.661 34.2696 92.8902 34.2696 99.1658C34.2696 102.187 34.1399 105.255 34.2264 108.277C34.3993 119.341 41.2286 128.731 51.1267 131.799C55.8381 133.24 60.6359 132.682 65.3905 132.636C72.3062 132.636 79.222 132.636 86.1377 132.636C92.1026 132.636 98.1106 132.636 104.075 132.636C109.522 132.31 114.276 130.219 118.21 126.081C120.846 123.803 122.662 120.921 123.829 117.528C124.65 115.994 125.082 114.274 125.341 112.554C126.206 106.975 125.73 101.351 125.73 95.7258C125.73 86.6146 125.73 77.4568 125.73 68.3455C125.73 64.952 125.73 61.5586 125.73 58.2116C125.601 47.5663 117.777 35.7588 104.594 34.5037L104.508 34.4107Z" fill="black"/>
<path d="M101.937 79.9496C102.643 79.9496 102.981 80.5282 103.411 80.9461C106.114 83.7746 108.817 86.6032 111.52 89.3996C111.95 89.8496 112.287 90.4282 112.963 90.4603C112.963 94.3496 113.301 98.2389 112.687 102.096C112.502 103.285 112.226 104.475 111.612 105.535C110.905 105.632 110.475 105.214 110.045 104.732C108.909 103.51 107.742 102.353 106.636 101.132C104.179 98.4318 101.445 96.0211 99.2031 93.0961C101.23 88.9496 102.182 84.5782 101.937 79.9175V79.9496Z" fill="white"/>
<path d="M107.653 111.482C104.858 114.343 101.51 115.821 97.6095 116.014C97.5788 115.275 96.9953 114.921 96.596 114.503C93.7088 111.45 90.791 108.428 87.9038 105.407C87.4124 104.893 86.7674 104.443 86.8903 103.543C89.9617 102.45 92.6645 100.682 95.1524 98.5283C99.5138 102.643 103.599 107.078 107.653 111.514V111.482Z" fill="white"/>
<path d="M68.4606 48.0639C76.047 48.0639 83.6334 48.0639 91.2506 48.0639C91.1277 48.8675 91.6498 49.3175 92.1413 49.8317C94.5677 52.3389 96.9941 54.8782 99.4206 57.3853C99.267 60.7282 100.618 62.1103 103.997 62.0782C103.936 62.721 104.212 63.171 104.642 63.5889C106.946 65.9996 109.28 68.4103 111.553 70.821C111.952 71.2389 112.382 71.5603 112.996 71.496C112.996 77.796 112.996 84.1282 112.996 90.4282C112.29 90.4282 111.952 89.8175 111.553 89.3675C108.85 86.5389 106.147 83.7103 103.444 80.9139C103.014 80.4639 102.676 79.8853 101.97 79.9175C101.878 79.6603 101.693 79.4032 101.663 79.1139C101.171 73.746 98.837 69.3746 95.182 65.7103C90.4213 60.9853 84.6777 59.1853 78.197 59.6032C78.197 58.7996 77.5827 58.4139 77.122 57.9317C74.5727 55.2639 72.0234 52.596 69.4741 49.9282C68.9827 49.4139 68.3377 48.9317 68.4606 48.0317V48.0639Z" fill="white"/>
<path d="M48.0391 92.9354C48.0391 88.5961 48.0391 84.289 48.0391 79.9497C48.8069 79.9818 49.1755 80.6569 49.6362 81.139C52.9533 84.5783 56.2398 88.0497 59.5569 91.489C60.1098 92.0676 60.6012 92.7426 61.5226 92.5497C64.5326 97.7247 68.5255 101.678 74.1769 103.51C74.0541 104.41 74.6991 104.86 75.1905 105.375C78.0776 108.428 80.9955 111.45 83.8826 114.503C84.3126 114.953 84.8655 115.307 84.8962 116.046C79.9819 116.046 75.0676 116.046 70.1533 116.046C70.2455 115.243 69.7541 114.76 69.2626 114.278C62.7512 107.464 56.2398 100.682 49.7591 93.8676C49.2676 93.3533 48.8376 92.839 48.0698 92.9354H48.0391Z" fill="white"/>
<path d="M48.0351 92.9355C48.8029 92.839 49.2637 93.3533 49.7244 93.8676C56.2358 100.682 62.7165 107.496 69.2279 114.278C69.7194 114.793 70.2108 115.243 70.1187 116.046C66.7401 116.046 63.3308 116.464 59.9829 115.468C52.9494 113.378 48.1272 106.853 47.9737 99.2033C47.9429 97.114 47.9737 94.9926 48.0044 92.9033L48.0351 92.9355Z" fill="white"/>
<path d="M61.488 92.5496C60.5666 92.7424 60.0752 92.0674 59.5223 91.4889C56.2359 88.0174 52.9187 84.5781 49.6016 81.1389C49.1409 80.6567 48.7723 80.0139 48.0044 79.9496C47.943 74.421 47.7894 68.8924 48.0659 63.396C48.7416 63.621 49.1409 64.1996 49.6016 64.6817C52.5502 67.7674 55.468 70.8531 58.4473 73.9067C58.908 74.3889 59.2766 75.0317 60.0444 75.0639C58.4166 81.0746 58.8466 86.9246 61.4573 92.5817L61.488 92.5496Z" fill="white"/>
<path d="M60.0723 75.0317C59.3045 75.0317 58.9359 74.3567 58.4752 73.8746C55.5266 70.821 52.578 67.7353 49.6295 64.6496C49.1688 64.1675 48.7695 63.5889 48.0938 63.3639C48.493 59.6353 49.8138 56.3246 52.3938 53.6567C56.0795 57.4496 59.7652 61.2746 63.4509 65.0675C63.9423 65.5817 64.3416 66.2889 65.2016 66.321C63.0516 68.9567 61.178 71.7532 60.0723 75.0639V75.0317Z" fill="white"/>
<path d="M86.8867 103.511C86.7638 104.411 87.4088 104.861 87.9002 105.375C90.7874 108.428 93.7052 111.45 96.5924 114.471C97.0224 114.921 97.5752 115.275 97.606 115.982C93.3674 115.982 89.0981 115.982 84.8595 115.982C84.8595 115.243 84.276 114.889 83.846 114.439C80.9588 111.386 78.041 108.364 75.1538 105.311C74.6624 104.796 74.0174 104.346 74.1403 103.446C78.3788 104.7 82.6481 104.7 86.8867 103.446V103.511Z" fill="white"/>
<path d="M68.4571 48.064C68.3342 48.964 68.9485 49.414 69.4707 49.9604C72.02 52.6283 74.5692 55.2961 77.1185 57.964C77.5792 58.4461 78.1935 58.8318 78.1935 59.6354C75.2757 60.214 72.45 61.0497 69.8392 62.5283C69.8392 61.7247 69.2557 61.3069 68.795 60.8247C65.8157 57.6747 62.8057 54.5569 59.8264 51.439C59.2121 50.8283 58.69 50.1854 58.3828 49.3497C61.6078 47.7104 65.0478 47.9676 68.4878 48.064H68.4571Z" fill="white"/>
<path d="M58.3565 49.3495C58.6636 50.1852 59.2165 50.8281 59.8 51.4388C62.81 54.5567 65.7893 57.7067 68.7686 60.8245C69.2293 61.3067 69.8129 61.7567 69.8129 62.5281C68.2772 63.7817 66.7108 65.0352 65.175 66.2888C64.3458 66.2888 63.9465 65.5495 63.4243 65.0352C59.7386 61.2424 56.0529 57.4495 52.3672 53.6245C53.9643 51.5674 55.9608 50.1852 58.3258 49.3174L58.3565 49.3495Z" fill="white"/>
<path d="M107.649 111.482C103.595 107.046 99.5406 102.611 95.1484 98.4963C96.6534 96.8248 97.9742 95.0248 99.2027 93.1284C101.445 96.0534 104.178 98.4641 106.636 101.164C107.741 102.386 108.908 103.543 110.045 104.764C110.475 105.246 110.936 105.664 111.611 105.568C110.782 107.914 109.461 109.907 107.618 111.482H107.649Z" fill="white"/>
<path d="M97.9448 48.1284C107.313 48.9963 112.872 57.1606 112.964 64.5213C112.012 64.6498 111.613 63.8463 111.029 63.332C109.493 62.0141 108.51 60.0534 106.575 59.2498C106.575 56.0034 105.408 54.7177 102.275 54.6213C102.46 53.5606 101.723 53.0141 101.17 52.2748C100.095 50.8927 98.2826 50.1213 97.9141 48.1284H97.9448Z" fill="white"/>
<path d="M106.604 59.2495C108.539 60.0852 109.521 62.0138 111.057 63.3317C111.641 63.8459 112.04 64.6495 112.992 64.5209C112.992 66.8674 112.992 69.2138 112.992 71.5281C112.378 71.5924 111.948 71.2709 111.549 70.8531C109.245 68.4424 106.941 65.9995 104.638 63.6209C104.208 63.2031 103.931 62.7209 103.993 62.1102C105.252 61.5638 106.112 60.5674 106.604 59.2495Z" fill="white"/>
<path d="M97.9486 48.1283C98.2864 50.1533 100.129 50.8926 101.204 52.2748C101.757 52.9819 102.494 53.5283 102.31 54.6212C100.928 55.0712 99.8836 55.9069 99.4229 57.4176C96.9964 54.9105 94.57 52.3712 92.1436 49.8641C91.6829 49.3819 91.1607 48.8998 91.2529 48.0962C93.495 47.9998 95.7371 47.9355 97.9486 48.1605V48.1283Z" fill="white"/>
<path d="M103.604 96.375C102.116 98.6571 100.478 100.823 98.6915 102.835C95.6768 105.426 92.4016 107.553 88.6797 108.869C83.5435 110.377 78.3701 110.377 73.234 108.869C66.3858 106.664 61.5473 101.906 57.8999 95.6787C54.6991 88.871 54.1781 81.8699 56.1879 74.5981C57.4905 70.6141 59.7981 67.2489 62.4034 64.0771C64.2643 62.5686 66.1624 61.0601 68.0234 59.5516C71.187 57.7723 74.6111 56.7666 78.1468 56.0704C85.9627 55.5675 92.9598 57.7336 98.7287 63.4196C103.158 67.7904 105.986 73.0896 106.582 79.5491C106.582 79.8586 106.805 80.168 106.954 80.5161C107.252 86.1247 106.098 91.3852 103.642 96.375H103.604ZM95.9373 87.6719C97.7983 81.4445 96.3467 75.9906 92.0294 71.5037C87.712 67.0168 82.4642 65.5083 76.472 67.4423C73.6806 68.1772 71.3358 69.6471 69.5121 71.9292C66.1624 75.5264 64.7854 79.7812 65.3809 84.7323C65.8647 92.2749 72.043 98.6571 79.2634 99.1599C83.7668 99.7788 87.7492 98.5024 91.0989 95.3306C93.5553 93.3579 95.1557 90.805 95.9001 87.6719H95.9373Z" fill="black"/>
<path d="M99.4257 57.3858C99.8865 55.9072 100.931 55.0394 102.313 54.5894C105.446 54.6858 106.613 55.9715 106.613 59.2179C106.091 60.5358 105.261 61.5001 104.002 62.0786C100.624 62.0786 99.2722 60.7286 99.4257 57.3858Z" fill="#711DB0"/>
<path d="M67.6912 83.4855C67.1998 79.3712 68.3055 75.8033 71.1005 72.8462C71.3769 73.6498 72.1755 73.8105 72.6669 74.3569C77.7041 79.6605 82.7412 84.9319 87.7783 90.2033C88.3312 90.7819 88.7919 91.4248 88.8841 92.2926C86.0891 94.9283 82.8333 95.989 79.1169 95.4748C79.2091 94.864 78.8098 94.5105 78.4719 94.1569C75.3083 90.8462 72.1141 87.5033 68.9505 84.1926C68.5819 83.8069 68.2441 83.4212 67.6912 83.5176V83.4855Z" fill="white"/>
<path d="M88.9164 92.2927C88.8242 91.4248 88.3635 90.782 87.8107 90.2034C82.7735 84.932 77.7057 79.6605 72.6992 74.357C72.2078 73.8105 71.3785 73.6498 71.1328 72.8462C72.6378 70.9177 74.5728 69.6962 76.8764 69.1177C76.8764 69.7284 77.2757 70.0498 77.6442 70.4034C82.3128 75.3212 87.0121 80.207 91.7114 85.1248C92.0492 85.4784 92.3871 85.9284 92.94 85.9284C92.3257 88.532 91.005 90.6534 88.9778 92.2927H88.9164Z" fill="white"/>
<path d="M92.8761 85.8961C92.2925 85.8961 91.9854 85.4461 91.6475 85.0925C86.9482 80.2068 82.2796 75.289 77.5804 70.3711C77.2425 70.0175 76.8125 69.664 76.8125 69.0854C81.7575 67.4782 86.0882 68.7318 89.6511 72.4604C93.2139 76.189 94.4118 80.7211 92.8761 85.8961Z" fill="white"/>
<path d="M67.6948 83.4853C68.2783 83.3888 68.6162 83.8067 68.9541 84.1603C72.1176 87.471 75.3119 90.8138 78.4755 94.1246C78.8441 94.5103 79.2126 94.8638 79.1205 95.4424C73.1619 95.0246 68.0941 89.721 67.6641 83.4531L67.6948 83.4853Z" fill="white"/>
</g>
</svg>
