<?xml version="1.0" encoding="UTF-8"?>
<svg id="Layer_1" data-name="Layer 1" xmlns="http://www.w3.org/2000/svg" viewBox="0 0 47.76 47.76">
  <defs>
    <style>
      .cls-1, .cls-2, .cls-3 {
        stroke-width: 0px;
      }

      .cls-2 {
        fill: #fff;
      }

      .cls-3 {
        fill: #711db0;
      }
    </style>
  </defs>
  <path class="cls-2" d="m47.76,46.09v1.68c-15.92,0-31.84,0-47.76,0V0h47.76v37.15c-.02-.06-.06-.11-.07-.17-.38-2.2-1.58-3.77-3.69-4.51-1.72-.6-3.5-1.04-5.25-1.57-.19-.06-.4-.22-.48-.4-.13-.27.11-.4.33-.51,1.57-.84,2.68-2.08,3.3-3.75.11-.3.25-.4.57-.39.68.02,1.29-.23,1.58-.86.42-.93.46-1.93-.03-2.82-.24-.44-.32-.84-.32-1.3,0-.26-.01-.53-.02-.79-.12-3.04-2.35-5.79-5.28-6.6-1.45-.4-2.93-.31-4.39-.25-2.82.12-4.89,1.5-6.24,3.97-.68,1.25-.84,2.61-.79,4.01,0,.18.04.43-.06.54-.6.62-.56,1.38-.55,2.14.01,1.26.65,1.93,1.91,1.96.26,0,.38.08.47.32.6,1.68,1.7,2.94,3.26,3.78.25.14.37.31.28.55-.07.17-.25.35-.42.4-1.56.47-3.14.87-4.68,1.38-.74.24-1.48.59-2.09,1.06-.63.48-1.11,1.17-1.66,1.77-.29-.33-.63-.72-.99-1.13.61-.2,1.19-.37,1.76-.58.95-.36,1.53-1.26,1.46-2.26-.14-1.98-.46-3.94-1.01-5.86-.86-3-1.95-5.89-3.99-8.32-1.27-1.51-2.77-2.69-4.63-3.41-.29-.11-.57-.31-.79-.53-1.29-1.35-3.47-1.35-4.74,0-.21.23-.51.38-.79.54-.92.53-1.91.97-2.76,1.6-1.89,1.41-3.19,3.33-4.16,5.45C1.28,23.93.38,27.4.1,31.02c-.09,1.19.49,2.08,1.62,2.46.52.18,1.04.34,1.62.52-1.29,1.16-1.9,2.55-1.89,4.21,0,2.45,0,4.9,0,7.36,0,.77.22.98,1.01.98,14.76,0,29.51,0,44.27,0,.43,0,.79-.08,1.04-.46ZM20.83,1.3c-1.87,0-3.7,1.34-4.26,3.11-.56,1.77-.14,3.38.83,4.86,1.51,2.31,3.77,3.68,6.22,4.77.18.08.45.07.62,0,2.2-.96,4.2-2.2,5.74-4.09,1.01-1.24,1.63-2.66,1.54-4.28-.1-1.82-1.01-3.18-2.68-3.94-1.61-.74-3.17-.54-4.61.52-.25.18-.41.17-.64-.01-.81-.64-1.75-.9-2.77-.93Z"/>
  <path class="cls-1" d="m47.76,46.09c-.24.38-.61.46-1.04.46-14.76,0-29.51,0-44.27,0-.78,0-1.01-.21-1.01-.98,0-2.45,0-4.9,0-7.36,0-1.66.6-3.05,1.89-4.21-.57-.18-1.1-.34-1.62-.52-1.13-.39-1.72-1.28-1.62-2.46.28-3.62,1.18-7.09,2.69-10.38.98-2.13,2.27-4.04,4.16-5.45.85-.63,1.84-1.07,2.76-1.6.27-.16.57-.31.79-.54,1.28-1.35,3.45-1.35,4.74,0,.22.22.5.42.79.53,1.86.71,3.37,1.9,4.63,3.41,2.04,2.43,3.13,5.32,3.99,8.32.55,1.91.86,3.87,1.01,5.86.07,1-.5,1.9-1.46,2.26-.56.21-1.14.38-1.76.58.36.41.7.8.99,1.13.55-.6,1.02-1.29,1.66-1.77.61-.47,1.36-.81,2.09-1.06,1.54-.51,3.12-.91,4.68-1.38.17-.05.35-.23.42-.4.1-.23-.02-.41-.28-.55-1.56-.85-2.66-2.11-3.26-3.78-.09-.25-.21-.32-.47-.32-1.26-.03-1.9-.7-1.91-1.96,0-.76-.05-1.52.55-2.14.1-.1.07-.35.06-.54-.05-1.4.11-2.76.79-4.01,1.34-2.47,3.41-3.86,6.24-3.97,1.46-.06,2.94-.15,4.39.25,2.94.8,5.16,3.56,5.28,6.6.01.26.02.53.02.79,0,.46.08.86.32,1.3.49.89.45,1.89.03,2.82-.29.64-.9.88-1.58.86-.32,0-.46.1-.57.39-.62,1.67-1.73,2.92-3.3,3.75-.22.11-.46.24-.33.51.09.17.3.34.48.4,1.75.53,3.53.97,5.25,1.57,2.11.74,3.31,2.31,3.69,4.51.01.06.04.11.07.17v8.94Zm-41.61-.96h13.38c.01-.08.03-.14.03-.2,0-2.06,0-4.13,0-6.19,0-.13-.03-.29-.11-.39-.74-.9-1.69-1.33-2.85-1.26-.97.06-1.73.54-2.37,1.24-.43.47-.97.65-1.59.59-.62-.06-1.02-.47-1.44-.87-1.03-1-2.44-1.26-3.73-.65-.81.39-1.51.9-1.33,1.98.03.18.06.41-.03.55-.15.22-.37.51-.59.53-.22.02-.64-.22-.67-.4-.16-.9-.28-1.82.35-2.62,1.72-2.19,5.08-2.36,7.03-.36.62.63.65.63,1.28-.01,1.86-1.89,4.98-1.84,6.79.1.46.49.68,1.04.67,1.72-.02,1.89,0,3.79,0,5.68,0,.18,0,.36,0,.56h1.9c.01-.09.02-.15.02-.21,0-2.33.02-4.66,0-6.98-.02-1.59-1-2.97-2.54-3.49-1.43-.49-2.89-.92-4.37-1.28-.93-.22-1.62-.58-1.79-1.56h-2.74c-.15.73-.55,1.25-1.34,1.47-1.52.41-3.05.84-4.56,1.3-1.57.48-2.65,1.84-2.69,3.48-.05,2.36-.02,4.72-.02,7.08,0,.06.02.12.03.19h1.87c0-.65,0-1.27,0-1.89,0-.54.29-.86.71-.86.42,0,.68.33.68.88,0,.62,0,1.23,0,1.88Zm22.14,0h13.97c0-2.13,0-4.22,0-6.32,0-.18-.04-.42.06-.54.17-.21.41-.44.65-.48.33-.06.58.18.66.53.04.15.03.31.03.46,0,1.96,0,3.91,0,5.87,0,.16,0,.33,0,.49h2.66c.02-.07.04-.11.04-.16,0-2.44.04-4.87-.01-7.31-.03-1.63-.8-2.94-2.27-3.63-1.07-.5-2.26-.75-3.39-1.11-.01,0-.04.04-.06.07.28.5.54,1.01.85,1.49.32.5.27.94-.05,1.42-1.8,2.77-3.59,5.55-5.38,8.32-.44.68-.96.68-1.4-.01-1.79-2.76-3.56-5.53-5.36-8.28-.34-.52-.37-.98-.04-1.51.3-.47.56-.97.89-1.56-.91.27-1.7.5-2.48.73-2.18.64-3.34,2.19-3.34,4.46,0,2.19,0,4.38,0,6.56,0,.16,0,.33,0,.51h2.6c0-.66,0-1.29,0-1.92,0-.51.27-.83.68-.84.43,0,.71.32.71.85,0,.62,0,1.24,0,1.9Zm12.64-23.64c-.15.04-.27.06-.39.09-1.17.32-2.36.45-3.54.22-1.18-.24-2.33-.62-3.51-.88-.99-.22-2-.37-3-.54-.47-.08-.69.17-.7.61-.02,1.24-.13,2.48,0,3.71.23,2.22,2.1,4.13,4.33,4.62,2.25.49,4.66-.53,5.91-2.43,1.09-1.67.93-3.51.89-5.39Zm1.32-.94c.14-2.58-1.76-5.16-4.33-5.7-1.22-.26-2.53-.25-3.79-.21-2.5.07-4.27,1.33-5.3,3.59-.33.72-.49,1.5-.41,2.3.08-.18.15-.37.19-.57.11-.54.41-.87.98-.89.72-.02,1.47-.15,2.17,0,1.42.29,2.81.73,4.22,1.1,1.66.44,3.3.51,4.91-.24.74-.35,1.04-.23,1.37.62Zm-27.4,3.28c-.65-.2-1.33-.36-1.98-.61-1.32-.5-2.46-1.3-3.55-2.18-.43-.34-.55-.3-.69.21-.14.51-.26,1.02-.42,1.52-.08.24-.19.55-.38.66-.4.24-.42.56-.39.94,0,.15,0,.31,0,.47.03,2.52,1.75,4.68,4.19,5.27,2.41.58,4.9-.57,6.07-2.81.57-1.09.67-2.26.58-3.46h-2.07c0,.38,0,.73,0,1.08-.01.48-.28.77-.69.77-.41,0-.69-.28-.7-.77-.01-.37.03-.74.05-1.11Zm4.52-1.41c-.21-2.38-1.24-4.22-3.27-5.37-2.34-1.33-4.71-1.23-6.94.29-1.75,1.19-2.66,2.91-2.8,5.04.49.05.49.05.59-.3.14-.49.24-1,.4-1.48.39-1.17,1.63-1.55,2.62-.82.3.22.58.46.88.68,1.12.82,2.3,1.57,3.68,1.8.91.15,1.85.12,2.78.15.66.02,1.33,0,2.04,0Zm-3.11-7.22s-.08.07-.13.11c.12.11.23.25.37.33,2.31,1.29,3.73,3.22,4.16,5.84.1.61.05,1.24.62,1.71.21.17.24.59.29.9.05.29.01.59.01.88,0,1.17-.63,1.83-1.79,1.86-.32,0-.46.12-.57.4-.63,1.67-1.77,2.89-3.34,3.72-.13.07-.29.27-.27.39.02.13.2.3.34.35,1.47.43,2.95.85,4.42,1.26.16.04.34.09.49.05.92-.28,1.84-.56,2.74-.87.49-.17.67-.48.62-1.01-.01-.14-.03-.28-.04-.42-.37-3.95-1.41-7.71-3.42-11.15-1.09-1.87-2.55-3.39-4.51-4.36Zm-6.67.12s-.07-.08-.1-.12c-.14.07-.28.13-.41.2-2.23,1.25-3.72,3.16-4.82,5.4-1.58,3.22-2.48,6.64-2.77,10.22-.06.67.13.97.78,1.18.81.26,1.62.52,2.44.76.19.06.43.06.62,0,1.34-.38,2.68-.77,4.02-1.17.26-.08.62,0,.69-.42.07-.45-.32-.48-.56-.62-1.38-.8-2.37-1.94-2.95-3.42-.14-.35-.29-.5-.69-.51-1.03-.02-1.66-.69-1.69-1.71,0-.34,0-.68,0-1.02,0-.49.2-.89.53-1.25.14-.15.26-.38.28-.59.25-2.99,1.69-5.19,4.31-6.64.12-.07.21-.2.32-.3Zm23.46,23.89s.04-.02.07-.03c-.57-1.87-1.13-3.73-1.74-5.71-.33.58-.61,1.06-.87,1.55-.04.07-.03.21.02.29.83,1.3,1.68,2.6,2.52,3.9Zm6.21-5.74c-.59,1.95-1.14,3.76-1.69,5.57.92-1.22,1.74-2.48,2.54-3.74.05-.08.04-.24,0-.33-.25-.46-.51-.92-.84-1.5ZM11.02,14.92c.64-.05,1.25-.14,1.86-.14.61,0,1.21.09,1.82.13-.08-.75-.86-1.44-1.78-1.48-.86-.04-1.64.57-1.9,1.49Zm24.31,26.5c.87-1.35.38-2.81.2-4.25,0-.07-.14-.15-.22-.17-.05,0-.16.09-.18.16-.05.21-.06.43-.1.64-.23,1.24-.38,2.48.29,3.62Zm1.51-10.67h-3.13c-.06.19-.14.44-.22.72,1.21.38,2.39.4,3.6.02-.09-.27-.17-.51-.24-.74Zm-3.64,3.83c.52-.48,1.01-.92,1.53-1.4-.72-.15-1.37-.29-2.09-.43.19.63.36,1.2.56,1.84Zm4.84-1.84c-.73.16-1.38.3-2.09.45.54.49,1.02.92,1.53,1.39.19-.64.36-1.19.56-1.84Zm4.34-8.29c.34.05.52-.06.53-.4,0-.31.02-.62,0-.92-.02-.33-.14-.39-.53-.34v1.66Zm-14.08-1.7c-.45.02-.51.08-.53.48-.06,1.07-.02,1.17.43,1.24.02,0,.05-.02.1-.04v-1.68Zm7.05,11.66c-.25.35-.52.58-.57.84-.04.23.24.36.53.35.29,0,.61-.05.58-.34-.03-.26-.31-.5-.54-.85ZM6.03,23.84s-.08-.06-.13-.09c-.11.14-.29.26-.32.42-.05.3-.03.62,0,.93.02.3.09.33.45.26v-1.52Zm13.7,1.57c.49-.03.49-.03.47-1.06,0-.3-.02-.57-.47-.5v1.56Z"/>
  <path class="cls-1" d="m20.83,1.3c1.02.03,1.96.28,2.77.93.23.19.39.19.64.01,1.43-1.05,2.99-1.25,4.61-.52,1.66.76,2.58,2.12,2.68,3.94.09,1.62-.53,3.04-1.54,4.28-1.53,1.89-3.54,3.13-5.74,4.09-.18.08-.45.08-.62,0-2.46-1.09-4.71-2.46-6.22-4.77-.97-1.48-1.39-3.09-.83-4.86.56-1.77,2.4-3.12,4.26-3.11Zm9.31,3.99c0-1.34-1.69-2.8-3.62-2.54-.79.11-1.42.49-1.96,1.06-.46.49-.79.48-1.27.02-.08-.07-.15-.15-.23-.23-1.62-1.62-4.49-.93-5.18,1.26-.43,1.37-.04,2.61.73,3.74,1.28,1.87,3.13,3.01,5.12,3.97.1.05.28.04.38,0,1.76-.84,3.4-1.86,4.67-3.38.8-.95,1.31-2.03,1.34-3.9Z"/>
  <path class="cls-2" d="m6.16,45.12c0-.65,0-1.26,0-1.88,0-.55-.26-.87-.68-.88-.42,0-.7.32-.71.86-.01.62,0,1.24,0,1.89h-1.87c-.01-.07-.03-.13-.03-.19,0-2.36-.03-4.72.02-7.08.04-1.64,1.12-3,2.69-3.48,1.51-.46,3.03-.89,4.56-1.3.78-.21,1.19-.74,1.34-1.47h2.74c.17.98.86,1.33,1.79,1.56,1.47.35,2.93.79,4.37,1.28,1.55.53,2.53,1.9,2.54,3.49.03,2.33,0,4.66,0,6.98,0,.06-.01.12-.02.21h-1.9c0-.2,0-.38,0-.56,0-1.89-.01-3.79,0-5.68,0-.68-.21-1.23-.67-1.72-1.81-1.94-4.93-1.99-6.79-.1-.64.64-.66.65-1.28.01-1.95-2-5.31-1.83-7.03.36-.63.8-.51,1.73-.35,2.62.03.18.45.42.67.4.22-.02.45-.31.59-.53.09-.13.06-.37.03-.55-.18-1.08.52-1.6,1.33-1.98,1.29-.62,2.7-.35,3.73.65.41.4.82.81,1.44.87.63.06,1.17-.12,1.59-.59.64-.7,1.4-1.17,2.37-1.24,1.17-.08,2.12.36,2.85,1.26.08.1.11.26.11.39,0,2.06,0,4.13,0,6.19,0,.06-.02.12-.03.2H6.16Z"/>
  <path class="cls-2" d="m28.3,45.12c0-.66,0-1.28,0-1.9,0-.54-.29-.86-.71-.85-.41,0-.67.32-.68.84,0,.63,0,1.26,0,1.92h-2.6c0-.18,0-.34,0-.51,0-2.19,0-4.38,0-6.56,0-2.27,1.16-3.82,3.34-4.46.78-.23,1.57-.46,2.48-.73-.33.59-.59,1.09-.89,1.56-.33.52-.3.98.04,1.51,1.8,2.75,3.57,5.52,5.36,8.28.45.69.96.7,1.4.01,1.79-2.77,3.58-5.55,5.38-8.32.32-.48.36-.92.05-1.42-.31-.48-.57-.99-.85-1.49.03-.03.05-.08.06-.07,1.14.36,2.32.61,3.39,1.11,1.47.7,2.24,2,2.27,3.63.05,2.44.01,4.87.01,7.31,0,.04-.02.09-.04.16h-2.66c0-.17,0-.33,0-.49,0-1.96,0-3.91,0-5.87,0-.15.01-.32-.03-.46-.08-.34-.33-.59-.66-.53-.24.05-.48.27-.65.48-.1.12-.06.36-.06.54,0,2.09,0,4.19,0,6.32h-13.97Zm0-5.97s0,0,0,0c0-.25.02-.5,0-.74-.04-.4-.35-.67-.71-.64-.39.03-.64.26-.66.65-.03.48-.03.96,0,1.44.02.39.27.62.66.65.36.03.67-.26.71-.65.02-.23,0-.46,0-.7Z"/>
  <path class="cls-2" d="m40.94,21.48c.04,1.88.2,3.72-.89,5.39-1.24,1.9-3.66,2.92-5.91,2.43-2.23-.49-4.1-2.39-4.33-4.62-.13-1.22-.02-2.47,0-3.71,0-.44.23-.69.7-.61,1,.17,2.01.32,3,.54,1.18.26,2.33.64,3.51.88,1.18.24,2.38.11,3.54-.22.11-.03.23-.05.39-.09Zm-5.67,6.94c.86,0,1.54-.25,2.05-.86.28-.33.27-.73-.01-1-.28-.26-.63-.25-.96.02-.73.6-1.31.6-2.01,0-.34-.29-.72-.29-.99,0-.27.28-.26.66.03,1,.52.6,1.2.84,1.9.84Zm-1.95-4.83h0c0-.14.01-.28,0-.42-.05-.44-.34-.7-.73-.69-.39.02-.64.29-.66.74,0,.2,0,.4,0,.6.01.51.27.82.67.83.43.01.7-.31.72-.84,0-.08,0-.15,0-.23Zm5.43.01c0-.15.01-.31,0-.46-.03-.4-.26-.63-.65-.65-.39-.02-.64.2-.7.59-.03.17-.03.34-.03.51,0,.74.23,1.09.72,1.07.46-.01.67-.34.66-1.06Z"/>
  <path class="cls-2" d="m42.26,20.54c-.34-.85-.63-.97-1.37-.62-1.6.76-3.25.68-4.91.24-1.41-.37-2.8-.81-4.22-1.1-.69-.14-1.44-.02-2.17,0-.56.02-.87.35-.98.89-.04.19-.1.38-.19.57-.09-.81.08-1.58.41-2.3,1.04-2.26,2.81-3.52,5.3-3.59,1.26-.04,2.56-.05,3.79.21,2.57.55,4.47,3.13,4.33,5.7Z"/>
  <path class="cls-2" d="m14.86,23.83c-.02.37-.06.74-.05,1.11.01.48.3.77.7.77.4,0,.67-.3.69-.77.01-.35,0-.71,0-1.08h2.07c.1,1.21,0,2.37-.58,3.46-1.17,2.24-3.66,3.4-6.07,2.81-2.44-.59-4.16-2.76-4.19-5.27,0-.16,0-.31,0-.47-.02-.38,0-.7.39-.94.19-.12.3-.42.38-.66.16-.5.28-1.01.42-1.52.14-.51.26-.56.69-.21,1.09.88,2.23,1.68,3.55,2.18.65.25,1.32.41,1.98.61Zm-2,5.51c.74,0,1.4-.23,1.91-.79.32-.35.33-.75.04-1.03-.29-.29-.65-.27-1.03.06-.58.51-1.23.51-1.83-.01-.37-.32-.74-.34-1.03-.04-.29.3-.27.66.06,1.03.5.55,1.14.77,1.86.78Zm-1.91-4.65c-.01-.2,0-.35-.03-.5-.05-.39-.26-.63-.66-.64-.4,0-.65.21-.69.6-.03.33-.03.68.02,1.01.05.35.31.53.66.53.35,0,.58-.19.66-.53.03-.16.04-.34.05-.46Z"/>
  <path class="cls-2" d="m19.39,22.42c-.72,0-1.38.02-2.04,0-.93-.03-1.87,0-2.78-.15-1.39-.23-2.57-.98-3.68-1.8-.3-.22-.58-.46-.88-.68-.99-.73-2.24-.35-2.62.82-.16.48-.27.99-.4,1.48-.1.35-.1.35-.59.3.14-2.13,1.04-3.85,2.8-5.04,2.22-1.51,4.6-1.61,6.94-.29,2.03,1.15,3.06,2.99,3.27,5.37Z"/>
  <path class="cls-2" d="m16.27,15.2c1.97.97,3.42,2.5,4.51,4.36,2.01,3.44,3.06,7.19,3.42,11.15.01.14.03.28.04.42.04.52-.13.84-.62,1.01-.91.31-1.82.6-2.74.87-.15.04-.33,0-.49-.05-1.48-.41-2.95-.82-4.42-1.26-.14-.04-.33-.22-.34-.35-.01-.12.14-.32.27-.39,1.57-.83,2.7-2.06,3.34-3.72.11-.29.24-.4.57-.4,1.16-.02,1.78-.69,1.79-1.86,0-.29.04-.6-.01-.88-.05-.31-.08-.73-.29-.9-.57-.47-.52-1.1-.62-1.71-.43-2.63-1.85-4.55-4.16-5.84-.14-.08-.25-.22-.37-.33.04-.04.08-.07.13-.11Z"/>
  <path class="cls-2" d="m9.61,15.32c-.11.1-.2.23-.32.3-2.62,1.45-4.06,3.65-4.31,6.64-.02.2-.13.43-.28.59-.33.36-.54.75-.53,1.25,0,.34,0,.68,0,1.02.02,1.02.66,1.69,1.69,1.71.4,0,.55.15.69.51.57,1.49,1.57,2.62,2.95,3.42.24.14.63.17.56.62-.07.42-.42.34-.69.42-1.34.4-2.67.79-4.02,1.17-.19.05-.43.05-.62,0-.82-.24-1.63-.5-2.44-.76-.65-.21-.84-.51-.78-1.18.3-3.58,1.19-6.99,2.77-10.22,1.1-2.24,2.59-4.16,4.82-5.4.13-.07.27-.14.41-.2.03.04.07.08.1.12Z"/>
  <path class="cls-2" d="m33.07,39.2c-.84-1.3-1.68-2.6-2.52-3.9-.05-.07-.06-.21-.02-.29.26-.49.54-.97.87-1.55.6,1.98,1.17,3.85,1.74,5.71-.02.01-.04.02-.07.03Z"/>
  <path class="cls-2" d="m39.28,33.47c.33.58.6,1.03.84,1.5.05.09.06.25,0,.33-.8,1.27-1.62,2.52-2.54,3.74.55-1.81,1.1-3.62,1.69-5.57Z"/>
  <path class="cls-2" d="m11.02,14.92c.26-.92,1.04-1.53,1.9-1.49.93.04,1.7.74,1.78,1.48-.61-.05-1.21-.14-1.82-.13-.61,0-1.22.09-1.86.14Z"/>
  <path class="cls-2" d="m35.33,41.41c-.68-1.13-.52-2.37-.29-3.62.04-.21.05-.43.1-.64.02-.07.13-.17.18-.16.08.01.21.1.22.17.18,1.44.66,2.9-.2,4.25Z"/>
  <path class="cls-2" d="m36.84,30.74c.08.23.15.47.24.74-1.21.38-2.39.36-3.6-.02.09-.28.16-.52.22-.72h3.13Z"/>
  <path class="cls-2" d="m33.2,34.57c-.19-.64-.36-1.2-.56-1.84.71.15,1.37.28,2.09.43-.52.48-1.01.92-1.53,1.4Z"/>
  <path class="cls-2" d="m38.04,32.73c-.19.64-.36,1.2-.56,1.84-.51-.47-.99-.9-1.53-1.39.71-.15,1.35-.29,2.09-.45Z"/>
  <path class="cls-2" d="m42.38,24.44v-1.66c.39-.06.5.01.53.34.02.31,0,.62,0,.92,0,.34-.19.45-.53.4Z"/>
  <path class="cls-2" d="m28.3,22.73v1.68s-.08.05-.1.04c-.46-.08-.49-.18-.43-1.24.02-.4.08-.46.53-.48Z"/>
  <path class="cls-2" d="m35.35,34.39c.24.35.52.59.54.85.03.29-.29.34-.58.34-.29,0-.57-.12-.53-.35.05-.27.32-.49.57-.84Z"/>
  <path class="cls-2" d="m6.03,23.84v1.52c-.36.06-.43.04-.45-.26-.02-.31-.04-.63,0-.93.03-.15.21-.28.32-.42.04.03.08.06.13.09Z"/>
  <path class="cls-2" d="m19.72,25.41v-1.56c.45-.07.47.21.47.5.02,1.03.02,1.03-.47,1.06Z"/>
  <path class="cls-3" d="m30.14,5.29c-.03,1.87-.54,2.94-1.34,3.9-1.27,1.52-2.91,2.54-4.67,3.38-.11.05-.28.06-.38,0-1.99-.96-3.85-2.1-5.12-3.97-.77-1.13-1.16-2.37-.73-3.74.68-2.19,3.56-2.88,5.18-1.26.08.08.15.16.23.23.48.46.8.47,1.27-.02.54-.57,1.17-.95,1.96-1.06,1.93-.27,3.62,1.2,3.62,2.54Z"/>
  <path class="cls-1" d="m28.3,39.14c0,.23.02.47,0,.7-.04.4-.35.68-.71.65-.39-.03-.64-.26-.66-.65-.03-.48-.03-.96,0-1.44.02-.39.27-.62.66-.65.37-.03.67.25.71.64.02.24,0,.49,0,.74,0,0,0,0,0,0Z"/>
  <path class="cls-1" d="m35.27,28.42c-.69,0-1.37-.24-1.9-.84-.29-.34-.31-.72-.03-1,.28-.29.65-.28.99,0,.71.6,1.29.59,2.01,0,.33-.27.68-.28.96-.02.28.26.29.66.01,1-.51.61-1.19.86-2.05.86Z"/>
  <path class="cls-1" d="m33.32,23.59c0,.08,0,.15,0,.23-.02.53-.3.85-.72.84-.41-.01-.66-.32-.67-.83,0-.2,0-.4,0-.6.02-.46.27-.73.66-.74.39-.02.67.25.73.69.02.14,0,.28,0,.42h0Z"/>
  <path class="cls-1" d="m38.75,23.6c0,.72-.2,1.05-.66,1.06-.49.01-.72-.33-.72-1.07,0-.17,0-.34.03-.51.07-.39.31-.61.7-.59.39.02.62.25.65.65.01.15,0,.31,0,.46Z"/>
  <path class="cls-1" d="m12.86,29.34c-.73-.01-1.37-.23-1.86-.78-.33-.37-.35-.73-.06-1.03.29-.3.66-.29,1.03.04.59.52,1.25.53,1.83.01.37-.33.73-.35,1.03-.06.29.28.27.68-.04,1.03-.51.56-1.17.78-1.91.79Z"/>
  <path class="cls-1" d="m10.94,24.69c-.01.13-.01.3-.05.46-.07.35-.31.53-.66.53-.35,0-.61-.18-.66-.53-.05-.33-.05-.68-.02-1.01.04-.39.29-.61.69-.6.4,0,.62.25.66.64.02.15.02.31.03.5Z"/>
</svg>