<?xml version="1.0" encoding="UTF-8"?>
<svg id="Layer_1" data-name="Layer 1" xmlns="http://www.w3.org/2000/svg" viewBox="0 0 41.9 40.05">
  <defs>
    <style>
      .cls-1, .cls-2, .cls-3 {
        stroke-width: 0px;
      }

      .cls-2 {
        fill: #fff;
      }

      .cls-3 {
        fill: #711db0;
      }
    </style>
  </defs>
  <path class="cls-1" d="m41.9,29.05c-.19.69-.41,1.35-.88,1.91-1.52,1.83-4.2,1.9-5.87.12-2.37-2.51-4.74-5.03-7.1-7.55-.24-.25-.42-.29-.73-.16-1.13.49-1.8,1.68-1.59,2.9.24,1.39,1.21,2.27,2.58,2.36.43.03.88.03,1.3.15,1.83.49,2.91,1.73,3.24,3.57.31,1.77-.28,3.26-1.75,4.3-2.11,1.49-4.46,2.47-6.99,2.96-6.32,1.23-12.04-.14-17-4.27C3.26,32.16.96,28.02.23,23.08-1.04,14.5,3.03,6.42,10.62,2.3c6.85-3.72,15.71-2.87,21.85,2.08,3.1,2.5,5.29,5.64,6.5,9.44.9,2.81,0,5.79-2.24,7.67-.07.06-.14.13-.31.27.14.09.27.16.38.26,1.07,1,2.1,2.03,3.19,3,.92.82,1.68,1.71,1.91,2.96v1.07Zm-7.27-9.09c1.84-1.13,2.65-3.38,1.99-5.46C33.89,5.95,24.69.79,15.97,2.93,7.53,5,1.92,12.64,2.51,21.34c.29,4.32,1.99,8.04,5.05,11.08,3.85,3.83,8.53,5.5,13.94,5.09,2.9-.22,5.57-1.16,7.99-2.76.35-.23.68-.62.83-1.02.51-1.26-.44-2.58-1.83-2.63-2.48-.09-4.48-1.59-5.1-3.82-.62-2.27.28-4.51,2.36-5.87.05-.03.1-.07.16-.12-.92-.98-1.81-1.93-2.72-2.88-.08-.09-.26-.11-.39-.11-.72-.02-1.46.08-2.15-.05-2.2-.41-3.68-1.71-4.47-3.82-1-2.64-1.48-5.39-1.81-8.18-.11-.96.53-1.59,1.48-1.46.89.12,1.78.24,2.67.39,2.02.35,4,.83,5.9,1.62,2.6,1.08,3.82,3.92,3.42,6.36-.04.24.01.4.19.57,1.24,1.16,2.46,2.32,3.69,3.49.96.91,1.92,1.82,2.9,2.74ZM17.01,7.41c.04.25.06.4.08.55.32,1.91.68,3.82,1.4,5.63.68,1.72,2.18,2.55,3.97,2.25,1.52-.26,2.76-1.57,2.96-3.15.17-1.36-.44-3.09-2.11-3.68-1-.36-2.01-.68-3.04-.94-1.05-.26-2.13-.43-3.26-.66Zm8.53,9.87c1.63,1.73,3.32,3.53,5.02,5.33,2.13,2.27,4.27,4.53,6.4,6.8.42.44.91.6,1.48.43.54-.16.87-.55.97-1.11.1-.55-.13-.98-.53-1.35-3.17-2.99-6.33-5.98-9.49-8.97-.88-.83-1.76-1.67-2.57-2.43-.43.44-.84.86-1.28,1.3Z"/>
  <path class="cls-2" d="m34.62,19.96c-.98-.92-1.94-1.83-2.9-2.74-1.23-1.16-2.46-2.33-3.69-3.49-.18-.17-.23-.33-.19-.57.4-2.44-.81-5.28-3.42-6.36-1.9-.79-3.88-1.26-5.9-1.62-.89-.16-1.78-.27-2.67-.39-.95-.13-1.59.5-1.48,1.46.33,2.79.81,5.54,1.81,8.18.8,2.11,2.27,3.41,4.47,3.82.7.13,1.43.03,2.15.05.13,0,.31.03.39.11.91.94,1.8,1.9,2.72,2.88-.06.05-.11.09-.16.12-2.08,1.37-2.98,3.61-2.36,5.87.62,2.23,2.61,3.73,5.1,3.82,1.39.05,2.33,1.37,1.83,2.63-.16.39-.48.78-.83,1.02-2.42,1.6-5.09,2.53-7.99,2.76-5.41.42-10.09-1.26-13.94-5.09-3.06-3.04-4.76-6.77-5.05-11.08C1.92,12.64,7.53,5,15.97,2.93c8.72-2.14,17.92,3.02,20.64,11.57.66,2.08-.14,4.33-1.99,5.46Zm-21.19-.34c0-2.51-2.01-4.53-4.52-4.54-2.51,0-4.53,2.01-4.53,4.53,0,2.51,2.01,4.54,4.52,4.54,2.51,0,4.53-2.02,4.53-4.53Zm3.5,6.18c-2.5,0-4.52,2.04-4.52,4.54,0,2.52,2.03,4.55,4.55,4.54,2.5-.01,4.53-2.07,4.51-4.55-.02-2.51-2.05-4.53-4.54-4.52Z"/>
  <path class="cls-3" d="m17.01,7.41c1.14.22,2.21.39,3.26.66,1.03.26,2.04.58,3.04.94,1.67.59,2.28,2.32,2.11,3.68-.2,1.58-1.44,2.89-2.96,3.15-1.79.3-3.29-.53-3.97-2.25-.72-1.81-1.08-3.72-1.4-5.63-.02-.15-.04-.29-.08-.55Z"/>
  <path class="cls-2" d="m25.54,17.28c.44-.44.85-.86,1.28-1.3.81.76,1.69,1.6,2.57,2.43,3.16,2.99,6.33,5.98,9.49,8.97.39.37.62.8.53,1.35-.1.56-.43.95-.97,1.11-.57.17-1.07,0-1.48-.43-2.13-2.27-4.27-4.53-6.4-6.8-1.69-1.8-3.39-3.6-5.02-5.33Z"/>
  <path class="cls-1" d="m13.44,19.62c0,2.51-2.02,4.53-4.53,4.53-2.51,0-4.52-2.03-4.52-4.54,0-2.51,2.02-4.53,4.53-4.53,2.51,0,4.53,2.03,4.52,4.54Zm-2.47-.02c0-1.15-.91-2.05-2.05-2.05-1.16,0-2.07.91-2.07,2.07,0,1.16.93,2.07,2.09,2.05,1.14-.01,2.03-.93,2.03-2.07Z"/>
  <path class="cls-1" d="m16.93,25.81c2.49,0,4.52,2.02,4.54,4.52.02,2.49-2.01,4.54-4.51,4.55-2.52.01-4.56-2.02-4.55-4.54,0-2.5,2.02-4.53,4.52-4.54Zm0,2.48c-1.16,0-2.06.93-2.05,2.1.01,1.13.93,2.04,2.07,2.04,1.13,0,2.05-.92,2.05-2.06,0-1.16-.91-2.08-2.07-2.07Z"/>
  <path class="cls-3" d="m10.97,19.61c0,1.15-.89,2.06-2.03,2.07-1.16.01-2.09-.9-2.09-2.05,0-1.16.91-2.08,2.07-2.07,1.14,0,2.05.91,2.05,2.05Z"/>
  <path class="cls-3" d="m16.93,28.28c1.16,0,2.08.91,2.07,2.07,0,1.14-.92,2.06-2.05,2.06-1.14,0-2.06-.9-2.07-2.04-.01-1.16.89-2.09,2.05-2.1Z"/>
</svg>