<?xml version="1.0" encoding="UTF-8"?>
<svg id="Layer_1" data-name="Layer 1" xmlns="http://www.w3.org/2000/svg" viewBox="0 0 63.82 46.72">
  <defs>
    <style>
      .cls-1 {
        fill: #050505;
      }

      .cls-1, .cls-2, .cls-3 {
        stroke-width: 0px;
      }

      .cls-2 {
        fill: #fdfdfd;
      }

      .cls-3 {
        fill: #6e1faa;
      }
    </style>
  </defs>
  <path class="cls-2" d="m31.84,46.72h.97c7.93,0,15.86,0,23.79,0,1.52,0,2.95-.29,4.23-1.13,2.16-1.42,2.98-3.52,2.98-6.01,0-10.8,0-21.61,0-32.41,0-1.61-.34-3.13-1.31-4.45C61,.66,58.86,0,56.42,0,40.07,0,23.72,0,7.37,0c-.93,0-1.85.07-2.74.36C1.7,1.33.01,3.78,0,7.15,0,17.95,0,28.76,0,39.56c0,.72.06,1.44.25,2.13.81,3.07,3.37,5.02,6.61,5.02,8.33,0,16.65,0,24.98,0Z"/>
  <path class="cls-1" d="m31.84,46.72c-8.33,0-16.65,0-24.98,0-3.24,0-5.8-1.95-6.61-5.02-.18-.7-.25-1.41-.25-2.13,0-10.8,0-21.61,0-32.41C.01,3.78,1.7,1.33,4.63.37,5.52.07,6.44,0,7.37,0,23.72,0,40.07,0,56.42,0c2.44,0,4.58.66,6.09,2.72.97,1.32,1.31,2.84,1.31,4.45,0,10.8,0,21.61,0,32.41,0,2.49-.82,4.59-2.98,6.01-1.28.84-2.72,1.13-4.23,1.13-7.93,0-15.86,0-23.79,0-.32,0-.65,0-.97,0Zm.06-4.25c8.33,0,16.65,0,24.98,0,1.72,0,2.61-.83,2.75-2.54.02-.28.01-.56.01-.83,0-10.43,0-20.87,0-31.3,0-2.8-.79-3.58-3.6-3.58-16.07,0-32.14,0-48.21,0-.26,0-.51,0-.77,0-1.89.08-2.8,1-2.8,2.88,0,10.85,0,21.7,0,32.56,0,1.94.91,2.82,2.87,2.82,8.26,0,16.51,0,24.77,0Z"/>
  <path class="cls-2" d="m31.9,42.47c-8.26,0-16.51,0-24.77,0-1.96,0-2.87-.88-2.87-2.82,0-10.85,0-21.7,0-32.56,0-1.88.91-2.8,2.8-2.88.25-.01.51,0,.77,0,16.07,0,32.14,0,48.21,0,2.81,0,3.6.79,3.6,3.58,0,10.43,0,20.87,0,31.3,0,.28.01.56-.01.83-.13,1.72-1.03,2.54-2.75,2.54-8.33,0-16.65,0-24.98,0Zm-8.47-19.06c0,2.99,0,5.98,0,8.97,0,.65,0,1.3.07,1.94.18,1.39,1.65,2.16,2.93,1.57.27-.13.54-.28.79-.43,4.66-2.9,9.31-5.81,13.97-8.72.81-.5,1.63-.98,2.41-1.52,1.51-1.05,1.48-2.67-.03-3.71-.27-.18-.54-.35-.82-.53-5.11-3.19-10.22-6.37-15.33-9.56-.91-.57-1.81-1.08-2.91-.48-1.08.6-1.09,1.63-1.09,2.67,0,3.27,0,6.54,0,9.81Z"/>
  <path class="cls-1" d="m23.42,23.41c0-3.27,0-6.54,0-9.81,0-1.03.01-2.07,1.09-2.67,1.1-.6,2-.09,2.91.48,5.11,3.19,10.22,6.37,15.33,9.56.28.17.55.34.82.53,1.51,1.04,1.53,2.66.03,3.71-.78.54-1.6,1.02-2.41,1.52-4.66,2.91-9.31,5.82-13.97,8.72-.26.16-.52.31-.79.43-1.28.6-2.75-.17-2.93-1.57-.08-.64-.07-1.29-.07-1.94,0-2.99,0-5.98,0-8.97Zm4.22-.1c0,1.99,0,3.99,0,5.98,0,.24-.13.56.12.71.26.16.47-.13.67-.25,1.58-.97,3.15-1.95,4.72-2.93,1.65-1.03,3.3-2.06,4.94-3.1.22-.14.63-.28.11-.61-3.32-2.07-6.64-4.14-9.96-6.22-.49-.3-.62-.19-.62.36.02,2.02,0,4.03,0,6.05Z"/>
  <path class="cls-3" d="m27.65,23.3c0-2.02.01-4.04,0-6.05,0-.55.13-.67.62-.36,3.32,2.08,6.64,4.15,9.96,6.22.52.32.12.47-.11.61-1.64,1.04-3.29,2.07-4.94,3.1-1.57.98-3.15,1.96-4.72,2.93-.21.13-.41.41-.67.25-.25-.15-.12-.47-.12-.71,0-1.99,0-3.99,0-5.98Z"/>
</svg>