<?xml version="1.0" encoding="UTF-8"?>
<svg id="Layer_1" data-name="Layer 1" xmlns="http://www.w3.org/2000/svg" viewBox="0 0 54 54">
  <defs>
    <style>
      .cls-1, .cls-2, .cls-3 {
        stroke-width: 0px;
      }

      .cls-2 {
        fill: #711db1;
      }

      .cls-3 {
        fill: #fff;
      }
    </style>
  </defs>
  <path class="cls-1" d="m28.22,54h-2.53c-1.02-.39-1.37-1.15-1.37-2.23.03-4.26.01-8.53.01-12.79v-.77c-.36.16-.63.23-.82.39-.75.6-1.48,1.23-2.22,1.86-4.44,3.74-8.88,7.48-13.33,11.22-1,.84-2.02.79-2.95-.13-.3-.3-.6-.59-.89-.89-.92-.94-.86-2.09.14-2.93.66-.55,1.32-1.1,1.98-1.65,4.19-3.49,8.38-6.98,12.57-10.48.15-.12.3-.32.31-.49.04-.63.01-1.26.01-1.9-.09-.03-.15-.06-.22-.08-1.1-.3-1.53-.86-1.53-2,0-.47,0-.94,0-1.46-.26,0-.47,0-.67,0-4.05,0-8.11,0-12.16,0-2.28,0-3.91-1.3-4.46-3.49-.02-.06-.06-.12-.09-.18,0-6.81,0-13.61,0-20.42C1.02,2.63,2.13,1.85,5.27,1.85c4.91,0,9.82,0,14.74,0,.36,0,.61-.1.88-.34.98-.9,2.15-1.38,3.48-1.4,1.72-.02,3.44-.02,5.16,0,1.33.02,2.51.49,3.48,1.39.29.27.57.35.93.35,5.1,0,10.21,0,15.31,0,2.83,0,4.65,1.82,4.65,4.63,0,6.17,0,12.35,0,18.52,0,.3,0,.6-.04.89-.36,2.29-2.13,3.77-4.53,3.78-4.05,0-8.1,0-12.16,0-.2,0-.41,0-.66,0,0,.61.01,1.15,0,1.69-.02.88-.51,1.49-1.35,1.73-.13.04-.26.08-.4.12,0,.64,0,1.25,0,1.86,0,.13.05.3.13.37.88.75,1.77,1.48,2.63,2.19.07-.03.09-.03.11-.04.16-.14.32-.28.48-.41,2.2-1.85,4.74-2.61,7.59-2.21,4.51.63,7.99,4.47,8.19,8.96.2,4.67-2.88,8.76-7.4,9.82-.37.09-.74.16-1.12.24h-2c-.12-.03-.23-.08-.35-.1-5.31-.71-9.01-5.76-8.12-11.06.03-.19-.06-.49-.21-.62-1.43-1.24-2.88-2.46-4.34-3.66-.18-.15-.47-.18-.78-.3v.78c0,4.24-.02,8.49.01,12.73,0,1.07-.34,1.83-1.37,2.23Zm-1.26-33.21c-.69-1.03-1.32-1.99-1.98-2.94-.11-.15-.3-.34-.46-.35-2.17-.11-3.95.62-5.19,2.48-.1.16-.21.32-.32.5-.52-.26-1.01-.51-1.54-.78,1.53-2.72,3.82-3.99,6.89-4.02-.12-.19-.23-.32-.37-.41-.89-.56-1.59-1.3-1.9-2.3-.18-.58-.47-.71-1.04-.7-1.26.03-2.2-.61-2.61-1.66-.41-1.06-.11-2.12.82-2.99.09-.09.2-.27.17-.37-.4-1.21-.36-2.41.03-3.67-.22,0-.39,0-.56,0-3.28,0-6.56,0-9.84,0-1.45,0-2.1.64-2.1,2.08,0,6.74,0,13.47,0,20.21,0,1.41.65,2.05,2.06,2.05,11.86,0,23.72,0,35.58,0h.57V3.62h-10.71c.37,1.16.43,2.28.07,3.4-.1.31-.04.48.21.7.83.73,1.1,1.66.77,2.71-.32,1.05-1.07,1.66-2.17,1.81-.31.04-.64,0-.94.05-.16.03-.37.17-.42.32-.39,1.16-1.09,2.07-2.14,2.7-.12.07-.2.22-.39.43,3.18-.03,5.46,1.25,6.98,3.96-.54.27-1.03.52-1.51.76-.07-.08-.12-.11-.14-.15-1.16-2-2.94-2.89-5.21-2.81-.21,0-.49.16-.62.34-.67.94-1.3,1.91-1.99,2.95Zm25.21,23.68c.03-4.27-3.44-7.81-7.69-7.85-4.36-.04-7.91,3.4-7.94,7.7-.04,4.38,3.41,7.9,7.77,7.93,4.32.04,7.84-3.44,7.87-7.78ZM5.47,3.59c-.37,0-.87-.03-1.35,0-1.42.11-2.38,1.25-2.38,2.83,0,5.26,0,10.52,0,15.78,0,1.02-.02,2.03,0,3.05.03,1.29.75,2.29,1.94,2.55.61.14,1.27.09,1.77.12-.08-.94-.23-1.8-.23-2.66-.02-6.4-.02-12.8,0-19.2,0-.81.15-1.61.24-2.48Zm16.28,3.41c.15-1.05.72-1.75,1.65-2.17.19-.09.38-.18.56-.29.3-.19.54-.19.84.04,1.45,1.08,3.09,1.59,4.9,1.65.46.02.98.2,1.35.48.41.31.8.35,1.26.36.29,0,.43-.09.52-.37.79-2.37-.81-4.75-3.31-4.83-1.72-.05-3.44-.06-5.16,0-2.48.08-4.07,2.44-3.3,4.8.12.36.3.48.69.33Zm5.23,10.59c.46-.63,1-1.21.84-2.1-.04-.22.02-.46-.01-.68-.07-.44.13-.6.53-.73,1.35-.45,2.08-1.5,2.09-2.94,0-.67,0-1.33,0-2,0-.93-.25-1.2-1.17-1.22-1.67-.04-3.21-.5-4.62-1.39-.34-.22-.62-.17-.83.08-.17.21-.31.52-.32.79-.03,1.28-.02,2.56-.01,3.84,0,1.31.74,2.39,1.99,2.79.52.17.7.41.63.93-.14,1,.08,1.9.88,2.63Zm25.16-6.97c0-1.6.04-3.15-.01-4.68-.05-1.2-.99-2.2-2.2-2.31-.97-.09-1.95-.02-2.93-.02v8.54c1.5-1.39,3.39-1.18,5.15-1.53Zm-32.97,26.95c-4.58,3.82-9.27,7.72-14.07,11.73.38.33.73.59,1.02.91.3.33.5.35.86.05,4.57-3.87,9.15-7.71,13.72-11.56.1-.09.25-.12.28-.14-.65-.35-1.18-.65-1.81-.99Zm27.8-9.65c.9,0,1.74.01,2.58,0,1.46-.03,2.53-1.04,2.59-2.5.05-1.14,0-2.28.02-3.42,0-.29-.12-.39-.38-.45-.77-.18-1.52-.4-2.29-.57-.87-.19-1.67-.5-2.38-1.06-.03-.02-.09,0-.14-.01v8.01Zm-22.69,8.69c.4-1.4.86-1.74,2.3-1.74.23,0,.46,0,.68,0,1.5,0,1.92.31,2.34,1.72h3.4v-3.41h-12.12v3.43h3.39Zm27.85-24.21c-.88.12-1.69.2-2.5.34-1.35.24-2.37,1.29-2.63,2.67-.25,1.29.34,2.78,1.55,3.35,1.11.52,2.34.77,3.58,1.16v-7.53Zm-17.39,17.31h-15.58v1.64h15.58v-1.64Zm-8.61,6.94v15.57h1.63v-15.57h-1.63Zm6.87,1.87c.79.67,1.65,1.39,2.53,2.13.31-.56.61-1.09.91-1.65-.62-.52-1.23-1.02-1.72-1.43-.62.34-1.15.63-1.72.95Zm-11.29-29.69c-.6.03-1.23-.22-1.56.41-.13.24-.11.68.03.92.36.59.98.34,1.53.38v-1.7Zm10.49,1.71c.57-.05,1.2.21,1.54-.41.13-.24.13-.68,0-.92-.35-.6-.97-.37-1.54-.38v1.7Z"/>
  <path class="cls-3" d="m0,26c.03.06.08.12.09.18.55,2.19,2.18,3.48,4.46,3.49,4.05.01,8.11,0,12.16,0,.21,0,.41,0,.67,0,0,.52,0,.99,0,1.46,0,1.15.43,1.7,1.53,2,.07.02.13.04.22.08,0,.64.02,1.27-.01,1.9-.01.17-.17.37-.31.49-4.18,3.5-8.38,6.99-12.57,10.48-.66.55-1.32,1.1-1.98,1.65-1,.84-1.05,1.99-.14,2.93.29.3.59.6.89.89.93.92,1.95.97,2.95.13,4.44-3.74,8.89-7.48,13.33-11.22.74-.62,1.47-1.25,2.22-1.86.2-.16.47-.22.82-.39v.77c0,4.26.02,8.53-.01,12.79,0,1.07.34,1.83,1.37,2.23H0C0,44.67,0,35.33,0,26Z"/>
  <path class="cls-3" d="m45.38,54c.37-.08.75-.16,1.12-.24,4.52-1.06,7.61-5.15,7.4-9.82-.2-4.48-3.68-8.32-8.19-8.96-2.84-.4-5.38.36-7.59,2.21-.16.13-.32.27-.48.41-.01.01-.03.01-.11.04-.86-.71-1.75-1.45-2.63-2.19-.09-.08-.13-.24-.13-.37-.01-.61,0-1.23,0-1.86.15-.05.27-.09.4-.12.83-.23,1.32-.85,1.35-1.73.01-.54,0-1.08,0-1.69.25,0,.45,0,.66,0,4.05,0,8.1,0,12.16,0,2.4,0,4.16-1.48,4.53-3.78.05-.29.04-.59.04-.89,0-6.17,0-12.35,0-18.52,0-2.81-1.82-4.63-4.65-4.63-5.1,0-10.21,0-15.31,0-.37,0-.65-.08-.93-.35-.97-.91-2.15-1.38-3.48-1.39-1.72-.02-3.44-.02-5.16,0-1.33.02-2.5.5-3.48,1.4-.27.25-.53.35-.88.34-4.91,0-9.82,0-14.74,0C2.13,1.85,1.02,2.63,0,5.58,0,3.72,0,1.86,0,0c18,0,35.99,0,54,0v54h-8.62Z"/>
  <path class="cls-3" d="m28.22,54c1.02-.39,1.37-1.15,1.37-2.23-.03-4.24-.01-8.49-.01-12.73v-.78c.32.12.6.15.78.3,1.46,1.2,2.91,2.42,4.34,3.66.14.13.24.43.21.62-.89,5.3,2.81,10.34,8.12,11.06.12.02.23.06.35.1h-15.16Z"/>
  <path class="cls-3" d="m26.95,20.79c.7-1.04,1.32-2.01,1.99-2.95.12-.18.4-.33.62-.34,2.28-.07,4.05.81,5.21,2.81.03.04.07.08.14.15.48-.24.97-.49,1.51-.76-1.52-2.71-3.79-3.99-6.98-3.96.19-.22.26-.36.39-.43,1.06-.63,1.75-1.54,2.14-2.7.05-.14.26-.28.42-.32.31-.06.63-.01.94-.05,1.1-.15,1.84-.76,2.17-1.81.32-1.05.05-1.99-.77-2.71-.25-.22-.31-.39-.21-.7.36-1.12.3-2.24-.07-3.4h10.71v24.3h-.57c-11.86,0-23.72,0-35.58,0-1.42,0-2.06-.64-2.06-2.05,0-6.74,0-13.47,0-20.21,0-1.43.65-2.08,2.1-2.08,3.28,0,6.56,0,9.84,0,.17,0,.34,0,.56,0-.39,1.25-.43,2.46-.03,3.67.03.1-.07.28-.17.37-.93.87-1.23,1.93-.82,2.99.41,1.05,1.36,1.7,2.61,1.66.57-.02.85.11,1.04.7.31,1,1.02,1.74,1.9,2.3.14.09.25.22.37.41-3.06.03-5.35,1.3-6.89,4.02.52.26,1.01.51,1.54.78.12-.18.22-.34.32-.5,1.24-1.86,3.02-2.59,5.19-2.48.16,0,.35.2.46.35.65.95,1.29,1.91,1.98,2.94Zm3.48.17c-2.01-.15-2.65.68-2.65,2.61,0,1.99.69,2.65,2.65,2.65,1.94,0,2.65-.65,2.65-2.65,0-1.95-.66-2.77-2.65-2.62Zm-4.34,2.65c0-.26,0-.53,0-.79-.02-1.15-.74-1.85-1.89-1.87-.51,0-1.02-.01-1.52,0-1.06.02-1.78.73-1.81,1.78-.02.56-.02,1.12,0,1.68.03,1,.73,1.7,1.73,1.76.31.02.63-.02.95,0,1.86.14,2.7-.64,2.55-2.58Zm13.91-.04c.16-2.02-.69-2.65-2.61-2.65-2.06,0-2.65.75-2.65,2.64,0,1.97.66,2.66,2.64,2.65,1.9,0,2.78-.6,2.62-2.64Zm-26.1-.02c-.16,2.12.78,2.65,2.6,2.66,2.05.01,2.66-.74,2.66-2.64,0-1.92-.61-2.66-2.64-2.66-1.95,0-2.78.65-2.62,2.64Z"/>
  <path class="cls-3" d="m52.16,44.47c-.03,4.34-3.55,7.82-7.87,7.78-4.36-.04-7.8-3.56-7.77-7.93.04-4.3,3.58-7.74,7.94-7.7,4.25.04,7.72,3.58,7.69,7.85Zm-11.3-.1c0,.67,0,1.33,0,2,.02,1.89,1.71,2.95,3.41,2.12,1.32-.64,2.63-1.31,3.95-1.97.86-.43,1.34-1.13,1.34-2.09,0-.94-.47-1.63-1.31-2.05-1.35-.68-2.68-1.37-4.04-2.02-1.61-.77-3.3.28-3.34,2.07-.01.65,0,1.3,0,1.95Z"/>
  <path class="cls-3" d="m5.47,3.59c-.09.86-.24,1.67-.24,2.48-.02,6.4-.02,12.8,0,19.2,0,.86.14,1.72.23,2.66-.51-.03-1.16.01-1.77-.12-1.19-.26-1.91-1.26-1.94-2.55-.02-1.02,0-2.03,0-3.05,0-5.26,0-10.52,0-15.78,0-1.58.95-2.72,2.38-2.83.49-.04.98,0,1.35,0Z"/>
  <path class="cls-3" d="m21.75,6.99c-.39.15-.57.03-.69-.33-.76-2.36.82-4.72,3.3-4.8,1.72-.06,3.44-.06,5.16,0,2.5.08,4.11,2.46,3.31,4.83-.09.28-.23.37-.52.37-.46,0-.85-.05-1.26-.36-.37-.28-.89-.46-1.35-.48-1.81-.06-3.45-.57-4.9-1.65-.3-.22-.55-.22-.84-.04-.18.11-.37.2-.56.29-.93.42-1.5,1.12-1.65,2.17Z"/>
  <path class="cls-3" d="m26.98,17.58c-.81-.73-1.02-1.62-.88-2.63.07-.52-.11-.76-.63-.93-1.25-.41-1.98-1.48-1.99-2.79,0-1.28-.02-2.56.01-3.84,0-.27.14-.58.32-.79.21-.25.48-.3.83-.08,1.41.88,2.96,1.34,4.62,1.39.92.02,1.17.3,1.17,1.22,0,.67,0,1.33,0,2,0,1.44-.74,2.5-2.09,2.94-.4.13-.6.29-.53.73.04.22-.03.46.01.68.17.89-.38,1.47-.84,2.1Zm1.09-6.74c-.91.75-1.2.75-2.18.06-.42.38-.84.75-1.25,1.12,1.34,1.5,3.47,1.49,4.61-.01-.38-.38-.76-.76-1.18-1.17Z"/>
  <path class="cls-3" d="m52.14,10.62c-1.76.35-3.65.14-5.15,1.53V3.6c.98,0,1.96-.07,2.93.02,1.21.11,2.16,1.11,2.2,2.31.06,1.54.01,3.08.01,4.68Z"/>
  <path class="cls-3" d="m19.17,37.56c.63.35,1.16.64,1.81.99-.04.02-.18.05-.28.14-4.58,3.85-9.16,7.7-13.72,11.56-.36.3-.56.29-.86-.05-.29-.32-.64-.58-1.02-.91,4.81-4.01,9.49-7.91,14.07-11.73Z"/>
  <path class="cls-3" d="m46.98,27.91v-8.01s.11-.01.14.01c.7.56,1.51.87,2.38,1.06.77.17,1.53.39,2.29.57.26.06.39.16.38.45-.02,1.14.02,2.28-.02,3.42-.06,1.46-1.14,2.47-2.59,2.5-.84.02-1.68,0-2.58,0Z"/>
  <path class="cls-3" d="m24.29,36.61h-3.39v-3.43h12.12v3.41h-3.4c-.43-1.41-.84-1.72-2.34-1.72-.23,0-.46,0-.68,0-1.45,0-1.9.34-2.3,1.74Z"/>
  <path class="cls-3" d="m52.13,12.39v7.53c-1.25-.39-2.48-.64-3.58-1.16-1.22-.57-1.8-2.06-1.55-3.35.26-1.38,1.28-2.44,2.63-2.67.81-.14,1.63-.22,2.5-.34Zm-1.71,3.34c-.01-.47-.42-.86-.89-.85-.47.01-.85.41-.84.89.01.48.41.86.88.85.46-.01.86-.43.85-.89Z"/>
  <path class="cls-3" d="m34.75,29.7v1.64h-15.58v-1.64h15.58Z"/>
  <path class="cls-3" d="m26.14,36.64h1.63v15.57h-1.63v-15.57Z"/>
  <path class="cls-3" d="m33.01,38.51c.57-.31,1.1-.61,1.72-.95.48.4,1.1.91,1.72,1.43-.31.56-.6,1.09-.91,1.65-.87-.74-1.73-1.46-2.53-2.13Z"/>
  <path class="cls-3" d="m21.71,8.82v1.7c-.55-.04-1.17.22-1.53-.38-.14-.23-.15-.67-.03-.92.33-.63.96-.38,1.56-.41Z"/>
  <path class="cls-3" d="m32.2,10.53v-1.7c.57.01,1.19-.22,1.54.38.14.24.13.68,0,.92-.34.62-.97.36-1.54.41Z"/>
  <path class="cls-1" d="m30.43,20.96c1.99-.15,2.65.66,2.65,2.62,0,2-.71,2.65-2.65,2.65-1.96,0-2.65-.66-2.65-2.65,0-1.93.64-2.77,2.65-2.61Zm-.84,3.44h1.67v-1.64h-1.67v1.64Z"/>
  <path class="cls-1" d="m26.09,23.61c.15,1.94-.69,2.72-2.55,2.58-.31-.02-.63,0-.95,0-1-.05-1.7-.76-1.73-1.76-.02-.56-.02-1.12,0-1.68.03-1.05.75-1.76,1.81-1.78.51-.01,1.02,0,1.52,0,1.15.01,1.87.72,1.89,1.87,0,.26,0,.53,0,.79Zm-3.46.79h1.66v-1.65h-1.66v1.65Z"/>
  <path class="cls-1" d="m40,23.58c.16,2.04-.72,2.64-2.62,2.64-1.98,0-2.65-.68-2.64-2.65,0-1.89.6-2.65,2.65-2.64,1.92,0,2.77.63,2.61,2.65Zm-1.77-.83h-1.67v1.64h1.67v-1.64Z"/>
  <path class="cls-1" d="m13.91,23.56c-.16-1.99.67-2.63,2.62-2.64,2.03,0,2.64.74,2.64,2.66,0,1.9-.61,2.65-2.66,2.64-1.82-.01-2.77-.54-2.6-2.66Zm1.78.83h1.66v-1.64h-1.66v1.64Z"/>
  <path class="cls-1" d="m40.86,44.37c0-.65-.01-1.3,0-1.95.03-1.78,1.72-2.84,3.34-2.07,1.36.65,2.7,1.34,4.04,2.02.84.42,1.31,1.12,1.31,2.05,0,.96-.48,1.66-1.34,2.09-1.31.66-2.62,1.33-3.95,1.97-1.7.82-3.39-.24-3.41-2.12,0-.67,0-1.33,0-2Zm1.75.09c0,.63,0,1.26,0,1.89.01.64.34.84.93.56,1.27-.63,2.55-1.25,3.8-1.91.2-.1.41-.37.43-.57.01-.17-.22-.43-.4-.53-1.27-.66-2.56-1.3-3.85-1.94-.55-.27-.89-.06-.9.55-.01.65,0,1.3,0,1.95Z"/>
  <path class="cls-1" d="m28.07,10.84c.41.41.8.79,1.18,1.17-1.14,1.5-3.27,1.52-4.61.01.41-.37.82-.74,1.25-1.12.98.69,1.27.69,2.18-.06Z"/>
  <path class="cls-1" d="m50.43,15.73c.01.46-.38.88-.85.89-.47.01-.87-.37-.88-.85-.01-.48.37-.88.84-.89.47-.01.88.38.89.85Z"/>
  <path class="cls-3" d="m29.59,24.4v-1.64h1.67v1.64h-1.67Z"/>
  <path class="cls-3" d="m22.63,24.4v-1.65h1.66v1.65h-1.66Z"/>
  <path class="cls-3" d="m38.23,22.75v1.64h-1.67v-1.64h1.67Z"/>
  <path class="cls-3" d="m15.68,24.39v-1.64h1.66v1.64h-1.66Z"/>
  <path class="cls-2" d="m42.61,44.46c0-.65,0-1.3,0-1.95.01-.61.35-.82.9-.55,1.29.63,2.58,1.27,3.85,1.94.19.1.42.36.4.53-.02.2-.23.47-.43.57-1.26.66-2.53,1.28-3.8,1.91-.59.29-.92.09-.93-.56-.01-.63,0-1.26,0-1.89Z"/>
</svg>