<?xml version="1.0" encoding="UTF-8"?>
<svg id="Layer_1" data-name="Layer 1" xmlns="http://www.w3.org/2000/svg" viewBox="0 0 43.74 43.74">
  <defs>
    <style>
      .cls-1 {
        fill: #fefefe;
      }

      .cls-1, .cls-2, .cls-3, .cls-4, .cls-5 {
        stroke-width: 0px;
      }

      .cls-2 {
        fill: #f8fbfb;
      }

      .cls-4 {
        fill: #711db1;
      }

      .cls-5 {
        fill: #397ebb;
      }
    </style>
  </defs>
  <path class="cls-1" d="m0,21.87C0,14.71.01,7.55,0,.4,0,.07.07,0,.4,0c14.31.01,28.63.01,42.94,0,.33,0,.4.07.4.4-.01,14.31-.01,28.63,0,42.94,0,.33-.07.4-.4.4-14.31-.01-28.63-.01-42.94,0-.33,0-.4-.06-.4-.4.01-7.16,0-14.31,0-21.47Zm17.42,15.13c0-.4-.2-.7-.47-.97-1.11-1.11-2.22-2.22-3.32-3.33-.39-.4-1.11-.77-1.07-1.22.04-.44.71-.82,1.1-1.23.02-.02.05-.04.07-.07.1-.14.18-.1.31,0,1.15.88,1.87.88,3.06.03,1.98-1.4,3.96-2.8,5.94-4.21.22-.15.35-.2.57.02.64.64.65.62,1.3-.02.22-.21.24-.33,0-.56-1.46-1.45-2.9-2.91-4.35-4.37-1.76-1.77-3.51-3.54-5.27-5.3-.09-.09-.19-.34-.37-.13-.25.3-.66.46-.74.88,0,.04.08.09.12.14.1.1.19.23.31.31.35.24.29.45.06.77-1.47,2.01-2.92,4.04-4.36,6.07-.7.98-.65,1.87.15,2.73.22.23.21.35,0,.56-1.06,1.02-2.1,2.06-3.14,3.1-.41.41-.45.73-.09,1.09.73.76,1.48,1.5,2.23,2.24.28.28.64.31.91.02.29-.32.44-.19.67.05,1.41,1.43,2.83,2.85,4.25,4.26.42.42.94.52,1.42.28.48-.23.73-.62.74-1.16ZM25.94,6.93c-2.17,0-3.97,1.82-3.95,3.97.02,2.18,1.79,3.94,3.98,3.94,2.13,0,3.93-1.8,3.93-3.94,0-2.17-1.79-3.97-3.96-3.96Zm10.81,12.74c0-2.2-1.75-3.93-3.96-3.93-2.15,0-3.92,1.75-3.92,3.88,0,2.23,1.74,4.01,3.95,4,2.2,0,3.94-1.75,3.94-3.95Zm-21.89-6.32c2.17,0,3.92-1.74,3.94-3.91.01-2.18-1.76-3.97-3.93-3.97-2.18,0-3.96,1.77-3.96,3.94,0,2.19,1.76,3.94,3.96,3.94Zm14.97,20.49c2.19,0,3.97-1.77,3.96-3.94-.01-2.16-1.78-3.93-3.93-3.94-2.18,0-3.97,1.76-3.98,3.93,0,2.19,1.76,3.94,3.95,3.95Zm-8.61-16.11c-.47.02-.86.16-1.2.43-.16.13-.24.23-.05.42.74.73,1.47,1.46,2.19,2.2.16.16.25.14.38-.02.45-.6.63-1.25.3-1.95-.32-.7-.89-1.04-1.62-1.07Z"/>
  <path class="cls-3" d="m17.43,37c0,.54-.26.93-.74,1.16-.48.23-1,.13-1.42-.28-1.42-1.42-2.84-2.83-4.25-4.26-.23-.24-.38-.37-.67-.05-.27.29-.62.26-.91-.02-.75-.74-1.5-1.48-2.23-2.24-.35-.37-.32-.68.09-1.09,1.04-1.04,2.09-2.08,3.14-3.1.22-.22.23-.33,0-.56-.79-.86-.84-1.74-.15-2.73,1.44-2.03,2.89-4.06,4.36-6.07.23-.32.29-.53-.06-.77-.12-.08-.21-.2-.31-.31-.04-.05-.13-.1-.12-.14.08-.43.49-.59.74-.88.18-.22.28.03.37.13,1.76,1.76,3.51,3.53,5.27,5.3,1.45,1.46,2.89,2.92,4.35,4.37.23.23.21.35,0,.56-.66.64-.66.67-1.3.02-.22-.22-.35-.17-.57-.02-1.98,1.41-3.96,2.8-5.94,4.21-1.2.85-1.91.85-3.06-.03-.13-.1-.2-.14-.31,0-.02.03-.05.04-.07.07-.39.41-1.06.79-1.1,1.23-.04.45.68.82,1.07,1.22,1.1,1.12,2.21,2.23,3.32,3.33.27.27.48.57.47.97Z"/>
  <path class="cls-3" d="m25.94,6.93c2.16,0,3.96,1.79,3.96,3.96,0,2.14-1.8,3.95-3.93,3.94-2.19,0-3.96-1.76-3.98-3.94-.02-2.15,1.78-3.96,3.95-3.97Zm0,6.98c1.67,0,3.02-1.35,3.02-3.03,0-1.66-1.33-2.99-2.99-3-1.69,0-3.04,1.32-3.04,3,0,1.68,1.35,3.03,3.02,3.03Z"/>
  <path class="cls-3" d="m36.75,19.66c0,2.2-1.74,3.95-3.94,3.95-2.2,0-3.95-1.77-3.95-4,0-2.12,1.77-3.87,3.92-3.88,2.21,0,3.96,1.73,3.96,3.93Zm-6.95-.02c0,1.69,1.33,3.07,2.98,3.06,1.7,0,3.07-1.37,3.06-3.04,0-1.64-1.4-3.02-3.04-3.02-1.64,0-2.99,1.35-3,3Z"/>
  <path class="cls-3" d="m14.86,13.34c-2.2,0-3.96-1.75-3.96-3.94,0-2.17,1.78-3.95,3.96-3.94,2.17,0,3.94,1.79,3.93,3.97-.01,2.17-1.77,3.91-3.94,3.91Zm.05-6.95c-1.66-.03-3.03,1.27-3.06,2.91-.04,1.71,1.28,3.1,2.96,3.13,1.66.03,3.04-1.3,3.08-2.97.04-1.66-1.3-3.04-2.97-3.07Z"/>
  <path class="cls-3" d="m29.83,33.83c-2.2,0-3.96-1.76-3.95-3.95,0-2.17,1.79-3.94,3.98-3.93,2.15,0,3.92,1.78,3.93,3.94.01,2.17-1.77,3.95-3.96,3.94Zm-3.02-3.93c0,1.67,1.36,3.02,3.02,3.02,1.65,0,3.02-1.37,3.02-3.03,0-1.68-1.35-3.01-3.03-3-1.7,0-3.02,1.33-3.01,3.01Z"/>
  <path class="cls-4" d="m21.22,17.72c.73.03,1.3.38,1.62,1.07.33.71.15,1.35-.3,1.95-.13.17-.22.18-.38.02-.72-.74-1.45-1.48-2.19-2.2-.19-.19-.11-.29.05-.42.34-.27.73-.41,1.2-.43Z"/>
  <path class="cls-2" d="m25.95,13.9c-1.67,0-3.02-1.36-3.02-3.03,0-1.68,1.35-3.01,3.04-3,1.66,0,2.99,1.34,2.99,3,0,1.68-1.34,3.03-3.02,3.03Zm-.04-4.53s0,.04,0,.06c-.47,0-.94,0-1.41,0-.31,0-.53.17-.58.48-.09.59-.14,1.19-.05,1.79.05.3.19.5.52.55,1,.15,2,.13,3,.07.34-.02.57-.22.6-.58.06-.55.1-1.09.03-1.64-.05-.36-.21-.57-.57-.61-.51-.05-1.03-.08-1.54-.12Z"/>
  <path class="cls-2" d="m29.8,19.64c0-1.64,1.35-2.99,3-3,1.65,0,3.04,1.37,3.04,3.02,0,1.67-1.37,3.04-3.06,3.04-1.64,0-2.98-1.37-2.98-3.06Zm2.35,1.29c0,.26,0,.52,0,.78,0,.11,0,.21.15.26.46.15.73-.03.74-.5,0-.36.02-.71,0-1.07-.02-.33.03-.5.43-.49.44.02.26-.41.32-.63.07-.26-.19-.21-.33-.19-.35.04-.43-.12-.43-.44,0-.41.21-.55.57-.54.27.01.27-.15.27-.35,0-.19,0-.33-.27-.36-.99-.12-1.44.23-1.44,1.24,0,.32-.07.5-.42.44-.35-.06-.35.17-.35.42,0,.24-.03.48.33.43.4-.06.47.15.43.48-.02.18,0,.36,0,.53Z"/>
  <path class="cls-2" d="m14.91,6.39c1.67.03,3.01,1.41,2.97,3.07-.04,1.67-1.41,3-3.08,2.97-1.68-.03-3-1.42-2.96-3.13.04-1.65,1.4-2.94,3.06-2.91Zm1.8,1.86c-.32-.1.14-.23-.05-.36-.19.1-.38.09-.6-.02-.55-.27-1.11,0-1.23.59-.07.34-.22.32-.46.27-.5-.11-.87-.45-1.28-.78-.15.32-.12.59.06.85.04.06.2.15.04.21-.35.13-.09.3-.02.42.06.11.28.22.26.26-.25.53.29.5.51.71-.27.27-.62.26-.99.34.1.06.16.11.23.14,1.51.6,3.12-.34,3.31-1.95.03-.26.1-.46.27-.64.03-.03.07-.06.01-.1,0,0-.04.03-.06.04Z"/>
  <path class="cls-2" d="m26.81,29.91c0-1.68,1.32-3,3.01-3.01,1.68,0,3.02,1.32,3.03,3,0,1.66-1.36,3.03-3.02,3.03-1.66,0-3.02-1.36-3.02-3.02Zm1.09-.03c0,.29,0,.58,0,.87.02.62.41,1.04,1.02,1.07.61.02,1.23.02,1.84-.02.61-.04.98-.43,1-1.03.02-.58.02-1.16,0-1.74-.02-.62-.43-1.02-1.05-1.04-.31-.01-.61.01-.92,0-1.63-.09-1.98.25-1.89,1.9Z"/>
  <path class="cls-4" d="m25.91,9.37c.51.04,1.03.07,1.54.12.36.04.52.25.57.61.07.55.03,1.1-.03,1.64-.04.36-.26.56-.6.58-1,.06-2,.09-3-.07-.32-.05-.47-.25-.52-.55-.09-.6-.05-1.19.05-1.79.05-.31.28-.47.58-.48.47-.01.94,0,1.41,0,0-.02,0-.04,0-.06Zm-.5,2.27c.45-.26.86-.49,1.32-.75-.48-.28-.87-.52-1.32-.78v1.54Z"/>
  <path class="cls-4" d="m32.15,20.93c0-.18-.02-.36,0-.53.04-.33-.03-.54-.43-.48-.36.06-.33-.19-.33-.43,0-.24,0-.47.35-.42.36.06.42-.12.42-.44,0-1.01.45-1.36,1.44-1.24.26.03.27.17.27.36,0,.19,0,.36-.27.35-.36-.01-.57.13-.57.54,0,.33.08.48.43.44.13-.01.4-.07.33.19-.06.22.11.64-.32.63-.4-.01-.45.16-.43.49.02.35,0,.71,0,1.07,0,.47-.27.65-.74.5-.15-.05-.15-.15-.15-.26,0-.26,0-.52,0-.78Z"/>
  <path class="cls-4" d="m16.75,8.3c-.17.18-.24.38-.27.64-.19,1.61-1.8,2.54-3.31,1.95-.07-.03-.13-.08-.23-.14.37-.09.72-.07.99-.34-.22-.21-.76-.18-.51-.71.02-.03-.21-.15-.26-.26-.06-.12-.33-.29.02-.42.16-.06,0-.15-.04-.21-.18-.26-.21-.53-.06-.85.41.32.78.66,1.28.78.24.05.4.08.46-.27.12-.6.68-.86,1.23-.59.23.11.42.12.6.02.19.12-.27.26.05.36.02.02.03.03.05.05Z"/>
  <path class="cls-5" d="m16.7,8.25s.05-.05.06-.04c.05.03.02.07-.01.1-.02-.02-.03-.03-.05-.05Z"/>
  <path class="cls-4" d="m27.9,29.88c-.09-1.66.26-1.99,1.89-1.9.31.02.61,0,.92,0,.62.03,1.03.42,1.05,1.04.02.58.02,1.16,0,1.74-.02.6-.39,1-1,1.03-.61.04-1.23.04-1.84.02-.61-.02-1-.45-1.02-1.07-.01-.29,0-.58,0-.87Zm3.51,0c0-.24,0-.49,0-.73-.01-.57-.25-.83-.83-.84-.52-.01-1.04-.01-1.55,0-.5.01-.76.26-.78.74-.02.58-.02,1.17,0,1.75.02.44.28.68.72.69.57.01,1.13.02,1.7,0,.46-.01.71-.27.73-.73.01-.29,0-.58,0-.87Z"/>
  <path class="cls-2" d="m25.41,11.64v-1.54c.45.27.85.5,1.32.78-.46.26-.87.5-1.32.75Z"/>
  <path class="cls-2" d="m31.41,29.87c0,.29,0,.58,0,.87-.02.46-.27.72-.73.73-.57.02-1.13.01-1.7,0-.44,0-.7-.25-.72-.69-.02-.58-.02-1.17,0-1.75.02-.48.28-.73.78-.74.52-.01,1.04-.01,1.55,0,.57.01.81.27.83.84,0,.24,0,.49,0,.73Zm-1.59-1.02c-.57,0-1.04.49-1.04,1.06,0,.56.5,1.05,1.07,1.04.57,0,1.05-.5,1.04-1.07,0-.57-.49-1.03-1.07-1.03Zm1.26,0c-.02-.12-.09-.2-.22-.2-.12,0-.21.07-.21.21,0,.12.08.22.21.21.12,0,.2-.09.21-.22Z"/>
  <path class="cls-4" d="m29.82,28.86c.58,0,1.06.46,1.07,1.03,0,.56-.47,1.06-1.04,1.07-.56,0-1.06-.48-1.07-1.04,0-.57.47-1.05,1.04-1.06Zm-.67,1.03c0,.38.32.74.7.71.38-.03.63-.25.66-.64.04-.4-.27-.71-.67-.72-.39,0-.68.28-.69.65Z"/>
  <path class="cls-3" d="m31.07,28.86c-.02.13-.09.21-.21.22-.13,0-.2-.09-.21-.21,0-.13.09-.2.21-.21.12,0,.2.08.22.2Z"/>
  <path class="cls-2" d="m29.14,29.89c0-.38.3-.66.69-.65.41,0,.71.32.67.72-.04.39-.28.61-.66.64-.38.03-.71-.33-.7-.71Z"/>
</svg>