<?xml version="1.0" encoding="UTF-8"?>
<svg id="Layer_1" data-name="Layer 1" xmlns="http://www.w3.org/2000/svg" viewBox="0 0 41.21 41.21">
  <defs>
    <style>
      .cls-1, .cls-2, .cls-3 {
        stroke-width: 0px;
      }

      .cls-2 {
        fill: #fff;
      }

      .cls-3 {
        fill: #711db0;
      }
    </style>
  </defs>
  <path class="cls-2" d="m0,41.21V0h41.21v41.21H0Zm20.57-.58c11.04-.05,20.04-8.87,20.04-20.05,0-11.03-8.83-20.04-20.05-20.04C9.33.54.52,9.58.52,20.58c0,11.19,9.02,20,20.05,20.04Z"/>
  <path class="cls-2" d="m20.57,40.62c-11.03-.05-20.04-8.86-20.05-20.04C.52,9.58,9.33.54,20.56.54c11.22,0,20.05,9.01,20.05,20.04,0,11.18-9,20-20.04,20.05Zm5.15-21.72c.2-.13.37-.23.53-.36.72-.57,1.08-1.34,1.01-2.25-.13-1.66-1.61-2.72-3.24-2.35-.31.07-.41-.01-.52-.28-.47-1.14-.94-2.27-1.44-3.39-.3-.67-.84-.93-1.61-.84-.53.06-.96.53-1.13,1.16-.05.2-.16.4-.29.56-.91,1.02-1.83,2.02-2.76,3.02-.18.2-.37.41-.12.65.25.24.47.06.65-.13.48-.49.96-.97,1.42-1.47.43-.47.85-.95,1.32-1.47,1.67,3.93,3.33,7.82,5,11.75-.18,0-.29,0-.41,0-.87-.02-1.74-.05-2.61-.07-.24,0-.46.1-.4.36.03.13.25.3.39.32.44.04.89-.03,1.32.03.89.12,1.85-.16,2.67.43.05.04.13.03.19.04,1.22.16,2.03-.87,1.56-2.02-.5-1.22-1.02-2.43-1.55-3.68Zm-10.37,5.78c.57-.08,1.09-.17,1.62-.23.56-.07,1.12-.09,1.67-.19.14-.02.24-.25.37-.38-.13-.1-.26-.2-.39-.29-.04-.02-.11,0-.16,0-.85.1-1.69.2-2.54.29-.26.03-.53.18-.69-.21-.74-1.79-1.5-3.57-2.26-5.35-.1-.24-.07-.38.14-.54.47-.33.93-.68,1.38-1.04.22-.18.61-.36.32-.72-.3-.36-.55-.02-.77.16-.99.82-2.04,1.54-3.27,1.98-.63.22-1.24.5-1.84.78-1.23.57-1.87,1.95-1.42,3.21.33.93.73,1.84,1.16,2.72.5,1.03,1.61,1.55,2.74,1.36.21-.04.32.02.4.22.18.45.37.88.56,1.33.57,1.34,1.14,2.67,1.7,4.01.43,1.02,1.23,1.33,1.93,1.31,1.41-.06,2.28-1.44,1.76-2.75-.25-.65-.54-1.28-.81-1.92-.52-1.23-1.04-2.45-1.58-3.74Zm.61-7.6c-.81.64-1.23,1.44-1.17,2.4.1,1.9,1.69,2.78,2.97,2.73,1.64-.07,3-1.71,2.66-3.33-.35-1.67-1.86-2.62-3.52-2.23-.18.04-.31.06-.42-.16-.67-1.25-1.36-2.48-2.03-3.73-.06-.11-.05-.31.01-.43.18-.34.42-.65.59-1,.08-.17.11-.44.03-.59-.44-.83-.91-1.63-1.39-2.44-.24-.4-.5-.4-.77-.02-.21.29-.4.6-.62.89-.08.11-.21.23-.33.25-.35.06-.72.08-1.08.09-.57.02-.71.27-.43.77.4.71.83,1.4,1.21,2.12.19.35.41.55.82.47.87-.17,1.38.18,1.74,1,.49,1.09,1.13,2.11,1.73,3.2Zm5.8,10.56c-.54-.13-.96-.25-1.38-.34-.22-.04-.49-.09-.55.23-.06.29.13.39.38.45.7.16,1.4.33,2.09.51.32.08.48-.03.56-.34.18-.71.36-1.42.53-2.13.05-.2.07-.45-.22-.52-.29-.06-.41.1-.46.36-.1.44-.22.87-.35,1.37-.34-.62-.65-1.19-.97-1.76-.32-.59-.64-1.17-.96-1.76-.12-.22-.34-.33-.53-.18-.1.08-.11.35-.08.51.04.19.17.36.27.53.54.98,1.08,1.96,1.67,3.05Zm6.89-14.85c.07-.04.2-.09.27-.19.6-.83,1.21-1.66,1.78-2.51.07-.1.02-.4-.07-.47-.1-.07-.41-.05-.48.04-.64.84-1.25,1.7-1.85,2.57-.17.24,0,.55.34.57Zm1.67,3.31c-.08.07-.31.19-.35.35-.05.23.16.35.41.38.96.13,1.92.28,2.88.43.25.04.48-.04.47-.28,0-.15-.21-.4-.35-.42-.97-.17-1.95-.3-3.07-.46Zm1.93-2.61c0-.36-.21-.52-.5-.4-.82.32-1.62.67-2.42,1.04-.11.05-.21.33-.16.45.04.11.32.22.43.18.82-.31,1.62-.66,2.43-1.02.11-.05.18-.2.22-.25Z"/>
  <path class="cls-1" d="m25.72,18.9c.53,1.25,1.05,2.46,1.55,3.68.47,1.14-.34,2.18-1.56,2.02-.07,0-.14,0-.19-.04-.82-.59-1.78-.31-2.67-.43-.43-.06-.88.02-1.32-.03-.15-.01-.36-.18-.39-.32-.06-.27.16-.37.4-.36.87.02,1.74.05,2.61.07.12,0,.23,0,.41,0-1.68-3.94-3.33-7.82-5-11.75-.47.52-.88,1.01-1.32,1.47-.46.5-.94.99-1.42,1.47-.18.19-.4.38-.65.13-.25-.24-.06-.45.12-.65.92-1,1.85-2.01,2.76-3.02.14-.15.24-.36.29-.56.16-.63.59-1.09,1.13-1.16.77-.09,1.31.17,1.61.84.5,1.12.98,2.25,1.44,3.39.11.27.22.35.52.28,1.63-.37,3.11.69,3.24,2.35.07.9-.29,1.67-1.01,2.25-.15.12-.33.22-.53.36Zm.25,5.01c.38,0,.66-.2.69-.58.02-.21-.04-.45-.12-.65-1.36-3.21-2.72-6.41-4.08-9.61-.35-.81-.69-1.62-1.04-2.43-.13-.29-.34-.53-.66-.48-.22.04-.51.18-.6.36-.1.2-.08.53,0,.75,1.01,2.44,2.05,4.87,3.08,7.3.67,1.58,1.34,3.17,2.01,4.75.14.33.33.58.72.58Zm-.56-5.74c.98-.42,1.37-1.56.93-2.52-.39-.86-1.68-1.37-2.37-.88.48,1.13.96,2.26,1.44,3.4Z"/>
  <path class="cls-1" d="m15.35,24.68c.55,1.29,1.06,2.51,1.58,3.74.27.64.56,1.27.81,1.92.52,1.32-.35,2.7-1.76,2.75-.7.03-1.5-.29-1.93-1.31-.57-1.34-1.14-2.68-1.7-4.01-.19-.44-.38-.88-.56-1.33-.08-.2-.19-.25-.4-.22-1.13.19-2.24-.33-2.74-1.36-.43-.89-.83-1.79-1.16-2.72-.45-1.26.19-2.64,1.42-3.21.61-.28,1.21-.56,1.84-.78,1.23-.43,2.28-1.16,3.27-1.98.22-.18.48-.53.77-.16.29.36-.1.54-.32.72-.45.36-.91.71-1.38,1.04-.22.15-.25.29-.14.54.76,1.78,1.52,3.56,2.26,5.35.16.4.44.24.69.21.85-.09,1.69-.19,2.54-.29.05,0,.12-.02.16,0,.14.09.26.19.39.29-.12.13-.23.36-.37.38-.55.1-1.11.12-1.67.19-.52.06-1.05.15-1.62.23Zm-3.17-6.35c-.93.39-1.8.76-2.67,1.13-.11.05-.22.09-.33.15-.86.42-1.33,1.35-1.03,2.23.33.96.73,1.89,1.18,2.8.35.7,1.2,1.11,1.93.87,1.15-.37,2.25-.86,3.41-1.31-.85-1.99-1.67-3.91-2.5-5.87Zm2.51,6.61c-.57.24-1.1.46-1.62.69-.72.31-.72.31-.43,1.01.69,1.64,1.39,3.29,2.09,4.93.3.7,1.02.99,1.69.72.64-.26.96-.97.68-1.63-.78-1.89-1.59-3.78-2.41-5.72Z"/>
  <path class="cls-3" d="m15.96,17.07c-.59-1.08-1.24-2.11-1.73-3.2-.37-.82-.87-1.17-1.74-1-.4.08-.63-.12-.82-.47-.38-.72-.81-1.41-1.21-2.12-.28-.5-.14-.75.43-.77.36-.01.72-.03,1.08-.09.12-.02.25-.14.33-.25.22-.29.41-.6.62-.89.28-.38.54-.38.77.02.48.8.95,1.61,1.39,2.44.08.15.05.42-.03.59-.16.35-.41.66-.59,1-.06.12-.07.32-.01.43.67,1.25,1.36,2.49,2.03,3.73.11.21.24.2.42.16,1.66-.4,3.17.56,3.52,2.23.34,1.61-1.01,3.26-2.66,3.33-1.28.05-2.86-.83-2.97-2.73-.05-.96.36-1.76,1.17-2.4Zm1.05.33c.12.43.31.7.81.72.57.03.99.49,1.08,1.02.1.57-.19,1.14-.71,1.4-.49.24-1.09.15-1.48-.23-.4-.39-.57-1.04-.25-1.5.32-.45.09-.71-.15-1.03-.83.56-1.05,1.78-.5,2.69.59.97,1.84,1.3,2.83.75.98-.55,1.36-1.76.87-2.77-.46-.94-1.62-1.44-2.5-1.05Zm-5.71-7.14c.22.39.42.74.63,1.1q.5.85,1.49.8c.11,0,.24-.04.32-.12.6-.6.65-1.04.22-1.77-.22-.38-.44-.77-.69-1.19-.12.15-.19.23-.24.32-.27.48-.59.85-1.23.75-.14-.02-.3.06-.51.11Zm6.49,8.57c.09.31.39.61.03.81-.41.24-.52-.23-.74-.47-.03.46.12.72.44.77.32.05.55-.1.65-.4.11-.32-.03-.55-.38-.71Z"/>
  <path class="cls-1" d="m21.76,27.64c-.6-1.08-1.13-2.07-1.67-3.05-.1-.18-.23-.35-.27-.53-.03-.16-.02-.43.08-.51.19-.15.4-.05.53.18.32.59.64,1.17.96,1.76.31.57.63,1.14.97,1.76.13-.5.25-.94.35-1.37.06-.26.18-.43.46-.36.3.07.27.31.22.52-.16.71-.35,1.42-.53,2.13-.07.3-.24.42-.56.34-.7-.18-1.39-.35-2.09-.51-.26-.06-.44-.17-.38-.45.06-.32.34-.27.55-.23.43.09.85.2,1.38.34Z"/>
  <path class="cls-1" d="m28.65,12.78c-.33-.01-.5-.33-.34-.57.6-.87,1.21-1.73,1.85-2.57.07-.09.37-.11.48-.04.09.07.14.36.07.47-.57.85-1.18,1.68-1.78,2.51-.07.1-.21.15-.27.19Z"/>
  <path class="cls-1" d="m30.33,16.09c1.12.16,2.1.29,3.07.46.15.03.35.28.35.42,0,.24-.22.32-.47.28-.96-.15-1.92-.3-2.88-.43-.25-.03-.46-.15-.41-.38.03-.16.27-.27.35-.35Z"/>
  <path class="cls-1" d="m32.26,13.48c-.04.05-.11.2-.22.25-.8.36-1.61.7-2.43,1.02-.11.04-.4-.08-.43-.18-.04-.12.05-.4.16-.45.79-.37,1.6-.72,2.42-1.04.3-.12.51.04.5.4Z"/>
  <path class="cls-2" d="m25.97,23.91c-.4,0-.59-.25-.72-.58-.67-1.59-1.34-3.17-2.01-4.75-1.03-2.43-2.07-4.86-3.08-7.3-.09-.22-.11-.55,0-.75.09-.18.38-.32.6-.36.33-.05.54.19.66.48.35.81.7,1.62,1.04,2.43,1.36,3.2,2.73,6.41,4.08,9.61.08.2.14.44.12.65-.04.38-.32.58-.69.58Z"/>
  <path class="cls-2" d="m25.41,18.17c-.48-1.13-.96-2.27-1.44-3.4.69-.49,1.98.02,2.37.88.44.96.05,2.1-.93,2.52Z"/>
  <path class="cls-2" d="m12.18,18.33c.83,1.96,1.65,3.88,2.5,5.87-1.16.45-2.27.94-3.41,1.31-.73.23-1.58-.17-1.93-.87-.45-.91-.85-1.84-1.18-2.8-.31-.88.17-1.81,1.03-2.23.11-.05.22-.1.33-.15.87-.37,1.74-.74,2.67-1.13Z"/>
  <path class="cls-2" d="m14.69,24.93c.82,1.94,1.63,3.83,2.41,5.72.27.66-.05,1.36-.68,1.63-.67.28-1.39-.01-1.69-.72-.71-1.64-1.4-3.29-2.09-4.93-.3-.7-.29-.7.43-1.01.52-.23,1.05-.45,1.62-.69Z"/>
  <path class="cls-2" d="m17.01,17.41c.87-.39,2.04.11,2.5,1.05.49,1.01.11,2.22-.87,2.77-.99.56-2.24.23-2.83-.75-.55-.91-.33-2.13.5-2.69.24.32.47.58.15,1.03-.32.46-.16,1.1.25,1.5.39.38.99.47,1.48.23.52-.26.81-.83.71-1.4-.09-.53-.51-.99-1.08-1.02-.5-.02-.69-.29-.81-.72Z"/>
  <path class="cls-2" d="m11.3,10.27c.21-.05.37-.13.51-.11.64.11.96-.27,1.23-.75.05-.09.13-.17.24-.32.24.42.46.8.69,1.19.42.73.37,1.17-.22,1.77-.07.07-.21.11-.32.12q-.99.06-1.49-.8c-.21-.35-.41-.71-.63-1.1Z"/>
  <path class="cls-2" d="m17.79,18.84c.35.17.49.39.38.71-.1.3-.33.45-.65.4-.32-.05-.47-.31-.44-.77.22.24.33.7.74.47.36-.21.06-.51-.03-.81Z"/>
</svg>